<svg width="808" height="117" viewBox="0 0 808 117" fill="none" xmlns="http://www.w3.org/2000/svg">
<path d="M807.32 9.66098C807.32 9.66098 803.593 -10.578 778.155 9.77799C778.155 9.77799 802.137 30.341 807.32 9.66098ZM801.472 9.77499C801.474 10.311 801.041 10.747 800.505 10.749C799.969 10.751 799.533 10.318 799.531 9.78299C799.529 9.24699 799.962 8.81099 800.497 8.80899C801.034 8.80599 801.47 9.23899 801.472 9.77499ZM784.462 9.81595C784.462 9.81595 786.101 3.72397 797.773 9.76297C797.773 9.76297 786.89 16.0129 784.462 9.81595Z" fill="url(#paint0_linear_105_1070)"/>
<path d="M776.272 12.5561C774.792 12.5621 773.587 11.367 773.581 9.88601C773.575 8.40601 774.77 7.20103 776.251 7.19503C777.731 7.18903 778.936 8.38401 778.942 9.86501C778.947 11.345 777.752 12.5501 776.272 12.5561Z" fill="url(#paint1_linear_105_1070)"/>
<path d="M755.68 12.638C754.2 12.644 752.995 11.449 752.989 9.96804C752.983 8.48804 754.178 7.283 755.659 7.277C757.139 7.271 758.344 8.46604 758.35 9.94704C758.355 11.427 757.16 12.632 755.68 12.638Z" fill="url(#paint2_linear_105_1070)"/>
<path d="M765.964 17.019C765.964 17.019 775.135 9.91701 775.054 9.88C775.134 9.842 765.907 2.81403 765.907 2.81403C764.839 5.13603 756.763 9.944 756.779 9.953C756.647 10.03 764.877 14.705 765.964 17.019Z" fill="url(#paint3_linear_105_1070)"/>
<path d="M526.792 9.84005C510.226 -3.41595 507.799 9.764 507.799 9.764C511.175 23.231 526.792 9.84005 526.792 9.84005ZM512.243 9.20901C512.592 9.21001 512.874 9.49404 512.872 9.84304C512.871 10.192 512.587 10.474 512.238 10.473C511.889 10.472 511.607 10.187 511.608 9.83803C511.609 9.48903 511.893 9.20701 512.243 9.20901ZM514.017 9.83004C521.618 5.89704 522.686 9.86501 522.686 9.86501C521.104 13.901 514.017 9.83004 514.017 9.83004Z" fill="url(#paint4_linear_105_1070)"/>
<path d="M528.019 11.649C528.983 11.653 529.768 10.875 529.772 9.91103C529.776 8.94703 528.998 8.16204 528.034 8.15804C527.07 8.15404 526.285 8.93199 526.281 9.89699C526.277 10.861 527.055 11.645 528.019 11.649Z" fill="url(#paint5_linear_105_1070)"/>
<path d="M755.668 9.01001H529.771V10.906H755.668V9.01001Z" fill="url(#paint6_linear_105_1070)"/>
<path d="M405.103 101.566C405.103 101.566 404.919 101.46 404.56 101.254C404.375 101.161 404.17 101.005 403.926 100.823C403.67 100.655 403.419 100.404 403.128 100.132C402.573 99.559 401.967 98.765 401.493 97.703C401.014 96.645 400.666 95.3371 400.501 93.8381C400.169 90.8351 400.573 87.0871 401.728 82.9501C402.316 80.884 403.08 78.707 404.114 76.518C404.634 75.424 405.21 74.332 405.9 73.276C406.607 72.178 407.331 71.052 408.074 69.899C411.045 65.304 414.347 60.31 418.459 55.466C420.519 53.054 422.786 50.689 425.328 48.523C426.605 47.4501 427.945 46.424 429.356 45.473C430.777 44.539 432.268 43.685 433.828 42.94C435.385 42.187 437.031 41.597 438.721 41.123C439.564 40.873 440.432 40.709 441.299 40.529C442.176 40.399 443.049 40.255 443.977 40.194C447.631 39.827 451.396 39.8321 455.057 40.5021C456.893 40.8091 458.677 41.357 460.364 42.078C462.063 42.783 463.608 43.789 464.89 45.004C466.168 46.222 467.143 47.703 467.593 49.308C468.069 50.911 467.892 52.6181 467.226 54.1531C467.117 54.4171 467.012 54.683 466.841 54.921C466.684 55.165 466.549 55.421 466.382 55.659C465.998 56.107 465.666 56.592 465.199 56.982C464.362 57.839 463.288 58.48 462.215 59.092C459.979 60.215 457.456 60.853 454.9 61.157C452.331 61.435 449.73 61.382 447.162 61.184C444.686 60.939 442.224 60.319 439.838 59.522C435.059 57.904 430.567 55.6441 426.322 53.299C422.078 50.9351 418.069 48.449 414.26 45.995C406.646 41.078 399.808 36.328 393.723 32.209C387.645 28.077 382.332 24.546 377.944 21.77C373.709 18.767 368.463 15.123 362.096 11.366C358.907 9.498 355.425 7.62002 351.6 5.89402C347.764 4.20502 343.573 2.63102 338.909 1.82902C336.583 1.43202 334.135 1.24002 331.62 1.44102C329.111 1.63902 326.534 2.25601 324.125 3.40501C323.514 3.67201 322.95 4.03806 322.357 4.35606C321.788 4.71106 321.238 5.10301 320.682 5.48801C320.159 5.92401 319.636 6.321 319.11 6.801C318.581 7.301 318.07 7.84604 317.637 8.47904C316.742 9.71104 316.158 11.2771 316.032 12.8561C315.895 14.4451 316.205 15.999 316.72 17.408C317.799 20.221 319.631 22.522 321.71 24.497C323.805 26.446 326.219 28.147 328.878 29.333C330.17 30.016 331.552 30.463 332.918 30.98C333.607 31.215 334.313 31.384 335.013 31.589L336.068 31.883C336.421 31.974 336.779 32.033 337.135 32.11C337.849 32.254 338.564 32.398 339.281 32.543C340.002 32.642 340.724 32.742 341.448 32.841L342.535 32.987L343.626 33.073C344.354 33.129 345.084 33.186 345.815 33.243C354.428 33.656 362.701 32.552 370.53 31.173C372.49 30.827 374.422 30.449 376.329 30.063C376.811 29.964 377.291 29.866 377.77 29.767C378.282 29.658 378.778 29.531 379.268 29.398C380.241 29.123 381.189 28.823 382.108 28.494C385.789 27.181 389.2 25.633 392.513 24.103C399.12 21.017 405.268 17.917 411.078 15.138C416.881 12.352 422.324 9.85502 427.381 7.80302C432.434 5.74302 437.105 4.13805 441.296 3.08305C445.485 2.03605 449.204 1.57102 452.234 1.72202C455.266 1.85902 457.558 2.63101 458.95 3.42301C459.308 3.60601 459.605 3.799 459.856 3.973C460.116 4.136 460.322 4.28905 460.479 4.42405C460.803 4.68305 460.968 4.81504 460.968 4.81504C460.968 4.81504 460.811 4.67201 460.506 4.39201C460.357 4.24601 460.161 4.07903 459.911 3.89902C459.669 3.70703 459.382 3.49301 459.032 3.28501C457.677 2.39401 455.38 1.45604 452.28 1.13804C449.185 0.806039 445.354 1.07503 441.038 1.92503C436.721 2.78303 431.907 4.189 426.713 6.051C421.515 7.906 415.931 10.21 410.008 12.808C404.083 15.398 397.826 18.321 391.214 21.217C387.908 22.649 384.504 24.1 381.005 25.272C380.131 25.567 379.253 25.825 378.376 26.058C377.938 26.169 377.501 26.273 377.067 26.357L375.663 26.621C373.766 26.974 371.853 27.318 369.921 27.634C362.208 28.894 354.152 29.89 346.01 29.496C345.322 29.443 344.636 29.39 343.952 29.337L342.926 29.258L341.914 29.122C341.24 29.032 340.567 28.942 339.896 28.852C339.236 28.721 338.577 28.591 337.919 28.46C337.591 28.391 337.259 28.34 336.936 28.258L335.977 27.994C335.341 27.811 334.693 27.6631 334.071 27.4551C332.847 26.9951 331.592 26.609 330.452 26.012C328.088 24.991 325.996 23.537 324.148 21.87C322.326 20.197 320.782 18.245 319.954 16.174C319.558 15.142 319.345 14.095 319.413 13.109C319.479 12.125 319.788 11.192 320.365 10.359C320.636 9.93605 320.988 9.54705 321.363 9.17405C321.758 8.79805 322.228 8.42401 322.652 8.04801C323.116 7.71601 323.572 7.37204 324.044 7.06004C324.538 6.78604 325.002 6.45804 325.513 6.22404C329.535 4.17104 334.178 3.92705 338.489 4.54105C342.831 5.14405 346.919 6.50404 350.703 8.00504C354.483 9.54204 357.981 11.246 361.208 12.953C367.656 16.388 373.059 19.755 377.437 22.521C381.661 25.521 386.778 29.301 392.667 33.69C398.566 38.068 405.22 43.081 412.737 48.277C416.498 50.871 420.483 53.502 424.761 56.026C429.047 58.53 433.619 60.968 438.71 62.793C441.257 63.691 443.949 64.426 446.806 64.747C449.575 65 452.414 65.093 455.305 64.806C458.188 64.487 461.131 63.794 463.909 62.414C465.268 61.661 466.63 60.842 467.787 59.687C468.402 59.16 468.901 58.4901 469.423 57.8511C469.663 57.5121 469.871 57.144 470.093 56.788C470.327 56.439 470.497 56.049 470.662 55.656C471.671 53.374 471.909 50.685 471.199 48.313C470.525 45.927 469.12 43.889 467.446 42.314C465.763 40.739 463.829 39.539 461.817 38.719C459.81 37.882 457.747 37.287 455.687 36.966C451.565 36.269 447.495 36.346 443.611 36.807C442.644 36.889 441.655 37.067 440.677 37.236C439.709 37.454 438.745 37.662 437.811 37.959C435.939 38.527 434.13 39.228 432.44 40.095C430.746 40.954 429.148 41.9271 427.643 42.9761C426.15 44.0421 424.75 45.177 423.43 46.355C420.805 48.728 418.522 51.273 416.479 53.837C412.406 58.983 409.262 64.1791 406.477 68.9161C405.786 70.1011 405.11 71.258 404.452 72.385C403.764 73.5471 403.206 74.737 402.719 75.899C401.749 78.23 401.075 80.505 400.577 82.658C399.606 86.966 399.399 90.836 399.92 93.919C400.179 95.458 400.62 96.792 401.181 97.855C401.738 98.923 402.414 99.702 403.016 100.249C403.332 100.509 403.602 100.745 403.872 100.899C404.131 101.068 404.346 101.21 404.539 101.291C404.912 101.472 405.103 101.566 405.103 101.566Z" fill="url(#paint7_linear_105_1070)"/>
<path d="M404.653 101.266C404.653 101.266 404.844 101.173 405.216 100.991C405.409 100.91 405.624 100.767 405.883 100.599C406.153 100.445 406.423 100.209 406.739 99.949C407.342 99.402 408.017 98.623 408.574 97.555C409.135 96.492 409.576 95.157 409.836 93.619C410.357 90.536 410.15 86.666 409.179 82.358C408.682 80.205 408.008 77.93 407.037 75.599C406.55 74.437 405.992 73.247 405.304 72.085C404.646 70.958 403.971 69.801 403.279 68.616C400.494 63.879 397.35 58.683 393.277 53.537C391.234 50.973 388.951 48.429 386.326 46.055C385.006 44.877 383.606 43.741 382.113 42.676C380.608 41.627 379.01 40.654 377.316 39.795C375.626 38.928 373.817 38.227 371.945 37.659C371.011 37.362 370.046 37.155 369.079 36.936C368.101 36.767 367.113 36.59 366.145 36.507C362.261 36.046 358.191 35.969 354.069 36.666C352.009 36.987 349.946 37.581 347.939 38.419C345.927 39.239 343.993 40.44 342.31 42.014C340.637 43.588 339.231 45.627 338.557 48.013C337.847 50.386 338.085 53.074 339.094 55.356C339.26 55.749 339.429 56.14 339.663 56.488C339.885 56.844 340.093 57.212 340.333 57.551C340.855 58.191 341.354 58.861 341.969 59.387C343.126 60.542 344.488 61.361 345.847 62.114C348.626 63.494 351.568 64.187 354.451 64.506C357.342 64.793 360.181 64.7 362.95 64.447C365.808 64.126 368.499 63.391 371.046 62.493C376.137 60.668 380.709 58.23 384.995 55.726C389.273 53.202 393.258 50.571 397.019 47.977C404.536 42.781 411.19 37.768 417.089 33.39C422.979 29.001 428.096 25.221 432.319 22.221C436.697 19.456 442.1 16.089 448.548 12.653C451.775 10.945 455.273 9.242 459.053 7.705C462.837 6.204 466.925 4.84401 471.267 4.24101C475.577 3.62701 480.221 3.871 484.243 5.924C484.754 6.158 485.218 6.48599 485.712 6.75999C486.184 7.07199 486.639 7.41597 487.104 7.74797C487.528 8.12397 487.998 8.49801 488.393 8.87401C488.768 9.24701 489.12 9.63601 489.391 10.059C489.968 10.892 490.277 11.825 490.343 12.809C490.411 13.795 490.197 14.842 489.802 15.874C488.974 17.945 487.43 19.897 485.609 21.57C483.76 23.237 481.669 24.692 479.305 25.712C478.166 26.31 476.911 26.695 475.686 27.155C475.064 27.363 474.415 27.511 473.78 27.694L472.821 27.958C472.499 28.04 472.166 28.091 471.839 28.16C471.182 28.29 470.523 28.421 469.862 28.552C469.191 28.642 468.518 28.732 467.844 28.822L466.832 28.958L465.806 29.037C465.121 29.09 464.435 29.143 463.748 29.196C455.607 29.59 447.551 28.594 439.837 27.334C437.905 27.019 435.992 26.674 434.095 26.321L432.691 26.057C432.258 25.973 431.821 25.869 431.382 25.758C430.505 25.526 429.626 25.267 428.753 24.972C425.255 23.799 421.851 22.349 418.544 20.917C411.931 18.021 405.675 15.098 399.75 12.508C393.827 9.90998 388.244 7.60496 383.045 5.75096C377.852 3.88796 373.037 2.48298 368.72 1.62498C364.405 0.774984 360.574 0.504997 357.478 0.837997C354.378 1.156 352.081 2.09397 350.726 2.98497C350.376 3.19297 350.089 3.40698 349.847 3.59898C349.597 3.77998 349.4 3.94596 349.252 4.09196C348.946 4.37196 348.79 4.515 348.79 4.515C348.79 4.515 348.956 4.38301 349.279 4.12401C349.436 3.98901 349.642 3.83596 349.902 3.67296C350.153 3.49896 350.45 3.30597 350.808 3.12297C352.199 2.33097 354.492 1.55798 357.524 1.42198C360.554 1.27098 364.273 1.736 368.462 2.783C372.653 3.838 377.324 5.44298 382.377 7.50297C387.434 9.55498 392.877 12.053 398.68 14.838C404.489 17.617 410.638 20.716 417.245 23.803C420.558 25.333 423.969 26.881 427.65 28.194C428.569 28.523 429.518 28.823 430.49 29.098C430.98 29.231 431.476 29.358 431.988 29.467C432.467 29.565 432.947 29.664 433.429 29.763C435.335 30.149 437.268 30.526 439.228 30.873C447.057 32.252 455.33 33.356 463.943 32.943C464.674 32.886 465.404 32.83 466.132 32.773L467.223 32.687L468.31 32.541C469.034 32.441 469.756 32.342 470.477 32.243C471.194 32.099 471.909 31.954 472.623 31.81C472.979 31.733 473.337 31.674 473.69 31.583L474.745 31.289C475.445 31.084 476.151 30.915 476.84 30.68C478.206 30.163 479.587 29.716 480.88 29.033C483.54 27.846 485.953 26.145 488.048 24.197C490.126 22.222 491.959 19.921 493.038 17.108C493.553 15.699 493.862 14.145 493.726 12.556C493.601 10.977 493.017 9.411 492.122 8.179C491.69 7.546 491.178 7.00096 490.649 6.50096C490.123 6.02096 489.6 5.62397 489.077 5.18797C488.52 4.80297 487.97 4.41101 487.402 4.05601C486.809 3.73801 486.246 3.37196 485.634 3.10496C483.225 1.95596 480.648 1.33998 478.139 1.14098C475.625 0.939976 473.176 1.13198 470.85 1.52898C466.186 2.33098 461.995 3.90498 458.159 5.59398C454.334 7.31998 450.852 9.19696 447.663 11.066C441.295 14.822 436.05 18.467 431.815 21.47C427.427 24.246 422.114 27.777 416.036 31.909C409.951 36.029 403.113 40.778 395.499 45.695C391.69 48.149 387.681 50.635 383.437 52.999C379.192 55.344 374.7 57.603 369.921 59.222C367.535 60.019 365.073 60.639 362.597 60.884C360.028 61.082 357.428 61.135 354.859 60.857C352.303 60.553 349.78 59.915 347.544 58.792C346.471 58.18 345.397 57.538 344.56 56.682C344.092 56.293 343.761 55.808 343.377 55.359C343.21 55.12 343.075 54.865 342.918 54.621C342.747 54.382 342.642 54.116 342.533 53.853C341.867 52.317 341.691 50.611 342.166 49.008C342.616 47.403 343.591 45.921 344.868 44.704C346.151 43.489 347.695 42.484 349.395 41.778C351.082 41.057 352.866 40.509 354.702 40.202C358.363 39.532 362.128 39.527 365.782 39.894C366.71 39.955 367.584 40.099 368.46 40.229C369.328 40.409 370.195 40.573 371.038 40.823C372.728 41.297 374.374 41.887 375.931 42.64C377.491 43.385 378.982 44.239 380.403 45.173C381.814 46.125 383.154 47.15 384.431 48.223C386.973 50.389 389.24 52.754 391.3 55.166C395.411 60.01 398.713 65.003 401.684 69.599C402.427 70.753 403.152 71.879 403.858 72.976C404.549 74.031 405.125 75.124 405.645 76.218C406.679 78.407 407.443 80.585 408.031 82.65C409.186 86.788 409.591 90.536 409.258 93.538C409.093 95.037 408.745 96.345 408.266 97.403C407.791 98.465 407.186 99.259 406.631 99.832C406.339 100.105 406.088 100.355 405.833 100.523C405.589 100.706 405.384 100.862 405.199 100.954C404.837 101.16 404.653 101.266 404.653 101.266Z" fill="url(#paint8_linear_105_1070)"/>
<path d="M405.127 100.325C393.542 114.162 404.704 116.474 404.704 116.474C416.22 113.857 405.127 100.325 405.127 100.325ZM404.316 112.685C404.324 112.388 404.571 112.154 404.867 112.162C405.164 112.17 405.398 112.417 405.39 112.714C405.382 113.011 405.135 113.245 404.839 113.237C404.542 113.229 404.308 112.982 404.316 112.685ZM404.878 111.188C401.677 104.65 405.071 103.817 405.071 103.817C408.473 105.238 404.878 111.188 404.878 111.188Z" fill="url(#paint9_linear_105_1070)"/>
<path d="M406.689 99.316C406.71 98.496 406.063 97.814 405.244 97.793C404.424 97.772 403.742 98.419 403.721 99.238C403.7 100.058 404.347 100.74 405.166 100.761C405.986 100.782 406.667 100.135 406.689 99.316Z" fill="url(#paint10_linear_105_1070)"/>
<path d="M29.8447 9.77803C4.4067 -10.577 0.679688 9.66102 0.679688 9.66102C5.86269 30.341 29.8447 9.77803 29.8447 9.77803ZM7.50169 8.808C8.03769 8.81 8.47069 9.246 8.46869 9.782C8.46669 10.318 8.03069 10.751 7.49469 10.748C6.95869 10.746 6.52569 10.31 6.52769 9.774C6.52969 9.239 6.96569 8.806 7.50169 8.808ZM10.2267 9.76204C21.8987 3.72304 23.5377 9.81502 23.5377 9.81502C21.1097 16.013 10.2267 9.76204 10.2267 9.76204Z" fill="url(#paint11_linear_105_1070)"/>
<path d="M31.7276 12.5561C33.2076 12.5621 34.4126 11.367 34.4186 9.88601C34.4246 8.40601 33.2296 7.20103 31.7486 7.19503C30.2686 7.18903 29.0636 8.38401 29.0576 9.86501C29.0526 11.345 30.2476 12.5501 31.7276 12.5561Z" fill="url(#paint12_linear_105_1070)"/>
<path d="M52.3199 12.638C53.7999 12.644 55.0049 11.449 55.0109 9.96804C55.0169 8.48804 53.8219 7.283 52.3409 7.277C50.8609 7.271 49.6559 8.46604 49.6499 9.94704C49.6449 11.427 50.8399 12.632 52.3199 12.638Z" fill="url(#paint13_linear_105_1070)"/>
<path d="M42.0358 17.019C42.0358 17.019 32.8648 9.91701 32.9458 9.88C32.8658 9.842 42.0928 2.81403 42.0928 2.81403C43.1608 5.13603 51.2368 9.944 51.2208 9.953C51.3528 10.03 43.1228 14.705 42.0358 17.019Z" fill="url(#paint14_linear_105_1070)"/>
<path d="M300.2 9.764C300.2 9.764 297.773 -3.41595 281.207 9.84005C281.207 9.84005 296.825 23.231 300.2 9.764ZM296.392 9.83803C296.393 10.187 296.112 10.471 295.763 10.473C295.414 10.474 295.13 10.192 295.128 9.84304C295.126 9.49404 295.408 9.21001 295.757 9.20901C296.106 9.20701 296.391 9.48903 296.392 9.83803ZM285.315 9.86501C285.315 9.86501 286.383 5.89804 293.984 9.83004C293.984 9.83004 286.896 13.901 285.315 9.86501Z" fill="url(#paint15_linear_105_1070)"/>
<path d="M279.981 11.649C279.017 11.653 278.232 10.875 278.228 9.91103C278.224 8.94703 279.003 8.16204 279.967 8.15804C280.931 8.15404 281.716 8.93199 281.719 9.89699C281.723 10.861 280.945 11.645 279.981 11.649Z" fill="url(#paint16_linear_105_1070)"/>
<path d="M278.228 9.01001H52.3306V10.906H278.228V9.01001Z" fill="url(#paint17_linear_105_1070)"/>
<defs>
<linearGradient id="paint0_linear_105_1070" x1="778.155" y1="9.79158" x2="807.32" y2="9.79158" gradientUnits="userSpaceOnUse">
<stop stop-color="#9A7A5F"/>
<stop offset="0.077" stop-color="#C9A885"/>
<stop offset="0.1472" stop-color="#D4B895"/>
<stop offset="0.2662" stop-color="#E2CDAB"/>
<stop offset="0.3818" stop-color="#EBDAB8"/>
<stop offset="0.4892" stop-color="#EEDEBC"/>
<stop offset="0.5877" stop-color="#EBDAB8"/>
<stop offset="0.6903" stop-color="#E3CEAB"/>
<stop offset="0.7944" stop-color="#D5B997"/>
<stop offset="0.8616" stop-color="#C9A885"/>
<stop offset="1" stop-color="#9A7A5F"/>
</linearGradient>
<linearGradient id="paint1_linear_105_1070" x1="773.581" y1="9.87554" x2="778.941" y2="9.87554" gradientUnits="userSpaceOnUse">
<stop stop-color="#9A7A5F"/>
<stop offset="0.077" stop-color="#C9A885"/>
<stop offset="0.1472" stop-color="#D4B895"/>
<stop offset="0.2662" stop-color="#E2CDAB"/>
<stop offset="0.3818" stop-color="#EBDAB8"/>
<stop offset="0.4892" stop-color="#EEDEBC"/>
<stop offset="0.5877" stop-color="#EBDAB8"/>
<stop offset="0.6903" stop-color="#E3CEAB"/>
<stop offset="0.7944" stop-color="#D5B997"/>
<stop offset="0.8616" stop-color="#C9A885"/>
<stop offset="1" stop-color="#9A7A5F"/>
</linearGradient>
<linearGradient id="paint2_linear_105_1070" x1="752.988" y1="9.95781" x2="758.349" y2="9.95781" gradientUnits="userSpaceOnUse">
<stop stop-color="#9A7A5F"/>
<stop offset="0.077" stop-color="#C9A885"/>
<stop offset="0.1472" stop-color="#D4B895"/>
<stop offset="0.2662" stop-color="#E2CDAB"/>
<stop offset="0.3818" stop-color="#EBDAB8"/>
<stop offset="0.4892" stop-color="#EEDEBC"/>
<stop offset="0.5877" stop-color="#EBDAB8"/>
<stop offset="0.6903" stop-color="#E3CEAB"/>
<stop offset="0.7944" stop-color="#D5B997"/>
<stop offset="0.8616" stop-color="#C9A885"/>
<stop offset="1" stop-color="#9A7A5F"/>
</linearGradient>
<linearGradient id="paint3_linear_105_1070" x1="756.777" y1="9.9169" x2="775.054" y2="9.9169" gradientUnits="userSpaceOnUse">
<stop stop-color="#9A7A5F"/>
<stop offset="0.077" stop-color="#C9A885"/>
<stop offset="0.1472" stop-color="#D4B895"/>
<stop offset="0.2662" stop-color="#E2CDAB"/>
<stop offset="0.3818" stop-color="#EBDAB8"/>
<stop offset="0.4892" stop-color="#EEDEBC"/>
<stop offset="0.5877" stop-color="#EBDAB8"/>
<stop offset="0.6903" stop-color="#E3CEAB"/>
<stop offset="0.7944" stop-color="#D5B997"/>
<stop offset="0.8616" stop-color="#C9A885"/>
<stop offset="1" stop-color="#9A7A5F"/>
</linearGradient>
<linearGradient id="paint4_linear_105_1070" x1="507.8" y1="9.84912" x2="526.792" y2="9.84912" gradientUnits="userSpaceOnUse">
<stop stop-color="#9A7A5F"/>
<stop offset="0.077" stop-color="#C9A885"/>
<stop offset="0.1472" stop-color="#D4B895"/>
<stop offset="0.2662" stop-color="#E2CDAB"/>
<stop offset="0.3818" stop-color="#EBDAB8"/>
<stop offset="0.4892" stop-color="#EEDEBC"/>
<stop offset="0.5877" stop-color="#EBDAB8"/>
<stop offset="0.6903" stop-color="#E3CEAB"/>
<stop offset="0.7944" stop-color="#D5B997"/>
<stop offset="0.8616" stop-color="#C9A885"/>
<stop offset="1" stop-color="#9A7A5F"/>
</linearGradient>
<linearGradient id="paint5_linear_105_1070" x1="526.28" y1="9.90372" x2="529.771" y2="9.90372" gradientUnits="userSpaceOnUse">
<stop stop-color="#9A7A5F"/>
<stop offset="0.077" stop-color="#C9A885"/>
<stop offset="0.1472" stop-color="#D4B895"/>
<stop offset="0.2662" stop-color="#E2CDAB"/>
<stop offset="0.3818" stop-color="#EBDAB8"/>
<stop offset="0.4892" stop-color="#EEDEBC"/>
<stop offset="0.5877" stop-color="#EBDAB8"/>
<stop offset="0.6903" stop-color="#E3CEAB"/>
<stop offset="0.7944" stop-color="#D5B997"/>
<stop offset="0.8616" stop-color="#C9A885"/>
<stop offset="1" stop-color="#9A7A5F"/>
</linearGradient>
<linearGradient id="paint6_linear_105_1070" x1="529.771" y1="9.95791" x2="755.669" y2="9.95791" gradientUnits="userSpaceOnUse">
<stop stop-color="#9A7A5F"/>
<stop offset="0.077" stop-color="#C9A885"/>
<stop offset="0.1472" stop-color="#D4B895"/>
<stop offset="0.2662" stop-color="#E2CDAB"/>
<stop offset="0.3818" stop-color="#EBDAB8"/>
<stop offset="0.4892" stop-color="#EEDEBC"/>
<stop offset="0.5877" stop-color="#EBDAB8"/>
<stop offset="0.6903" stop-color="#E3CEAB"/>
<stop offset="0.7944" stop-color="#D5B997"/>
<stop offset="0.8616" stop-color="#C9A885"/>
<stop offset="1" stop-color="#9A7A5F"/>
</linearGradient>
<linearGradient id="paint7_linear_105_1070" x1="315.999" y1="51.2831" x2="471.608" y2="51.2831" gradientUnits="userSpaceOnUse">
<stop stop-color="#9A7A5F"/>
<stop offset="0.077" stop-color="#C9A885"/>
<stop offset="0.1472" stop-color="#D4B895"/>
<stop offset="0.2662" stop-color="#E2CDAB"/>
<stop offset="0.3818" stop-color="#EBDAB8"/>
<stop offset="0.4892" stop-color="#EEDEBC"/>
<stop offset="0.5877" stop-color="#EBDAB8"/>
<stop offset="0.6903" stop-color="#E3CEAB"/>
<stop offset="0.7944" stop-color="#D5B997"/>
<stop offset="0.8616" stop-color="#C9A885"/>
<stop offset="1" stop-color="#9A7A5F"/>
</linearGradient>
<linearGradient id="paint8_linear_105_1070" x1="338.149" y1="50.9831" x2="493.757" y2="50.9831" gradientUnits="userSpaceOnUse">
<stop stop-color="#9A7A5F"/>
<stop offset="0.077" stop-color="#C9A885"/>
<stop offset="0.1472" stop-color="#D4B895"/>
<stop offset="0.2662" stop-color="#E2CDAB"/>
<stop offset="0.3818" stop-color="#EBDAB8"/>
<stop offset="0.4892" stop-color="#EEDEBC"/>
<stop offset="0.5877" stop-color="#EBDAB8"/>
<stop offset="0.6903" stop-color="#E3CEAB"/>
<stop offset="0.7944" stop-color="#D5B997"/>
<stop offset="0.8616" stop-color="#C9A885"/>
<stop offset="1" stop-color="#9A7A5F"/>
</linearGradient>
<linearGradient id="paint9_linear_105_1070" x1="399.866" y1="108.399" x2="409.934" y2="108.399" gradientUnits="userSpaceOnUse">
<stop stop-color="#9A7A5F"/>
<stop offset="0.077" stop-color="#C9A885"/>
<stop offset="0.1472" stop-color="#D4B895"/>
<stop offset="0.2662" stop-color="#E2CDAB"/>
<stop offset="0.3818" stop-color="#EBDAB8"/>
<stop offset="0.4892" stop-color="#EEDEBC"/>
<stop offset="0.5877" stop-color="#EBDAB8"/>
<stop offset="0.6903" stop-color="#E3CEAB"/>
<stop offset="0.7944" stop-color="#D5B997"/>
<stop offset="0.8616" stop-color="#C9A885"/>
<stop offset="1" stop-color="#9A7A5F"/>
</linearGradient>
<linearGradient id="paint10_linear_105_1070" x1="403.72" y1="99.2768" x2="406.689" y2="99.2768" gradientUnits="userSpaceOnUse">
<stop stop-color="#9A7A5F"/>
<stop offset="0.077" stop-color="#C9A885"/>
<stop offset="0.1472" stop-color="#D4B895"/>
<stop offset="0.2662" stop-color="#E2CDAB"/>
<stop offset="0.3818" stop-color="#EBDAB8"/>
<stop offset="0.4892" stop-color="#EEDEBC"/>
<stop offset="0.5877" stop-color="#EBDAB8"/>
<stop offset="0.6903" stop-color="#E3CEAB"/>
<stop offset="0.7944" stop-color="#D5B997"/>
<stop offset="0.8616" stop-color="#C9A885"/>
<stop offset="1" stop-color="#9A7A5F"/>
</linearGradient>
<linearGradient id="paint11_linear_105_1070" x1="0.679688" y1="9.79163" x2="29.8446" y2="9.79163" gradientUnits="userSpaceOnUse">
<stop stop-color="#9A7A5F"/>
<stop offset="0.077" stop-color="#C9A885"/>
<stop offset="0.1472" stop-color="#D4B895"/>
<stop offset="0.2662" stop-color="#E2CDAB"/>
<stop offset="0.3818" stop-color="#EBDAB8"/>
<stop offset="0.4892" stop-color="#EEDEBC"/>
<stop offset="0.5877" stop-color="#EBDAB8"/>
<stop offset="0.6903" stop-color="#E3CEAB"/>
<stop offset="0.7944" stop-color="#D5B997"/>
<stop offset="0.8616" stop-color="#C9A885"/>
<stop offset="1" stop-color="#9A7A5F"/>
</linearGradient>
<linearGradient id="paint12_linear_105_1070" x1="29.0583" y1="9.87554" x2="34.4189" y2="9.87554" gradientUnits="userSpaceOnUse">
<stop stop-color="#9A7A5F"/>
<stop offset="0.077" stop-color="#C9A885"/>
<stop offset="0.1472" stop-color="#D4B895"/>
<stop offset="0.2662" stop-color="#E2CDAB"/>
<stop offset="0.3818" stop-color="#EBDAB8"/>
<stop offset="0.4892" stop-color="#EEDEBC"/>
<stop offset="0.5877" stop-color="#EBDAB8"/>
<stop offset="0.6903" stop-color="#E3CEAB"/>
<stop offset="0.7944" stop-color="#D5B997"/>
<stop offset="0.8616" stop-color="#C9A885"/>
<stop offset="1" stop-color="#9A7A5F"/>
</linearGradient>
<linearGradient id="paint13_linear_105_1070" x1="49.6508" y1="9.95781" x2="55.0114" y2="9.95781" gradientUnits="userSpaceOnUse">
<stop stop-color="#9A7A5F"/>
<stop offset="0.077" stop-color="#C9A885"/>
<stop offset="0.1472" stop-color="#D4B895"/>
<stop offset="0.2662" stop-color="#E2CDAB"/>
<stop offset="0.3818" stop-color="#EBDAB8"/>
<stop offset="0.4892" stop-color="#EEDEBC"/>
<stop offset="0.5877" stop-color="#EBDAB8"/>
<stop offset="0.6903" stop-color="#E3CEAB"/>
<stop offset="0.7944" stop-color="#D5B997"/>
<stop offset="0.8616" stop-color="#C9A885"/>
<stop offset="1" stop-color="#9A7A5F"/>
</linearGradient>
<linearGradient id="paint14_linear_105_1070" x1="32.9456" y1="9.9169" x2="51.2224" y2="9.9169" gradientUnits="userSpaceOnUse">
<stop stop-color="#9A7A5F"/>
<stop offset="0.077" stop-color="#C9A885"/>
<stop offset="0.1472" stop-color="#D4B895"/>
<stop offset="0.2662" stop-color="#E2CDAB"/>
<stop offset="0.3818" stop-color="#EBDAB8"/>
<stop offset="0.4892" stop-color="#EEDEBC"/>
<stop offset="0.5877" stop-color="#EBDAB8"/>
<stop offset="0.6903" stop-color="#E3CEAB"/>
<stop offset="0.7944" stop-color="#D5B997"/>
<stop offset="0.8616" stop-color="#C9A885"/>
<stop offset="1" stop-color="#9A7A5F"/>
</linearGradient>
<linearGradient id="paint15_linear_105_1070" x1="281.207" y1="9.84912" x2="300.2" y2="9.84912" gradientUnits="userSpaceOnUse">
<stop stop-color="#9A7A5F"/>
<stop offset="0.077" stop-color="#C9A885"/>
<stop offset="0.1472" stop-color="#D4B895"/>
<stop offset="0.2662" stop-color="#E2CDAB"/>
<stop offset="0.3818" stop-color="#EBDAB8"/>
<stop offset="0.4892" stop-color="#EEDEBC"/>
<stop offset="0.5877" stop-color="#EBDAB8"/>
<stop offset="0.6903" stop-color="#E3CEAB"/>
<stop offset="0.7944" stop-color="#D5B997"/>
<stop offset="0.8616" stop-color="#C9A885"/>
<stop offset="1" stop-color="#9A7A5F"/>
</linearGradient>
<linearGradient id="paint16_linear_105_1070" x1="278.228" y1="9.90372" x2="281.719" y2="9.90372" gradientUnits="userSpaceOnUse">
<stop stop-color="#9A7A5F"/>
<stop offset="0.077" stop-color="#C9A885"/>
<stop offset="0.1472" stop-color="#D4B895"/>
<stop offset="0.2662" stop-color="#E2CDAB"/>
<stop offset="0.3818" stop-color="#EBDAB8"/>
<stop offset="0.4892" stop-color="#EEDEBC"/>
<stop offset="0.5877" stop-color="#EBDAB8"/>
<stop offset="0.6903" stop-color="#E3CEAB"/>
<stop offset="0.7944" stop-color="#D5B997"/>
<stop offset="0.8616" stop-color="#C9A885"/>
<stop offset="1" stop-color="#9A7A5F"/>
</linearGradient>
<linearGradient id="paint17_linear_105_1070" x1="52.3308" y1="9.95791" x2="278.228" y2="9.95791" gradientUnits="userSpaceOnUse">
<stop stop-color="#9A7A5F"/>
<stop offset="0.077" stop-color="#C9A885"/>
<stop offset="0.1472" stop-color="#D4B895"/>
<stop offset="0.2662" stop-color="#E2CDAB"/>
<stop offset="0.3818" stop-color="#EBDAB8"/>
<stop offset="0.4892" stop-color="#EEDEBC"/>
<stop offset="0.5877" stop-color="#EBDAB8"/>
<stop offset="0.6903" stop-color="#E3CEAB"/>
<stop offset="0.7944" stop-color="#D5B997"/>
<stop offset="0.8616" stop-color="#C9A885"/>
<stop offset="1" stop-color="#9A7A5F"/>
</linearGradient>
</defs>
</svg>
