<svg width="612" height="578" viewBox="0 0 612 578" fill="none" xmlns="http://www.w3.org/2000/svg">
<path opacity="0.59" d="M408.193 289.25H203.441" stroke="#48453B" stroke-opacity="0.84" stroke-width="3" stroke-linecap="round"/>
<path opacity="0.21" d="M2 268.005L609.634 310.495" stroke="#48453B" stroke-opacity="0.84" stroke-width="3" stroke-linecap="round"/>
<path opacity="0.63" d="M297.333 288.057L314.301 290.442" stroke="#48453B" stroke-opacity="0.84" stroke-width="3" stroke-linecap="round"/>
<path opacity="0.32" d="M562.659 343.843L48.9747 234.656" stroke="#48453B" stroke-opacity="0.84" stroke-width="3" stroke-linecap="round"/>
<path opacity="0.13" d="M77.2906 223.721L534.343 354.779" stroke="#48453B" stroke-opacity="0.84" stroke-width="3" stroke-linecap="round"/>
<path opacity="0.7" d="M579.128 388.727L32.5059 189.773" stroke="#48453B" stroke-opacity="0.84" stroke-width="3" stroke-linecap="round"/>
<path opacity="0.75" d="M532.391 390.127L79.2428 188.372" stroke="#48453B" stroke-opacity="0.84" stroke-width="3" stroke-linecap="round"/>
<path opacity="0.93" d="M397.723 338.117L213.911 240.383" stroke="#48453B" stroke-opacity="0.84" stroke-width="3" stroke-linecap="round"/>
<path opacity="0.61" d="M328.703 303.55L282.931 274.949" stroke="#48453B" stroke-opacity="0.84" stroke-width="3" stroke-linecap="round"/>
<path opacity="0.95" d="M187.992 203.645L423.642 374.855" stroke="#48453B" stroke-opacity="0.84" stroke-width="3" stroke-linecap="round"/>
<path opacity="0.51" d="M498.434 450.874L113.2 127.625" stroke="#48453B" stroke-opacity="0.84" stroke-width="3" stroke-linecap="round"/>
<path opacity="0.64" d="M86.7357 77.6853L524.898 500.814" stroke="#48453B" stroke-opacity="0.84" stroke-width="3" stroke-linecap="round"/>
<path opacity="0.27" d="M219.257 193.115L392.377 385.385" stroke="#48453B" stroke-opacity="0.84" stroke-width="3" stroke-linecap="round"/>
<path opacity="0.45" d="M262.039 233.217L349.595 345.282" stroke="#48453B" stroke-opacity="0.84" stroke-width="3" stroke-linecap="round"/>
<path opacity="0.09" d="M153.714 63.7481L457.92 514.751" stroke="#48453B" stroke-opacity="0.84" stroke-width="3" stroke-linecap="round"/>
<path opacity="0.73" d="M410.121 469.909L201.513 108.59" stroke="#48453B" stroke-opacity="0.84" stroke-width="3" stroke-linecap="round"/>
<path opacity="0.15" d="M259.624 194.539L352.01 383.96" stroke="#48453B" stroke-opacity="0.84" stroke-width="3" stroke-linecap="round"/>
<path opacity="0.21" d="M245.643 140.314L365.991 438.185" stroke="#48453B" stroke-opacity="0.84" stroke-width="3" stroke-linecap="round"/>
<path opacity="0.43" d="M342.748 402.911L268.886 175.589" stroke="#48453B" stroke-opacity="0.84" stroke-width="3" stroke-linecap="round"/>
<path opacity="0.21" d="M314.522 324.163L297.112 254.337" stroke="#48453B" stroke-opacity="0.84" stroke-width="3" stroke-linecap="round"/>
<path opacity="0.22" d="M348.438 530.967L263.196 47.5324" stroke="#48453B" stroke-opacity="0.84" stroke-width="3" stroke-linecap="round"/>
<path opacity="0.58" d="M287.952 119.273L323.682 459.226" stroke="#48453B" stroke-opacity="0.84" stroke-width="3" stroke-linecap="round"/>
<path opacity="0.42" d="M308.583 368.447L303.051 210.053" stroke="#48453B" stroke-opacity="0.84" stroke-width="3" stroke-linecap="round"/>
<path opacity="0.54" d="M304.113 338.052L307.521 240.447" stroke="#48453B" stroke-opacity="0.84" stroke-width="3" stroke-linecap="round"/>
<path opacity="0.43" d="M313.697 214.273L297.937 364.227" stroke="#48453B" stroke-opacity="0.84" stroke-width="3" stroke-linecap="round"/>
<path opacity="0.51" d="M326.421 172.399L285.213 406.101" stroke="#48453B" stroke-opacity="0.84" stroke-width="3" stroke-linecap="round"/>
<path opacity="0.4" d="M305.713 289.665L305.921 288.834" stroke="#48453B" stroke-opacity="0.84" stroke-width="3" stroke-linecap="round"/>
<path opacity="0.52" d="M387.091 39.1136L224.543 539.386" stroke="#48453B" stroke-opacity="0.84" stroke-width="3" stroke-linecap="round"/>
<path opacity="0.24" d="M195.418 562.497L416.216 16.0023" stroke="#48453B" stroke-opacity="0.84" stroke-width="3" stroke-linecap="round"/>
<path opacity="0.16" d="M377.172 142.949L234.462 435.55" stroke="#48453B" stroke-opacity="0.84" stroke-width="3" stroke-linecap="round"/>
<path opacity="0.6" d="M308.173 285.169L303.461 293.33" stroke="#48453B" stroke-opacity="0.84" stroke-width="3" stroke-linecap="round"/>
<path opacity="0.8" d="M155.151 512.621L456.483 65.8788" stroke="#48453B" stroke-opacity="0.84" stroke-width="3" stroke-linecap="round"/>
<path opacity="0.61" d="M319.267 272.035L292.367 306.465" stroke="#48453B" stroke-opacity="0.84" stroke-width="3" stroke-linecap="round"/>
<path opacity="0.45" d="M427.632 153.96L184.002 424.539" stroke="#48453B" stroke-opacity="0.84" stroke-width="3" stroke-linecap="round"/>
<path opacity="0.55" d="M509.8 92.2657L101.834 486.234" stroke="#48453B" stroke-opacity="0.84" stroke-width="3" stroke-linecap="round"/>
<path opacity="0.92" d="M176.859 397.458L434.775 181.041" stroke="#48453B" stroke-opacity="0.84" stroke-width="3" stroke-linecap="round"/>
<path opacity="0.6" d="M417.751 207.925L193.883 370.574" stroke="#48453B" stroke-opacity="0.84" stroke-width="3" stroke-linecap="round"/>
<path opacity="0.67" d="M248.058 325.341L363.576 253.158" stroke="#48453B" stroke-opacity="0.84" stroke-width="3" stroke-linecap="round"/>
<path opacity="0.29" d="M94.0177 401.865L517.616 176.634" stroke="#48453B" stroke-opacity="0.84" stroke-width="3" stroke-linecap="round"/>
<path opacity="0.09" d="M87.8519 386.294L523.782 192.205" stroke="#48453B" stroke-opacity="0.84" stroke-width="3" stroke-linecap="round"/>
<path opacity="0.32" d="M201.162 327.341L410.472 251.158" stroke="#48453B" stroke-opacity="0.84" stroke-width="3" stroke-linecap="round"/>
<path opacity="0.16" d="M362.228 273.074L249.406 305.425" stroke="#48453B" stroke-opacity="0.84" stroke-width="3" stroke-linecap="round"/>
<path opacity="0.78" d="M253.024 300.471L358.61 278.028" stroke="#48453B" stroke-opacity="0.84" stroke-width="3" stroke-linecap="round"/>
<path opacity="0.09" d="M257.036 296.105L354.598 282.394" stroke="#48453B" stroke-opacity="0.84" stroke-width="3" stroke-linecap="round"/>
<path opacity="0.2" d="M207.109 296.152L404.525 282.347" stroke="#48453B" stroke-opacity="0.84" stroke-width="3" stroke-linecap="round"/>
<path opacity="0.79" d="M177.74 289.25L433.895 289.25" stroke="#48453B" stroke-opacity="0.84" stroke-width="3" stroke-linecap="round"/>
<path opacity="0.26" d="M165.232 279.419L446.402 299.08" stroke="#48453B" stroke-opacity="0.84" stroke-width="3" stroke-linecap="round"/>
<path opacity="0.33" d="M159.473 268.682L452.161 309.817" stroke="#48453B" stroke-opacity="0.84" stroke-width="3" stroke-linecap="round"/>
<path opacity="0.33" d="M545.481 340.192L66.1534 238.308" stroke="#48453B" stroke-opacity="0.84" stroke-width="3" stroke-linecap="round"/>
<path opacity="0.72" d="M136.584 240.723L475.05 337.776" stroke="#48453B" stroke-opacity="0.84" stroke-width="3" stroke-linecap="round"/>
<path opacity="0.8" d="M193.514 248.375L418.12 330.125" stroke="#48453B" stroke-opacity="0.84" stroke-width="3" stroke-linecap="round"/>
<path opacity="0.56" d="M587.959 414.867L23.6754 163.632" stroke="#48453B" stroke-opacity="0.84" stroke-width="3" stroke-linecap="round"/>
<path opacity="0.62" d="M121.627 191.314L490.007 387.185" stroke="#48453B" stroke-opacity="0.84" stroke-width="3" stroke-linecap="round"/>
<path opacity="0.37" d="M556.106 445.647L55.5283 132.852" stroke="#48453B" stroke-opacity="0.84" stroke-width="3" stroke-linecap="round"/>
<path opacity="0.86" d="M311.708 293.53L299.926 284.969" stroke="#48453B" stroke-opacity="0.84" stroke-width="3" stroke-linecap="round"/>
<path opacity="0.55" d="M185.062 187.925L426.572 390.575" stroke="#48453B" stroke-opacity="0.84" stroke-width="3" stroke-linecap="round"/>
<path opacity="0.17" d="M524.898 500.814L86.7356 77.6853" stroke="#48453B" stroke-opacity="0.84" stroke-width="3" stroke-linecap="round"/>
<path opacity="0.94" d="M257.951 236.089L353.683 342.41" stroke="#48453B" stroke-opacity="0.84" stroke-width="3" stroke-linecap="round"/>
<path opacity="0.45" d="M355.924 353.384L255.71 225.116" stroke="#48453B" stroke-opacity="0.84" stroke-width="3" stroke-linecap="round"/>
<path opacity="0.38" d="M166.649 82.9246L444.985 495.575" stroke="#48453B" stroke-opacity="0.84" stroke-width="3" stroke-linecap="round"/>
<path opacity="0.61" d="M454.884 547.441L156.75 31.0584" stroke="#48453B" stroke-opacity="0.84" stroke-width="3" stroke-linecap="round"/>
<path opacity="0.6" d="M367.408 415.53L244.226 162.969" stroke="#48453B" stroke-opacity="0.84" stroke-width="3" stroke-linecap="round"/>
<path opacity="0.66" d="M261.85 180.427L349.784 398.072" stroke="#48453B" stroke-opacity="0.84" stroke-width="3" stroke-linecap="round"/>
<path opacity="0.72" d="M335.732 381.319L275.902 197.18" stroke="#48453B" stroke-opacity="0.84" stroke-width="3" stroke-linecap="round"/>
<path opacity="0.68" d="M299.599 264.312L312.035 314.187" stroke="#48453B" stroke-opacity="0.84" stroke-width="3" stroke-linecap="round"/>
<path opacity="0.38" d="M282.535 157.212L329.099 421.287" stroke="#48453B" stroke-opacity="0.84" stroke-width="3" stroke-linecap="round"/>
<path opacity="0.13" d="M330.712 526.109L280.922 52.3902" stroke="#48453B" stroke-opacity="0.84" stroke-width="3" stroke-linecap="round"/>
<path opacity="0.78" d="M315.474 565.797L296.16 12.7023" stroke="#48453B" stroke-opacity="0.84" stroke-width="3" stroke-linecap="round"/>
<path opacity="0.12" d="M295.786 576.499L315.848 2.00002" stroke="#48453B" stroke-opacity="0.84" stroke-width="3" stroke-linecap="round"/>
<path opacity="0.42" d="M286.922 469.024L324.712 109.475" stroke="#48453B" stroke-opacity="0.84" stroke-width="3" stroke-linecap="round"/>
<path opacity="0.34" d="M351.488 30.2367L260.146 548.263" stroke="#48453B" stroke-opacity="0.84" stroke-width="3" stroke-linecap="round"/>
<path opacity="0.57" d="M350.481 110.114L261.153 468.386" stroke="#48453B" stroke-opacity="0.84" stroke-width="3" stroke-linecap="round"/>
<path opacity="0.84" d="M237.78 498.647L373.854 79.8523" stroke="#48453B" stroke-opacity="0.84" stroke-width="3" stroke-linecap="round"/>
<path opacity="0.59" d="M237.139 459.235L374.496 119.264" stroke="#48453B" stroke-opacity="0.84" stroke-width="3" stroke-linecap="round"/>
<path opacity="0.55" d="M170.993 565.68L440.641 12.8189" stroke="#48453B" stroke-opacity="0.84" stroke-width="3" stroke-linecap="round"/>
<path opacity="0.4" d="M351.008 210.976L260.626 367.523" stroke="#48453B" stroke-opacity="0.84" stroke-width="3" stroke-linecap="round"/>
<path opacity="0.89" d="M155.391 512.265L456.243 66.2339" stroke="#48453B" stroke-opacity="0.84" stroke-width="3" stroke-linecap="round"/>
<path opacity="0.18" d="M346.43 237.267L265.204 341.232" stroke="#48453B" stroke-opacity="0.84" stroke-width="3" stroke-linecap="round"/>
<path opacity="0.87" d="M312.409 281.928L299.225 296.571" stroke="#48453B" stroke-opacity="0.84" stroke-width="3" stroke-linecap="round"/>
<path opacity="0.81" d="M244.191 348.761L367.443 229.738" stroke="#48453B" stroke-opacity="0.84" stroke-width="3" stroke-linecap="round"/>
<path opacity="0.41" d="M517.137 111.931L94.4966 466.569" stroke="#48453B" stroke-opacity="0.84" stroke-width="3" stroke-linecap="round"/>
<path opacity="0.79" d="M186.259 376.114L425.375 202.386" stroke="#48453B" stroke-opacity="0.84" stroke-width="3" stroke-linecap="round"/>
<path opacity="0.31" d="M552.836 134.895L58.7976 443.605" stroke="#48453B" stroke-opacity="0.84" stroke-width="3" stroke-linecap="round"/>
<path opacity="0.36" d="M536.527 166.579L75.107 411.92" stroke="#48453B" stroke-opacity="0.84" stroke-width="3" stroke-linecap="round"/>
<path opacity="0.42" d="M331.253 277.925L280.381 300.574" stroke="#48453B" stroke-opacity="0.84" stroke-width="3" stroke-linecap="round"/>
<path opacity="0.91" d="M380.283 262.146L231.351 316.353" stroke="#48453B" stroke-opacity="0.84" stroke-width="3" stroke-linecap="round"/>
<path opacity="0.39" d="M539.285 222.304L72.3495 356.195" stroke="#48453B" stroke-opacity="0.84" stroke-width="3" stroke-linecap="round"/>
<path opacity="0.62" d="M553.442 236.615L58.1926 341.884" stroke="#48453B" stroke-opacity="0.84" stroke-width="3" stroke-linecap="round"/>
</svg>
