<svg width="373" height="297" viewBox="0 0 373 297" fill="none" xmlns="http://www.w3.org/2000/svg">
<circle cx="188.011" cy="273.557" r="8.94782" fill="#FFAC2F"/>
<circle cx="71.2188" cy="278.266" r="3.29657" fill="#FFAC2F"/>
<circle cx="3.29657" cy="3.29657" r="3.29657" transform="matrix(-1 0 0 1 304.078 274.97)" fill="#FFAC2F"/>
<circle cx="26.9506" cy="215.161" r="5.18032" fill="#FFAC2F"/>
<circle cx="5.18032" cy="5.18032" r="5.18032" transform="matrix(-1 0 0 1 350.23 209.98)" fill="#FFAC2F"/>
<circle cx="77.8118" cy="153.938" r="3.29657" fill="#FFAC2F"/>
<circle cx="3.29657" cy="3.29657" r="3.29657" transform="matrix(-1 0 0 1 297.485 150.642)" fill="#FFAC2F"/>
<circle cx="38.2531" cy="126.624" r="3.29657" fill="#FFAC2F"/>
<circle cx="3.29657" cy="3.29657" r="3.29657" transform="matrix(-1 0 0 1 337.044 123.328)" fill="#FFAC2F"/>
<circle cx="92.882" cy="55.0416" r="5.18032" fill="#FFAC2F"/>
<circle cx="5.18032" cy="5.18032" r="5.18032" transform="matrix(-1 0 0 1 284.299 49.8613)" fill="#FFAC2F"/>
<path d="M87.6691 97.0519C96.617 68.3247 113.57 51.8419 130.053 44.7778C146.536 37.7138 153.856 53.1741 137.589 59.8479C119.222 67.3829 91.9075 94.2263 85.7853 118.244C78.2503 81.0401 67.4188 75.3888 66.9478 63.1444C66.6378 55.0858 75.8957 56.0804 81.5469 66.9119C87.1981 77.7435 88.2512 89.4849 87.6691 97.0519Z" fill="url(#paint0_linear_105_980)"/>
<path fill-rule="evenodd" clip-rule="evenodd" d="M85.7014 117.747C81.3168 96.3029 75.8401 85.4266 71.9365 77.6743C69.1351 72.111 67.1438 68.1565 66.9478 63.0597C66.9214 62.3735 66.9644 61.7529 67.0686 61.1984C70.1537 60.8769 73.8437 62.7851 76.8037 69.4945C83.0409 83.6322 85.266 106.705 85.7014 117.747Z" fill="url(#paint1_linear_105_980)"/>
<path fill-rule="evenodd" clip-rule="evenodd" d="M146.72 50.2376C146.613 53.6185 143.844 57.4765 137.598 60.0391C119.52 67.4556 92.7735 93.5781 86.0989 117.3C90.754 84.9695 108.417 64.6635 124.481 54.8653C130.987 50.8972 139.495 49.7497 146.72 50.2376Z" fill="url(#paint2_linear_105_980)"/>
<path d="M66.8733 153.1C85.2399 117.308 65.4605 87.1682 54.158 75.8657C35.7914 109.302 48.9777 140.855 62.6349 154.512C68.2861 184.652 96.5424 219.973 110.671 235.985C90.8911 223.269 72.5246 196.897 59.8092 164.873C49.5849 139.123 15.5411 134.733 0.00012207 135.675C2.04085 137.402 8.47701 143.21 14.5992 160.164C21.7614 179.997 42.3845 192.187 56.5127 196.426C68.4412 200.004 74.7223 210.083 76.763 214.321C71.5827 208.199 56.0417 198.31 38.617 200.664C64.0477 258.59 123.386 260.473 145.049 258.59C115.851 240.694 72.5246 189.833 66.8733 153.1Z" fill="url(#paint3_radial_105_980)"/>
<path fill-rule="evenodd" clip-rule="evenodd" d="M67.1403 152.642C85.1948 117.208 65.9025 87.3436 54.5819 75.8657C51.6998 98.2576 53.0441 130.12 67.1403 152.642Z" fill="url(#paint4_linear_105_980)"/>
<path fill-rule="evenodd" clip-rule="evenodd" d="M58.9746 197.327C51.9349 190.435 46.759 180.811 41.2549 166.265C34.1389 147.458 15.3531 139.061 0.278866 135.709C0.190913 135.714 0.10353 135.719 0.0167236 135.724C2.05745 137.451 8.49361 143.259 14.6158 160.213C21.778 180.047 42.4011 192.237 56.5293 196.475C57.3724 196.728 58.1874 197.013 58.9746 197.327Z" fill="url(#paint5_linear_105_980)"/>
<path fill-rule="evenodd" clip-rule="evenodd" d="M144.242 258.375C105.947 251.633 63.2846 222.022 38.6571 201.064C64.0317 257.86 122.224 260.17 144.242 258.375Z" fill="url(#paint6_linear_105_980)"/>
<path d="M74.2605 254.173C101.104 273.481 151.965 265.475 172.216 258.411C172.216 258.411 161.855 282.019 131.715 291.848C95.8597 303.539 77.0433 291.377 78.4989 283.371C79.612 277.248 89.3305 273.481 117.116 278.19C135.011 281.224 156.204 272.068 161.384 265.946C119 276.307 83.6792 266.888 73.3186 258.882C53.5392 267.359 22.4573 258.882 10.6838 236.277C31.4051 229.684 56.8358 232.509 74.2605 254.173Z" fill="url(#paint7_linear_105_980)"/>
<path fill-rule="evenodd" clip-rule="evenodd" d="M73.2535 258.904C53.5277 267.32 22.6094 258.91 10.7709 236.468C25.7033 236.274 51.9417 240.521 73.2535 258.904Z" fill="url(#paint8_linear_105_980)"/>
<path d="M154.113 273.481C133.392 290.906 107.49 291.377 97.1295 290.435C86.7688 289.493 82.5304 285.725 83.9432 282.429C85.3559 279.132 91.4782 276.307 108.903 279.603C130.828 283.751 143.017 278.661 154.113 273.481Z" fill="url(#paint9_linear_105_980)"/>
<path d="M284.546 97.082C275.599 68.3548 258.645 51.8719 242.162 44.8079C225.679 37.7438 218.36 53.2041 234.627 59.8779C252.993 67.4129 280.308 94.2564 286.43 118.274C293.965 81.0701 304.797 75.4188 305.268 63.1744C305.578 55.1159 296.32 56.1104 290.669 66.942C285.017 77.7735 283.964 89.5149 284.546 97.082Z" fill="url(#paint10_linear_105_980)"/>
<path fill-rule="evenodd" clip-rule="evenodd" d="M286.514 117.777C290.899 96.3329 296.375 85.4566 300.279 77.7043C303.08 72.141 305.072 68.1866 305.268 63.0897C305.294 62.4035 305.251 61.7829 305.147 61.2284C302.062 60.907 298.372 62.8151 295.412 69.5245C289.175 83.6622 286.949 106.735 286.514 117.777Z" fill="url(#paint11_linear_105_980)"/>
<path fill-rule="evenodd" clip-rule="evenodd" d="M225.495 50.2677C225.603 53.6485 228.371 57.5065 234.618 60.0691C252.695 67.4856 279.442 93.6082 286.117 117.33C281.461 84.9995 263.799 64.6935 247.735 54.8954C241.229 50.9272 232.721 49.7797 225.495 50.2677Z" fill="url(#paint12_linear_105_980)"/>
<path d="M305.342 153.13C286.976 117.338 306.755 87.1983 318.058 75.8958C336.424 109.332 323.238 140.885 309.581 154.542C303.929 184.682 275.673 220.003 261.545 236.015C281.324 223.299 299.691 196.927 312.406 164.903C322.631 139.153 356.674 134.763 372.215 135.705C370.175 137.432 363.739 143.24 357.616 160.194C350.454 180.027 329.831 192.217 315.703 196.456C303.774 200.034 297.493 210.113 295.453 214.352C300.633 208.229 316.174 198.34 333.598 200.694C308.168 258.62 248.83 260.503 227.167 258.62C256.365 240.724 299.691 189.863 305.342 153.13Z" fill="url(#paint13_radial_105_980)"/>
<path fill-rule="evenodd" clip-rule="evenodd" d="M305.075 152.672C287.021 117.238 306.313 87.3737 317.634 75.8958C320.516 98.2876 319.171 130.15 305.075 152.672Z" fill="url(#paint14_linear_105_980)"/>
<path fill-rule="evenodd" clip-rule="evenodd" d="M313.241 197.357C320.281 190.465 325.457 180.841 330.961 166.295C338.077 147.488 356.862 139.091 371.937 135.739C372.025 135.744 372.112 135.749 372.199 135.754C370.158 137.481 363.722 143.289 357.6 160.243C350.438 180.077 329.814 192.267 315.686 196.505C314.843 196.758 314.028 197.043 313.241 197.357Z" fill="url(#paint15_linear_105_980)"/>
<path fill-rule="evenodd" clip-rule="evenodd" d="M227.973 258.405C266.269 251.663 308.931 222.052 333.558 201.094C308.184 257.89 249.992 260.2 227.973 258.405Z" fill="url(#paint16_linear_105_980)"/>
<path d="M297.955 254.203C271.112 273.511 220.25 265.505 200 258.441C200 258.441 210.361 282.049 240.501 291.878C276.356 303.569 295.172 291.407 293.717 283.401C292.604 277.279 282.885 273.511 255.1 278.22C237.204 281.254 216.012 272.098 210.832 265.976C253.216 276.337 288.536 266.918 298.897 258.912C318.676 267.389 349.758 258.912 361.532 236.307C340.81 229.714 315.38 232.539 297.955 254.203Z" fill="url(#paint17_linear_105_980)"/>
<path fill-rule="evenodd" clip-rule="evenodd" d="M298.962 258.934C318.688 267.35 349.606 258.94 361.445 236.498C346.512 236.304 320.274 240.551 298.962 258.934Z" fill="url(#paint18_linear_105_980)"/>
<path d="M218.103 273.511C238.824 290.936 264.725 291.407 275.086 290.465C285.447 289.523 289.685 285.755 288.272 282.459C286.86 279.162 280.737 276.337 263.313 279.633C241.388 283.781 229.198 278.691 218.103 273.511Z" fill="url(#paint19_linear_105_980)"/>
<path d="M186.738 50.132C175.942 45.3533 154.88 32.6733 163.376 24.6453C171.871 16.6174 182.491 37.4521 186.738 50.132Z" fill="url(#paint20_linear_105_980)"/>
<path d="M187.167 50.132C197.964 45.3533 219.025 32.6733 210.53 24.6453C202.034 16.6174 191.415 37.4521 187.167 50.132Z" fill="url(#paint21_linear_105_980)"/>
<path d="M186.891 50.1323C180.985 35.2656 169.943 3.76227 186.186 3.76227C202.429 3.76227 194.692 34.1581 186.891 50.1323Z" fill="url(#paint22_linear_105_980)"/>
<path fill-rule="evenodd" clip-rule="evenodd" d="M163.261 24.6343C163.257 24.638 163.253 24.6418 163.249 24.6456C154.753 32.6736 175.815 45.3535 186.612 50.1322C186.53 49.8871 186.445 49.6389 186.358 49.388L163.261 24.6343Z" fill="url(#paint23_linear_105_980)"/>
<path fill-rule="evenodd" clip-rule="evenodd" d="M187.212 50.1322L186.612 3.78638C202.693 3.93109 194.991 34.1899 187.212 50.1322Z" fill="url(#paint24_linear_105_980)"/>
<path fill-rule="evenodd" clip-rule="evenodd" d="M210.644 24.6343C210.648 24.638 210.652 24.6418 210.656 24.6456C219.152 32.6736 198.09 45.3535 187.294 50.1322C187.376 49.8871 187.46 49.6389 187.547 49.388L210.644 24.6343Z" fill="url(#paint25_linear_105_980)"/>
<circle cx="188.011" cy="153.526" r="94.4624" fill="url(#paint26_linear_105_980)"/>
<circle cx="188.011" cy="153.526" r="83.8947" fill="url(#paint27_linear_105_980)"/>
<circle cx="188.011" cy="153.526" r="73.8259" fill="black"/>
<defs>
<linearGradient id="paint0_linear_105_980" x1="96.7445" y1="30.2084" x2="88.2893" y2="118.244" gradientUnits="userSpaceOnUse">
<stop stop-color="#7B7B7B"/>
<stop offset="1" stop-color="#1A1A1A"/>
</linearGradient>
<linearGradient id="paint1_linear_105_980" x1="69.3769" y1="61.1646" x2="86.0892" y2="117.633" gradientUnits="userSpaceOnUse">
<stop stop-color="#252525"/>
<stop offset="1" stop-color="#404040"/>
</linearGradient>
<linearGradient id="paint2_linear_105_980" x1="135.635" y1="50.1321" x2="94.029" y2="114.078" gradientUnits="userSpaceOnUse">
<stop stop-color="#20201F"/>
<stop offset="1" stop-color="#454545"/>
</linearGradient>
<radialGradient id="paint3_radial_105_980" cx="0" cy="0" r="1" gradientUnits="userSpaceOnUse" gradientTransform="translate(145.049 259.018) rotate(-128.717) scale(212.462 168.26)">
<stop/>
<stop offset="1" stop-color="#676767"/>
</radialGradient>
<linearGradient id="paint4_linear_105_980" x1="63.9356" y1="75.8657" x2="63.9356" y2="152.642" gradientUnits="userSpaceOnUse">
<stop/>
<stop offset="1" stop-color="#505050"/>
</linearGradient>
<linearGradient id="paint5_linear_105_980" x1="10.292" y1="135.709" x2="49.3235" y2="191.785" gradientUnits="userSpaceOnUse">
<stop stop-color="#202020"/>
<stop offset="1" stop-color="#525252"/>
</linearGradient>
<linearGradient id="paint6_linear_105_980" x1="45.925" y1="207.424" x2="133.989" y2="258.757" gradientUnits="userSpaceOnUse">
<stop stop-color="#020202"/>
<stop offset="0.473958" stop-color="#3A3A3A"/>
<stop offset="1" stop-color="#131313"/>
</linearGradient>
<linearGradient id="paint7_linear_105_980" x1="32.9921" y1="210.457" x2="164.437" y2="276.681" gradientUnits="userSpaceOnUse">
<stop stop-color="#747474"/>
<stop offset="1" stop-color="#161616"/>
</linearGradient>
<linearGradient id="paint8_linear_105_980" x1="42.0122" y1="236.462" x2="42.0122" y2="262.106" gradientUnits="userSpaceOnUse">
<stop stop-color="#1E1E1E"/>
<stop offset="1" stop-color="#232323"/>
</linearGradient>
<linearGradient id="paint9_linear_105_980" x1="105.691" y1="273.481" x2="125.393" y2="306.235" gradientUnits="userSpaceOnUse">
<stop stop-color="#343434"/>
<stop offset="1"/>
</linearGradient>
<linearGradient id="paint10_linear_105_980" x1="275.471" y1="30.2384" x2="283.926" y2="118.274" gradientUnits="userSpaceOnUse">
<stop stop-color="#7B7B7B"/>
<stop offset="1" stop-color="#1A1A1A"/>
</linearGradient>
<linearGradient id="paint11_linear_105_980" x1="302.839" y1="61.1946" x2="286.126" y2="117.663" gradientUnits="userSpaceOnUse">
<stop stop-color="#252525"/>
<stop offset="1" stop-color="#404040"/>
</linearGradient>
<linearGradient id="paint12_linear_105_980" x1="236.581" y1="50.1621" x2="278.186" y2="114.108" gradientUnits="userSpaceOnUse">
<stop stop-color="#20201F"/>
<stop offset="1" stop-color="#454545"/>
</linearGradient>
<radialGradient id="paint13_radial_105_980" cx="0" cy="0" r="1" gradientUnits="userSpaceOnUse" gradientTransform="translate(227.167 259.049) rotate(-51.283) scale(212.462 168.26)">
<stop/>
<stop offset="1" stop-color="#676767"/>
</radialGradient>
<linearGradient id="paint14_linear_105_980" x1="308.28" y1="75.8958" x2="308.28" y2="152.672" gradientUnits="userSpaceOnUse">
<stop/>
<stop offset="1" stop-color="#505050"/>
</linearGradient>
<linearGradient id="paint15_linear_105_980" x1="361.924" y1="135.739" x2="322.892" y2="191.815" gradientUnits="userSpaceOnUse">
<stop stop-color="#202020"/>
<stop offset="1" stop-color="#525252"/>
</linearGradient>
<linearGradient id="paint16_linear_105_980" x1="326.291" y1="207.455" x2="238.227" y2="258.787" gradientUnits="userSpaceOnUse">
<stop stop-color="#020202"/>
<stop offset="0.473958" stop-color="#3A3A3A"/>
<stop offset="1" stop-color="#131313"/>
</linearGradient>
<linearGradient id="paint17_linear_105_980" x1="339.223" y1="210.487" x2="207.779" y2="276.711" gradientUnits="userSpaceOnUse">
<stop stop-color="#747474"/>
<stop offset="1" stop-color="#161616"/>
</linearGradient>
<linearGradient id="paint18_linear_105_980" x1="330.203" y1="236.492" x2="330.203" y2="262.136" gradientUnits="userSpaceOnUse">
<stop stop-color="#1E1E1E"/>
<stop offset="1" stop-color="#232323"/>
</linearGradient>
<linearGradient id="paint19_linear_105_980" x1="266.525" y1="273.511" x2="246.822" y2="306.265" gradientUnits="userSpaceOnUse">
<stop stop-color="#343434"/>
<stop offset="1"/>
</linearGradient>
<linearGradient id="paint20_linear_105_980" x1="174.071" y1="22.8547" x2="174.071" y2="50.132" gradientUnits="userSpaceOnUse">
<stop offset="0.0286231" stop-color="#515151"/>
<stop offset="1"/>
</linearGradient>
<linearGradient id="paint21_linear_105_980" x1="199.834" y1="22.8547" x2="199.834" y2="50.132" gradientUnits="userSpaceOnUse">
<stop offset="0.0286231" stop-color="#515151"/>
<stop offset="1"/>
</linearGradient>
<linearGradient id="paint22_linear_105_980" x1="186.612" y1="3.74808" x2="186.612" y2="48.9587" gradientUnits="userSpaceOnUse">
<stop stop-color="#464646"/>
<stop offset="1" stop-color="#0B0B0B"/>
</linearGradient>
<linearGradient id="paint23_linear_105_980" x1="162.916" y1="26.0581" x2="183.573" y2="50.1321" gradientUnits="userSpaceOnUse">
<stop stop-color="#3E3E3E"/>
<stop offset="1" stop-color="#232323"/>
</linearGradient>
<linearGradient id="paint24_linear_105_980" x1="191.33" y1="3.78638" x2="191.33" y2="50.1324" gradientUnits="userSpaceOnUse">
<stop stop-color="#1C1C1C"/>
<stop offset="1" stop-color="#212121"/>
</linearGradient>
<linearGradient id="paint25_linear_105_980" x1="209.393" y1="28.6975" x2="191.95" y2="50.1321" gradientUnits="userSpaceOnUse">
<stop stop-color="#494949"/>
<stop offset="1" stop-color="#161616"/>
</linearGradient>
<linearGradient id="paint26_linear_105_980" x1="188.011" y1="59.0637" x2="188.011" y2="247.989" gradientUnits="userSpaceOnUse">
<stop stop-color="#373737"/>
<stop offset="1" stop-color="#151515"/>
</linearGradient>
<linearGradient id="paint27_linear_105_980" x1="188.011" y1="69.6316" x2="188.011" y2="237.421" gradientUnits="userSpaceOnUse">
<stop stop-color="#111111"/>
<stop offset="1" stop-color="#2C2C2C"/>
</linearGradient>
</defs>
</svg>
