<svg width="798" height="55" viewBox="0 0 798 55" fill="none" xmlns="http://www.w3.org/2000/svg">
<path d="M594.863 15.168C594.863 15.168 594.597 14.905 594.09 14.404C593.577 13.908 592.847 13.135 591.776 12.289C589.7 10.527 586.42 8.206 581.905 6.198C581.34 5.951 580.765 5.68599 580.168 5.43899C579.563 5.21199 578.945 4.97999 578.314 4.74399C577.997 4.62699 577.677 4.50999 577.354 4.39099C577.026 4.28799 576.696 4.18401 576.362 4.07901C575.693 3.87201 575.013 3.65 574.315 3.449C571.514 2.68 568.473 2.03499 565.242 1.56799C562.009 1.13399 558.594 0.862993 555.051 0.787993C551.509 0.720993 547.846 0.870987 544.115 1.20099C533.966 2.12399 524.677 4.35301 516.987 6.87601C513.139 8.14001 509.685 9.484 506.693 10.793C503.697 12.098 501.179 13.394 499.156 14.45C494.842 15.981 488.616 18.368 481.147 21.2C477.405 22.588 473.359 24.112 469.045 25.56C464.731 27.008 460.162 28.423 455.393 29.647C448.371 31.417 441.573 32.555 435.32 33.03C429.203 33.619 423.638 32.544 418.992 31.444C416.668 30.886 414.573 30.292 412.728 29.764C410.884 29.237 409.29 28.774 407.979 28.421C406.67 28.065 405.643 27.816 404.945 27.666C404.246 27.52 403.879 27.444 403.879 27.444C403.879 27.444 404.228 27.58 404.893 27.839C405.556 28.098 406.525 28.501 407.764 29.041C409.005 29.583 410.522 30.245 412.284 31.015C414.053 31.777 416.085 32.627 418.389 33.453C420.693 34.278 423.27 35.092 426.133 35.697C426.85 35.845 427.578 36.003 428.333 36.104C429.084 36.222 429.849 36.343 430.636 36.402C431.029 36.439 431.425 36.476 431.824 36.514C432.224 36.543 432.63 36.546 433.037 36.562C433.445 36.574 433.856 36.586 434.27 36.598C434.671 36.588 435.075 36.577 435.482 36.566C441.991 36.475 449.151 35.549 456.425 33.713C461.363 32.446 466.03 30.871 470.365 29.201C474.703 27.53 478.692 25.726 482.342 24.03C489.616 20.586 495.499 17.483 499.562 15.384C501.719 14.608 504.338 13.654 507.405 12.703C510.47 11.746 513.973 10.764 517.829 9.83099C525.54 7.96699 534.672 6.272 544.491 5.38C548.102 5.061 551.633 4.85198 555.043 4.80398C558.452 4.76398 561.737 4.86399 564.858 5.08899C567.974 5.34499 570.919 5.741 573.656 6.242C574.338 6.376 575.002 6.531 575.659 6.668C575.987 6.738 576.313 6.80801 576.635 6.87701C576.953 6.96001 577.268 7.043 577.58 7.125C578.205 7.29 578.817 7.45198 579.417 7.60998C580.01 7.78598 580.584 7.98099 581.149 8.15799C585.667 9.60499 589.12 11.406 591.393 12.826C592.561 13.5 593.388 14.14 593.973 14.547C594.557 14.952 594.863 15.168 594.863 15.168Z" fill="url(#paint0_linear_105_1130)"/>
<path d="M593.721 12.568C593.721 12.568 593.383 12.414 592.739 12.121C592.091 11.836 591.145 11.385 589.898 10.868C587.387 9.89398 583.686 8.54396 578.894 7.60596C574.114 6.65996 568.25 6.18699 561.776 6.62699C558.55 6.89699 555.167 7.31896 551.721 8.02896C548.278 8.74096 544.752 9.64396 541.216 10.766C536.405 12.284 531.872 14.051 527.647 15.846C523.421 17.643 519.498 19.468 515.904 21.177C508.724 24.614 502.827 27.538 498.728 29.474C496.57 30.164 493.913 30.98 490.849 31.886C487.768 32.778 484.315 33.685 480.438 34.68C476.59 35.688 472.443 36.82 468.057 37.902C463.672 38.982 459.044 40.011 454.243 40.725C447.189 41.786 440.4 41.952 434.431 40.823C434.059 40.751 433.689 40.679 433.321 40.608C432.957 40.521 432.596 40.435 432.237 40.35C431.513 40.195 430.823 39.965 430.128 39.776C429.452 39.557 428.756 39.33 428.13 39.1C427.516 38.876 426.921 38.585 426.336 38.288C424.004 37.052 421.936 35.453 420.006 34.036C418.079 32.604 416.275 31.314 414.574 30.352C412.88 29.379 411.29 28.749 409.952 28.428C408.614 28.096 407.543 28.058 406.832 28.087C406.476 28.084 406.206 28.132 406.025 28.143C405.845 28.161 405.752 28.17 405.752 28.17C405.752 28.17 405.845 28.177 406.026 28.19C406.207 28.209 406.476 28.207 406.823 28.267C407.518 28.351 408.538 28.552 409.752 29.051C410.969 29.54 412.365 30.333 413.848 31.46C415.339 32.578 416.913 34.017 418.67 35.649C420.439 37.266 422.367 39.118 424.891 40.761C425.53 41.161 426.195 41.559 426.925 41.897C427.641 42.229 428.334 42.516 429.066 42.815C429.802 43.078 430.542 43.381 431.315 43.605C431.7 43.724 432.088 43.844 432.478 43.965C432.873 44.068 433.27 44.172 433.67 44.277C434.469 44.497 435.291 44.643 436.119 44.822C436.952 44.957 437.794 45.123 438.651 45.216C440.362 45.451 442.119 45.561 443.904 45.61C447.476 45.694 451.154 45.417 454.858 44.872C459.894 44.122 464.646 42.935 469.066 41.638C473.487 40.338 477.583 38.927 481.336 37.614C483.209 36.959 485.001 36.331 486.719 35.69C487.147 35.532 487.568 35.376 487.985 35.222C488.397 35.058 488.803 34.897 489.203 34.738C490.001 34.417 490.776 34.105 491.526 33.804C494.504 32.551 497.049 31.399 499.101 30.417C503.438 29.054 509.69 26.841 517.111 23.997C524.545 21.188 533.142 17.724 542.481 14.762C545.916 13.672 549.296 12.742 552.581 11.947C555.868 11.155 559.072 10.597 562.14 10.145C568.283 9.34396 573.9 9.27597 578.606 9.68097C583.316 10.077 587.092 10.897 589.7 11.491C592.287 12.184 593.721 12.568 593.721 12.568Z" fill="url(#paint1_linear_105_1130)"/>
<path d="M594.863 15.168C594.863 15.168 594.557 14.952 593.975 14.542C593.685 14.333 593.32 14.084 592.875 13.81C592.434 13.528 591.924 13.204 591.325 12.878C590.144 12.197 588.64 11.448 586.805 10.762C584.973 10.079 582.8 9.46 580.33 9.118C577.862 8.777 575.105 8.695 572.186 8.971C569.264 9.234 566.193 9.843 563.048 10.687C559.907 11.541 556.687 12.622 553.413 13.813C551.786 14.415 550.129 15.028 548.449 15.649C546.78 16.319 545.087 16.998 543.373 17.685C541.047 18.63 538.765 19.574 536.536 20.51C534.313 21.458 532.113 22.34 530.043 23.34C525.875 25.283 521.954 27.162 518.355 28.919C516.552 29.792 514.841 30.653 513.224 31.487C511.608 32.322 510.077 33.113 508.641 33.854C505.775 35.347 503.3 36.662 501.29 37.743C497.009 39.326 490.787 41.648 483.369 44.596C479.691 46.012 475.645 47.369 471.304 48.454C466.965 49.533 462.319 50.305 457.518 50.493C453.991 50.624 450.539 50.48 447.278 49.896L446.664 49.808C446.461 49.772 446.262 49.721 446.062 49.679C445.661 49.591 445.263 49.504 444.866 49.418C444.468 49.332 444.073 49.247 443.679 49.163C443.289 49.063 442.909 48.939 442.526 48.83C441.766 48.594 440.994 48.41 440.261 48.143C439.529 47.869 438.806 47.598 438.091 47.331L437.556 47.13L437.041 46.891C436.698 46.733 436.357 46.575 436.019 46.419C435.357 46.104 434.625 45.807 434.077 45.487C432.907 44.815 431.789 43.963 430.729 43.092C428.61 41.329 426.682 39.502 424.834 37.915C422.993 36.318 421.217 34.948 419.533 33.921C418.686 33.413 417.862 32.995 417.081 32.663C416.288 32.352 415.548 32.111 414.859 31.986C413.487 31.706 412.392 31.806 411.691 31.954C411.335 32.001 411.078 32.11 410.901 32.152C410.726 32.203 410.636 32.229 410.636 32.229C410.636 32.229 410.729 32.218 410.911 32.198C411.093 32.187 411.357 32.123 411.711 32.133C412.41 32.1 413.457 32.172 414.688 32.618C415.307 32.827 415.961 33.149 416.651 33.535C417.334 33.944 418.046 34.433 418.776 35.01C420.232 36.178 421.757 37.675 423.381 39.426C425.016 41.169 426.736 43.164 428.808 45.218C429.854 46.239 430.991 47.278 432.375 48.219C433.101 48.712 433.776 49.034 434.49 49.437C434.845 49.63 435.202 49.825 435.561 50.02L436.103 50.314L436.668 50.569C437.428 50.905 438.197 51.245 438.975 51.589C439.758 51.923 440.585 52.17 441.404 52.466C441.817 52.605 442.228 52.759 442.649 52.887C443.075 52.998 443.503 53.11 443.932 53.223C444.363 53.334 444.795 53.446 445.23 53.559C445.448 53.613 445.665 53.675 445.885 53.722L446.551 53.843C450.1 54.597 453.869 54.826 457.682 54.683C462.875 54.479 467.813 53.522 472.319 52.19C476.829 50.851 480.93 49.169 484.586 47.415C491.774 43.869 497.679 40.819 501.706 38.67C503.844 37.872 506.464 36.879 509.476 35.711C512.481 34.528 515.885 33.188 519.604 31.724C523.321 30.263 527.339 28.649 531.568 26.898C533.672 25.993 535.879 25.196 538.106 24.306C540.337 23.429 542.611 22.521 544.916 21.584C546.609 20.887 548.282 20.199 549.931 19.521C551.593 18.858 553.23 18.205 554.84 17.563C558.043 16.276 561.115 15.077 564.071 14.074C567.026 13.082 569.866 12.294 572.565 11.812C575.262 11.319 577.813 11.142 580.147 11.207C584.821 11.358 588.561 12.497 591.042 13.471C591.671 13.703 592.216 13.943 592.689 14.152C593.167 14.352 593.564 14.54 593.881 14.699C594.526 15.006 594.863 15.168 594.863 15.168Z" fill="url(#paint2_linear_105_1130)"/>
<path d="M586.476 11.721C586.476 11.721 586.924 11.864 587.692 12.08C588.075 12.19 588.527 12.389 589.039 12.567C589.532 12.813 590.099 13.035 590.634 13.403C591.724 14.09 592.785 15.075 593.361 16.411C593.535 16.725 593.625 17.098 593.754 17.447C593.795 17.636 593.839 17.824 593.887 18.011C593.943 18.195 593.946 18.404 593.983 18.599C594.083 19.397 594.128 20.25 594.027 21.147C593.811 23.588 592.948 25.91 591.898 27.748C591.384 28.686 590.769 29.462 590.2 30.156C589.609 30.822 589.034 31.383 588.521 31.798C587.231 32.102 585.364 32.276 583.303 31.921C582.213 31.702 581.029 31.507 579.937 31.12C579.392 30.932 578.861 30.721 578.386 30.47C578.136 30.355 577.949 30.195 577.717 30.073C577.624 29.996 577.535 29.92 577.439 29.848L577.295 29.741L577.182 29.62C576.714 29.16 576.448 28.691 576.302 28.101C576.167 27.512 576.208 26.804 576.378 26.118C576.722 24.731 577.554 23.484 578.441 22.809C578.887 22.46 579.353 22.265 579.801 22.211C579.859 22.201 579.916 22.192 579.971 22.182C580.026 22.184 580.08 22.186 580.134 22.188C580.242 22.193 580.352 22.192 580.458 22.201C580.655 22.257 580.864 22.279 581.033 22.353C581.208 22.43 581.364 22.499 581.499 22.559C581.627 22.642 581.735 22.712 581.822 22.769C582.004 22.887 582.101 22.95 582.101 22.95C582.101 22.95 582.052 22.847 581.958 22.651C581.909 22.552 581.848 22.427 581.767 22.281C581.67 22.15 581.553 21.996 581.412 21.82C581.27 21.646 581.063 21.498 580.843 21.31C580.723 21.234 580.589 21.165 580.447 21.088C580.375 21.051 580.301 21.013 580.226 20.975C580.146 20.95 580.065 20.924 579.982 20.898C579.316 20.669 578.45 20.645 577.6 20.89C575.891 21.375 574.171 22.702 573.095 24.805C572.572 25.858 572.203 27.15 572.323 28.601C572.403 29.319 572.568 30.072 572.916 30.763L573.179 31.281L573.507 31.756C573.723 32.085 573.987 32.354 574.257 32.622L574.533 32.892L574.827 33.119C575.024 33.267 575.221 33.416 575.421 33.554C575.828 33.775 576.235 34.031 576.643 34.188C577.46 34.536 578.261 34.743 579.03 34.882C579.412 34.933 579.788 34.983 580.159 35.033C580.523 35.047 580.881 35.06 581.234 35.074C581.587 35.093 581.925 35.073 582.257 35.053C582.587 35.031 582.911 35.01 583.228 34.989C583.557 34.947 583.883 34.893 584.195 34.843C584.35 34.816 584.504 34.79 584.656 34.764C584.806 34.723 584.954 34.682 585.099 34.642C585.386 34.558 585.665 34.476 585.936 34.396C586.2 34.295 586.452 34.184 586.694 34.081C587.659 33.666 588.406 33.154 588.966 32.709C589.667 32.546 590.51 32.244 591.441 31.766C592.346 31.262 593.37 30.601 594.294 29.66C596.159 27.823 597.879 24.996 598.198 21.523C598.333 20.258 598.207 18.97 597.903 17.766C597.813 17.465 597.755 17.166 597.632 16.878C597.514 16.592 597.397 16.31 597.281 16.03C596.989 15.491 596.717 14.962 596.338 14.509C596.003 14.032 595.579 13.642 595.185 13.268C594.983 13.085 594.754 12.938 594.544 12.781C594.33 12.629 594.126 12.473 593.897 12.366C593.452 12.134 593.034 11.903 592.597 11.777C592.384 11.706 592.176 11.637 591.972 11.569C591.768 11.508 591.561 11.482 591.365 11.441C590.581 11.262 589.866 11.278 589.262 11.261C588.651 11.316 588.14 11.343 587.728 11.427C586.908 11.601 586.476 11.721 586.476 11.721Z" fill="url(#paint3_linear_105_1130)"/>
<path d="M421.409 17.883C421.409 17.883 421.224 17.806 420.872 17.661C420.515 17.528 419.987 17.323 419.257 17.169C418.892 17.094 418.476 17.024 417.996 17.021C417.52 17.017 416.969 17.063 416.376 17.323C415.776 17.575 415.183 18.133 414.901 18.882C414.61 19.62 414.597 20.415 414.708 21.171C414.954 22.687 415.666 24.143 416.762 25.484C417.317 26.15 417.978 26.788 418.803 27.329C419.62 27.868 420.627 28.321 421.822 28.449C422.416 28.511 423.052 28.482 423.675 28.337C424.298 28.191 424.896 27.933 425.429 27.603C425.964 27.275 426.437 26.876 426.838 26.448C427.25 26.021 427.594 25.563 427.899 25.094C428.202 24.624 428.47 24.142 428.696 23.654C428.929 23.162 429.13 22.684 429.302 22.141C429.389 21.875 429.479 21.61 429.561 21.34C429.622 21.058 429.683 20.775 429.744 20.491L429.83 20.063L429.874 19.617C429.898 19.318 429.937 19.022 429.941 18.718C429.984 17.061 429.553 15.361 428.754 13.961C427.961 12.551 426.862 11.442 425.707 10.609C423.371 8.93801 420.847 8.251 418.569 7.982C416.277 7.721 414.179 7.936 412.411 8.383C410.638 8.821 409.208 9.54802 408.167 10.265C407.576 10.492 406.92 10.79 406.254 11.229C406.088 11.341 405.918 11.456 405.745 11.573C405.576 11.697 405.418 11.843 405.248 11.983C404.895 12.267 404.605 12.577 404.281 12.897C403.658 13.558 403.023 14.318 402.463 15.239C401.905 16.156 401.424 17.248 401.183 18.498C400.933 19.743 400.988 21.139 401.333 22.471C401.683 23.805 402.302 25.065 403.067 26.199C404.605 28.479 406.643 30.342 408.814 32.02C412.03 34.475 415.278 36.331 418.2 38C421.128 39.657 423.755 41.096 425.873 42.433C427.998 43.758 429.607 44.99 430.619 45.972C431.133 46.455 431.496 46.872 431.741 47.158C431.978 47.453 432.102 47.608 432.102 47.608C432.102 47.608 432.031 47.421 431.895 47.065C431.745 46.714 431.512 46.195 431.133 45.566C430.395 44.295 429.063 42.595 427.168 40.785C425.282 38.963 422.854 37.029 420.121 35.03C417.397 33.024 414.337 30.967 411.369 28.696C409.362 27.152 407.525 25.584 406.203 23.931C404.86 22.279 404.165 20.573 404.228 18.876C404.277 17.17 405.041 15.517 405.881 14.153C406.103 13.818 406.311 13.469 406.531 13.199C406.641 13.057 406.741 12.909 406.854 12.776C406.974 12.647 407.091 12.521 407.205 12.397C407.67 11.901 408.169 11.501 408.639 11.162C409.729 10.77 411.111 10.446 412.72 10.393C414.323 10.331 416.143 10.49 418.013 10.999C418.944 11.257 419.888 11.589 420.8 12.025C421.705 12.47 422.576 13.013 423.333 13.664C424.089 14.314 424.721 15.072 425.139 15.906C425.559 16.74 425.771 17.649 425.751 18.638C425.75 18.819 425.719 19.005 425.709 19.188L425.69 19.463L425.634 19.742L425.53 20.3L425.363 20.859C425.267 21.225 425.119 21.622 424.969 21.979C424.822 22.345 424.656 22.682 424.482 22.996C424.136 23.623 423.734 24.122 423.332 24.431C422.928 24.746 422.532 24.902 422.037 24.92C421.04 24.974 419.777 24.331 418.832 23.504C417.87 22.673 417.116 21.646 416.746 20.684C416.566 20.205 416.485 19.746 416.532 19.38C416.569 19.023 416.745 18.701 417.034 18.476C417.326 18.239 417.718 18.084 418.1 17.989C418.483 17.888 418.863 17.848 419.208 17.823C419.901 17.777 420.457 17.817 420.833 17.838C421.211 17.867 421.409 17.883 421.409 17.883Z" fill="url(#paint4_linear_105_1130)"/>
<path d="M777.93 16.599L779.602 23.971C779.623 24.065 779.622 24.164 779.599 24.257L777.858 31.216C777.726 31.744 778.292 32.172 778.764 31.901L783.945 28.932C785.726 27.911 787.643 27.146 789.638 26.658L797.335 24.778C797.943 24.63 797.969 23.775 797.372 23.589L788.408 20.8C787.26 20.443 786.15 19.969 785.098 19.387L778.833 15.922C778.364 15.664 777.812 16.079 777.93 16.599Z" fill="url(#paint5_linear_105_1130)"/>
<path d="M619.346 22.456C617.596 20.813 614.006 18.683 611.878 18.683C608.988 18.683 606.646 21.025 606.646 23.915C606.646 26.805 608.988 29.147 611.878 29.147C614.12 29.147 617.983 27.169 619.608 25.374H766.519V23.915V22.456H619.346Z" fill="url(#paint6_linear_105_1130)"/>
<path d="M770.266 20.166C768.196 20.166 766.518 21.844 766.518 23.914C766.518 25.984 768.196 27.662 770.266 27.662C772.336 27.662 774.014 25.984 774.014 23.914C774.014 21.844 772.336 20.166 770.266 20.166Z" fill="url(#paint7_linear_105_1130)"/>
<path d="M203.137 15.168C203.137 15.168 203.404 14.905 203.911 14.404C204.424 13.908 205.154 13.135 206.225 12.289C208.301 10.527 211.581 8.206 216.096 6.198C216.661 5.951 217.236 5.68599 217.834 5.43899C218.439 5.21199 219.057 4.97999 219.687 4.74399C220.004 4.62699 220.324 4.50999 220.647 4.39099C220.975 4.28799 221.305 4.18401 221.639 4.07901C222.308 3.87201 222.988 3.65 223.686 3.449C226.487 2.68 229.528 2.03499 232.759 1.56799C235.992 1.13399 239.407 0.862993 242.95 0.787993C246.492 0.720993 250.155 0.870987 253.886 1.20099C264.036 2.12399 273.324 4.35301 281.014 6.87601C284.862 8.14001 288.317 9.484 291.308 10.793C294.304 12.098 296.822 13.394 298.845 14.45C303.159 15.981 309.385 18.368 316.854 21.2C320.596 22.588 324.642 24.112 328.956 25.56C333.27 27.008 337.839 28.423 342.608 29.647C349.629 31.417 356.428 32.555 362.681 33.03C368.798 33.619 374.363 32.544 379.009 31.444C381.333 30.886 383.428 30.292 385.272 29.764C387.116 29.237 388.71 28.774 390.021 28.421C391.33 28.065 392.357 27.816 393.055 27.666C393.754 27.52 394.121 27.444 394.121 27.444C394.121 27.444 393.772 27.58 393.107 27.839C392.444 28.098 391.475 28.501 390.236 29.041C388.995 29.583 387.478 30.245 385.716 31.015C383.946 31.777 381.915 32.627 379.611 33.453C377.307 34.278 374.73 35.092 371.867 35.697C371.15 35.845 370.422 36.003 369.667 36.104C368.916 36.222 368.152 36.343 367.364 36.402C366.971 36.439 366.575 36.476 366.176 36.514C365.776 36.543 365.37 36.546 364.962 36.562C364.554 36.574 364.143 36.586 363.729 36.598C363.328 36.588 362.924 36.577 362.517 36.566C356.008 36.475 348.848 35.549 341.574 33.713C336.636 32.446 331.969 30.871 327.634 29.201C323.296 27.53 319.307 25.726 315.657 24.03C308.383 20.586 302.5 17.483 298.437 15.384C296.28 14.608 293.66 13.654 290.594 12.703C287.528 11.746 284.026 10.764 280.17 9.83099C272.459 7.96699 263.327 6.272 253.508 5.38C249.897 5.061 246.366 4.85198 242.956 4.80398C239.547 4.76398 236.262 4.86399 233.141 5.08899C230.025 5.34499 227.08 5.741 224.343 6.242C223.662 6.376 222.997 6.531 222.34 6.668C222.012 6.738 221.686 6.80801 221.364 6.87701C221.046 6.96001 220.731 7.043 220.419 7.125C219.794 7.29 219.182 7.45198 218.582 7.60998C217.989 7.78598 217.416 7.98099 216.85 8.15799C212.332 9.60499 208.88 11.406 206.606 12.826C205.438 13.5 204.611 14.14 204.026 14.547C203.444 14.952 203.137 15.168 203.137 15.168Z" fill="url(#paint8_linear_105_1130)"/>
<path d="M204.279 12.568C204.279 12.568 204.617 12.414 205.261 12.121C205.909 11.836 206.855 11.385 208.102 10.868C210.613 9.89398 214.314 8.54396 219.106 7.60596C223.886 6.65996 229.75 6.18699 236.224 6.62699C239.45 6.89699 242.833 7.31896 246.279 8.02896C249.721 8.74096 253.248 9.64396 256.784 10.766C261.595 12.284 266.128 14.051 270.353 15.846C274.579 17.643 278.502 19.468 282.096 21.177C289.276 24.614 295.173 27.538 299.272 29.474C301.43 30.164 304.087 30.98 307.151 31.886C310.232 32.778 313.685 33.685 317.562 34.68C321.41 35.688 325.557 36.82 329.943 37.902C334.328 38.982 338.956 40.011 343.757 40.725C350.81 41.786 357.6 41.952 363.569 40.823C363.941 40.751 364.311 40.679 364.679 40.608C365.043 40.521 365.404 40.435 365.763 40.35C366.487 40.195 367.177 39.965 367.872 39.776C368.548 39.557 369.244 39.33 369.87 39.1C370.484 38.876 371.079 38.585 371.664 38.288C373.996 37.052 376.064 35.453 377.994 34.036C379.921 32.604 381.725 31.314 383.426 30.352C385.12 29.379 386.71 28.749 388.048 28.428C389.386 28.096 390.457 28.058 391.168 28.087C391.524 28.084 391.794 28.132 391.975 28.143C392.155 28.161 392.248 28.17 392.248 28.17C392.248 28.17 392.155 28.177 391.974 28.19C391.793 28.209 391.524 28.207 391.177 28.267C390.482 28.351 389.462 28.552 388.248 29.051C387.031 29.54 385.635 30.333 384.152 31.46C382.661 32.578 381.087 34.017 379.33 35.649C377.561 37.266 375.633 39.118 373.109 40.761C372.47 41.161 371.805 41.559 371.075 41.897C370.359 42.229 369.666 42.516 368.934 42.815C368.198 43.078 367.458 43.381 366.685 43.605C366.3 43.724 365.912 43.844 365.522 43.965C365.127 44.068 364.73 44.172 364.33 44.277C363.531 44.497 362.709 44.643 361.881 44.822C361.048 44.957 360.206 45.123 359.349 45.216C357.638 45.451 355.881 45.561 354.096 45.61C350.525 45.694 346.845 45.417 343.142 44.872C338.106 44.122 333.354 42.935 328.934 41.638C324.513 40.338 320.417 38.927 316.664 37.614C314.791 36.959 312.999 36.331 311.281 35.69C310.853 35.532 310.431 35.376 310.015 35.222C309.603 35.058 309.197 34.897 308.797 34.738C307.999 34.417 307.224 34.105 306.474 33.804C303.496 32.551 300.951 31.399 298.899 30.417C294.562 29.054 288.31 26.841 280.889 23.997C273.455 21.188 264.858 17.724 255.52 14.762C252.085 13.672 248.705 12.742 245.42 11.947C242.133 11.155 238.929 10.597 235.861 10.145C229.718 9.34396 224.101 9.27597 219.395 9.68097C214.685 10.077 210.909 10.897 208.301 11.491C205.713 12.184 204.279 12.568 204.279 12.568Z" fill="url(#paint9_linear_105_1130)"/>
<path d="M203.137 15.168C203.137 15.168 203.443 14.952 204.025 14.542C204.315 14.333 204.679 14.084 205.125 13.81C205.566 13.528 206.076 13.204 206.674 12.878C207.855 12.197 209.359 11.448 211.194 10.762C213.026 10.079 215.199 9.46 217.669 9.118C220.137 8.777 222.894 8.695 225.813 8.971C228.735 9.234 231.806 9.843 234.951 10.687C238.092 11.541 241.313 12.622 244.585 13.813C246.213 14.415 247.869 15.028 249.549 15.649C251.218 16.319 252.911 16.998 254.625 17.685C256.951 18.63 259.233 19.574 261.462 20.51C263.685 21.458 265.885 22.34 267.955 23.34C272.123 25.283 276.044 27.162 279.643 28.919C281.446 29.792 283.157 30.653 284.774 31.487C286.391 32.322 287.921 33.113 289.357 33.854C292.223 35.347 294.698 36.662 296.708 37.743C300.99 39.326 307.211 41.648 314.629 44.596C318.307 46.012 322.353 47.369 326.694 48.454C331.033 49.533 335.679 50.305 340.48 50.493C344.007 50.624 347.459 50.48 350.72 49.896L351.334 49.808C351.537 49.772 351.736 49.721 351.937 49.679C352.338 49.591 352.736 49.504 353.133 49.418C353.531 49.332 353.927 49.247 354.32 49.163C354.71 49.063 355.09 48.939 355.473 48.83C356.233 48.594 357.005 48.41 357.738 48.143C358.47 47.869 359.193 47.598 359.908 47.331L360.444 47.13L360.959 46.891C361.302 46.733 361.643 46.575 361.981 46.419C362.643 46.104 363.374 45.807 363.923 45.487C365.093 44.815 366.211 43.963 367.271 43.092C369.39 41.329 371.318 39.502 373.167 37.915C375.008 36.318 376.784 34.948 378.468 33.921C379.315 33.413 380.139 32.995 380.92 32.663C381.713 32.352 382.453 32.111 383.142 31.986C384.514 31.706 385.609 31.806 386.31 31.954C386.666 32.001 386.923 32.11 387.1 32.152C387.275 32.203 387.365 32.229 387.365 32.229C387.365 32.229 387.272 32.218 387.09 32.198C386.908 32.187 386.644 32.123 386.29 32.133C385.591 32.1 384.544 32.172 383.313 32.618C382.694 32.827 382.04 33.149 381.35 33.535C380.667 33.944 379.955 34.433 379.225 35.01C377.769 36.178 376.244 37.675 374.62 39.426C372.985 41.169 371.264 43.164 369.193 45.218C368.147 46.239 367.01 47.278 365.626 48.219C364.9 48.712 364.225 49.034 363.511 49.437C363.156 49.63 362.799 49.825 362.44 50.02L361.898 50.314L361.333 50.569C360.573 50.905 359.804 51.245 359.026 51.589C358.243 51.923 357.416 52.17 356.597 52.466C356.184 52.605 355.773 52.759 355.352 52.887C354.926 52.998 354.498 53.11 354.069 53.223C353.638 53.334 353.205 53.446 352.771 53.559C352.553 53.613 352.336 53.675 352.116 53.722L351.45 53.843C347.901 54.597 344.132 54.826 340.319 54.683C335.126 54.479 330.188 53.522 325.682 52.19C321.172 50.851 317.071 49.169 313.415 47.415C306.227 43.869 300.322 40.819 296.295 38.67C294.157 37.872 291.537 36.879 288.525 35.711C285.52 34.528 282.116 33.188 278.397 31.724C274.68 30.263 270.663 28.649 266.433 26.898C264.329 25.993 262.122 25.196 259.895 24.306C257.664 23.429 255.39 22.521 253.085 21.584C251.392 20.887 249.719 20.199 248.07 19.521C246.408 18.858 244.771 18.205 243.161 17.563C239.958 16.276 236.886 15.077 233.93 14.074C230.975 13.082 228.135 12.294 225.436 11.812C222.739 11.319 220.188 11.142 217.854 11.207C213.18 11.358 209.44 12.497 206.959 13.471C206.33 13.703 205.785 13.943 205.312 14.152C204.834 14.352 204.437 14.54 204.12 14.699C203.474 15.006 203.137 15.168 203.137 15.168Z" fill="url(#paint10_linear_105_1130)"/>
<path d="M211.524 11.721C211.524 11.721 211.076 11.864 210.308 12.08C209.925 12.19 209.473 12.389 208.961 12.567C208.468 12.813 207.901 13.035 207.366 13.403C206.276 14.09 205.215 15.075 204.638 16.411C204.465 16.725 204.374 17.098 204.245 17.447C204.204 17.636 204.16 17.824 204.112 18.011C204.056 18.195 204.053 18.404 204.016 18.599C203.916 19.397 203.871 20.25 203.972 21.147C204.187 23.588 205.051 25.91 206.101 27.748C206.615 28.686 207.23 29.462 207.799 30.156C208.39 30.822 208.965 31.383 209.478 31.798C210.768 32.102 212.635 32.276 214.695 31.921C215.785 31.702 216.97 31.507 218.061 31.12C218.606 30.932 219.137 30.721 219.612 30.47C219.862 30.355 220.049 30.195 220.281 30.073C220.374 29.996 220.463 29.92 220.559 29.848L220.703 29.741L220.816 29.62C221.283 29.16 221.549 28.691 221.695 28.101C221.83 27.512 221.789 26.804 221.619 26.118C221.275 24.731 220.443 23.484 219.556 22.809C219.11 22.46 218.644 22.265 218.196 22.211C218.138 22.201 218.082 22.192 218.026 22.182C217.971 22.184 217.917 22.186 217.864 22.188C217.756 22.193 217.646 22.192 217.54 22.201C217.344 22.257 217.134 22.279 216.965 22.353C216.79 22.43 216.634 22.499 216.499 22.559C216.371 22.642 216.263 22.712 216.176 22.769C215.994 22.887 215.897 22.95 215.897 22.95C215.897 22.95 215.946 22.847 216.04 22.651C216.089 22.552 216.15 22.427 216.231 22.281C216.328 22.15 216.445 21.996 216.586 21.82C216.728 21.646 216.935 21.498 217.155 21.31C217.275 21.234 217.409 21.165 217.551 21.088C217.623 21.051 217.697 21.013 217.772 20.975C217.852 20.95 217.933 20.924 218.016 20.898C218.682 20.669 219.549 20.645 220.398 20.89C222.107 21.375 223.827 22.702 224.903 24.805C225.426 25.858 225.795 27.15 225.675 28.601C225.595 29.319 225.429 30.072 225.082 30.763L224.819 31.281L224.49 31.756C224.275 32.085 224.01 32.354 223.74 32.622L223.464 32.892L223.17 33.119C222.973 33.267 222.775 33.416 222.576 33.554C222.169 33.775 221.762 34.031 221.354 34.188C220.537 34.536 219.736 34.743 218.967 34.882C218.585 34.933 218.209 34.983 217.837 35.033C217.473 35.047 217.115 35.06 216.762 35.074C216.409 35.093 216.071 35.073 215.739 35.053C215.409 35.031 215.085 35.01 214.768 34.989C214.439 34.947 214.113 34.893 213.801 34.843C213.646 34.816 213.492 34.79 213.34 34.764C213.19 34.723 213.042 34.682 212.897 34.642C212.611 34.558 212.331 34.476 212.06 34.396C211.796 34.295 211.544 34.184 211.302 34.081C210.337 33.666 209.59 33.154 209.03 32.709C208.329 32.546 207.486 32.244 206.555 31.766C205.65 31.262 204.626 30.601 203.702 29.66C201.837 27.823 200.117 24.996 199.798 21.523C199.663 20.258 199.789 18.97 200.093 17.766C200.183 17.465 200.241 17.166 200.364 16.878C200.482 16.592 200.599 16.31 200.715 16.03C201.007 15.491 201.279 14.962 201.658 14.509C201.993 14.032 202.417 13.642 202.811 13.268C203.013 13.085 203.242 12.938 203.452 12.781C203.667 12.629 203.87 12.473 204.099 12.366C204.545 12.134 204.963 11.903 205.399 11.777C205.611 11.706 205.82 11.637 206.024 11.569C206.228 11.508 206.435 11.482 206.631 11.441C207.415 11.262 208.13 11.278 208.734 11.261C209.345 11.316 209.856 11.343 210.268 11.427C211.092 11.601 211.524 11.721 211.524 11.721Z" fill="url(#paint11_linear_105_1130)"/>
<path d="M376.591 17.883C376.591 17.883 376.776 17.806 377.128 17.661C377.485 17.528 378.013 17.323 378.743 17.169C379.108 17.094 379.524 17.024 380.004 17.021C380.48 17.017 381.031 17.063 381.624 17.323C382.224 17.575 382.817 18.133 383.099 18.882C383.39 19.62 383.403 20.415 383.293 21.171C383.047 22.687 382.335 24.143 381.239 25.484C380.684 26.15 380.023 26.788 379.198 27.329C378.381 27.868 377.374 28.321 376.179 28.449C375.585 28.511 374.949 28.482 374.326 28.337C373.703 28.191 373.105 27.933 372.572 27.603C372.037 27.275 371.564 26.876 371.163 26.448C370.751 26.021 370.407 25.563 370.102 25.094C369.799 24.624 369.531 24.142 369.305 23.654C369.072 23.162 368.87 22.684 368.699 22.141C368.612 21.875 368.522 21.61 368.44 21.34C368.379 21.058 368.318 20.775 368.257 20.491L368.171 20.063L368.127 19.617C368.103 19.318 368.064 19.022 368.06 18.718C368.017 17.061 368.448 15.361 369.247 13.961C370.04 12.551 371.139 11.442 372.294 10.609C374.63 8.93801 377.154 8.251 379.432 7.982C381.724 7.721 383.822 7.936 385.59 8.383C387.363 8.821 388.793 9.54802 389.834 10.265C390.425 10.492 391.081 10.79 391.747 11.229C391.913 11.341 392.083 11.456 392.256 11.573C392.425 11.697 392.583 11.843 392.753 11.983C393.106 12.267 393.396 12.577 393.72 12.897C394.343 13.558 394.978 14.318 395.538 15.239C396.096 16.156 396.577 17.248 396.818 18.498C397.068 19.743 397.012 21.139 396.668 22.471C396.318 23.805 395.699 25.065 394.934 26.199C393.396 28.479 391.358 30.342 389.187 32.02C385.971 34.475 382.723 36.331 379.801 38C376.873 39.657 374.246 41.096 372.128 42.433C370.004 43.758 368.394 44.99 367.382 45.972C366.868 46.455 366.505 46.872 366.261 47.158C366.024 47.453 365.9 47.608 365.9 47.608C365.9 47.608 365.971 47.421 366.107 47.065C366.257 46.714 366.49 46.195 366.869 45.566C367.607 44.295 368.939 42.595 370.834 40.785C372.72 38.963 375.148 37.029 377.881 35.03C380.605 33.024 383.665 30.967 386.633 28.696C388.64 27.152 390.477 25.584 391.799 23.931C393.142 22.279 393.838 20.573 393.774 18.876C393.725 17.17 392.961 15.517 392.121 14.153C391.899 13.818 391.691 13.469 391.471 13.199C391.361 13.057 391.261 12.909 391.148 12.776C391.028 12.647 390.911 12.521 390.797 12.397C390.332 11.901 389.833 11.501 389.363 11.162C388.273 10.77 386.891 10.446 385.282 10.393C383.679 10.331 381.859 10.49 379.989 10.999C379.058 11.257 378.114 11.589 377.202 12.025C376.297 12.47 375.426 13.013 374.669 13.664C373.913 14.314 373.281 15.072 372.863 15.906C372.443 16.74 372.231 17.649 372.251 18.638C372.253 18.819 372.283 19.005 372.294 19.188L372.313 19.463L372.369 19.742L372.473 20.3L372.64 20.859C372.736 21.225 372.884 21.622 373.034 21.979C373.181 22.345 373.347 22.682 373.521 22.996C373.867 23.623 374.269 24.122 374.671 24.431C375.075 24.746 375.471 24.902 375.966 24.92C376.963 24.974 378.226 24.331 379.171 23.504C380.133 22.673 380.887 21.646 381.257 20.684C381.437 20.205 381.518 19.746 381.47 19.38C381.433 19.023 381.257 18.701 380.968 18.476C380.676 18.239 380.284 18.084 379.902 17.989C379.519 17.888 379.139 17.848 378.794 17.823C378.101 17.777 377.545 17.817 377.169 17.838C376.789 17.867 376.591 17.883 376.591 17.883Z" fill="url(#paint12_linear_105_1130)"/>
<path d="M20.07 16.599L18.398 23.971C18.377 24.065 18.378 24.164 18.401 24.257L20.142 31.216C20.274 31.744 19.708 32.172 19.236 31.901L14.055 28.932C12.273 27.911 10.357 27.146 8.36202 26.658L0.665013 24.778C0.0570131 24.63 0.0310257 23.775 0.628026 23.589L9.59202 20.8C10.74 20.443 11.85 19.969 12.902 19.387L19.167 15.922C19.636 15.664 20.188 16.079 20.07 16.599Z" fill="url(#paint13_linear_105_1130)"/>
<path d="M178.654 22.456C180.404 20.813 183.995 18.683 186.122 18.683C189.011 18.683 191.354 21.025 191.354 23.915C191.354 26.805 189.012 29.147 186.122 29.147C183.88 29.147 180.017 27.169 178.392 25.374H31.4819V23.915V22.456H178.654Z" fill="url(#paint14_linear_105_1130)"/>
<path d="M27.7338 20.166C29.8038 20.166 31.4818 21.844 31.4818 23.914C31.4818 25.984 29.8038 27.662 27.7338 27.662C25.6638 27.662 23.9858 25.984 23.9858 23.914C23.9858 21.844 25.6638 20.166 27.7338 20.166Z" fill="url(#paint15_linear_105_1130)"/>
<defs>
<linearGradient id="paint0_linear_105_1130" x1="403.88" y1="18.6824" x2="594.863" y2="18.6824" gradientUnits="userSpaceOnUse">
<stop stop-color="#9A7A5F"/>
<stop offset="0.077" stop-color="#C9A885"/>
<stop offset="0.1472" stop-color="#D4B895"/>
<stop offset="0.2662" stop-color="#E2CDAB"/>
<stop offset="0.3818" stop-color="#EBDAB8"/>
<stop offset="0.4892" stop-color="#EEDEBC"/>
<stop offset="0.5877" stop-color="#EBDAB8"/>
<stop offset="0.6903" stop-color="#E3CEAB"/>
<stop offset="0.7944" stop-color="#D5B997"/>
<stop offset="0.8616" stop-color="#C9A885"/>
<stop offset="1" stop-color="#9A7A5F"/>
</linearGradient>
<linearGradient id="paint1_linear_105_1130" x1="405.752" y1="26.0428" x2="593.721" y2="26.0428" gradientUnits="userSpaceOnUse">
<stop stop-color="#9A7A5F"/>
<stop offset="0.077" stop-color="#C9A885"/>
<stop offset="0.1472" stop-color="#D4B895"/>
<stop offset="0.2662" stop-color="#E2CDAB"/>
<stop offset="0.3818" stop-color="#EBDAB8"/>
<stop offset="0.4892" stop-color="#EEDEBC"/>
<stop offset="0.5877" stop-color="#EBDAB8"/>
<stop offset="0.6903" stop-color="#E3CEAB"/>
<stop offset="0.7944" stop-color="#D5B997"/>
<stop offset="0.8616" stop-color="#C9A885"/>
<stop offset="1" stop-color="#9A7A5F"/>
</linearGradient>
<linearGradient id="paint2_linear_105_1130" x1="410.638" y1="31.7636" x2="594.863" y2="31.7636" gradientUnits="userSpaceOnUse">
<stop stop-color="#9A7A5F"/>
<stop offset="0.077" stop-color="#C9A885"/>
<stop offset="0.1472" stop-color="#D4B895"/>
<stop offset="0.2662" stop-color="#E2CDAB"/>
<stop offset="0.3818" stop-color="#EBDAB8"/>
<stop offset="0.4892" stop-color="#EEDEBC"/>
<stop offset="0.5877" stop-color="#EBDAB8"/>
<stop offset="0.6903" stop-color="#E3CEAB"/>
<stop offset="0.7944" stop-color="#D5B997"/>
<stop offset="0.8616" stop-color="#C9A885"/>
<stop offset="1" stop-color="#9A7A5F"/>
</linearGradient>
<linearGradient id="paint3_linear_105_1130" x1="572.303" y1="23.17" x2="598.257" y2="23.17" gradientUnits="userSpaceOnUse">
<stop stop-color="#9A7A5F"/>
<stop offset="0.077" stop-color="#C9A885"/>
<stop offset="0.1472" stop-color="#D4B895"/>
<stop offset="0.2662" stop-color="#E2CDAB"/>
<stop offset="0.3818" stop-color="#EBDAB8"/>
<stop offset="0.4892" stop-color="#EEDEBC"/>
<stop offset="0.5877" stop-color="#EBDAB8"/>
<stop offset="0.6903" stop-color="#E3CEAB"/>
<stop offset="0.7944" stop-color="#D5B997"/>
<stop offset="0.8616" stop-color="#C9A885"/>
<stop offset="1" stop-color="#9A7A5F"/>
</linearGradient>
<linearGradient id="paint4_linear_105_1130" x1="401.029" y1="27.7366" x2="432.102" y2="27.7366" gradientUnits="userSpaceOnUse">
<stop stop-color="#9A7A5F"/>
<stop offset="0.077" stop-color="#C9A885"/>
<stop offset="0.1472" stop-color="#D4B895"/>
<stop offset="0.2662" stop-color="#E2CDAB"/>
<stop offset="0.3818" stop-color="#EBDAB8"/>
<stop offset="0.4892" stop-color="#EEDEBC"/>
<stop offset="0.5877" stop-color="#EBDAB8"/>
<stop offset="0.6903" stop-color="#E3CEAB"/>
<stop offset="0.7944" stop-color="#D5B997"/>
<stop offset="0.8616" stop-color="#C9A885"/>
<stop offset="1" stop-color="#9A7A5F"/>
</linearGradient>
<linearGradient id="paint5_linear_105_1130" x1="777.838" y1="23.9144" x2="797.804" y2="23.9144" gradientUnits="userSpaceOnUse">
<stop stop-color="#9A7A5F"/>
<stop offset="0.077" stop-color="#C9A885"/>
<stop offset="0.1472" stop-color="#D4B895"/>
<stop offset="0.2662" stop-color="#E2CDAB"/>
<stop offset="0.3818" stop-color="#EBDAB8"/>
<stop offset="0.4892" stop-color="#EEDEBC"/>
<stop offset="0.5877" stop-color="#EBDAB8"/>
<stop offset="0.6903" stop-color="#E3CEAB"/>
<stop offset="0.7944" stop-color="#D5B997"/>
<stop offset="0.8616" stop-color="#C9A885"/>
<stop offset="1" stop-color="#9A7A5F"/>
</linearGradient>
<linearGradient id="paint6_linear_105_1130" x1="606.646" y1="23.9144" x2="766.518" y2="23.9144" gradientUnits="userSpaceOnUse">
<stop stop-color="#9A7A5F"/>
<stop offset="0.077" stop-color="#C9A885"/>
<stop offset="0.1472" stop-color="#D4B895"/>
<stop offset="0.2662" stop-color="#E2CDAB"/>
<stop offset="0.3818" stop-color="#EBDAB8"/>
<stop offset="0.4892" stop-color="#EEDEBC"/>
<stop offset="0.5877" stop-color="#EBDAB8"/>
<stop offset="0.6903" stop-color="#E3CEAB"/>
<stop offset="0.7944" stop-color="#D5B997"/>
<stop offset="0.8616" stop-color="#C9A885"/>
<stop offset="1" stop-color="#9A7A5F"/>
</linearGradient>
<linearGradient id="paint7_linear_105_1130" x1="766.518" y1="23.9143" x2="774.014" y2="23.9143" gradientUnits="userSpaceOnUse">
<stop stop-color="#9A7A5F"/>
<stop offset="0.077" stop-color="#C9A885"/>
<stop offset="0.1472" stop-color="#D4B895"/>
<stop offset="0.2662" stop-color="#E2CDAB"/>
<stop offset="0.3818" stop-color="#EBDAB8"/>
<stop offset="0.4892" stop-color="#EEDEBC"/>
<stop offset="0.5877" stop-color="#EBDAB8"/>
<stop offset="0.6903" stop-color="#E3CEAB"/>
<stop offset="0.7944" stop-color="#D5B997"/>
<stop offset="0.8616" stop-color="#C9A885"/>
<stop offset="1" stop-color="#9A7A5F"/>
</linearGradient>
<linearGradient id="paint8_linear_105_1130" x1="203.137" y1="18.6824" x2="394.12" y2="18.6824" gradientUnits="userSpaceOnUse">
<stop stop-color="#9A7A5F"/>
<stop offset="0.077" stop-color="#C9A885"/>
<stop offset="0.1472" stop-color="#D4B895"/>
<stop offset="0.2662" stop-color="#E2CDAB"/>
<stop offset="0.3818" stop-color="#EBDAB8"/>
<stop offset="0.4892" stop-color="#EEDEBC"/>
<stop offset="0.5877" stop-color="#EBDAB8"/>
<stop offset="0.6903" stop-color="#E3CEAB"/>
<stop offset="0.7944" stop-color="#D5B997"/>
<stop offset="0.8616" stop-color="#C9A885"/>
<stop offset="1" stop-color="#9A7A5F"/>
</linearGradient>
<linearGradient id="paint9_linear_105_1130" x1="204.279" y1="26.0428" x2="392.248" y2="26.0428" gradientUnits="userSpaceOnUse">
<stop stop-color="#9A7A5F"/>
<stop offset="0.077" stop-color="#C9A885"/>
<stop offset="0.1472" stop-color="#D4B895"/>
<stop offset="0.2662" stop-color="#E2CDAB"/>
<stop offset="0.3818" stop-color="#EBDAB8"/>
<stop offset="0.4892" stop-color="#EEDEBC"/>
<stop offset="0.5877" stop-color="#EBDAB8"/>
<stop offset="0.6903" stop-color="#E3CEAB"/>
<stop offset="0.7944" stop-color="#D5B997"/>
<stop offset="0.8616" stop-color="#C9A885"/>
<stop offset="1" stop-color="#9A7A5F"/>
</linearGradient>
<linearGradient id="paint10_linear_105_1130" x1="203.137" y1="31.7636" x2="387.363" y2="31.7636" gradientUnits="userSpaceOnUse">
<stop stop-color="#9A7A5F"/>
<stop offset="0.077" stop-color="#C9A885"/>
<stop offset="0.1472" stop-color="#D4B895"/>
<stop offset="0.2662" stop-color="#E2CDAB"/>
<stop offset="0.3818" stop-color="#EBDAB8"/>
<stop offset="0.4892" stop-color="#EEDEBC"/>
<stop offset="0.5877" stop-color="#EBDAB8"/>
<stop offset="0.6903" stop-color="#E3CEAB"/>
<stop offset="0.7944" stop-color="#D5B997"/>
<stop offset="0.8616" stop-color="#C9A885"/>
<stop offset="1" stop-color="#9A7A5F"/>
</linearGradient>
<linearGradient id="paint11_linear_105_1130" x1="199.744" y1="23.17" x2="225.697" y2="23.17" gradientUnits="userSpaceOnUse">
<stop stop-color="#9A7A5F"/>
<stop offset="0.077" stop-color="#C9A885"/>
<stop offset="0.1472" stop-color="#D4B895"/>
<stop offset="0.2662" stop-color="#E2CDAB"/>
<stop offset="0.3818" stop-color="#EBDAB8"/>
<stop offset="0.4892" stop-color="#EEDEBC"/>
<stop offset="0.5877" stop-color="#EBDAB8"/>
<stop offset="0.6903" stop-color="#E3CEAB"/>
<stop offset="0.7944" stop-color="#D5B997"/>
<stop offset="0.8616" stop-color="#C9A885"/>
<stop offset="1" stop-color="#9A7A5F"/>
</linearGradient>
<linearGradient id="paint12_linear_105_1130" x1="365.898" y1="27.7366" x2="396.971" y2="27.7366" gradientUnits="userSpaceOnUse">
<stop stop-color="#9A7A5F"/>
<stop offset="0.077" stop-color="#C9A885"/>
<stop offset="0.1472" stop-color="#D4B895"/>
<stop offset="0.2662" stop-color="#E2CDAB"/>
<stop offset="0.3818" stop-color="#EBDAB8"/>
<stop offset="0.4892" stop-color="#EEDEBC"/>
<stop offset="0.5877" stop-color="#EBDAB8"/>
<stop offset="0.6903" stop-color="#E3CEAB"/>
<stop offset="0.7944" stop-color="#D5B997"/>
<stop offset="0.8616" stop-color="#C9A885"/>
<stop offset="1" stop-color="#9A7A5F"/>
</linearGradient>
<linearGradient id="paint13_linear_105_1130" x1="0.19562" y1="23.9144" x2="20.1615" y2="23.9144" gradientUnits="userSpaceOnUse">
<stop stop-color="#9A7A5F"/>
<stop offset="0.077" stop-color="#C9A885"/>
<stop offset="0.1472" stop-color="#D4B895"/>
<stop offset="0.2662" stop-color="#E2CDAB"/>
<stop offset="0.3818" stop-color="#EBDAB8"/>
<stop offset="0.4892" stop-color="#EEDEBC"/>
<stop offset="0.5877" stop-color="#EBDAB8"/>
<stop offset="0.6903" stop-color="#E3CEAB"/>
<stop offset="0.7944" stop-color="#D5B997"/>
<stop offset="0.8616" stop-color="#C9A885"/>
<stop offset="1" stop-color="#9A7A5F"/>
</linearGradient>
<linearGradient id="paint14_linear_105_1130" x1="31.4822" y1="23.9144" x2="191.354" y2="23.9144" gradientUnits="userSpaceOnUse">
<stop stop-color="#9A7A5F"/>
<stop offset="0.077" stop-color="#C9A885"/>
<stop offset="0.1472" stop-color="#D4B895"/>
<stop offset="0.2662" stop-color="#E2CDAB"/>
<stop offset="0.3818" stop-color="#EBDAB8"/>
<stop offset="0.4892" stop-color="#EEDEBC"/>
<stop offset="0.5877" stop-color="#EBDAB8"/>
<stop offset="0.6903" stop-color="#E3CEAB"/>
<stop offset="0.7944" stop-color="#D5B997"/>
<stop offset="0.8616" stop-color="#C9A885"/>
<stop offset="1" stop-color="#9A7A5F"/>
</linearGradient>
<linearGradient id="paint15_linear_105_1130" x1="23.9856" y1="23.9143" x2="31.4821" y2="23.9143" gradientUnits="userSpaceOnUse">
<stop stop-color="#9A7A5F"/>
<stop offset="0.077" stop-color="#C9A885"/>
<stop offset="0.1472" stop-color="#D4B895"/>
<stop offset="0.2662" stop-color="#E2CDAB"/>
<stop offset="0.3818" stop-color="#EBDAB8"/>
<stop offset="0.4892" stop-color="#EEDEBC"/>
<stop offset="0.5877" stop-color="#EBDAB8"/>
<stop offset="0.6903" stop-color="#E3CEAB"/>
<stop offset="0.7944" stop-color="#D5B997"/>
<stop offset="0.8616" stop-color="#C9A885"/>
<stop offset="1" stop-color="#9A7A5F"/>
</linearGradient>
</defs>
</svg>
