<svg width="39" height="44" viewBox="0 0 39 44" fill="none" xmlns="http://www.w3.org/2000/svg">
<path d="M3.6 31.015H0.27V29.5H8.685V31.015H5.355V40H3.6V31.015ZM15.0661 37.405H10.8961L9.92105 40H8.10605L12.1861 29.5H12.9811C13.5211 29.5 13.8961 29.765 14.1061 30.295L17.8561 40H16.0261L15.0661 37.405ZM11.3911 35.935H14.5711L12.9961 31.675H12.9811L11.3911 35.935ZM22.2612 40.12C21.2212 40.12 20.4012 39.82 19.8012 39.22C19.2012 38.62 18.9012 37.8 18.9012 36.76H20.6262C20.6262 37.32 20.7712 37.765 21.0612 38.095C21.3612 38.415 21.7712 38.575 22.2912 38.575H23.9562C24.4462 38.575 24.8412 38.47 25.1412 38.26C25.4412 38.04 25.5912 37.755 25.5912 37.405V36.745C25.5912 36.475 25.4862 36.25 25.2762 36.07C25.0662 35.89 24.7662 35.765 24.3762 35.695L21.6462 35.23C20.7962 35.09 20.1412 34.81 19.6812 34.39C19.2312 33.97 19.0062 33.435 19.0062 32.785V31.96C19.0062 31.45 19.1412 31 19.4112 30.61C19.6912 30.22 20.0812 29.92 20.5812 29.71C21.0812 29.49 21.6612 29.38 22.3212 29.38H24.0162C24.6362 29.38 25.1812 29.51 25.6512 29.77C26.1312 30.02 26.5012 30.38 26.7612 30.85C27.0212 31.32 27.1512 31.86 27.1512 32.47H25.4412C25.4412 32.01 25.3062 31.64 25.0362 31.36C24.7762 31.07 24.4362 30.925 24.0162 30.925H22.3212C21.8512 30.925 21.4712 31.03 21.1812 31.24C20.9012 31.44 20.7612 31.715 20.7612 32.065V32.605C20.7612 32.885 20.8612 33.12 21.0612 33.31C21.2612 33.49 21.5512 33.61 21.9312 33.67L24.6612 34.15C25.5212 34.3 26.1812 34.58 26.6412 34.99C27.1112 35.39 27.3462 35.905 27.3462 36.535V37.51C27.3462 38.02 27.2062 38.475 26.9262 38.875C26.6462 39.265 26.2512 39.57 25.7412 39.79C25.2312 40.01 24.6462 40.12 23.9862 40.12H22.2612ZM35.9835 40L32.3235 35.38L31.2135 36.565V40H29.4585V29.5H31.2135V34.345L35.6835 29.5H37.8435L33.5085 34.12L38.1135 40H35.9835Z" fill="#F0C777"/>
<rect x="9.5" y="0.5" width="21" height="21" rx="4.5" fill="url(#paint0_radial_244_750)" fill-opacity="0.35" stroke="#F0C777"/>
<path fill-rule="evenodd" clip-rule="evenodd" d="M27.9723 4.66542C27.2006 3.87683 25.95 3.87683 25.1783 4.66542L18.1928 11.7869L16.4468 10.0065C15.6751 9.2228 14.424 9.2228 13.6528 10.0065C12.8812 10.7951 12.8812 12.0724 13.6528 12.8561L16.7961 16.0637C17.5677 16.8523 18.8183 16.8523 19.59 16.0637L27.9723 7.51498C28.7439 6.72639 28.7439 5.44917 27.9723 4.66542Z" fill="#F0C777"/>
<defs>
<radialGradient id="paint0_radial_244_750" cx="0" cy="0" r="1" gradientUnits="userSpaceOnUse" gradientTransform="translate(19.807 12.7368) rotate(85.9421) scale(10.4995)">
<stop offset="0.5" stop-color="#242320"/>
<stop offset="1" stop-color="#161615"/>
</radialGradient>
</defs>
</svg>
