<svg width="39" height="39" viewBox="0 0 39 39" fill="none" xmlns="http://www.w3.org/2000/svg">
<mask id="path-1-inside-1_2_6004" fill="white">
<path d="M7.28428 36V28.908H4.82428V27.6H11.3403V28.908H8.89228V36H7.28428ZM11.069 36L14.141 27.6H15.977L19.037 36H17.321L15.053 29.448L12.773 36H11.069ZM12.425 34.092L12.857 32.832H17.129L17.549 34.092H12.425ZM23.0565 36.144C22.4485 36.144 21.9045 36.04 21.4245 35.832C20.9525 35.624 20.5765 35.32 20.2965 34.92C20.0245 34.52 19.8845 34.036 19.8765 33.468H21.5925C21.6005 33.716 21.6645 33.94 21.7845 34.14C21.9045 34.34 22.0685 34.5 22.2765 34.62C22.4925 34.732 22.7485 34.788 23.0445 34.788C23.3005 34.788 23.5205 34.748 23.7045 34.668C23.8965 34.58 24.0445 34.46 24.1485 34.308C24.2525 34.156 24.3045 33.976 24.3045 33.768C24.3045 33.544 24.2485 33.352 24.1365 33.192C24.0245 33.032 23.8685 32.896 23.6685 32.784C23.4685 32.664 23.2365 32.556 22.9725 32.46C22.7165 32.364 22.4405 32.268 22.1445 32.172C21.4565 31.956 20.9365 31.668 20.5845 31.308C20.2325 30.94 20.0565 30.46 20.0565 29.868C20.0565 29.364 20.1765 28.932 20.4165 28.572C20.6645 28.212 21.0045 27.936 21.4365 27.744C21.8685 27.552 22.3605 27.456 22.9125 27.456C23.4805 27.456 23.9765 27.556 24.4005 27.756C24.8325 27.948 25.1725 28.228 25.4205 28.596C25.6765 28.964 25.8125 29.396 25.8285 29.892H24.0885C24.0805 29.708 24.0245 29.536 23.9205 29.376C23.8245 29.208 23.6885 29.076 23.5125 28.98C23.3365 28.876 23.1285 28.824 22.8885 28.824C22.6805 28.816 22.4885 28.848 22.3125 28.92C22.1445 28.992 22.0125 29.1 21.9165 29.244C21.8205 29.38 21.7725 29.552 21.7725 29.76C21.7725 29.96 21.8205 30.128 21.9165 30.264C22.0125 30.4 22.1485 30.52 22.3245 30.624C22.5005 30.72 22.7085 30.812 22.9485 30.9C23.1885 30.98 23.4485 31.064 23.7285 31.152C24.1445 31.296 24.5285 31.468 24.8805 31.668C25.2325 31.86 25.5125 32.112 25.7205 32.424C25.9285 32.736 26.0325 33.148 26.0325 33.66C26.0325 34.1 25.9165 34.508 25.6845 34.884C25.4605 35.26 25.1285 35.564 24.6885 35.796C24.2485 36.028 23.7045 36.144 23.0565 36.144ZM27.4653 36V27.6H29.0853V30.924L32.1213 27.6H34.1253L31.0293 30.924L34.2093 36H32.2293L29.8773 32.184L29.0853 33.024V36H27.4653Z"/>
</mask>
<g filter="url(#filter0_i_2_6004)">
<path d="M7.28428 36V28.908H4.82428V27.6H11.3403V28.908H8.89228V36H7.28428ZM11.069 36L14.141 27.6H15.977L19.037 36H17.321L15.053 29.448L12.773 36H11.069ZM12.425 34.092L12.857 32.832H17.129L17.549 34.092H12.425ZM23.0565 36.144C22.4485 36.144 21.9045 36.04 21.4245 35.832C20.9525 35.624 20.5765 35.32 20.2965 34.92C20.0245 34.52 19.8845 34.036 19.8765 33.468H21.5925C21.6005 33.716 21.6645 33.94 21.7845 34.14C21.9045 34.34 22.0685 34.5 22.2765 34.62C22.4925 34.732 22.7485 34.788 23.0445 34.788C23.3005 34.788 23.5205 34.748 23.7045 34.668C23.8965 34.58 24.0445 34.46 24.1485 34.308C24.2525 34.156 24.3045 33.976 24.3045 33.768C24.3045 33.544 24.2485 33.352 24.1365 33.192C24.0245 33.032 23.8685 32.896 23.6685 32.784C23.4685 32.664 23.2365 32.556 22.9725 32.46C22.7165 32.364 22.4405 32.268 22.1445 32.172C21.4565 31.956 20.9365 31.668 20.5845 31.308C20.2325 30.94 20.0565 30.46 20.0565 29.868C20.0565 29.364 20.1765 28.932 20.4165 28.572C20.6645 28.212 21.0045 27.936 21.4365 27.744C21.8685 27.552 22.3605 27.456 22.9125 27.456C23.4805 27.456 23.9765 27.556 24.4005 27.756C24.8325 27.948 25.1725 28.228 25.4205 28.596C25.6765 28.964 25.8125 29.396 25.8285 29.892H24.0885C24.0805 29.708 24.0245 29.536 23.9205 29.376C23.8245 29.208 23.6885 29.076 23.5125 28.98C23.3365 28.876 23.1285 28.824 22.8885 28.824C22.6805 28.816 22.4885 28.848 22.3125 28.92C22.1445 28.992 22.0125 29.1 21.9165 29.244C21.8205 29.38 21.7725 29.552 21.7725 29.76C21.7725 29.96 21.8205 30.128 21.9165 30.264C22.0125 30.4 22.1485 30.52 22.3245 30.624C22.5005 30.72 22.7085 30.812 22.9485 30.9C23.1885 30.98 23.4485 31.064 23.7285 31.152C24.1445 31.296 24.5285 31.468 24.8805 31.668C25.2325 31.86 25.5125 32.112 25.7205 32.424C25.9285 32.736 26.0325 33.148 26.0325 33.66C26.0325 34.1 25.9165 34.508 25.6845 34.884C25.4605 35.26 25.1285 35.564 24.6885 35.796C24.2485 36.028 23.7045 36.144 23.0565 36.144ZM27.4653 36V27.6H29.0853V30.924L32.1213 27.6H34.1253L31.0293 30.924L34.2093 36H32.2293L29.8773 32.184L29.0853 33.024V36H27.4653Z" fill="url(#paint0_linear_2_6004)"/>
</g>
<path d="M7.28428 36H4.98454V38.2997H7.28428V36ZM7.28428 28.908H9.58402V26.6083H7.28428V28.908ZM4.82428 28.908H2.52454V31.2077H4.82428V28.908ZM4.82428 27.6V25.3003H2.52454V27.6H4.82428ZM11.3403 27.6H13.64V25.3003H11.3403V27.6ZM11.3403 28.908V31.2077H13.64V28.908H11.3403ZM8.89228 28.908V26.6083H6.59254V28.908H8.89228ZM8.89228 36V38.2997H11.192V36H8.89228ZM9.58402 36V28.908H4.98454V36H9.58402ZM7.28428 26.6083H4.82428V31.2077H7.28428V26.6083ZM7.12402 28.908V27.6H2.52454V28.908H7.12402ZM4.82428 29.8997H11.3403V25.3003H4.82428V29.8997ZM9.04054 27.6V28.908H13.64V27.6H9.04054ZM11.3403 26.6083H8.89228V31.2077H11.3403V26.6083ZM6.59254 28.908V36H11.192V28.908H6.59254ZM8.89228 33.7003H7.28428V38.2997H8.89228V33.7003ZM11.069 36L8.90913 35.2101L7.77922 38.2997H11.069V36ZM14.141 27.6V25.3003H12.5333L11.9811 26.8101L14.141 27.6ZM15.977 27.6L18.1378 26.8128L17.5868 25.3003H15.977V27.6ZM19.037 36V38.2997H22.3223L21.1978 35.2128L19.037 36ZM17.321 36L15.1477 36.7523L15.6834 38.2997H17.321V36ZM15.053 29.448L17.2262 28.6957L15.0587 22.4341L12.881 28.6922L15.053 29.448ZM12.773 36V38.2997H14.4077L14.945 36.7558L12.773 36ZM12.425 34.092L10.2495 33.3461L9.20534 36.3917H12.425V34.092ZM12.857 32.832V30.5323H11.2143L10.6815 32.0861L12.857 32.832ZM17.129 32.832L19.3107 32.1048L18.7865 30.5323H17.129V32.832ZM17.549 34.092V36.3917H20.7397L19.7307 33.3648L17.549 34.092ZM13.2288 36.7899L16.3008 28.3899L11.9811 26.8101L8.90913 35.2101L13.2288 36.7899ZM14.141 29.8997H15.977V25.3003H14.141V29.8997ZM13.8161 28.3872L16.8761 36.7872L21.1978 35.2128L18.1378 26.8128L13.8161 28.3872ZM19.037 33.7003H17.321V38.2997H19.037V33.7003ZM19.4942 35.2477L17.2262 28.6957L12.8797 30.2003L15.1477 36.7523L19.4942 35.2477ZM12.881 28.6922L10.601 35.2442L14.945 36.7558L17.225 30.2038L12.881 28.6922ZM12.773 33.7003H11.069V38.2997H12.773V33.7003ZM14.6004 34.8379L15.0324 33.5779L10.6815 32.0861L10.2495 33.3461L14.6004 34.8379ZM12.857 35.1317H17.129V30.5323H12.857V35.1317ZM14.9472 33.5592L15.3672 34.8192L19.7307 33.3648L19.3107 32.1048L14.9472 33.5592ZM17.549 31.7923H12.425V36.3917H17.549V31.7923ZM21.4245 35.832L20.4971 37.9365L20.5036 37.9393L20.5101 37.9421L21.4245 35.832ZM20.2965 34.92L18.3948 36.2132L18.4035 36.226L18.4125 36.2388L20.2965 34.92ZM19.8765 33.468V31.1683H17.5441L17.577 33.5004L19.8765 33.468ZM21.5925 33.468L23.891 33.3939L23.8193 31.1683H21.5925V33.468ZM21.7845 34.14L19.8125 35.3232V35.3232L21.7845 34.14ZM22.2765 34.62L21.1273 36.612L21.172 36.6378L21.2179 36.6616L22.2765 34.62ZM23.7045 34.668L24.6215 36.777L24.6422 36.768L24.6627 36.7586L23.7045 34.668ZM24.1485 34.308L26.0465 35.6066L26.0465 35.6066L24.1485 34.308ZM23.6685 32.784L22.4853 34.756L22.5148 34.7737L22.5448 34.7905L23.6685 32.784ZM22.9725 32.46L22.165 34.6133L22.1758 34.6173L22.1866 34.6213L22.9725 32.46ZM22.1445 32.172L22.854 29.9844L22.8437 29.9811L22.8334 29.9779L22.1445 32.172ZM20.5845 31.308L18.9226 32.8976L18.9313 32.9068L18.9402 32.9158L20.5845 31.308ZM20.4165 28.572L18.5226 27.2673L18.5127 27.2818L18.503 27.2963L20.4165 28.572ZM21.4365 27.744L20.5025 25.6425V25.6425L21.4365 27.744ZM24.4005 27.756L23.4194 29.836L23.4428 29.847L23.4665 29.8575L24.4005 27.756ZM25.4205 28.596L23.5134 29.8812L23.5229 29.8953L23.5326 29.9093L25.4205 28.596ZM25.8285 29.892V32.1917H28.2036L28.127 29.8179L25.8285 29.892ZM24.0885 29.892L21.7909 29.9919L21.8866 32.1917H24.0885V29.892ZM23.9205 29.376L21.9238 30.517L21.9564 30.5741L21.9923 30.6293L23.9205 29.376ZM23.5125 28.98L22.3426 30.9599L22.3766 30.98L22.4113 30.9989L23.5125 28.98ZM22.8885 28.824L22.8001 31.122L22.8443 31.1237H22.8885V28.824ZM22.3125 28.92L21.4417 26.7915L21.4241 26.7987L21.4066 26.8062L22.3125 28.92ZM21.9165 29.244L23.7953 30.5702L23.813 30.5452L23.83 30.5197L21.9165 29.244ZM21.9165 30.264L20.0377 31.5902L20.0377 31.5902L21.9165 30.264ZM22.3245 30.624L21.1546 32.6039L21.1886 32.624L21.2233 32.6429L22.3245 30.624ZM22.9485 30.9L22.1568 33.0592L22.1889 33.0709L22.2213 33.0817L22.9485 30.9ZM23.7285 31.152L24.4808 28.9788L24.4495 28.968L24.418 28.9581L23.7285 31.152ZM24.8805 31.668L23.7444 33.6675L23.7618 33.6774L23.7793 33.6869L24.8805 31.668ZM25.7205 32.424L27.634 31.1483L27.634 31.1483L25.7205 32.424ZM25.6845 34.884L23.7273 33.6764L23.7179 33.6916L23.7088 33.707L25.6845 34.884ZM24.6885 35.796L25.7611 37.8303L24.6885 35.796ZM23.0565 33.8443C22.7125 33.8443 22.4872 33.7861 22.3389 33.7219L20.5101 37.9421C21.3218 38.2939 22.1845 38.4437 23.0565 38.4437V33.8443ZM22.3519 33.7275C22.2419 33.6791 22.2056 33.6371 22.1805 33.6012L18.4125 36.2388C18.9474 37.0029 19.6631 37.5689 20.4971 37.9365L22.3519 33.7275ZM22.1982 33.6268C22.2041 33.6356 22.2021 33.6369 22.1967 33.618C22.1905 33.5965 22.1775 33.54 22.176 33.4356L17.577 33.5004C17.5902 34.4384 17.8281 35.3798 18.3948 36.2132L22.1982 33.6268ZM19.8765 35.7677H21.5925V31.1683H19.8765V35.7677ZM19.294 33.5421C19.3138 34.1558 19.4781 34.7659 19.8125 35.3232L23.7565 32.9568C23.7999 33.0291 23.8344 33.1085 23.8578 33.1902C23.8809 33.2712 23.8893 33.3413 23.891 33.3939L19.294 33.5421ZM19.8125 35.3232C20.1397 35.8685 20.5912 36.3027 21.1273 36.612L23.4257 32.628C23.4798 32.6592 23.5418 32.7037 23.6035 32.7639C23.6654 32.8243 23.7167 32.8905 23.7565 32.9568L19.8125 35.3232ZM21.2179 36.6616C21.8245 36.9761 22.4589 37.0877 23.0445 37.0877V32.4883C23.0381 32.4883 23.1605 32.4879 23.3351 32.5784L21.2179 36.6616ZM23.0445 37.0877C23.5323 37.0877 24.0801 37.0124 24.6215 36.777L22.7875 32.559C22.9609 32.4836 23.0687 32.4883 23.0445 32.4883V37.0877ZM24.6627 36.7586C25.1773 36.5227 25.674 36.1511 26.0465 35.6066L22.2505 33.0094C22.415 32.7689 22.6157 32.6373 22.7463 32.5774L24.6627 36.7586ZM26.0465 35.6066C26.4452 35.0239 26.6042 34.3773 26.6042 33.768H22.0048C22.0048 33.5747 22.0598 33.2881 22.2505 33.0094L26.0465 35.6066ZM26.6042 33.768C26.6042 33.1439 26.4415 32.4746 26.0205 31.8732L22.2525 34.5108C22.0555 34.2294 22.0048 33.9441 22.0048 33.768H26.6042ZM26.0205 31.8732C25.6784 31.3845 25.242 31.0294 24.7922 30.7775L22.5448 34.7905C22.495 34.7626 22.3706 34.6795 22.2525 34.5108L26.0205 31.8732ZM24.8517 30.812C24.5032 30.6029 24.1336 30.4351 23.7584 30.2987L22.1866 34.6213C22.3394 34.6769 22.4338 34.7251 22.4853 34.756L24.8517 30.812ZM23.78 30.3067C23.4875 30.197 23.1785 30.0897 22.854 29.9844L21.435 34.3596C21.7025 34.4463 21.9455 34.531 22.165 34.6133L23.78 30.3067ZM22.8334 29.9779C22.3608 29.8295 22.2257 29.697 22.2288 29.7002L18.9402 32.9158C19.6473 33.639 20.5522 34.0825 21.4556 34.3661L22.8334 29.9779ZM22.2464 29.7184C22.2656 29.7385 22.2865 29.7645 22.3057 29.7955C22.325 29.8264 22.3387 29.8558 22.3477 29.8803C22.3661 29.9305 22.3562 29.9358 22.3562 29.868H17.7568C17.7568 30.9489 18.095 32.0324 18.9226 32.8976L22.2464 29.7184ZM22.3562 29.868C22.3562 29.7987 22.3644 29.774 22.3623 29.7815C22.3614 29.785 22.3585 29.7942 22.3526 29.8071C22.3467 29.8202 22.339 29.8341 22.33 29.8477L18.503 27.2963C17.9717 28.0932 17.7568 28.9866 17.7568 29.868H22.3562ZM22.3104 29.8767C22.3107 29.8761 22.31 29.8772 22.3084 29.8789C22.3068 29.8807 22.3059 29.8813 22.3069 29.8805C22.3078 29.8798 22.3249 29.8658 22.3705 29.8455L20.5025 25.6425C19.7159 25.992 19.0306 26.53 18.5226 27.2673L22.3104 29.8767ZM22.3705 29.8455C22.4633 29.8043 22.6288 29.7557 22.9125 29.7557V25.1563C22.0922 25.1563 21.2737 25.2997 20.5025 25.6425L22.3705 29.8455ZM22.9125 29.7557C23.2118 29.7557 23.3602 29.808 23.4194 29.836L25.3816 25.676C24.5928 25.304 23.7492 25.1563 22.9125 25.1563V29.7557ZM23.4665 29.8575C23.4871 29.8667 23.5003 29.8741 23.5076 29.8786C23.5114 29.8809 23.5139 29.8826 23.5154 29.8836C23.5169 29.8847 23.5175 29.8852 23.5175 29.8852C23.5175 29.8852 23.5171 29.8849 23.5164 29.8842C23.5157 29.8835 23.5149 29.8827 23.5142 29.8819C23.5124 29.88 23.5122 29.8794 23.5134 29.8812L27.3276 27.3108C26.8224 26.5611 26.1342 26.0099 25.3345 25.6545L23.4665 29.8575ZM23.5326 29.9093C23.5304 29.9061 23.5275 29.9014 23.5249 29.8959C23.5236 29.8934 23.5226 29.8911 23.5219 29.8893C23.5216 29.8885 23.5213 29.8878 23.5211 29.8873C23.521 29.8868 23.5209 29.8866 23.5209 29.8866C23.5209 29.8866 23.5213 29.8878 23.5219 29.8905C23.5226 29.8932 23.5235 29.8976 23.5245 29.9037C23.5265 29.916 23.529 29.9364 23.53 29.9661L28.127 29.8179C28.0983 28.9271 27.8448 28.0539 27.3084 27.2827L23.5326 29.9093ZM25.8285 27.5923H24.0885V32.1917H25.8285V27.5923ZM26.3861 29.7921C26.3596 29.1823 26.1682 28.6142 25.8487 28.1227L21.9923 30.6293C21.8808 30.4578 21.8014 30.2337 21.7909 29.9919L26.3861 29.7921ZM25.9172 28.235C25.602 27.6833 25.1496 27.2534 24.6137 26.9611L22.4113 30.9989C22.2274 30.8986 22.047 30.7327 21.9238 30.517L25.9172 28.235ZM24.6824 27.0001C24.0946 26.6528 23.4678 26.5243 22.8885 26.5243V31.1237C22.7892 31.1237 22.5784 31.0992 22.3426 30.9599L24.6824 27.0001ZM22.9769 26.526C22.4721 26.5065 21.9495 26.5838 21.4417 26.7915L23.1833 31.0485C23.0275 31.1122 22.8889 31.1255 22.8001 31.122L22.9769 26.526ZM21.4066 26.8062C20.8527 27.0436 20.3607 27.4318 20.003 27.9683L23.83 30.5197C23.6643 30.7682 23.4363 30.9404 23.2184 31.0338L21.4066 26.8062ZM20.0377 27.9178C19.6062 28.5291 19.4728 29.1965 19.4728 29.76H24.0722C24.0722 29.9075 24.0348 30.2309 23.7953 30.5702L20.0377 27.9178ZM19.4728 29.76C19.4728 30.3373 19.6164 30.9934 20.0377 31.5902L23.7953 28.9378C24.0246 29.2626 24.0722 29.5827 24.0722 29.76H19.4728ZM20.0377 31.5902C20.3588 32.0451 20.761 32.3713 21.1546 32.6039L23.4944 28.6441C23.536 28.6687 23.6662 28.7549 23.7953 28.9378L20.0377 31.5902ZM21.2233 32.6429C21.5216 32.8056 21.8377 32.9422 22.1568 33.0592L23.7402 28.7408C23.5793 28.6818 23.4794 28.6344 23.4257 28.6051L21.2233 32.6429ZM22.2213 33.0817C22.4756 33.1665 22.7483 33.2546 23.039 33.3459L24.418 28.9581C24.1487 28.8734 23.9014 28.7935 23.6757 28.7183L22.2213 33.0817ZM22.9762 33.3252C23.2707 33.4271 23.5249 33.5428 23.7444 33.6675L26.0166 29.6685C25.5321 29.3932 25.0183 29.1649 24.4808 28.9788L22.9762 33.3252ZM23.7793 33.6869C23.794 33.695 23.8036 33.7012 23.809 33.705C23.8143 33.7088 23.8164 33.7107 23.8161 33.7104C23.8157 33.7101 23.8141 33.7086 23.8119 33.706C23.8097 33.7035 23.808 33.7012 23.807 33.6997L27.634 31.1483C27.2052 30.5051 26.6374 30.0067 25.9817 29.6491L23.7793 33.6869ZM23.807 33.6997C23.7478 33.6109 23.7284 33.5443 23.7247 33.5299C23.7219 33.5189 23.7328 33.5564 23.7328 33.66H28.3322C28.3322 32.8552 28.1705 31.953 27.634 31.1483L23.807 33.6997ZM23.7328 33.66C23.7328 33.6644 23.7326 33.6676 23.7325 33.6695C23.7324 33.6714 23.7322 33.6723 23.7322 33.6723C23.7322 33.6724 23.7323 33.6718 23.7325 33.6707C23.7327 33.6697 23.733 33.6684 23.7334 33.6671C23.7343 33.6641 23.735 33.6625 23.7348 33.663C23.7346 33.6635 23.7326 33.6679 23.7273 33.6764L27.6417 36.0916C28.0966 35.3542 28.3322 34.5284 28.3322 33.66H23.7328ZM23.7088 33.707C23.7149 33.6968 23.7198 33.693 23.7144 33.6979C23.7077 33.704 23.6799 33.7279 23.6159 33.7617L25.7611 37.8303C26.523 37.4286 27.1914 36.848 27.6602 36.061L23.7088 33.707ZM23.6159 33.7617C23.5914 33.7746 23.4402 33.8443 23.0565 33.8443V38.4437C23.9688 38.4437 24.9056 38.2814 25.7611 37.8303L23.6159 33.7617ZM27.4653 36H25.1655V38.2997H27.4653V36ZM27.4653 27.6V25.3003H25.1655V27.6H27.4653ZM29.0853 27.6H31.385V25.3003H29.0853V27.6ZM29.0853 30.924H26.7855V36.852L30.7833 32.4749L29.0853 30.924ZM32.1213 27.6V25.3003H31.1071L30.4232 26.0491L32.1213 27.6ZM34.1253 27.6L35.8081 29.1674L39.41 25.3003H34.1253V27.6ZM31.0293 30.924L29.3464 29.3566L28.143 30.6486L29.0804 32.1449L31.0293 30.924ZM34.2093 36V38.2997H38.3638L36.1582 34.7791L34.2093 36ZM32.2293 36L30.2715 37.2067L30.9453 38.2997H32.2293V36ZM29.8773 32.184L31.835 30.9773L30.2614 28.4243L28.204 30.6063L29.8773 32.184ZM29.0853 33.024L27.412 31.4464L26.7855 32.1108V33.024H29.0853ZM29.0853 36V38.2997H31.385V36H29.0853ZM29.765 36V27.6H25.1655V36H29.765ZM27.4653 29.8997H29.0853V25.3003H27.4653V29.8997ZM26.7855 27.6V30.924H31.385V27.6H26.7855ZM30.7833 32.4749L33.8193 29.1509L30.4232 26.0491L27.3872 29.3731L30.7833 32.4749ZM32.1213 29.8997H34.1253V25.3003H32.1213V29.8997ZM32.4424 26.0326L29.3464 29.3566L32.7121 32.4914L35.8081 29.1674L32.4424 26.0326ZM29.0804 32.1449L32.2604 37.2209L36.1582 34.7791L32.9782 29.7031L29.0804 32.1449ZM34.2093 33.7003H32.2293V38.2997H34.2093V33.7003ZM34.187 34.7933L31.835 30.9773L27.9195 33.3907L30.2715 37.2067L34.187 34.7933ZM28.204 30.6063L27.412 31.4464L30.7585 34.6016L31.5505 33.7617L28.204 30.6063ZM26.7855 33.024V36H31.385V33.024H26.7855ZM29.0853 33.7003H27.4653V38.2997H29.0853V33.7003Z" fill="url(#paint1_linear_2_6004)" mask="url(#path-1-inside-1_2_6004)"/>
<rect x="9.5" y="0.5" width="21" height="21" rx="4.5" fill="url(#paint2_radial_2_6004)" fill-opacity="0.35" stroke="#71A3CB"/>
<g filter="url(#filter1_i_2_6004)">
<path fill-rule="evenodd" clip-rule="evenodd" d="M27.9722 4.66554C27.2006 3.87695 25.9499 3.87695 25.1783 4.66554L18.1927 11.7871L16.4467 10.0067C15.6751 9.22292 14.424 9.22292 13.6528 10.0067C12.8812 10.7953 12.8812 12.0725 13.6528 12.8562L16.796 16.0638C17.5677 16.8524 18.8183 16.8524 19.5899 16.0638L27.9722 7.5151C28.7439 6.72652 28.7439 5.44929 27.9722 4.66554Z" fill="url(#paint3_linear_2_6004)"/>
</g>
<path d="M27.1504 5.46975L27.1528 5.47227C27.4824 5.80696 27.486 6.36744 27.1508 6.7105C27.1506 6.71063 27.1505 6.71076 27.1504 6.7109L18.7689 15.2588L18.7681 15.2596C18.4474 15.5873 17.9386 15.5873 17.6179 15.2596L17.6173 15.259L14.4741 12.0514L14.4722 12.0495C14.1429 11.715 14.139 11.1551 14.4736 10.812C14.794 10.4876 15.3058 10.4874 15.6268 10.8128C15.627 10.813 15.6272 10.8132 15.6274 10.8134L17.3718 12.5922L18.1926 13.4292L19.0136 12.5923L25.9992 5.47074L26.0001 5.46975C26.3208 5.14204 26.8297 5.14204 27.1504 5.46975Z" stroke="url(#paint4_linear_2_6004)" stroke-width="2.29974"/>
<defs>
<filter id="filter0_i_2_6004" x="4.82428" y="27.4561" width="29.385" height="17.8869" filterUnits="userSpaceOnUse" color-interpolation-filters="sRGB">
<feFlood flood-opacity="0" result="BackgroundImageFix"/>
<feBlend mode="normal" in="SourceGraphic" in2="BackgroundImageFix" result="shape"/>
<feColorMatrix in="SourceAlpha" type="matrix" values="0 0 0 0 0 0 0 0 0 0 0 0 0 0 0 0 0 0 127 0" result="hardAlpha"/>
<feOffset dy="9.19895"/>
<feGaussianBlur stdDeviation="6.89921"/>
<feComposite in2="hardAlpha" operator="arithmetic" k2="-1" k3="1"/>
<feColorMatrix type="matrix" values="0 0 0 0 1 0 0 0 0 1 0 0 0 0 1 0 0 0 0.6 0"/>
<feBlend mode="normal" in2="shape" result="effect1_innerShadow_2_6004"/>
</filter>
<filter id="filter1_i_2_6004" x="13.0741" y="4.0741" width="15.4769" height="21.7801" filterUnits="userSpaceOnUse" color-interpolation-filters="sRGB">
<feFlood flood-opacity="0" result="BackgroundImageFix"/>
<feBlend mode="normal" in="SourceGraphic" in2="BackgroundImageFix" result="shape"/>
<feColorMatrix in="SourceAlpha" type="matrix" values="0 0 0 0 0 0 0 0 0 0 0 0 0 0 0 0 0 0 127 0" result="hardAlpha"/>
<feOffset dy="9.19895"/>
<feGaussianBlur stdDeviation="6.89921"/>
<feComposite in2="hardAlpha" operator="arithmetic" k2="-1" k3="1"/>
<feColorMatrix type="matrix" values="0 0 0 0 1 0 0 0 0 1 0 0 0 0 1 0 0 0 0.6 0"/>
<feBlend mode="normal" in2="shape" result="effect1_innerShadow_2_6004"/>
</filter>
<linearGradient id="paint0_linear_2_6004" x1="31.3625" y1="25.5833" x2="25.5765" y2="45.841" gradientUnits="userSpaceOnUse">
<stop stop-color="#FDFFFE"/>
<stop offset="0.23" stop-color="#7ABBAC"/>
<stop offset="0.39" stop-color="#B1FFEF"/>
<stop offset="0.535" stop-color="#8AD2C3"/>
<stop offset="0.745" stop-color="#CFFEF4"/>
<stop offset="0.915" stop-color="#6CA196"/>
<stop offset="1" stop-color="#35544E"/>
</linearGradient>
<linearGradient id="paint1_linear_2_6004" x1="19.5" y1="25" x2="19.5" y2="36.9583" gradientUnits="userSpaceOnUse">
<stop stop-color="white" stop-opacity="0.53"/>
<stop offset="1" stop-color="white" stop-opacity="0"/>
</linearGradient>
<radialGradient id="paint2_radial_2_6004" cx="0" cy="0" r="1" gradientUnits="userSpaceOnUse" gradientTransform="translate(19.807 12.7368) rotate(85.9421) scale(10.4995)">
<stop offset="0.5" stop-color="#242320"/>
<stop offset="1" stop-color="#161615"/>
</radialGradient>
<linearGradient id="paint3_linear_2_6004" x1="25.5201" y1="4.59831" x2="16.5412" y2="18.4806" gradientUnits="userSpaceOnUse">
<stop stop-color="#FDFFFE"/>
<stop offset="0.23" stop-color="#7ABBAC"/>
<stop offset="0.39" stop-color="#B1FFEF"/>
<stop offset="0.535" stop-color="#8AD2C3"/>
<stop offset="0.745" stop-color="#CFFEF4"/>
<stop offset="0.915" stop-color="#6CA196"/>
<stop offset="1" stop-color="#35544E"/>
</linearGradient>
<linearGradient id="paint4_linear_2_6004" x1="20.8125" y1="4.0741" x2="20.8125" y2="14.8205" gradientUnits="userSpaceOnUse">
<stop stop-color="white" stop-opacity="0.53"/>
<stop offset="1" stop-color="white" stop-opacity="0"/>
</linearGradient>
</defs>
</svg>
