<svg width="42" height="16" viewBox="0 0 42 16" fill="none" xmlns="http://www.w3.org/2000/svg">
<mask id="path-1-inside-1_843_2198" fill="white">
<path d="M6.04 15.16C5.01333 15.16 4.10667 14.94 3.32 14.5C2.53333 14.06 1.92 13.44 1.48 12.64C1.05333 11.8267 0.84 10.8933 0.84 9.84V6.16C0.84 5.10667 1.05333 4.18 1.48 3.38C1.92 2.56667 2.53333 1.94 3.32 1.5C4.12 1.06 5.04 0.84 6.08 0.84H8.32C9.32 0.84 10.2 1.04 10.96 1.44C11.72 1.84 12.3067 2.40667 12.72 3.14C13.1467 3.87333 13.36 4.72 13.36 5.68H10.64C10.64 4.96 10.4267 4.38 10 3.94C9.57333 3.5 9.01333 3.28 8.32 3.28H6.08C5.33333 3.28 4.73333 3.56 4.28 4.12C3.82667 4.66667 3.6 5.38667 3.6 6.28V9.72C3.6 10.6133 3.82 11.34 4.26 11.9C4.71333 12.4467 5.30667 12.72 6.04 12.72H8.4C9.08 12.72 9.64 12.4733 10.08 11.98C10.5333 11.4867 10.76 10.8733 10.76 10.14V9.7H6.88V7.3H13.48V10.14C13.48 11.1133 13.2667 11.98 12.84 12.74C12.4133 13.5 11.8133 14.0933 11.04 14.52C10.2667 14.9467 9.38667 15.16 8.4 15.16H6.04ZM20.4183 15.16C19.3649 15.16 18.4316 14.94 17.6183 14.5C16.8183 14.0467 16.1916 13.42 15.7383 12.62C15.2983 11.8067 15.0783 10.8667 15.0783 9.8V6.2C15.0783 5.13333 15.2983 4.2 15.7383 3.4C16.1916 2.58667 16.8183 1.96 17.6183 1.52C18.4316 1.06667 19.3649 0.84 20.4183 0.84H22.5383C23.5916 0.84 24.5183 1.06667 25.3183 1.52C26.1316 1.96 26.7583 2.58667 27.1983 3.4C27.6516 4.2 27.8783 5.13333 27.8783 6.2V9.8C27.8783 10.8667 27.6516 11.8067 27.1983 12.62C26.7583 13.42 26.1316 14.0467 25.3183 14.5C24.5183 14.94 23.5916 15.16 22.5383 15.16H20.4183ZM22.5383 12.72C23.3116 12.72 23.9316 12.44 24.3983 11.88C24.8783 11.32 25.1183 10.5867 25.1183 9.68V6.32C25.1183 5.41333 24.8783 4.68 24.3983 4.12C23.9316 3.56 23.3116 3.28 22.5383 3.28H20.4183C19.6449 3.28 19.0183 3.56 18.5383 4.12C18.0716 4.68 17.8383 5.41333 17.8383 6.32V9.68C17.8383 10.5867 18.0716 11.32 18.5383 11.88C19.0183 12.44 19.6449 12.72 20.4183 12.72H22.5383ZM31.8909 15C31.3176 15 30.8509 14.8267 30.4909 14.48C30.1309 14.1333 29.9509 13.68 29.9509 13.12V0.999999H36.6309C37.6976 0.999999 38.6309 1.2 39.4309 1.6C40.2443 2 40.8709 2.56667 41.3109 3.3C41.7643 4.03333 41.9909 4.88 41.9909 5.84V9.76C41.9909 11.48 41.5443 12.7867 40.6509 13.68C39.7576 14.56 38.4443 15 36.7109 15H31.8909ZM36.6309 12.56C37.4843 12.56 38.1309 12.3133 38.5709 11.82C39.0109 11.3267 39.2309 10.6 39.2309 9.64V5.96C39.2309 5.2 38.9843 4.59333 38.4909 4.14C37.9976 3.67333 37.3509 3.44 36.5509 3.44H32.7109V12.56H36.6309Z"/>
</mask>
<path d="M6.04 15.16C5.01333 15.16 4.10667 14.94 3.32 14.5C2.53333 14.06 1.92 13.44 1.48 12.64C1.05333 11.8267 0.84 10.8933 0.84 9.84V6.16C0.84 5.10667 1.05333 4.18 1.48 3.38C1.92 2.56667 2.53333 1.94 3.32 1.5C4.12 1.06 5.04 0.84 6.08 0.84H8.32C9.32 0.84 10.2 1.04 10.96 1.44C11.72 1.84 12.3067 2.40667 12.72 3.14C13.1467 3.87333 13.36 4.72 13.36 5.68H10.64C10.64 4.96 10.4267 4.38 10 3.94C9.57333 3.5 9.01333 3.28 8.32 3.28H6.08C5.33333 3.28 4.73333 3.56 4.28 4.12C3.82667 4.66667 3.6 5.38667 3.6 6.28V9.72C3.6 10.6133 3.82 11.34 4.26 11.9C4.71333 12.4467 5.30667 12.72 6.04 12.72H8.4C9.08 12.72 9.64 12.4733 10.08 11.98C10.5333 11.4867 10.76 10.8733 10.76 10.14V9.7H6.88V7.3H13.48V10.14C13.48 11.1133 13.2667 11.98 12.84 12.74C12.4133 13.5 11.8133 14.0933 11.04 14.52C10.2667 14.9467 9.38667 15.16 8.4 15.16H6.04ZM20.4183 15.16C19.3649 15.16 18.4316 14.94 17.6183 14.5C16.8183 14.0467 16.1916 13.42 15.7383 12.62C15.2983 11.8067 15.0783 10.8667 15.0783 9.8V6.2C15.0783 5.13333 15.2983 4.2 15.7383 3.4C16.1916 2.58667 16.8183 1.96 17.6183 1.52C18.4316 1.06667 19.3649 0.84 20.4183 0.84H22.5383C23.5916 0.84 24.5183 1.06667 25.3183 1.52C26.1316 1.96 26.7583 2.58667 27.1983 3.4C27.6516 4.2 27.8783 5.13333 27.8783 6.2V9.8C27.8783 10.8667 27.6516 11.8067 27.1983 12.62C26.7583 13.42 26.1316 14.0467 25.3183 14.5C24.5183 14.94 23.5916 15.16 22.5383 15.16H20.4183ZM22.5383 12.72C23.3116 12.72 23.9316 12.44 24.3983 11.88C24.8783 11.32 25.1183 10.5867 25.1183 9.68V6.32C25.1183 5.41333 24.8783 4.68 24.3983 4.12C23.9316 3.56 23.3116 3.28 22.5383 3.28H20.4183C19.6449 3.28 19.0183 3.56 18.5383 4.12C18.0716 4.68 17.8383 5.41333 17.8383 6.32V9.68C17.8383 10.5867 18.0716 11.32 18.5383 11.88C19.0183 12.44 19.6449 12.72 20.4183 12.72H22.5383ZM31.8909 15C31.3176 15 30.8509 14.8267 30.4909 14.48C30.1309 14.1333 29.9509 13.68 29.9509 13.12V0.999999H36.6309C37.6976 0.999999 38.6309 1.2 39.4309 1.6C40.2443 2 40.8709 2.56667 41.3109 3.3C41.7643 4.03333 41.9909 4.88 41.9909 5.84V9.76C41.9909 11.48 41.5443 12.7867 40.6509 13.68C39.7576 14.56 38.4443 15 36.7109 15H31.8909ZM36.6309 12.56C37.4843 12.56 38.1309 12.3133 38.5709 11.82C39.0109 11.3267 39.2309 10.6 39.2309 9.64V5.96C39.2309 5.2 38.9843 4.59333 38.4909 4.14C37.9976 3.67333 37.3509 3.44 36.5509 3.44H32.7109V12.56H36.6309Z" fill="black"/>
<path d="M3.32 14.5L2.19738 16.5071L3.32 14.5ZM1.48 12.64L-0.556527 13.7083L-0.545994 13.7284L-0.535067 13.7483L1.48 12.64ZM1.48 3.38L-0.542755 2.28572L-0.549181 2.29777L1.48 3.38ZM3.32 1.5L2.21171 -0.515068L2.20453 -0.511117L2.19738 -0.507116L3.32 1.5ZM10.96 1.44L12.0311 -0.59508L12.0311 -0.595081L10.96 1.44ZM12.72 3.14L10.7166 4.2692L10.7243 4.28292L10.7322 4.29652L12.72 3.14ZM13.36 5.68V7.97974H15.6597V5.68H13.36ZM10.64 5.68H8.34026V7.97974H10.64V5.68ZM10 3.94L8.34902 5.54095L8.34902 5.54095L10 3.94ZM4.28 4.12L6.05024 5.588L6.05891 5.57755L6.06746 5.56699L4.28 4.12ZM4.26 11.9L2.45167 13.3208L2.47041 13.3447L2.48976 13.368L4.26 11.9ZM10.08 11.98L8.38664 10.4239L8.37508 10.4365L8.36372 10.4493L10.08 11.98ZM10.76 9.7H13.0597V7.40026H10.76V9.7ZM6.88 9.7H4.58026V11.9997H6.88V9.7ZM6.88 7.3V5.00026H4.58026V7.3H6.88ZM13.48 7.3H15.7797V5.00026H13.48V7.3ZM12.84 12.74L10.8347 11.6142L10.8347 11.6142L12.84 12.74ZM11.04 14.52L12.151 16.5336L12.151 16.5336L11.04 14.52ZM6.04 12.8603C5.35098 12.8603 4.84092 12.7157 4.44262 12.4929L2.19738 16.5071C3.37242 17.1643 4.67569 17.4597 6.04 17.4597V12.8603ZM4.44262 12.4929C4.03682 12.2659 3.73042 11.9596 3.49507 11.5317L-0.535067 13.7483C0.109576 14.9204 1.02985 15.8541 2.19738 16.5071L4.44262 12.4929ZM3.51653 11.5717C3.28663 11.1334 3.13974 10.5762 3.13974 9.84H-1.45974C-1.45974 11.2105 -1.17996 12.5199 -0.556527 13.7083L3.51653 11.5717ZM3.13974 9.84V6.16H-1.45974V9.84H3.13974ZM3.13974 6.16C3.13974 5.42282 3.28693 4.87895 3.50918 4.46223L-0.549181 2.29777C-1.18026 3.48105 -1.45974 4.79052 -1.45974 6.16H3.13974ZM3.50272 4.47426C3.74096 4.03388 4.04673 3.72855 4.44262 3.50712L2.19738 -0.507116C1.01994 0.151453 0.0990438 1.09945 -0.542719 2.28574L3.50272 4.47426ZM4.42829 3.51507C4.84393 3.28646 5.37293 3.13974 6.08 3.13974V-1.45974C4.70707 -1.45974 3.39607 -1.16647 2.21171 -0.515068L4.42829 3.51507ZM6.08 3.13974H8.32V-1.45974H6.08V3.13974ZM8.32 3.13974C9.00829 3.13974 9.50962 3.27546 9.88891 3.47508L12.0311 -0.595081C10.8904 -1.19546 9.63171 -1.45974 8.32 -1.45974V3.13974ZM9.8889 3.47508C10.2659 3.67348 10.525 3.92939 10.7166 4.2692L14.7234 2.0108C14.0883 0.883947 13.1741 0.00651674 12.0311 -0.59508L9.8889 3.47508ZM10.7322 4.29652C10.9288 4.6344 11.0603 5.07182 11.0603 5.68H15.6597C15.6597 4.36818 15.3645 3.11226 14.7078 1.98348L10.7322 4.29652ZM13.36 3.38026H10.64V7.97974H13.36V3.38026ZM12.9397 5.68C12.9397 4.47432 12.5657 3.28231 11.651 2.33905L8.34902 5.54095C8.34572 5.53755 8.339 5.52974 8.33197 5.51854C8.32873 5.51336 8.32616 5.50865 8.32428 5.50481C8.32241 5.50098 8.32162 5.49884 8.32163 5.49888C8.32166 5.49895 8.32272 5.50185 8.32435 5.50809C8.32598 5.51437 8.32827 5.5244 8.33062 5.53866C8.33531 5.56729 8.34026 5.61336 8.34026 5.68H12.9397ZM11.651 2.33905C10.7326 1.39201 9.54611 0.980261 8.32 0.980261V5.57974C8.37181 5.57974 8.40311 5.58385 8.4174 5.58636C8.43115 5.58877 8.43027 5.58988 8.4191 5.58548C8.4075 5.58093 8.39217 5.57334 8.37636 5.56276C8.36065 5.55225 8.35149 5.5435 8.34902 5.54095L11.651 2.33905ZM8.32 0.980261H6.08V5.57974H8.32V0.980261ZM6.08 0.980261C4.66854 0.980261 3.40054 1.55136 2.49254 2.67301L6.06746 5.56699C6.07552 5.55703 6.08085 5.55148 6.08304 5.54928C6.08519 5.54713 6.08468 5.54786 6.08136 5.55051C6.078 5.55319 6.07268 5.5571 6.06553 5.56154C6.05837 5.56599 6.05057 5.57023 6.04253 5.57398C6.0345 5.57773 6.02754 5.58038 6.02225 5.58212C6.01701 5.58385 6.01458 5.58431 6.01565 5.58408C6.0175 5.5837 6.03733 5.57974 6.08 5.57974V0.980261ZM2.50976 2.65199C1.63346 3.70871 1.30026 4.99241 1.30026 6.28H5.89974C5.89974 5.78092 6.01988 5.62462 6.05024 5.588L2.50976 2.65199ZM1.30026 6.28V9.72H5.89974V6.28H1.30026ZM1.30026 9.72C1.30026 10.995 1.61956 12.2618 2.45167 13.3208L6.06833 10.4792C6.02044 10.4182 5.89974 10.2317 5.89974 9.72H1.30026ZM2.48976 13.368C3.39617 14.461 4.64795 15.0197 6.04 15.0197V10.4203C5.99982 10.4203 5.98148 10.4166 5.98032 10.4163C5.97958 10.4162 5.98215 10.4167 5.98737 10.4184C5.99263 10.4201 5.99944 10.4227 6.00724 10.4262C6.01504 10.4298 6.02257 10.4339 6.02945 10.4381C6.03631 10.4423 6.04137 10.446 6.04453 10.4484C6.04765 10.4509 6.04803 10.4515 6.04581 10.4493C6.04356 10.4471 6.03825 10.4417 6.03024 10.432L2.48976 13.368ZM6.04 15.0197H8.4V10.4203H6.04V15.0197ZM8.4 15.0197C9.71412 15.0197 10.9059 14.5091 11.7963 13.5107L8.36372 10.4493C8.35209 10.4623 8.35018 10.462 8.35952 10.4551C8.36929 10.4479 8.38438 10.4386 8.40297 10.4304C8.42143 10.4223 8.43478 10.419 8.43882 10.4182C8.44223 10.4175 8.43062 10.4203 8.4 10.4203V15.0197ZM11.7734 13.5361C12.6549 12.5767 13.0597 11.3905 13.0597 10.14H8.46026C8.46026 10.3562 8.41173 10.3966 8.38664 10.4239L11.7734 13.5361ZM13.0597 10.14V9.7H8.46026V10.14H13.0597ZM10.76 7.40026H6.88V11.9997H10.76V7.40026ZM9.17974 9.7V7.3H4.58026V9.7H9.17974ZM6.88 9.59974H13.48V5.00026H6.88V9.59974ZM11.1803 7.3V10.14H15.7797V7.3H11.1803ZM11.1803 10.14C11.1803 10.766 11.0465 11.2368 10.8347 11.6142L14.8453 13.8658C15.4868 12.7232 15.7797 11.4607 15.7797 10.14H11.1803ZM10.8347 11.6142C10.6206 11.9955 10.3327 12.2837 9.92905 12.5064L12.151 16.5336C13.294 15.903 14.2061 15.0045 14.8453 13.8658L10.8347 11.6142ZM9.92905 12.5064C9.53432 12.7242 9.04448 12.8603 8.4 12.8603V17.4597C9.72885 17.4597 10.999 17.1692 12.151 16.5336L9.92905 12.5064ZM8.4 12.8603H6.04V17.4597H8.4V12.8603ZM17.6183 14.5L16.4845 16.5008L16.5041 16.512L16.524 16.5227L17.6183 14.5ZM15.7383 12.62L13.7156 13.7143L13.7263 13.7341L13.7375 13.7538L15.7383 12.62ZM15.7383 3.4L13.7295 2.28033L13.7232 2.29171L15.7383 3.4ZM17.6183 1.52L18.7266 3.5351L18.7379 3.52878L17.6183 1.52ZM25.3183 1.52L24.1845 3.52082L24.2041 3.53197L24.224 3.54272L25.3183 1.52ZM27.1983 3.4L25.1756 4.49426L25.1863 4.51414L25.1975 4.5338L27.1983 3.4ZM27.1983 12.62L25.1895 11.5003L25.1832 11.5117L27.1983 12.62ZM25.3183 14.5L26.4266 16.5151L26.4379 16.5088L25.3183 14.5ZM24.3983 11.88L22.6522 10.3834L22.6418 10.3955L22.6316 10.4077L24.3983 11.88ZM24.3983 4.12L22.6316 5.59226L22.6418 5.60452L22.6522 5.61665L24.3983 4.12ZM18.5383 4.12L16.7922 2.62335L16.7818 2.63547L16.7716 2.64774L18.5383 4.12ZM18.5383 11.88L16.7716 13.3523L16.7818 13.3645L16.7922 13.3767L18.5383 11.88ZM20.4183 12.8603C19.6933 12.8603 19.1455 12.7115 18.7125 12.4773L16.524 16.5227C17.7177 17.1685 19.0366 17.4597 20.4183 17.4597V12.8603ZM18.7521 12.4992C18.3142 12.2511 17.9872 11.9241 17.7391 11.4862L13.7375 13.7538C14.396 14.9159 15.3223 15.8423 16.4845 16.5008L18.7521 12.4992ZM17.761 11.5257C17.529 11.0969 17.378 10.5437 17.378 9.8H12.7785C12.7785 11.1897 13.0676 12.5164 13.7156 13.7143L17.761 11.5257ZM17.378 9.8V6.2H12.7785V9.8H17.378ZM17.378 6.2C17.378 5.4553 17.5293 4.9156 17.7533 4.50829L13.7232 2.29171C13.0672 3.4844 12.7785 4.81137 12.7785 6.2H17.378ZM17.7471 4.51965C17.9946 4.07548 18.3127 3.76271 18.7266 3.53507L16.51 -0.495068C15.3239 0.157292 14.3886 1.09785 13.7295 2.28035L17.7471 4.51965ZM18.7379 3.52878C19.166 3.29017 19.7046 3.13974 20.4183 3.13974V-1.45974C19.0253 -1.45974 17.6972 -1.15683 16.4986 -0.488778L18.7379 3.52878ZM20.4183 3.13974H22.5383V-1.45974H20.4183V3.13974ZM22.5383 3.13974C23.2528 3.13974 23.7779 3.29042 24.1845 3.52082L26.4521 -0.480824C25.2587 -1.15709 23.9304 -1.45974 22.5383 -1.45974V3.13974ZM24.224 3.54272C24.6442 3.77004 24.9482 4.07406 25.1756 4.49426L29.221 2.30574C28.5683 1.09927 27.619 0.149962 26.4125 -0.50272L24.224 3.54272ZM25.1975 4.5338C25.4255 4.93616 25.5785 5.46652 25.5785 6.2H30.178C30.178 4.80014 29.8778 3.46384 29.1991 2.2662L25.1975 4.5338ZM25.5785 6.2V9.8H30.178V6.2H25.5785ZM25.5785 9.8C25.5785 10.5325 25.4258 11.0765 25.1895 11.5004L29.2071 13.7396C29.8775 12.5369 30.178 11.2008 30.178 9.8H25.5785ZM25.1832 11.5117C24.9556 11.9256 24.6428 12.2437 24.1986 12.4912L26.4379 16.5088C27.6204 15.8497 28.561 14.9144 29.2133 13.7283L25.1832 11.5117ZM24.21 12.4849C23.7986 12.7112 23.2642 12.8603 22.5383 12.8603V17.4597C23.919 17.4597 25.238 17.1688 26.4266 16.5151L24.21 12.4849ZM22.5383 12.8603H20.4183V17.4597H22.5383V12.8603ZM22.5383 15.0197C23.9466 15.0197 25.2318 14.472 26.165 13.3523L22.6316 10.4077C22.6155 10.4271 22.6087 10.4314 22.613 10.428C22.6179 10.4243 22.6266 10.4187 22.6367 10.4141C22.6466 10.4096 22.6482 10.4105 22.6364 10.4128C22.6239 10.4154 22.5927 10.4203 22.5383 10.4203V15.0197ZM26.1444 13.3766C27.0584 12.3103 27.418 11.005 27.418 9.68H22.8185C22.8185 10.1684 22.6982 10.3297 22.6522 10.3834L26.1444 13.3766ZM27.418 9.68V6.32H22.8185V9.68H27.418ZM27.418 6.32C27.418 4.99504 27.0584 3.68968 26.1444 2.62335L22.6522 5.61665C22.6982 5.67032 22.8185 5.83162 22.8185 6.32H27.418ZM26.165 2.64774C25.2318 1.52797 23.9466 0.980261 22.5383 0.980261V5.57974C22.5927 5.57974 22.6239 5.58464 22.6364 5.58716C22.6482 5.58953 22.6466 5.59036 22.6367 5.58591C22.6266 5.58134 22.6179 5.57572 22.613 5.572C22.6087 5.56863 22.6155 5.57291 22.6316 5.59226L26.165 2.64774ZM22.5383 0.980261H20.4183V5.57974H22.5383V0.980261ZM20.4183 0.980261C19.0108 0.980261 17.7327 1.52605 16.7922 2.62335L20.2844 5.61665C20.3046 5.59308 20.3157 5.58467 20.3162 5.58431C20.3162 5.5843 20.3122 5.5871 20.3064 5.58968C20.3009 5.59216 20.3027 5.59039 20.3168 5.58758C20.3316 5.58462 20.3639 5.57974 20.4183 5.57974V0.980261ZM16.7716 2.64774C15.8829 3.71416 15.5385 5.01048 15.5385 6.32H20.138C20.138 5.81618 20.2603 5.64583 20.305 5.59226L16.7716 2.64774ZM15.5385 6.32V9.68H20.138V6.32H15.5385ZM15.5385 9.68C15.5385 10.9895 15.8829 12.2858 16.7716 13.3523L20.305 10.4077C20.2603 10.3542 20.138 10.1838 20.138 9.68H15.5385ZM16.7922 13.3767C17.7327 14.4739 19.0108 15.0197 20.4183 15.0197V10.4203C20.3639 10.4203 20.3316 10.4154 20.3168 10.4124C20.3027 10.4096 20.3009 10.4078 20.3064 10.4103C20.3122 10.4129 20.3162 10.4157 20.3162 10.4157C20.3157 10.4153 20.3046 10.4069 20.2844 10.3833L16.7922 13.3767ZM20.4183 15.0197H22.5383V10.4203H20.4183V15.0197ZM30.4909 14.48L28.8957 16.1365L28.8957 16.1365L30.4909 14.48ZM29.9509 0.999999V-1.29974H27.6512V0.999999H29.9509ZM39.4309 1.6L38.4025 3.65695L38.4092 3.66033L38.416 3.66367L39.4309 1.6ZM41.3109 3.3L39.3389 4.48321L39.3468 4.49628L39.3548 4.50925L41.3109 3.3ZM40.6509 13.68L42.2648 15.3183L42.271 15.3123L42.2771 15.3062L40.6509 13.68ZM38.5709 11.82L40.2872 13.3507L40.2872 13.3507L38.5709 11.82ZM38.4909 4.14L36.9106 5.81069L36.9226 5.82211L36.9349 5.83336L38.4909 4.14ZM32.7109 3.44V1.14026H30.4112V3.44H32.7109ZM32.7109 12.56H30.4112V14.8597H32.7109V12.56ZM31.8909 12.7003C31.8368 12.7003 31.8531 12.6924 31.9117 12.7142C31.9402 12.7248 31.9725 12.7401 32.0054 12.7609C32.0384 12.7816 32.0655 12.8036 32.0861 12.8235L28.8957 16.1365C29.7478 16.9571 30.8172 17.2997 31.8909 17.2997V12.7003ZM32.0861 12.8235C32.1364 12.8719 32.1893 12.9455 32.2234 13.0313C32.2553 13.1117 32.2507 13.152 32.2507 13.12H27.6512C27.6512 14.2222 28.0292 15.3021 28.8957 16.1365L32.0861 12.8235ZM32.2507 13.12V0.999999H27.6512V13.12H32.2507ZM29.9509 3.29974H36.6309V-1.29974H29.9509V3.29974ZM36.6309 3.29974C37.4088 3.29974 37.9776 3.44454 38.4025 3.65695L40.4594 -0.456948C39.2842 -1.04454 37.9865 -1.29974 36.6309 -1.29974V3.29974ZM38.416 3.66367C38.8572 3.88063 39.1405 4.15246 39.3389 4.48321L43.2829 2.11679C42.6014 0.980873 41.6314 0.119368 40.4459 -0.463671L38.416 3.66367ZM39.3548 4.50925C39.5586 4.83898 39.6912 5.25723 39.6912 5.84H44.2907C44.2907 4.50277 43.9699 3.22769 43.2671 2.09075L39.3548 4.50925ZM39.6912 5.84V9.76H44.2907V5.84H39.6912ZM39.6912 9.76C39.6912 11.0961 39.3497 11.7289 39.0248 12.0538L42.2771 15.3062C43.7389 13.8444 44.2907 11.8639 44.2907 9.76H39.6912ZM39.037 12.0417C38.7165 12.3575 38.0752 12.7003 36.7109 12.7003V17.2997C38.8133 17.2997 40.7987 16.7625 42.2648 15.3183L39.037 12.0417ZM36.7109 12.7003H31.8909V17.2997H36.7109V12.7003ZM36.6309 14.8597C37.9369 14.8597 39.2919 14.4667 40.2872 13.3507L36.8547 10.2893C36.8689 10.2733 36.8875 10.2567 36.9077 10.2429C36.9276 10.2294 36.9394 10.2251 36.9363 10.2263C36.9278 10.2295 36.8405 10.2603 36.6309 10.2603V14.8597ZM40.2872 13.3507C41.2421 12.2802 41.5307 10.9133 41.5307 9.64H36.9312C36.9312 10.2867 36.7798 10.3732 36.8547 10.2893L40.2872 13.3507ZM41.5307 9.64V5.96H36.9312V9.64H41.5307ZM41.5307 5.96C41.5307 4.6518 41.0803 3.39613 40.047 2.44664L36.9349 5.83336C36.9394 5.83756 36.9358 5.83487 36.929 5.82517C36.9221 5.81533 36.9176 5.80615 36.9156 5.8012C36.9106 5.78897 36.9312 5.8299 36.9312 5.96H41.5307ZM40.0713 2.46931C39.0762 1.52794 37.827 1.14026 36.5509 1.14026V5.73974C36.7276 5.73974 36.8197 5.76533 36.8554 5.77823C36.8849 5.78886 36.8967 5.79756 36.9106 5.81069L40.0713 2.46931ZM36.5509 1.14026H32.7109V5.73974H36.5509V1.14026ZM30.4112 3.44V12.56H35.0107V3.44H30.4112ZM32.7109 14.8597H36.6309V10.2603H32.7109V14.8597Z" fill="url(#paint0_linear_843_2198)" mask="url(#path-1-inside-1_843_2198)"/>
<defs>
<linearGradient id="paint0_linear_843_2198" x1="28.5" y1="-3" x2="28.5" y2="15.7917" gradientUnits="userSpaceOnUse">
<stop stop-color="white" stop-opacity="0.53"/>
<stop offset="1" stop-color="white" stop-opacity="0"/>
</linearGradient>
</defs>
</svg>
