<svg width="75" height="11" viewBox="0 0 75 11" fill="none" xmlns="http://www.w3.org/2000/svg">
<mask id="path-1-inside-1_843_2184" fill="white">
<path d="M6.608 7.718H2.94L2.072 10H0.056L3.892 0.199999H4.76C5.36667 0.199999 5.77733 0.479999 5.992 1.04L9.478 10H7.462L6.608 7.718ZM3.458 6.094H6.09L4.788 2.566H4.774L3.458 6.094ZM11.6733 10C11.2719 10 10.9453 9.87867 10.6933 9.636C10.4413 9.39333 10.3153 9.076 10.3153 8.684V0.199999H14.9913C15.7379 0.199999 16.3913 0.339999 16.9513 0.62C17.5206 0.899999 17.9593 1.29667 18.2673 1.81C18.5846 2.32333 18.7433 2.916 18.7433 3.588V6.332C18.7433 7.536 18.4306 8.45067 17.8053 9.076C17.1799 9.692 16.2606 10 15.0473 10H11.6733ZM14.9913 8.292C15.5886 8.292 16.0413 8.11933 16.3493 7.774C16.6573 7.42867 16.8113 6.92 16.8113 6.248V3.672C16.8113 3.14 16.6386 2.71533 16.2933 2.398C15.9479 2.07133 15.4953 1.908 14.9353 1.908H12.2473V8.292H14.9913ZM23.5959 10C23.0546 10 22.6672 9.70133 22.4339 9.104L19.0599 0.199999H21.0759L23.6519 7.55H23.6799L26.2699 0.199999H28.2719L24.5059 10H23.5959ZM33.651 7.718H29.983L29.115 10H27.099L30.935 0.199999H31.803C32.4096 0.199999 32.8203 0.479999 33.035 1.04L36.521 10H34.505L33.651 7.718ZM30.501 6.094H33.133L31.831 2.566H31.817L30.501 6.094ZM37.4403 0.199999H39.1623L43.8663 6.864V0.199999H45.7563V10H44.0343L39.3303 3.336V10H37.4403V0.199999ZM50.8211 10.112C50.1024 10.112 49.4678 9.958 48.9171 9.65C48.3758 9.342 47.9558 8.908 47.6571 8.348C47.3584 7.77867 47.2091 7.12533 47.2091 6.388V3.812C47.2091 3.07467 47.3584 2.426 47.6571 1.866C47.9651 1.29667 48.3944 0.858 48.9451 0.55C49.5051 0.242 50.1491 0.0879999 50.8771 0.0879999H52.3611C53.0611 0.0879999 53.6771 0.237333 54.2091 0.535999C54.7411 0.834666 55.1518 1.25467 55.4411 1.796C55.7398 2.328 55.8891 2.94867 55.8891 3.658H53.9851C53.9851 3.098 53.8358 2.65 53.5371 2.314C53.2384 1.96867 52.8464 1.796 52.3611 1.796H50.8771C50.3544 1.796 49.9344 1.992 49.6171 2.384C49.2998 2.76667 49.1411 3.27067 49.1411 3.896V6.304C49.1411 6.92933 49.2951 7.438 49.6031 7.83C49.9111 8.21267 50.3171 8.404 50.8211 8.404H52.3331C52.8278 8.404 53.2291 8.21267 53.5371 7.83C53.8544 7.44733 54.0131 6.94333 54.0131 6.318H55.9171C55.9171 7.074 55.7678 7.74133 55.4691 8.32C55.1704 8.88933 54.7504 9.33267 54.2091 9.65C53.6678 9.958 53.0424 10.112 52.3331 10.112H50.8211ZM58.4858 10C58.0844 10 57.7578 9.87867 57.5058 9.636C57.2538 9.39333 57.1278 9.076 57.1278 8.684V0.199999H64.6038V1.88H59.0598V4.148H64.1838V5.828H59.0598V8.32H64.6038V10H58.4858ZM67.2768 10C66.8754 10 66.5488 9.87867 66.2968 9.636C66.0448 9.39333 65.9188 9.076 65.9188 8.684V0.199999H70.5948C71.3414 0.199999 71.9948 0.339999 72.5548 0.62C73.1241 0.899999 73.5628 1.29667 73.8708 1.81C74.1881 2.32333 74.3468 2.916 74.3468 3.588V6.332C74.3468 7.536 74.0341 8.45067 73.4088 9.076C72.7834 9.692 71.8641 10 70.6508 10H67.2768ZM70.5948 8.292C71.1921 8.292 71.6448 8.11933 71.9528 7.774C72.2608 7.42867 72.4148 6.92 72.4148 6.248V3.672C72.4148 3.14 72.2421 2.71533 71.8968 2.398C71.5514 2.07133 71.0988 1.908 70.5388 1.908H67.8508V8.292H70.5948Z"/>
</mask>
<path d="M6.608 7.718H2.94L2.072 10H0.056L3.892 0.199999H4.76C5.36667 0.199999 5.77733 0.479999 5.992 1.04L9.478 10H7.462L6.608 7.718ZM3.458 6.094H6.09L4.788 2.566H4.774L3.458 6.094ZM11.6733 10C11.2719 10 10.9453 9.87867 10.6933 9.636C10.4413 9.39333 10.3153 9.076 10.3153 8.684V0.199999H14.9913C15.7379 0.199999 16.3913 0.339999 16.9513 0.62C17.5206 0.899999 17.9593 1.29667 18.2673 1.81C18.5846 2.32333 18.7433 2.916 18.7433 3.588V6.332C18.7433 7.536 18.4306 8.45067 17.8053 9.076C17.1799 9.692 16.2606 10 15.0473 10H11.6733ZM14.9913 8.292C15.5886 8.292 16.0413 8.11933 16.3493 7.774C16.6573 7.42867 16.8113 6.92 16.8113 6.248V3.672C16.8113 3.14 16.6386 2.71533 16.2933 2.398C15.9479 2.07133 15.4953 1.908 14.9353 1.908H12.2473V8.292H14.9913ZM23.5959 10C23.0546 10 22.6672 9.70133 22.4339 9.104L19.0599 0.199999H21.0759L23.6519 7.55H23.6799L26.2699 0.199999H28.2719L24.5059 10H23.5959ZM33.651 7.718H29.983L29.115 10H27.099L30.935 0.199999H31.803C32.4096 0.199999 32.8203 0.479999 33.035 1.04L36.521 10H34.505L33.651 7.718ZM30.501 6.094H33.133L31.831 2.566H31.817L30.501 6.094ZM37.4403 0.199999H39.1623L43.8663 6.864V0.199999H45.7563V10H44.0343L39.3303 3.336V10H37.4403V0.199999ZM50.8211 10.112C50.1024 10.112 49.4678 9.958 48.9171 9.65C48.3758 9.342 47.9558 8.908 47.6571 8.348C47.3584 7.77867 47.2091 7.12533 47.2091 6.388V3.812C47.2091 3.07467 47.3584 2.426 47.6571 1.866C47.9651 1.29667 48.3944 0.858 48.9451 0.55C49.5051 0.242 50.1491 0.0879999 50.8771 0.0879999H52.3611C53.0611 0.0879999 53.6771 0.237333 54.2091 0.535999C54.7411 0.834666 55.1518 1.25467 55.4411 1.796C55.7398 2.328 55.8891 2.94867 55.8891 3.658H53.9851C53.9851 3.098 53.8358 2.65 53.5371 2.314C53.2384 1.96867 52.8464 1.796 52.3611 1.796H50.8771C50.3544 1.796 49.9344 1.992 49.6171 2.384C49.2998 2.76667 49.1411 3.27067 49.1411 3.896V6.304C49.1411 6.92933 49.2951 7.438 49.6031 7.83C49.9111 8.21267 50.3171 8.404 50.8211 8.404H52.3331C52.8278 8.404 53.2291 8.21267 53.5371 7.83C53.8544 7.44733 54.0131 6.94333 54.0131 6.318H55.9171C55.9171 7.074 55.7678 7.74133 55.4691 8.32C55.1704 8.88933 54.7504 9.33267 54.2091 9.65C53.6678 9.958 53.0424 10.112 52.3331 10.112H50.8211ZM58.4858 10C58.0844 10 57.7578 9.87867 57.5058 9.636C57.2538 9.39333 57.1278 9.076 57.1278 8.684V0.199999H64.6038V1.88H59.0598V4.148H64.1838V5.828H59.0598V8.32H64.6038V10H58.4858ZM67.2768 10C66.8754 10 66.5488 9.87867 66.2968 9.636C66.0448 9.39333 65.9188 9.076 65.9188 8.684V0.199999H70.5948C71.3414 0.199999 71.9948 0.339999 72.5548 0.62C73.1241 0.899999 73.5628 1.29667 73.8708 1.81C74.1881 2.32333 74.3468 2.916 74.3468 3.588V6.332C74.3468 7.536 74.0341 8.45067 73.4088 9.076C72.7834 9.692 71.8641 10 70.6508 10H67.2768ZM70.5948 8.292C71.1921 8.292 71.6448 8.11933 71.9528 7.774C72.2608 7.42867 72.4148 6.92 72.4148 6.248V3.672C72.4148 3.14 72.2421 2.71533 71.8968 2.398C71.5514 2.07133 71.0988 1.908 70.5388 1.908H67.8508V8.292H70.5948Z" fill="#4CAF50"/>
<path d="M6.608 7.718L8.76185 6.91196L8.20286 5.41826H6.608V7.718ZM2.94 7.718V5.41826H1.35426L0.790505 6.9004L2.94 7.718ZM2.072 10V12.2997H3.65774L4.22149 10.8176L2.072 10ZM0.056 10L-2.08552 9.16175L-3.31382 12.2997H0.056V10ZM3.892 0.199999V-2.09974H2.32254L1.75048 -0.638254L3.892 0.199999ZM5.992 1.04L3.8446 1.86317L3.84876 1.87385L5.992 1.04ZM9.478 10V12.2997H12.8404L11.6212 9.16615L9.478 10ZM7.462 10L5.30815 10.806L5.86714 12.2997H7.462V10ZM3.458 6.094L1.30329 5.29026L0.145638 8.39374H3.458V6.094ZM6.09 6.094V8.39374H9.39006L8.24751 5.29778L6.09 6.094ZM4.788 2.566L6.9455 1.76978L6.39064 0.266262H4.788V2.566ZM4.774 2.566V0.266262H3.17732L2.61929 1.76226L4.774 2.566ZM6.608 5.41826H2.94V10.0177H6.608V5.41826ZM0.790505 6.9004L-0.0774946 9.1824L4.22149 10.8176L5.08949 8.5356L0.790505 6.9004ZM2.072 7.70026H0.056V12.2997H2.072V7.70026ZM2.19752 10.8383L6.03352 1.03825L1.75048 -0.638254L-2.08552 9.16175L2.19752 10.8383ZM3.892 2.49974H4.76V-2.09974H3.892V2.49974ZM4.76 2.49974C4.7043 2.49974 4.48118 2.48309 4.22747 2.31011C3.97174 2.13574 3.8697 1.92857 3.84463 1.86316L8.13937 0.21684C7.89963 -0.408573 7.48493 -1.03574 6.81853 -1.49011C6.15416 -1.94309 5.42237 -2.09974 4.76 -2.09974V2.49974ZM3.84876 1.87385L7.33476 10.8339L11.6212 9.16615L8.13524 0.206145L3.84876 1.87385ZM9.478 7.70026H7.462V12.2997H9.478V7.70026ZM9.61586 9.19396L8.76185 6.91196L4.45415 8.52404L5.30815 10.806L9.61586 9.19396ZM3.458 8.39374H6.09V3.79426H3.458V8.39374ZM8.24751 5.29778L6.9455 1.76978L2.6305 3.36222L3.9325 6.89022L8.24751 5.29778ZM4.788 0.266262H4.774V4.86574H4.788V0.266262ZM2.61929 1.76226L1.30329 5.29026L5.61271 6.89774L6.92871 3.36974L2.61929 1.76226ZM10.6933 9.636L9.09807 11.2925L9.09807 11.2925L10.6933 9.636ZM10.3153 0.199999V-2.09974H8.01553V0.199999H10.3153ZM16.9513 0.62L15.9228 2.67695L15.9296 2.68033L15.9363 2.68367L16.9513 0.62ZM18.2673 1.81L16.2953 2.99321L16.3031 3.00628L16.3111 3.01925L18.2673 1.81ZM17.8053 9.076L19.4192 10.7143L19.4253 10.7083L19.4314 10.7022L17.8053 9.076ZM16.3493 7.774L18.0655 9.30474L18.0656 9.30474L16.3493 7.774ZM16.2933 2.398L14.7129 4.06869L14.725 4.08011L14.7372 4.09136L16.2933 2.398ZM12.2473 1.908V-0.391738H9.94753V1.908H12.2473ZM12.2473 8.292H9.94753V10.5917H12.2473V8.292ZM11.6733 7.70026C11.7051 7.70026 11.7994 7.7054 11.928 7.75317C12.0622 7.80301 12.1877 7.88242 12.2885 7.97945L9.09807 11.2925C9.84214 12.0091 10.7715 12.2997 11.6733 12.2997V7.70026ZM12.2885 7.97945C12.3928 8.07989 12.4861 8.21348 12.5472 8.36732C12.6061 8.51569 12.615 8.63198 12.615 8.684H8.01553C8.01553 9.61818 8.33954 10.5621 9.09807 11.2925L12.2885 7.97945ZM12.615 8.684V0.199999H8.01553V8.684H12.615ZM10.3153 2.49974H14.9913V-2.09974H10.3153V2.49974ZM14.9913 2.49974C15.4491 2.49974 15.738 2.58454 15.9228 2.67695L17.9797 -1.43695C17.0446 -1.90454 16.0268 -2.09974 14.9913 -2.09974V2.49974ZM15.9363 2.68367C16.1335 2.78063 16.2288 2.88246 16.2953 2.99321L20.2393 0.626793C19.6897 -0.289126 18.9077 -0.980632 17.9662 -1.44367L15.9363 2.68367ZM16.3111 3.01925C16.379 3.12898 16.4435 3.29323 16.4435 3.588H21.043C21.043 2.53877 20.7902 1.51769 20.2234 0.600747L16.3111 3.01925ZM16.4435 3.588V6.332H21.043V3.588H16.4435ZM16.4435 6.332C16.4435 7.15213 16.236 7.39293 16.1791 7.44984L19.4314 10.7022C20.6252 9.5084 21.043 7.91987 21.043 6.332H16.4435ZM16.1914 7.43766C16.1388 7.48946 15.8915 7.70026 15.0473 7.70026V12.2997C16.6297 12.2997 18.2211 11.8945 19.4192 10.7143L16.1914 7.43766ZM15.0473 7.70026H11.6733V12.2997H15.0473V7.70026ZM14.9913 10.5917C16.0412 10.5917 17.2022 10.2727 18.0655 9.30474L14.633 6.24326C14.7357 6.12809 14.8581 6.05231 14.9591 6.01377C15.0476 5.98003 15.0729 5.99226 14.9913 5.99226V10.5917ZM18.0656 9.30474C18.8884 8.38216 19.111 7.23327 19.111 6.248H14.5115C14.5115 6.32897 14.5068 6.38658 14.502 6.42393C14.4971 6.46121 14.4926 6.4739 14.4947 6.46712C14.4969 6.45984 14.5061 6.43176 14.5287 6.39012C14.5516 6.34768 14.5856 6.29642 14.633 6.24326L18.0656 9.30474ZM19.111 6.248V3.672H14.5115V6.248H19.111ZM19.111 3.672C19.111 2.5918 18.7346 1.51813 17.8493 0.70464L14.7372 4.09136C14.6656 4.02559 14.596 3.93053 14.5514 3.8207C14.5094 3.71747 14.5115 3.6559 14.5115 3.672H19.111ZM17.8736 0.727311C17.0265 -0.0740555 15.9714 -0.391738 14.9353 -0.391738V4.20774C14.9919 4.20774 14.9755 4.21583 14.9142 4.19373C14.8467 4.16936 14.773 4.12556 14.7129 4.06869L17.8736 0.727311ZM14.9353 -0.391738H12.2473V4.20774H14.9353V-0.391738ZM9.94753 1.908V8.292H14.547V1.908H9.94753ZM12.2473 10.5917H14.9913V5.99226H12.2473V10.5917ZM22.4339 9.104L20.2834 9.9189L20.2875 9.92985L20.2918 9.94076L22.4339 9.104ZM19.0599 0.199999V-2.09974H15.7292L16.9094 1.0149L19.0599 0.199999ZM21.0759 0.199999L23.2462 -0.560641L22.7068 -2.09974H21.0759V0.199999ZM23.6519 7.55L21.4816 8.31064L22.021 9.84974H23.6519V7.55ZM23.6799 7.55V9.84974H25.3079L25.8489 8.31432L23.6799 7.55ZM26.2699 0.199999V-2.09974H24.6419L24.1009 -0.564319L26.2699 0.199999ZM28.2719 0.199999L30.4186 1.02494L31.6194 -2.09974H28.2719V0.199999ZM24.5059 10V12.2997H26.0859L26.6526 10.8249L24.5059 10ZM23.5959 7.70026C23.776 7.70026 24.0518 7.76058 24.3037 7.9548C24.5286 8.12821 24.5869 8.29499 24.576 8.26724L20.2918 9.94076C20.5143 10.5103 20.8829 11.1251 21.4951 11.5972C22.1343 12.0901 22.8745 12.2997 23.5959 12.2997V7.70026ZM24.5844 8.2891L21.2104 -0.614899L16.9094 1.0149L20.2834 9.9189L24.5844 8.2891ZM19.0599 2.49974H21.0759V-2.09974H19.0599V2.49974ZM18.9056 0.960639L21.4816 8.31064L25.8222 6.78936L23.2462 -0.560641L18.9056 0.960639ZM23.6519 9.84974H23.6799V5.25026H23.6519V9.84974ZM25.8489 8.31432L28.4389 0.964318L24.1009 -0.564319L21.5109 6.78568L25.8489 8.31432ZM26.2699 2.49974H28.2719V-2.09974H26.2699V2.49974ZM26.1252 -0.624942L22.3592 9.17506L26.6526 10.8249L30.4186 1.02494L26.1252 -0.624942ZM24.5059 7.70026H23.5959V12.2997H24.5059V7.70026ZM33.651 7.718L35.8048 6.91196L35.2458 5.41826H33.651V7.718ZM29.983 7.718V5.41826H28.3972L27.8335 6.9004L29.983 7.718ZM29.115 10V12.2997H30.7007L31.2645 10.8176L29.115 10ZM27.099 10L24.9574 9.16175L23.7291 12.2997H27.099V10ZM30.935 0.199999V-2.09974H29.3655L28.7934 -0.638254L30.935 0.199999ZM33.035 1.04L30.8876 1.86317L30.8917 1.87385L33.035 1.04ZM36.521 10V12.2997H39.8834L38.6642 9.16615L36.521 10ZM34.505 10L32.3511 10.806L32.9101 12.2997H34.505V10ZM30.501 6.094L28.3463 5.29026L27.1886 8.39374H30.501V6.094ZM33.133 6.094V8.39374H36.433L35.2905 5.29778L33.133 6.094ZM31.831 2.566L33.9885 1.76978L33.4336 0.266262H31.831V2.566ZM31.817 2.566V0.266262H30.2203L29.6623 1.76226L31.817 2.566ZM33.651 5.41826H29.983V10.0177H33.651V5.41826ZM27.8335 6.9004L26.9655 9.1824L31.2645 10.8176L32.1325 8.5356L27.8335 6.9004ZM29.115 7.70026H27.099V12.2997H29.115V7.70026ZM29.2405 10.8383L33.0765 1.03825L28.7934 -0.638254L24.9574 9.16175L29.2405 10.8383ZM30.935 2.49974H31.803V-2.09974H30.935V2.49974ZM31.803 2.49974C31.7473 2.49974 31.5241 2.48309 31.2704 2.31011C31.0147 2.13574 30.9127 1.92857 30.8876 1.86316L35.1823 0.21684C34.9426 -0.408573 34.5279 -1.03574 33.8615 -1.49011C33.1971 -1.94309 32.4653 -2.09974 31.803 -2.09974V2.49974ZM30.8917 1.87385L34.3777 10.8339L38.6642 9.16615L35.1782 0.206145L30.8917 1.87385ZM36.521 7.70026H34.505V12.2997H36.521V7.70026ZM36.6588 9.19396L35.8048 6.91196L31.4971 8.52404L32.3511 10.806L36.6588 9.19396ZM30.501 8.39374H33.133V3.79426H30.501V8.39374ZM35.2905 5.29778L33.9885 1.76978L29.6735 3.36222L30.9755 6.89022L35.2905 5.29778ZM31.831 0.266262H31.817V4.86574H31.831V0.266262ZM29.6623 1.76226L28.3463 5.29026L32.6557 6.89774L33.9717 3.36974L29.6623 1.76226ZM37.4403 0.199999V-2.09974H35.1405V0.199999H37.4403ZM39.1623 0.199999L41.0411 -1.12622L40.3539 -2.09974H39.1623V0.199999ZM43.8663 6.864L41.9875 8.19022L46.166 14.1098V6.864H43.8663ZM43.8663 0.199999V-2.09974H41.5665V0.199999H43.8663ZM45.7563 0.199999H48.056V-2.09974H45.7563V0.199999ZM45.7563 10V12.2997H48.056V10H45.7563ZM44.0343 10L42.1555 11.3262L42.8426 12.2997H44.0343V10ZM39.3303 3.336L41.2091 2.00978L37.0305 -3.90983V3.336H39.3303ZM39.3303 10V12.2997H41.63V10H39.3303ZM37.4403 10H35.1405V12.2997H37.4403V10ZM37.4403 2.49974H39.1623V-2.09974H37.4403V2.49974ZM37.2835 1.52622L41.9875 8.19022L45.7451 5.53778L41.0411 -1.12622L37.2835 1.52622ZM46.166 6.864V0.199999H41.5665V6.864H46.166ZM43.8663 2.49974H45.7563V-2.09974H43.8663V2.49974ZM43.4565 0.199999V10H48.056V0.199999H43.4565ZM45.7563 7.70026H44.0343V12.2997H45.7563V7.70026ZM45.9131 8.67378L41.2091 2.00978L37.4515 4.66222L42.1555 11.3262L45.9131 8.67378ZM37.0305 3.336V10H41.63V3.336H37.0305ZM39.3303 7.70026H37.4403V12.2997H39.3303V7.70026ZM39.74 10V0.199999H35.1405V10H39.74ZM48.9171 9.65L47.7798 11.6488L47.7871 11.653L47.7945 11.6571L48.9171 9.65ZM47.6571 8.348L45.6206 9.41634L45.6242 9.4233L45.6279 9.43023L47.6571 8.348ZM47.6571 1.866L45.6343 0.771722L45.6279 0.78377L47.6571 1.866ZM48.9451 0.55L47.8368 -1.46507L47.8296 -1.46112L47.8225 -1.45712L48.9451 0.55ZM54.2091 0.535999L55.3349 -1.46933L55.3349 -1.46934L54.2091 0.535999ZM55.4411 1.796L53.4129 2.88004L53.4241 2.90104L53.4358 2.9218L55.4411 1.796ZM55.8891 3.658V5.95774H58.1888V3.658H55.8891ZM53.9851 3.658H51.6854V5.95774H53.9851V3.658ZM53.5371 2.314L51.7977 3.81838L51.8079 3.83019L51.8182 3.84186L53.5371 2.314ZM49.6171 2.384L51.3873 3.85201L51.396 3.84155L51.4046 3.83099L49.6171 2.384ZM49.6031 7.83L47.7948 9.25083L47.8031 9.26144L47.8116 9.27196L49.6031 7.83ZM53.5371 7.83L51.7669 6.362L51.7561 6.37494L51.7456 6.38804L53.5371 7.83ZM54.0131 6.318V4.01826H51.7134V6.318H54.0131ZM55.9171 6.318H58.2168V4.01826H55.9171V6.318ZM55.4691 8.32L57.5056 9.38834L57.5092 9.38156L57.5127 9.37476L55.4691 8.32ZM54.2091 9.65L55.3464 11.6488L55.3593 11.6415L55.3721 11.634L54.2091 9.65ZM50.8211 7.81226C50.4401 7.81226 50.202 7.73366 50.0397 7.64288L47.7945 11.6571C48.7335 12.1823 49.7648 12.4117 50.8211 12.4117V7.81226ZM50.0544 7.65115C49.8986 7.5625 49.7844 7.44976 49.6863 7.26577L45.6279 9.43023C46.1271 10.3662 46.853 11.1215 47.7798 11.6488L50.0544 7.65115ZM49.6936 7.27966C49.5917 7.08541 49.5088 6.8082 49.5088 6.388H44.9094C44.9094 7.44246 45.1251 8.47193 45.6206 9.41634L49.6936 7.27966ZM49.5088 6.388V3.812H44.9094V6.388H49.5088ZM49.5088 3.812C49.5088 3.39082 49.592 3.12495 49.6863 2.94823L45.6279 0.78377C45.1248 1.72705 44.9094 2.75852 44.9094 3.812H49.5088ZM49.6798 2.96026C49.7861 2.76388 49.9078 2.64655 50.0677 2.55712L47.8225 -1.45712C46.881 -0.930547 46.1441 -0.170548 45.6344 0.771741L49.6798 2.96026ZM50.0534 2.56507C50.229 2.46846 50.482 2.38774 50.8771 2.38774V-2.21174C49.8162 -2.21174 48.7812 -1.98447 47.8368 -1.46507L50.0534 2.56507ZM50.8771 2.38774H52.3611V-2.21174H50.8771V2.38774ZM52.3611 2.38774C52.7256 2.38774 52.943 2.46257 53.0833 2.54133L55.3349 -1.46934C54.4112 -1.98791 53.3966 -2.21174 52.3611 -2.21174V2.38774ZM53.0833 2.54133C53.2303 2.62388 53.329 2.7231 53.4129 2.88004L57.4693 0.711955C56.9745 -0.213764 56.2519 -0.954544 55.3349 -1.46933L53.0833 2.54133ZM53.4358 2.9218C53.512 3.05768 53.5894 3.2783 53.5894 3.658H58.1888C58.1888 2.61903 57.9675 1.59832 57.4464 0.670197L53.4358 2.9218ZM55.8891 1.35826H53.9851V5.95774H55.8891V1.35826ZM56.2848 3.658C56.2848 2.67855 56.0144 1.63943 55.2559 0.786137L51.8182 3.84186C51.7867 3.80636 51.759 3.76762 51.7364 3.72799C51.7139 3.68862 51.6997 3.65434 51.6914 3.62924C51.6749 3.57981 51.6854 3.5805 51.6854 3.658H56.2848ZM55.2765 0.809621C54.5107 -0.0758641 53.4664 -0.503739 52.3611 -0.503739V4.09574C52.327 4.09574 52.2247 4.08852 52.0921 4.03011C51.9558 3.97009 51.8563 3.88618 51.7977 3.81838L55.2765 0.809621ZM52.3611 -0.503739H50.8771V4.09574H52.3611V-0.503739ZM50.8771 -0.503739C49.6896 -0.503739 48.6016 -0.0166431 47.8296 0.937008L51.4046 3.83099C51.3632 3.88211 51.2763 3.96459 51.1426 4.02698C51.0113 4.08824 50.9087 4.09574 50.8771 4.09574V-0.503739ZM47.8469 0.915994C47.1065 1.80871 46.8414 2.87641 46.8414 3.896H51.4408C51.4408 3.77584 51.4562 3.73153 51.4537 3.73958C51.4523 3.74408 51.447 3.75932 51.4351 3.78151C51.423 3.80398 51.407 3.82833 51.3873 3.85201L47.8469 0.915994ZM46.8414 3.896V6.304H51.4408V3.896H46.8414ZM46.8414 6.304C46.8414 7.31097 47.0947 8.35977 47.7948 9.25083L51.4114 6.40917C51.4268 6.42876 51.4388 6.44802 51.4472 6.4645C51.4555 6.48072 51.4582 6.48972 51.4577 6.48812C51.4564 6.48406 51.4408 6.42965 51.4408 6.304H46.8414ZM47.8116 9.27196C48.5691 10.2132 49.6419 10.7037 50.8211 10.7037V6.10426C50.8662 6.10426 50.9796 6.1145 51.119 6.1802C51.2601 6.24672 51.351 6.33391 51.3946 6.38804L47.8116 9.27196ZM50.8211 10.7037H52.3331V6.10426H50.8211V10.7037ZM52.3331 10.7037C53.5183 10.7037 54.5805 10.2014 55.3286 9.27196L51.7456 6.38804C51.785 6.33909 51.8732 6.2524 52.0154 6.1846C52.1572 6.11703 52.2769 6.10426 52.3331 6.10426V10.7037ZM55.3073 9.298C56.0476 8.40529 56.3128 7.33759 56.3128 6.318H51.7134C51.7134 6.43816 51.698 6.48247 51.7005 6.47442C51.7019 6.46992 51.7072 6.45468 51.7191 6.43249C51.7312 6.41002 51.7472 6.38567 51.7669 6.362L55.3073 9.298ZM54.0131 8.61774H55.9171V4.01826H54.0131V8.61774ZM53.6174 6.318C53.6174 6.7662 53.5307 7.0615 53.4255 7.26524L57.5127 9.37476C58.0049 8.42116 58.2168 7.3818 58.2168 6.318H53.6174ZM53.4326 7.25166C53.3285 7.44997 53.2068 7.57178 53.0461 7.66602L55.3721 11.634C56.294 11.0936 57.0123 10.3287 57.5056 9.38834L53.4326 7.25166ZM53.0718 7.65115C52.9229 7.73588 52.6999 7.81226 52.3331 7.81226V12.4117C53.3849 12.4117 54.4126 12.1801 55.3464 11.6488L53.0718 7.65115ZM52.3331 7.81226H50.8211V12.4117H52.3331V7.81226ZM57.5058 9.636L55.9106 11.2925L55.9106 11.2925L57.5058 9.636ZM57.1278 0.199999V-2.09974H54.828V0.199999H57.1278ZM64.6038 0.199999H66.9035V-2.09974H64.6038V0.199999ZM64.6038 1.88V4.17974H66.9035V1.88H64.6038ZM59.0598 1.88V-0.419739H56.76V1.88H59.0598ZM59.0598 4.148H56.76V6.44774H59.0598V4.148ZM64.1838 4.148H66.4835V1.84826H64.1838V4.148ZM64.1838 5.828V8.12774H66.4835V5.828H64.1838ZM59.0598 5.828V3.52826H56.76V5.828H59.0598ZM59.0598 8.32H56.76V10.6197H59.0598V8.32ZM64.6038 8.32H66.9035V6.02026H64.6038V8.32ZM64.6038 10V12.2997H66.9035V10H64.6038ZM58.4858 7.70026C58.5176 7.70026 58.6119 7.7054 58.7405 7.75317C58.8747 7.80301 59.0002 7.88242 59.101 7.97945L55.9106 11.2925C56.6546 12.0091 57.584 12.2997 58.4858 12.2997V7.70026ZM59.101 7.97945C59.2053 8.07989 59.2986 8.21348 59.3597 8.36732C59.4186 8.51569 59.4275 8.63198 59.4275 8.684H54.828C54.828 9.61818 55.152 10.5621 55.9106 11.2925L59.101 7.97945ZM59.4275 8.684V0.199999H54.828V8.684H59.4275ZM57.1278 2.49974H64.6038V-2.09974H57.1278V2.49974ZM62.304 0.199999V1.88H66.9035V0.199999H62.304ZM64.6038 -0.419739H59.0598V4.17974H64.6038V-0.419739ZM56.76 1.88V4.148H61.3595V1.88H56.76ZM59.0598 6.44774H64.1838V1.84826H59.0598V6.44774ZM61.884 4.148V5.828H66.4835V4.148H61.884ZM64.1838 3.52826H59.0598V8.12774H64.1838V3.52826ZM56.76 5.828V8.32H61.3595V5.828H56.76ZM59.0598 10.6197H64.6038V6.02026H59.0598V10.6197ZM62.304 8.32V10H66.9035V8.32H62.304ZM64.6038 7.70026H58.4858V12.2997H64.6038V7.70026ZM66.2968 9.636L64.7016 11.2925L64.7016 11.2925L66.2968 9.636ZM65.9188 0.199999V-2.09974H63.619V0.199999H65.9188ZM72.5548 0.62L71.5263 2.67695L71.5331 2.68033L71.5399 2.68367L72.5548 0.62ZM73.8708 1.81L71.8988 2.99321L71.9066 3.00628L71.9146 3.01925L73.8708 1.81ZM73.4088 9.076L75.0227 10.7143L75.0288 10.7083L75.0349 10.7022L73.4088 9.076ZM71.9528 7.774L73.6691 9.30474L73.6691 9.30474L71.9528 7.774ZM71.8968 2.398L70.3164 4.06869L70.3285 4.08011L70.3407 4.09136L71.8968 2.398ZM67.8508 1.908V-0.391738H65.551V1.908H67.8508ZM67.8508 8.292H65.551V10.5917H67.8508V8.292ZM67.2768 7.70026C67.3086 7.70026 67.4029 7.7054 67.5315 7.75317C67.6657 7.80301 67.7912 7.88242 67.892 7.97945L64.7016 11.2925C65.4457 12.0091 66.375 12.2997 67.2768 12.2997V7.70026ZM67.892 7.97945C67.9963 8.07989 68.0896 8.21348 68.1507 8.36732C68.2096 8.51569 68.2185 8.63198 68.2185 8.684H63.619C63.619 9.61818 63.9431 10.5621 64.7016 11.2925L67.892 7.97945ZM68.2185 8.684V0.199999H63.619V8.684H68.2185ZM65.9188 2.49974H70.5948V-2.09974H65.9188V2.49974ZM70.5948 2.49974C71.0526 2.49974 71.3415 2.58454 71.5263 2.67695L73.5833 -1.43695C72.6481 -1.90454 71.6303 -2.09974 70.5948 -2.09974V2.49974ZM71.5399 2.68367C71.737 2.78063 71.8323 2.88246 71.8988 2.99321L75.8428 0.626793C75.2932 -0.289126 74.5112 -0.980632 73.5697 -1.44367L71.5399 2.68367ZM71.9146 3.01925C71.9825 3.12898 72.047 3.29323 72.047 3.588H76.6465C76.6465 2.53877 76.3938 1.51769 75.8269 0.600747L71.9146 3.01925ZM72.047 3.588V6.332H76.6465V3.588H72.047ZM72.047 6.332C72.047 7.15213 71.8395 7.39293 71.7826 7.44984L75.0349 10.7022C76.2287 9.5084 76.6465 7.91987 76.6465 6.332H72.047ZM71.7949 7.43766C71.7423 7.48946 71.4951 7.70026 70.6508 7.70026V12.2997C72.2332 12.2997 73.8246 11.8945 75.0227 10.7143L71.7949 7.43766ZM70.6508 7.70026H67.2768V12.2997H70.6508V7.70026ZM70.5948 10.5917C71.6447 10.5917 72.8057 10.2727 73.6691 9.30474L70.2365 6.24326C70.3392 6.12809 70.4616 6.05231 70.5627 6.01377C70.6511 5.98003 70.6764 5.99226 70.5948 5.99226V10.5917ZM73.6691 9.30474C74.4919 8.38216 74.7145 7.23327 74.7145 6.248H70.115C70.115 6.32897 70.1104 6.38658 70.1055 6.42393C70.1006 6.46121 70.0962 6.4739 70.0982 6.46712C70.1004 6.45984 70.1097 6.43176 70.1322 6.39012C70.1551 6.34768 70.1891 6.29642 70.2365 6.24326L73.6691 9.30474ZM74.7145 6.248V3.672H70.115V6.248H74.7145ZM74.7145 3.672C74.7145 2.5918 74.3381 1.51813 73.4528 0.70464L70.3407 4.09136C70.2691 4.02559 70.1996 3.93053 70.1549 3.8207C70.1129 3.71747 70.115 3.6559 70.115 3.672H74.7145ZM73.4772 0.727311C72.63 -0.0740555 71.5749 -0.391738 70.5388 -0.391738V4.20774C70.5954 4.20774 70.579 4.21583 70.5177 4.19373C70.4502 4.16936 70.3765 4.12556 70.3164 4.06869L73.4772 0.727311ZM70.5388 -0.391738H67.8508V4.20774H70.5388V-0.391738ZM65.551 1.908V8.292H70.1505V1.908H65.551ZM67.8508 10.5917H70.5948V5.99226H67.8508V10.5917Z" fill="url(#paint0_linear_843_2184)" mask="url(#path-1-inside-1_843_2184)"/>
<defs>
<linearGradient id="paint0_linear_843_2184" x1="39.5" y1="-2" x2="39.5" y2="16.7917" gradientUnits="userSpaceOnUse">
<stop stop-color="white" stop-opacity="0.53"/>
<stop offset="1" stop-color="white" stop-opacity="0"/>
</linearGradient>
</defs>
</svg>
