<svg width="32" height="14" viewBox="0 0 32 14" fill="none" xmlns="http://www.w3.org/2000/svg">
<mask id="path-1-inside-1_829_2171" fill="white">
<path d="M6.56 14C5.78667 14 5.23333 13.5733 4.9 12.72L0.08 -9.53674e-07H2.96L6.64 10.5H6.68L10.38 -9.53674e-07H13.24L7.86 14H6.56ZM14.7603 -9.53674e-07H17.5203V14H14.7603V-9.53674e-07ZM20.2048 -9.53674e-07H27.5848C28.3982 -9.53674e-07 29.1182 0.159999 29.7448 0.479999C30.3715 0.786666 30.8582 1.23333 31.2048 1.82C31.5515 2.39333 31.7248 3.05333 31.7248 3.8V5.66C31.7248 6.43333 31.5448 7.12 31.1848 7.72C30.8248 8.30667 30.3182 8.76667 29.6648 9.1C29.0248 9.42 28.2782 9.58 27.4248 9.58H22.9648V14H20.2048V-9.53674e-07ZM27.3848 7.18C27.8515 7.18 28.2315 7.03333 28.5248 6.74C28.8182 6.43333 28.9648 6.03333 28.9648 5.54V3.92C28.9648 3.45333 28.8315 3.08667 28.5648 2.82C28.3115 2.54 27.9715 2.4 27.5448 2.4H22.9648V7.18H27.3848Z"/>
</mask>
<path d="M6.56 14C5.78667 14 5.23333 13.5733 4.9 12.72L0.08 -9.53674e-07H2.96L6.64 10.5H6.68L10.38 -9.53674e-07H13.24L7.86 14H6.56ZM14.7603 -9.53674e-07H17.5203V14H14.7603V-9.53674e-07ZM20.2048 -9.53674e-07H27.5848C28.3982 -9.53674e-07 29.1182 0.159999 29.7448 0.479999C30.3715 0.786666 30.8582 1.23333 31.2048 1.82C31.5515 2.39333 31.7248 3.05333 31.7248 3.8V5.66C31.7248 6.43333 31.5448 7.12 31.1848 7.72C30.8248 8.30667 30.3182 8.76667 29.6648 9.1C29.0248 9.42 28.2782 9.58 27.4248 9.58H22.9648V14H20.2048V-9.53674e-07ZM27.3848 7.18C27.8515 7.18 28.2315 7.03333 28.5248 6.74C28.8182 6.43333 28.9648 6.03333 28.9648 5.54V3.92C28.9648 3.45333 28.8315 3.08667 28.5648 2.82C28.3115 2.54 27.9715 2.4 27.5448 2.4H22.9648V7.18H27.3848Z" fill="#2196F3"/>
<path d="M4.9 12.72L2.74948 13.5349L2.75363 13.5459L2.75789 13.5568L4.9 12.72ZM0.08 -9.53674e-07V-2.29974H-3.25075L-2.07052 0.814897L0.08 -9.53674e-07ZM2.96 -9.53674e-07L5.1303 -0.760641L4.59089 -2.29974H2.96V-9.53674e-07ZM6.64 10.5L4.4697 11.2606L5.00911 12.7997H6.64V10.5ZM6.68 10.5V12.7997H8.30796L8.84901 11.2643L6.68 10.5ZM10.38 -9.53674e-07V-2.29974H8.75204L8.21099 -0.76432L10.38 -9.53674e-07ZM13.24 -9.53674e-07L15.3867 0.82494L16.5875 -2.29974H13.24V-9.53674e-07ZM7.86 14V16.2997H9.43994L10.0067 14.8249L7.86 14ZM6.56 11.7003C6.57967 11.7003 6.64015 11.7033 6.72535 11.7307C6.81314 11.7589 6.89784 11.8037 6.9693 11.8588C7.11118 11.9682 7.10295 12.039 7.04211 11.8832L2.75789 13.5568C3.03039 14.2543 3.46549 14.9651 4.16071 15.5012C4.88293 16.0581 5.72258 16.2997 6.56 16.2997V11.7003ZM7.05052 11.9051L2.23052 -0.814899L-2.07052 0.814897L2.74948 13.5349L7.05052 11.9051ZM0.08 2.29974H2.96V-2.29974H0.08V2.29974ZM0.789695 0.760639L4.4697 11.2606L8.8103 9.73936L5.1303 -0.760641L0.789695 0.760639ZM6.64 12.7997H6.68V8.20026H6.64V12.7997ZM8.84901 11.2643L12.549 0.764318L8.21099 -0.76432L4.51099 9.73568L8.84901 11.2643ZM10.38 2.29974H13.24V-2.29974H10.38V2.29974ZM11.0933 -0.824942L5.71331 13.1751L10.0067 14.8249L15.3867 0.82494L11.0933 -0.824942ZM7.86 11.7003H6.56V16.2997H7.86V11.7003ZM14.7603 -9.53674e-07V-2.29974H12.4606V-9.53674e-07H14.7603ZM17.5203 -9.53674e-07H19.8201V-2.29974H17.5203V-9.53674e-07ZM17.5203 14V16.2997H19.8201V14H17.5203ZM14.7603 14H12.4606V16.2997H14.7603V14ZM14.7603 2.29974H17.5203V-2.29974H14.7603V2.29974ZM15.2206 -9.53674e-07V14H19.8201V-9.53674e-07H15.2206ZM17.5203 11.7003H14.7603V16.2997H17.5203V11.7003ZM17.0601 14V-9.53674e-07H12.4606V14H17.0601ZM20.2048 -9.53674e-07V-2.29974H17.9051V-9.53674e-07H20.2048ZM29.7448 0.479999L28.699 2.52816L28.7164 2.53706L28.734 2.54566L29.7448 0.479999ZM31.2048 1.82L29.2249 2.98994L29.2309 2.99997L29.2369 3.00993L31.2048 1.82ZM31.1848 7.72L33.145 8.9228L33.151 8.91303L33.1569 8.90321L31.1848 7.72ZM29.6648 9.1L30.6933 11.1569L30.7017 11.1528L30.71 11.1485L29.6648 9.1ZM22.9648 9.58V7.28026H20.6651V9.58H22.9648ZM22.9648 14V16.2997H25.2646V14H22.9648ZM20.2048 14H17.9051V16.2997H20.2048V14ZM28.5248 6.74L30.151 8.36616L30.1691 8.34809L30.1867 8.32963L28.5248 6.74ZM28.5648 2.82L26.8595 4.36292L26.8981 4.40553L26.9387 4.44616L28.5648 2.82ZM22.9648 2.4V0.100261H20.6651V2.4H22.9648ZM22.9648 7.18H20.6651V9.47974H22.9648V7.18ZM20.2048 2.29974H27.5848V-2.29974H20.2048V2.29974ZM27.5848 2.29974C28.0914 2.29974 28.4432 2.39756 28.699 2.52816L30.7907 -1.56816C29.7931 -2.07756 28.705 -2.29974 27.5848 -2.29974V2.29974ZM28.734 2.54566C28.9673 2.65982 29.1126 2.79977 29.2249 2.98994L33.1848 0.650055C32.6038 -0.333101 31.7757 -1.08649 30.7557 -1.58566L28.734 2.54566ZM29.2369 3.00993C29.3423 3.18431 29.4251 3.42348 29.4251 3.8H34.0246C34.0246 2.68319 33.7607 1.60236 33.1728 0.630071L29.2369 3.00993ZM29.4251 3.8V5.66H34.0246V3.8H29.4251ZM29.4251 5.66C29.4251 6.06166 29.3363 6.33103 29.2128 6.53679L33.1569 8.90321C33.7534 7.90897 34.0246 6.80501 34.0246 5.66H29.4251ZM29.2247 6.5172C29.1007 6.71927 28.9218 6.89735 28.6197 7.05148L30.71 11.1485C31.7146 10.636 32.549 9.89406 33.145 8.9228L29.2247 6.5172ZM28.6364 7.04305C28.3716 7.17546 27.9893 7.28026 27.4248 7.28026V11.8797C28.567 11.8797 29.6781 11.6645 30.6933 11.1569L28.6364 7.04305ZM27.4248 7.28026H22.9648V11.8797H27.4248V7.28026ZM20.6651 9.58V14H25.2646V9.58H20.6651ZM22.9648 11.7003H20.2048V16.2997H22.9648V11.7003ZM22.5046 14V-9.53674e-07H17.9051V14H22.5046ZM27.3848 9.47974C28.3783 9.47974 29.3709 9.14624 30.151 8.36616L26.8987 5.11384C26.9746 5.03793 27.0768 4.9689 27.1918 4.92452C27.3015 4.88217 27.3758 4.88026 27.3848 4.88026V9.47974ZM30.1867 8.32963C30.9557 7.52573 31.2646 6.52225 31.2646 5.54H26.6651C26.6651 5.55851 26.6626 5.50851 26.6957 5.4183C26.7309 5.32213 26.7898 5.22686 26.863 5.15037L30.1867 8.32963ZM31.2646 5.54V3.92H26.6651V5.54H31.2646ZM31.2646 3.92C31.2646 2.99688 30.9866 1.98939 30.191 1.19384L26.9387 4.44616C26.8261 4.33358 26.7477 4.20218 26.7036 4.08092C26.6626 3.96838 26.6651 3.90355 26.6651 3.92H31.2646ZM30.2702 1.27708C29.5218 0.449912 28.5278 0.100261 27.5448 0.100261V4.69974C27.5054 4.69974 27.3928 4.69272 27.2442 4.63152C27.089 4.5676 26.9561 4.46974 26.8595 4.36292L30.2702 1.27708ZM27.5448 0.100261H22.9648V4.69974H27.5448V0.100261ZM20.6651 2.4V7.18H25.2646V2.4H20.6651ZM22.9648 9.47974H27.3848V4.88026H22.9648V9.47974Z" fill="url(#paint0_linear_829_2171)" mask="url(#path-1-inside-1_829_2171)"/>
<defs>
<linearGradient id="paint0_linear_829_2171" x1="21.5" y1="-4" x2="21.5" y2="14.7917" gradientUnits="userSpaceOnUse">
<stop stop-color="white" stop-opacity="0.53"/>
<stop offset="1" stop-color="white" stop-opacity="0"/>
</linearGradient>
</defs>
</svg>
