<svg width="40" height="16" viewBox="0 0 40 16" fill="none" xmlns="http://www.w3.org/2000/svg">
<mask id="path-1-inside-1_843_2186" fill="white">
<path d="M0.24 0.999999H7.62C8.43333 0.999999 9.15333 1.16 9.78 1.48C10.4067 1.78667 10.8933 2.23333 11.24 2.82C11.5867 3.39333 11.76 4.05333 11.76 4.8V6.66C11.76 7.43333 11.58 8.12 11.22 8.72C10.86 9.30667 10.3533 9.76667 9.7 10.1C9.06 10.42 8.31333 10.58 7.46 10.58H3V15H0.24V0.999999ZM7.42 8.18C7.88667 8.18 8.26667 8.03333 8.56 7.74C8.85333 7.43333 9 7.03333 9 6.54V4.92C9 4.45333 8.86667 4.08667 8.6 3.82C8.34667 3.54 8.00667 3.4 7.58 3.4H3V8.18H7.42ZM13.2869 0.999999H20.7269C21.9402 0.999999 22.9135 1.32667 23.6469 1.98C24.3935 2.63333 24.7669 3.49333 24.7669 4.56V5.96C24.7669 6.65333 24.5669 7.26 24.1669 7.78C23.7802 8.28667 23.2135 8.67333 22.4669 8.94V8.98C22.8935 9.26 23.2135 9.58 23.4269 9.94C23.6535 10.3 23.8735 10.8 24.0869 11.44L25.2069 15H22.3469L21.2869 11.68C21.1135 11.1067 20.8735 10.68 20.5669 10.4C20.2602 10.12 19.8802 9.98 19.4269 9.98H16.0469V15H13.2869V0.999999ZM20.2069 7.6C20.7669 7.6 21.2069 7.45333 21.5269 7.16C21.8469 6.85333 22.0069 6.46 22.0069 5.98V4.68C22.0069 4.29333 21.8869 3.98667 21.6469 3.76C21.4069 3.52 21.0869 3.4 20.6869 3.4H16.0469V7.6H20.2069ZM31.7034 15.16C30.6501 15.16 29.7168 14.94 28.9034 14.5C28.1034 14.0467 27.4768 13.42 27.0234 12.62C26.5834 11.8067 26.3634 10.8667 26.3634 9.8V6.2C26.3634 5.13333 26.5834 4.2 27.0234 3.4C27.4768 2.58667 28.1034 1.96 28.9034 1.52C29.7168 1.06667 30.6501 0.84 31.7034 0.84H33.8234C34.8768 0.84 35.8034 1.06667 36.6034 1.52C37.4168 1.96 38.0434 2.58667 38.4834 3.4C38.9368 4.2 39.1634 5.13333 39.1634 6.2V9.8C39.1634 10.8667 38.9368 11.8067 38.4834 12.62C38.0434 13.42 37.4168 14.0467 36.6034 14.5C35.8034 14.94 34.8768 15.16 33.8234 15.16H31.7034ZM33.8234 12.72C34.5968 12.72 35.2168 12.44 35.6834 11.88C36.1634 11.32 36.4034 10.5867 36.4034 9.68V6.32C36.4034 5.41333 36.1634 4.68 35.6834 4.12C35.2168 3.56 34.5968 3.28 33.8234 3.28H31.7034C30.9301 3.28 30.3034 3.56 29.8234 4.12C29.3568 4.68 29.1234 5.41333 29.1234 6.32V9.68C29.1234 10.5867 29.3568 11.32 29.8234 11.88C30.3034 12.44 30.9301 12.72 31.7034 12.72H33.8234Z"/>
</mask>
<path d="M0.24 0.999999H7.62C8.43333 0.999999 9.15333 1.16 9.78 1.48C10.4067 1.78667 10.8933 2.23333 11.24 2.82C11.5867 3.39333 11.76 4.05333 11.76 4.8V6.66C11.76 7.43333 11.58 8.12 11.22 8.72C10.86 9.30667 10.3533 9.76667 9.7 10.1C9.06 10.42 8.31333 10.58 7.46 10.58H3V15H0.24V0.999999ZM7.42 8.18C7.88667 8.18 8.26667 8.03333 8.56 7.74C8.85333 7.43333 9 7.03333 9 6.54V4.92C9 4.45333 8.86667 4.08667 8.6 3.82C8.34667 3.54 8.00667 3.4 7.58 3.4H3V8.18H7.42ZM13.2869 0.999999H20.7269C21.9402 0.999999 22.9135 1.32667 23.6469 1.98C24.3935 2.63333 24.7669 3.49333 24.7669 4.56V5.96C24.7669 6.65333 24.5669 7.26 24.1669 7.78C23.7802 8.28667 23.2135 8.67333 22.4669 8.94V8.98C22.8935 9.26 23.2135 9.58 23.4269 9.94C23.6535 10.3 23.8735 10.8 24.0869 11.44L25.2069 15H22.3469L21.2869 11.68C21.1135 11.1067 20.8735 10.68 20.5669 10.4C20.2602 10.12 19.8802 9.98 19.4269 9.98H16.0469V15H13.2869V0.999999ZM20.2069 7.6C20.7669 7.6 21.2069 7.45333 21.5269 7.16C21.8469 6.85333 22.0069 6.46 22.0069 5.98V4.68C22.0069 4.29333 21.8869 3.98667 21.6469 3.76C21.4069 3.52 21.0869 3.4 20.6869 3.4H16.0469V7.6H20.2069ZM31.7034 15.16C30.6501 15.16 29.7168 14.94 28.9034 14.5C28.1034 14.0467 27.4768 13.42 27.0234 12.62C26.5834 11.8067 26.3634 10.8667 26.3634 9.8V6.2C26.3634 5.13333 26.5834 4.2 27.0234 3.4C27.4768 2.58667 28.1034 1.96 28.9034 1.52C29.7168 1.06667 30.6501 0.84 31.7034 0.84H33.8234C34.8768 0.84 35.8034 1.06667 36.6034 1.52C37.4168 1.96 38.0434 2.58667 38.4834 3.4C38.9368 4.2 39.1634 5.13333 39.1634 6.2V9.8C39.1634 10.8667 38.9368 11.8067 38.4834 12.62C38.0434 13.42 37.4168 14.0467 36.6034 14.5C35.8034 14.94 34.8768 15.16 33.8234 15.16H31.7034ZM33.8234 12.72C34.5968 12.72 35.2168 12.44 35.6834 11.88C36.1634 11.32 36.4034 10.5867 36.4034 9.68V6.32C36.4034 5.41333 36.1634 4.68 35.6834 4.12C35.2168 3.56 34.5968 3.28 33.8234 3.28H31.7034C30.9301 3.28 30.3034 3.56 29.8234 4.12C29.3568 4.68 29.1234 5.41333 29.1234 6.32V9.68C29.1234 10.5867 29.3568 11.32 29.8234 11.88C30.3034 12.44 30.9301 12.72 31.7034 12.72H33.8234Z" fill="#9C27B0"/>
<path d="M0.24 0.999999V-1.29974H-2.05974V0.999999H0.24ZM9.78 1.48L8.73413 3.52816L8.75156 3.53706L8.76914 3.54566L9.78 1.48ZM11.24 2.82L9.2601 3.98994L9.26602 3.99997L9.27204 4.00993L11.24 2.82ZM11.22 8.72L13.1801 9.9228L13.1861 9.91303L13.192 9.90321L11.22 8.72ZM9.7 10.1L10.7285 12.1569L10.7368 12.1528L10.7452 12.1485L9.7 10.1ZM3 10.58V8.28026H0.700262V10.58H3ZM3 15V17.2997H5.29974V15H3ZM0.24 15H-2.05974V17.2997H0.24V15ZM8.56 7.74L10.1862 9.36616L10.2042 9.34809L10.2219 9.32963L8.56 7.74ZM8.6 3.82L6.89466 5.36292L6.93321 5.40553L6.97384 5.44616L8.6 3.82ZM3 3.4V1.10026H0.700262V3.4H3ZM3 8.18H0.700262V10.4797H3V8.18ZM0.24 3.29974H7.62V-1.29974H0.24V3.29974ZM7.62 3.29974C8.12656 3.29974 8.47838 3.39756 8.73413 3.52816L10.8259 -0.56816C9.82829 -1.07756 8.74011 -1.29974 7.62 -1.29974V3.29974ZM8.76914 3.54566C9.00243 3.65982 9.14772 3.79977 9.2601 3.98994L13.2199 1.65006C12.639 0.666899 11.8109 -0.0864919 10.7909 -0.585664L8.76914 3.54566ZM9.27204 4.00993C9.37748 4.18431 9.46026 4.42348 9.46026 4.8H14.0597C14.0597 3.68319 13.7959 2.60236 13.208 1.63007L9.27204 4.00993ZM9.46026 4.8V6.66H14.0597V4.8H9.46026ZM9.46026 6.66C9.46026 7.06166 9.37145 7.33103 9.24799 7.53679L13.192 9.90321C13.7886 8.90897 14.0597 7.80501 14.0597 6.66H9.46026ZM9.25988 7.5172C9.13588 7.71927 8.95693 7.89735 8.65484 8.05148L10.7452 12.1485C11.7497 11.636 12.5841 10.8941 13.1801 9.9228L9.25988 7.5172ZM8.67153 8.04305C8.40671 8.17546 8.02449 8.28026 7.46 8.28026V12.8797C8.60218 12.8797 9.71329 12.6645 10.7285 12.1569L8.67153 8.04305ZM7.46 8.28026H3V12.8797H7.46V8.28026ZM0.700262 10.58V15H5.29974V10.58H0.700262ZM3 12.7003H0.24V17.2997H3V12.7003ZM2.53974 15V0.999999H-2.05974V15H2.53974ZM7.42 10.4797C8.41341 10.4797 9.40608 10.1462 10.1862 9.36616L6.93384 6.11384C7.00975 6.03793 7.11195 5.9689 7.22692 5.92452C7.33665 5.88217 7.41095 5.88026 7.42 5.88026V10.4797ZM10.2219 9.32963C10.9908 8.52573 11.2997 7.52225 11.2997 6.54H6.70026C6.70026 6.55851 6.69776 6.50851 6.73083 6.4183C6.7661 6.32213 6.82495 6.22686 6.89811 6.15037L10.2219 9.32963ZM11.2997 6.54V4.92H6.70026V6.54H11.2997ZM11.2997 4.92C11.2997 3.99688 11.0217 2.98939 10.2262 2.19384L6.97384 5.44616C6.86125 5.33358 6.78282 5.20218 6.73872 5.08092C6.6978 4.96838 6.70026 4.90355 6.70026 4.92H11.2997ZM10.3053 2.27708C9.55695 1.44991 8.56294 1.10026 7.58 1.10026V5.69974C7.54055 5.69974 7.428 5.69272 7.27937 5.63152C7.12414 5.5676 6.9913 5.46974 6.89466 5.36292L10.3053 2.27708ZM7.58 1.10026H3V5.69974H7.58V1.10026ZM0.700262 3.4V8.18H5.29974V3.4H0.700262ZM3 10.4797H7.42V5.88026H3V10.4797ZM13.2869 0.999999V-1.29974H10.9871V0.999999H13.2869ZM23.6469 1.98L22.1171 3.69712L22.1248 3.70396L22.1325 3.71073L23.6469 1.98ZM24.1669 7.78L22.344 6.37781L22.3387 6.38481L24.1669 7.78ZM22.4669 8.94L21.6934 6.77424L20.1671 7.31933V8.94H22.4669ZM22.4669 8.98H20.1671V10.2215L21.2051 10.9027L22.4669 8.98ZM23.4269 9.94L21.4484 11.1124L21.4642 11.1391L21.4808 11.1653L23.4269 9.94ZM24.0869 11.44L26.2806 10.7498L26.2748 10.7312L26.2686 10.7128L24.0869 11.44ZM25.2069 15V17.2997H28.3413L27.4006 14.3098L25.2069 15ZM22.3469 15L20.1561 15.6995L20.667 17.2997H22.3469V15ZM21.2869 11.68L19.0855 12.3455L19.0907 12.3625L19.0961 12.3795L21.2869 11.68ZM20.5669 10.4L19.0162 12.0983L19.0162 12.0983L20.5669 10.4ZM16.0469 9.98V7.68026H13.7471V9.98H16.0469ZM16.0469 15V17.2997H18.3466V15H16.0469ZM13.2869 15H10.9871V17.2997H13.2869V15ZM21.5269 7.16L23.0809 8.85526L23.0997 8.83803L23.1181 8.82038L21.5269 7.16ZM21.6469 3.76L20.0207 5.38616L20.0439 5.40939L20.0678 5.43194L21.6469 3.76ZM16.0469 3.4V1.10026H13.7471V3.4H16.0469ZM16.0469 7.6H13.7471V9.89974H16.0469V7.6ZM13.2869 3.29974H20.7269V-1.29974H13.2869V3.29974ZM20.7269 3.29974C21.5145 3.29974 21.898 3.50191 22.1171 3.69712L25.1767 0.262878C23.9291 -0.848577 22.3659 -1.29974 20.7269 -1.29974V3.29974ZM22.1325 3.71073C22.3392 3.89161 22.4671 4.10019 22.4671 4.56H27.0666C27.0666 2.88647 26.4479 1.37505 25.1613 0.24927L22.1325 3.71073ZM22.4671 4.56V5.96H27.0666V4.56H22.4671ZM22.4671 5.96C22.4671 6.177 22.4165 6.28363 22.344 6.37782L25.9897 9.18218C26.7172 8.23637 27.0666 7.12967 27.0666 5.96H22.4671ZM22.3387 6.38481C22.2808 6.4607 22.1236 6.62059 21.6934 6.77424L23.2404 11.1058C24.3035 10.7261 25.2796 10.1126 25.9951 9.17519L22.3387 6.38481ZM20.1671 8.94V8.98H24.7666V8.94H20.1671ZM21.2051 10.9027C21.3035 10.9673 21.3648 11.0202 21.4007 11.0562C21.4358 11.0912 21.4474 11.1106 21.4484 11.1124L25.4053 8.76759C24.9784 8.04723 24.385 7.48804 23.7286 7.05731L21.2051 10.9027ZM21.4808 11.1653C21.5693 11.306 21.7204 11.613 21.9052 12.1672L26.2686 10.7128C26.0267 9.98702 25.7377 9.29399 25.373 8.71467L21.4808 11.1653ZM21.8931 12.1302L23.0131 15.6902L27.4006 14.3098L26.2806 10.7498L21.8931 12.1302ZM25.2069 12.7003H22.3469V17.2997H25.2069V12.7003ZM24.5377 14.3005L23.4777 10.9805L19.0961 12.3795L20.1561 15.6995L24.5377 14.3005ZM23.4882 11.0145C23.245 10.2099 22.8365 9.35816 22.1175 8.70168L19.0162 12.0983C18.9599 12.0469 18.9515 12.0202 18.9725 12.0575C18.9943 12.0963 19.0371 12.1853 19.0855 12.3455L23.4882 11.0145ZM22.1175 8.70168C21.3467 7.99791 20.3969 7.68026 19.4269 7.68026V12.2797C19.4144 12.2797 19.35 12.2772 19.2568 12.2429C19.1604 12.2074 19.0769 12.1538 19.0162 12.0983L22.1175 8.70168ZM19.4269 7.68026H16.0469V12.2797H19.4269V7.68026ZM13.7471 9.98V15H18.3466V9.98H13.7471ZM16.0469 12.7003H13.2869V17.2997H16.0469V12.7003ZM15.5866 15V0.999999H10.9871V15H15.5866ZM20.2069 9.89974C21.1701 9.89974 22.2249 9.63986 23.0809 8.85526L19.9729 5.46474C20.0672 5.37824 20.1642 5.33007 20.2296 5.30828C20.287 5.28917 20.2893 5.30026 20.2069 5.30026V9.89974ZM23.1181 8.82038C23.9308 8.04153 24.3066 7.0291 24.3066 5.98H19.7071C19.7071 5.96147 19.711 5.88057 19.7566 5.76846C19.8038 5.65243 19.8726 5.56003 19.9357 5.49962L23.1181 8.82038ZM24.3066 5.98V4.68H19.7071V5.98H24.3066ZM24.3066 4.68C24.3066 3.77857 24.0052 2.82402 23.2259 2.08806L20.0678 5.43194C19.9417 5.31281 19.8393 5.16157 19.7753 4.99802C19.7143 4.84216 19.7071 4.72437 19.7071 4.68H24.3066ZM23.273 2.13384C22.5254 1.38621 21.5796 1.10026 20.6869 1.10026V5.69974C20.6572 5.69974 20.5575 5.6951 20.4194 5.64331C20.2742 5.58887 20.1345 5.49995 20.0207 5.38616L23.273 2.13384ZM20.6869 1.10026H16.0469V5.69974H20.6869V1.10026ZM13.7471 3.4V7.6H18.3466V3.4H13.7471ZM16.0469 9.89974H20.2069V5.30026H16.0469V9.89974ZM28.9034 14.5L27.7696 16.5008L27.7893 16.512L27.8092 16.5227L28.9034 14.5ZM27.0234 12.62L25.0007 13.7143L25.0115 13.7341L25.0226 13.7538L27.0234 12.62ZM27.0234 3.4L25.0146 2.28033L25.0084 2.29171L27.0234 3.4ZM28.9034 1.52L30.0117 3.5351L30.0231 3.52878L28.9034 1.52ZM36.6034 1.52L35.4696 3.52082L35.4893 3.53197L35.5092 3.54272L36.6034 1.52ZM38.4834 3.4L36.4607 4.49426L36.4715 4.51414L36.4826 4.5338L38.4834 3.4ZM38.4834 12.62L36.4746 11.5003L36.4684 11.5117L38.4834 12.62ZM36.6034 14.5L37.7117 16.5151L37.7231 16.5088L36.6034 14.5ZM35.6834 11.88L33.9373 10.3834L33.927 10.3955L33.9167 10.4077L35.6834 11.88ZM35.6834 4.12L33.9167 5.59226L33.927 5.60452L33.9373 5.61665L35.6834 4.12ZM29.8234 4.12L28.0773 2.62335L28.067 2.63547L28.0567 2.64774L29.8234 4.12ZM29.8234 11.88L28.0567 13.3523L28.067 13.3645L28.0773 13.3767L29.8234 11.88ZM31.7034 12.8603C30.9785 12.8603 30.4307 12.7115 29.9977 12.4773L27.8092 16.5227C29.0029 17.1685 30.3218 17.4597 31.7034 17.4597V12.8603ZM30.0372 12.4992C29.5994 12.2511 29.2724 11.9241 29.0243 11.4862L25.0226 13.7538C25.6812 14.9159 26.6075 15.8423 27.7696 16.5008L30.0372 12.4992ZM29.0462 11.5257C28.8142 11.0969 28.6632 10.5437 28.6632 9.8H24.0637C24.0637 11.1897 24.3527 12.5164 25.0007 13.7143L29.0462 11.5257ZM28.6632 9.8V6.2H24.0637V9.8H28.6632ZM28.6632 6.2C28.6632 5.4553 28.8145 4.9156 29.0385 4.50829L25.0084 2.29171C24.3524 3.4844 24.0637 4.81137 24.0637 6.2H28.6632ZM29.0322 4.51965C29.2798 4.07548 29.5978 3.76271 30.0117 3.53507L27.7952 -0.495068C26.609 0.157292 25.6738 1.09785 25.0147 2.28035L29.0322 4.51965ZM30.0231 3.52878C30.4512 3.29017 30.9898 3.13974 31.7034 3.13974V-1.45974C30.3104 -1.45974 28.9824 -1.15683 27.7838 -0.488778L30.0231 3.52878ZM31.7034 3.13974H33.8234V-1.45974H31.7034V3.13974ZM33.8234 3.13974C34.538 3.13974 35.0631 3.29042 35.4696 3.52082L37.7372 -0.480824C36.5438 -1.15709 35.2156 -1.45974 33.8234 -1.45974V3.13974ZM35.5092 3.54272C35.9294 3.77004 36.2334 4.07406 36.4607 4.49426L40.5062 2.30574C39.8535 1.09927 38.9042 0.149962 37.6977 -0.50272L35.5092 3.54272ZM36.4826 4.5338C36.7106 4.93616 36.8637 5.46652 36.8637 6.2H41.4632C41.4632 4.80014 41.1629 3.46384 40.4843 2.2662L36.4826 4.5338ZM36.8637 6.2V9.8H41.4632V6.2H36.8637ZM36.8637 9.8C36.8637 10.5325 36.7109 11.0765 36.4747 11.5004L40.4922 13.7396C41.1626 12.5369 41.4632 11.2008 41.4632 9.8H36.8637ZM36.4684 11.5117C36.2407 11.9256 35.928 12.2437 35.4838 12.4912L37.7231 16.5088C38.9056 15.8497 39.8461 14.9144 40.4985 13.7283L36.4684 11.5117ZM35.4952 12.4849C35.0837 12.7112 34.5493 12.8603 33.8234 12.8603V17.4597C35.2042 17.4597 36.5232 17.1688 37.7117 16.5151L35.4952 12.4849ZM33.8234 12.8603H31.7034V17.4597H33.8234V12.8603ZM33.8234 15.0197C35.2318 15.0197 36.517 14.472 37.4501 13.3523L33.9167 10.4077C33.9006 10.4271 33.8938 10.4314 33.8982 10.428C33.903 10.4243 33.9118 10.4187 33.9219 10.4141C33.9317 10.4096 33.9334 10.4105 33.9216 10.4128C33.909 10.4154 33.8779 10.4203 33.8234 10.4203V15.0197ZM37.4295 13.3766C38.3435 12.3103 38.7032 11.005 38.7032 9.68H34.1037C34.1037 10.1684 33.9833 10.3297 33.9373 10.3834L37.4295 13.3766ZM38.7032 9.68V6.32H34.1037V9.68H38.7032ZM38.7032 6.32C38.7032 4.99504 38.3435 3.68968 37.4295 2.62335L33.9373 5.61665C33.9833 5.67032 34.1037 5.83162 34.1037 6.32H38.7032ZM37.4501 2.64774C36.517 1.52797 35.2318 0.980261 33.8234 0.980261V5.57974C33.8779 5.57974 33.909 5.58464 33.9216 5.58716C33.9334 5.58953 33.9317 5.59036 33.9219 5.58591C33.9118 5.58134 33.903 5.57572 33.8982 5.572C33.8938 5.56863 33.9006 5.57291 33.9167 5.59226L37.4501 2.64774ZM33.8234 0.980261H31.7034V5.57974H33.8234V0.980261ZM31.7034 0.980261C30.2959 0.980261 29.0179 1.52605 28.0773 2.62335L31.5695 5.61665C31.5897 5.59308 31.6009 5.58467 31.6014 5.58431C31.6014 5.5843 31.5974 5.5871 31.5916 5.58968C31.586 5.59216 31.5879 5.59039 31.602 5.58758C31.6167 5.58462 31.6491 5.57974 31.7034 5.57974V0.980261ZM28.0567 2.64774C27.168 3.71416 26.8237 5.01048 26.8237 6.32H31.4232C31.4232 5.81618 31.5455 5.64583 31.5901 5.59226L28.0567 2.64774ZM26.8237 6.32V9.68H31.4232V6.32H26.8237ZM26.8237 9.68C26.8237 10.9895 27.168 12.2858 28.0567 13.3523L31.5901 10.4077C31.5455 10.3542 31.4232 10.1838 31.4232 9.68H26.8237ZM28.0773 13.3767C29.0179 14.4739 30.2959 15.0197 31.7034 15.0197V10.4203C31.6491 10.4203 31.6167 10.4154 31.602 10.4124C31.5879 10.4096 31.586 10.4078 31.5916 10.4103C31.5974 10.4129 31.6014 10.4157 31.6014 10.4157C31.6009 10.4153 31.5897 10.4069 31.5695 10.3833L28.0773 13.3767ZM31.7034 15.0197H33.8234V10.4203H31.7034V15.0197Z" fill="url(#paint0_linear_843_2186)" mask="url(#path-1-inside-1_843_2186)"/>
<defs>
<linearGradient id="paint0_linear_843_2186" x1="20.5" y1="-3" x2="20.5" y2="15.7917" gradientUnits="userSpaceOnUse">
<stop stop-color="white" stop-opacity="0.53"/>
<stop offset="1" stop-color="white" stop-opacity="0"/>
</linearGradient>
</defs>
</svg>
