<svg width="53" height="14" viewBox="0 0 53 14" fill="none" xmlns="http://www.w3.org/2000/svg">
<mask id="path-1-inside-1_843_2188" fill="white">
<path d="M2.18 14C1.60667 14 1.14 13.8267 0.78 13.48C0.42 13.1333 0.24 12.68 0.24 12.12V-9.53674e-07H10.92V2.4H3V5.64H10.32V8.04H3V11.6H10.92V14H2.18ZM14.7386 14C14.1519 14 13.6786 13.8333 13.3186 13.5C12.9719 13.1533 12.7986 12.7 12.7986 12.14V-9.53674e-07H15.5586V11.6H23.1586V14H14.7386ZM24.7564 -9.53674e-07H27.5164V14H24.7564V-9.53674e-07ZM33.6409 2.4H29.2009V-9.53674e-07H40.8409V2.4H36.4009V14H33.6409V2.4ZM44.2698 14C43.6965 14 43.2298 13.8267 42.8698 13.48C42.5098 13.1333 42.3298 12.68 42.3298 12.12V-9.53674e-07H53.0098V2.4H45.0898V5.64H52.4098V8.04H45.0898V11.6H53.0098V14H44.2698Z"/>
</mask>
<path d="M2.18 14C1.60667 14 1.14 13.8267 0.78 13.48C0.42 13.1333 0.24 12.68 0.24 12.12V-9.53674e-07H10.92V2.4H3V5.64H10.32V8.04H3V11.6H10.92V14H2.18ZM14.7386 14C14.1519 14 13.6786 13.8333 13.3186 13.5C12.9719 13.1533 12.7986 12.7 12.7986 12.14V-9.53674e-07H15.5586V11.6H23.1586V14H14.7386ZM24.7564 -9.53674e-07H27.5164V14H24.7564V-9.53674e-07ZM33.6409 2.4H29.2009V-9.53674e-07H40.8409V2.4H36.4009V14H33.6409V2.4ZM44.2698 14C43.6965 14 43.2298 13.8267 42.8698 13.48C42.5098 13.1333 42.3298 12.68 42.3298 12.12V-9.53674e-07H53.0098V2.4H45.0898V5.64H52.4098V8.04H45.0898V11.6H53.0098V14H44.2698Z" fill="#FF5722"/>
<path d="M0.78 13.48L-0.815194 15.1365L-0.815194 15.1365L0.78 13.48ZM0.24 -9.53674e-07V-2.29974H-2.05974V-9.53674e-07H0.24ZM10.92 -9.53674e-07H13.2197V-2.29974H10.92V-9.53674e-07ZM10.92 2.4V4.69974H13.2197V2.4H10.92ZM3 2.4V0.100261H0.700262V2.4H3ZM3 5.64H0.700262V7.93974H3V5.64ZM10.32 5.64H12.6197V3.34026H10.32V5.64ZM10.32 8.04V10.3397H12.6197V8.04H10.32ZM3 8.04V5.74026H0.700262V8.04H3ZM3 11.6H0.700262V13.8997H3V11.6ZM10.92 11.6H13.2197V9.30026H10.92V11.6ZM10.92 14V16.2997H13.2197V14H10.92ZM2.18 11.7003C2.12582 11.7003 2.14214 11.6924 2.20074 11.7142C2.22924 11.7248 2.26155 11.7401 2.2945 11.7609C2.32742 11.7816 2.35454 11.8036 2.37519 11.8235L-0.815194 15.1365C0.0368695 15.9571 1.10623 16.2997 2.18 16.2997V11.7003ZM2.37519 11.8235C2.42549 11.8719 2.47833 11.9455 2.51241 12.0313C2.54433 12.1117 2.53974 12.152 2.53974 12.12H-2.05974C-2.05974 13.2222 -1.68172 14.3021 -0.815194 15.1365L2.37519 11.8235ZM2.53974 12.12V-9.53674e-07H-2.05974V12.12H2.53974ZM0.24 2.29974H10.92V-2.29974H0.24V2.29974ZM8.62026 -9.53674e-07V2.4H13.2197V-9.53674e-07H8.62026ZM10.92 0.100261H3V4.69974H10.92V0.100261ZM0.700262 2.4V5.64H5.29974V2.4H0.700262ZM3 7.93974H10.32V3.34026H3V7.93974ZM8.02026 5.64V8.04H12.6197V5.64H8.02026ZM10.32 5.74026H3V10.3397H10.32V5.74026ZM0.700262 8.04V11.6H5.29974V8.04H0.700262ZM3 13.8997H10.92V9.30026H3V13.8997ZM8.62026 11.6V14H13.2197V11.6H8.62026ZM10.92 11.7003H2.18V16.2997H10.92V11.7003ZM13.3186 13.5L11.6924 15.1262L11.7237 15.1574L11.7561 15.1875L13.3186 13.5ZM12.7986 -9.53674e-07V-2.29974H10.4989V-9.53674e-07H12.7986ZM15.5586 -9.53674e-07H17.8583V-2.29974H15.5586V-9.53674e-07ZM15.5586 11.6H13.2589V13.8997H15.5586V11.6ZM23.1586 11.6H25.4583V9.30026H23.1586V11.6ZM23.1586 14V16.2997H25.4583V14H23.1586ZM14.7386 11.7003C14.6624 11.7003 14.6611 11.6895 14.7074 11.7058C14.7304 11.7139 14.7601 11.727 14.793 11.7467C14.8261 11.7666 14.8559 11.7893 14.8811 11.8125L11.7561 15.1875C12.6219 15.989 13.6927 16.2997 14.7386 16.2997V11.7003ZM14.9448 11.8738C14.9976 11.9267 15.0467 12.0002 15.0767 12.0787C15.1044 12.1513 15.0983 12.1819 15.0983 12.14H10.4989C10.4989 13.2156 10.8521 14.2858 11.6924 15.1262L14.9448 11.8738ZM15.0983 12.14V-9.53674e-07H10.4989V12.14H15.0983ZM12.7986 2.29974H15.5586V-2.29974H12.7986V2.29974ZM13.2589 -9.53674e-07V11.6H17.8583V-9.53674e-07H13.2589ZM15.5586 13.8997H23.1586V9.30026H15.5586V13.8997ZM20.8589 11.6V14H25.4583V11.6H20.8589ZM23.1586 11.7003H14.7386V16.2997H23.1586V11.7003ZM24.7564 -9.53674e-07V-2.29974H22.4567V-9.53674e-07H24.7564ZM27.5164 -9.53674e-07H29.8161V-2.29974H27.5164V-9.53674e-07ZM27.5164 14V16.2997H29.8161V14H27.5164ZM24.7564 14H22.4567V16.2997H24.7564V14ZM24.7564 2.29974H27.5164V-2.29974H24.7564V2.29974ZM25.2167 -9.53674e-07V14H29.8161V-9.53674e-07H25.2167ZM27.5164 11.7003H24.7564V16.2997H27.5164V11.7003ZM27.0561 14V-9.53674e-07H22.4567V14H27.0561ZM33.6409 2.4H35.9407V0.100261H33.6409V2.4ZM29.2009 2.4H26.9012V4.69974H29.2009V2.4ZM29.2009 -9.53674e-07V-2.29974H26.9012V-9.53674e-07H29.2009ZM40.8409 -9.53674e-07H43.1407V-2.29974H40.8409V-9.53674e-07ZM40.8409 2.4V4.69974H43.1407V2.4H40.8409ZM36.4009 2.4V0.100261H34.1012V2.4H36.4009ZM36.4009 14V16.2997H38.7007V14H36.4009ZM33.6409 14H31.3412V16.2997H33.6409V14ZM33.6409 0.100261H29.2009V4.69974H33.6409V0.100261ZM31.5007 2.4V-9.53674e-07H26.9012V2.4H31.5007ZM29.2009 2.29974H40.8409V-2.29974H29.2009V2.29974ZM38.5412 -9.53674e-07V2.4H43.1407V-9.53674e-07H38.5412ZM40.8409 0.100261H36.4009V4.69974H40.8409V0.100261ZM34.1012 2.4V14H38.7007V2.4H34.1012ZM36.4009 11.7003H33.6409V16.2997H36.4009V11.7003ZM35.9407 14V2.4H31.3412V14H35.9407ZM42.8698 13.48L41.2746 15.1365L41.2746 15.1365L42.8698 13.48ZM42.3298 -9.53674e-07V-2.29974H40.0301V-9.53674e-07H42.3298ZM53.0098 -9.53674e-07H55.3096V-2.29974H53.0098V-9.53674e-07ZM53.0098 2.4V4.69974H55.3096V2.4H53.0098ZM45.0898 2.4V0.100261H42.7901V2.4H45.0898ZM45.0898 5.64H42.7901V7.93974H45.0898V5.64ZM52.4098 5.64H54.7096V3.34026H52.4098V5.64ZM52.4098 8.04V10.3397H54.7096V8.04H52.4098ZM45.0898 8.04V5.74026H42.7901V8.04H45.0898ZM45.0898 11.6H42.7901V13.8997H45.0898V11.6ZM53.0098 11.6H55.3096V9.30026H53.0098V11.6ZM53.0098 14V16.2997H55.3096V14H53.0098ZM44.2698 11.7003C44.2157 11.7003 44.232 11.6924 44.2906 11.7142C44.3191 11.7248 44.3514 11.7401 44.3843 11.7609C44.4173 11.7816 44.4444 11.8036 44.465 11.8235L41.2746 15.1365C42.1267 15.9571 43.1961 16.2997 44.2698 16.2997V11.7003ZM44.465 11.8235C44.5153 11.8719 44.5682 11.9455 44.6023 12.0313C44.6342 12.1117 44.6296 12.152 44.6296 12.12H40.0301C40.0301 13.2222 40.4081 14.3021 41.2746 15.1365L44.465 11.8235ZM44.6296 12.12V-9.53674e-07H40.0301V12.12H44.6296ZM42.3298 2.29974H53.0098V-2.29974H42.3298V2.29974ZM50.7101 -9.53674e-07V2.4H55.3096V-9.53674e-07H50.7101ZM53.0098 0.100261H45.0898V4.69974H53.0098V0.100261ZM42.7901 2.4V5.64H47.3896V2.4H42.7901ZM45.0898 7.93974H52.4098V3.34026H45.0898V7.93974ZM50.1101 5.64V8.04H54.7096V5.64H50.1101ZM52.4098 5.74026H45.0898V10.3397H52.4098V5.74026ZM42.7901 8.04V11.6H47.3896V8.04H42.7901ZM45.0898 13.8997H53.0098V9.30026H45.0898V13.8997ZM50.7101 11.6V14H55.3096V11.6H50.7101ZM53.0098 11.7003H44.2698V16.2997H53.0098V11.7003Z" fill="url(#paint0_linear_843_2188)" mask="url(#path-1-inside-1_843_2188)"/>
<defs>
<linearGradient id="paint0_linear_843_2188" x1="27.5" y1="-4" x2="27.5" y2="14.7917" gradientUnits="userSpaceOnUse">
<stop stop-color="white" stop-opacity="0.53"/>
<stop offset="1" stop-color="white" stop-opacity="0"/>
</linearGradient>
</defs>
</svg>
