<svg width="64" height="11" viewBox="0 0 64 11" fill="none" xmlns="http://www.w3.org/2000/svg">
<mask id="path-1-inside-1_843_2190" fill="white">
<path d="M0.868 0.199999H6.034C6.60333 0.199999 7.10733 0.311999 7.546 0.535999C7.98467 0.750666 8.32533 1.06333 8.568 1.474C8.81067 1.87533 8.932 2.33733 8.932 2.86V4.162C8.932 4.70333 8.806 5.184 8.554 5.604C8.302 6.01467 7.94733 6.33667 7.49 6.57C7.042 6.794 6.51933 6.906 5.922 6.906H2.8V10H0.868V0.199999ZM5.894 5.226C6.22067 5.226 6.48667 5.12333 6.692 4.918C6.89733 4.70333 7 4.42333 7 4.078V2.944C7 2.61733 6.90667 2.36067 6.72 2.174C6.54267 1.978 6.30467 1.88 6.006 1.88H2.8V5.226H5.894ZM10.0008 0.199999H15.2088C16.0581 0.199999 16.7395 0.428666 17.2528 0.886C17.7755 1.34333 18.0368 1.94533 18.0368 2.692V3.672C18.0368 4.15733 17.8968 4.582 17.6168 4.946C17.3461 5.30067 16.9495 5.57133 16.4268 5.758V5.786C16.7255 5.982 16.9495 6.206 17.0988 6.458C17.2575 6.71 17.4115 7.06 17.5608 7.508L18.3448 10H16.3428L15.6008 7.676C15.4795 7.27467 15.3115 6.976 15.0968 6.78C14.8821 6.584 14.6161 6.486 14.2988 6.486H11.9328V10H10.0008V0.199999ZM14.8448 4.82C15.2368 4.82 15.5448 4.71733 15.7688 4.512C15.9928 4.29733 16.1048 4.022 16.1048 3.686V2.776C16.1048 2.50533 16.0208 2.29067 15.8528 2.132C15.6848 1.964 15.4608 1.88 15.1808 1.88H11.9328V4.82H14.8448ZM20.8471 10C20.4458 10 20.1191 9.87867 19.8671 9.636C19.6151 9.39333 19.4891 9.076 19.4891 8.684V0.199999H26.9651V1.88H21.4211V4.148H26.5451V5.828H21.4211V8.32H26.9651V10H20.8471ZM28.2801 0.199999H30.0021L33.2081 6.024L36.3441 0.199999H38.0661V10H36.1761V3.798L34.1181 7.522C33.9781 7.774 33.8334 7.956 33.6841 8.068C33.5441 8.17067 33.3808 8.222 33.1941 8.222H32.6621L30.1701 3.798V10H28.2801V0.199999ZM39.9455 0.199999H41.8775V10H39.9455V0.199999ZM47.1727 10.112C46.482 10.112 45.8753 9.96733 45.3527 9.678C44.83 9.37933 44.424 8.964 44.1347 8.432C43.8453 7.9 43.7007 7.284 43.7007 6.584V0.199999H45.6327V6.528C45.6327 7.088 45.7727 7.54067 46.0527 7.886C46.342 8.23133 46.7153 8.404 47.1727 8.404H48.6567C49.1233 8.404 49.5013 8.23133 49.7907 7.886C50.08 7.54067 50.2247 7.088 50.2247 6.528V0.199999H52.1567V6.584C52.1567 7.284 52.012 7.9 51.7227 8.432C51.4333 8.964 51.0227 9.37933 50.4907 9.678C49.9587 9.96733 49.3473 10.112 48.6567 10.112H47.1727ZM53.8328 0.199999H55.5548L58.7608 6.024L61.8968 0.199999H63.6188V10H61.7288V3.798L59.6708 7.522C59.5308 7.774 59.3862 7.956 59.2368 8.068C59.0968 8.17067 58.9335 8.222 58.7468 8.222H58.2148L55.7228 3.798V10H53.8328V0.199999Z"/>
</mask>
<path d="M0.868 0.199999H6.034C6.60333 0.199999 7.10733 0.311999 7.546 0.535999C7.98467 0.750666 8.32533 1.06333 8.568 1.474C8.81067 1.87533 8.932 2.33733 8.932 2.86V4.162C8.932 4.70333 8.806 5.184 8.554 5.604C8.302 6.01467 7.94733 6.33667 7.49 6.57C7.042 6.794 6.51933 6.906 5.922 6.906H2.8V10H0.868V0.199999ZM5.894 5.226C6.22067 5.226 6.48667 5.12333 6.692 4.918C6.89733 4.70333 7 4.42333 7 4.078V2.944C7 2.61733 6.90667 2.36067 6.72 2.174C6.54267 1.978 6.30467 1.88 6.006 1.88H2.8V5.226H5.894ZM10.0008 0.199999H15.2088C16.0581 0.199999 16.7395 0.428666 17.2528 0.886C17.7755 1.34333 18.0368 1.94533 18.0368 2.692V3.672C18.0368 4.15733 17.8968 4.582 17.6168 4.946C17.3461 5.30067 16.9495 5.57133 16.4268 5.758V5.786C16.7255 5.982 16.9495 6.206 17.0988 6.458C17.2575 6.71 17.4115 7.06 17.5608 7.508L18.3448 10H16.3428L15.6008 7.676C15.4795 7.27467 15.3115 6.976 15.0968 6.78C14.8821 6.584 14.6161 6.486 14.2988 6.486H11.9328V10H10.0008V0.199999ZM14.8448 4.82C15.2368 4.82 15.5448 4.71733 15.7688 4.512C15.9928 4.29733 16.1048 4.022 16.1048 3.686V2.776C16.1048 2.50533 16.0208 2.29067 15.8528 2.132C15.6848 1.964 15.4608 1.88 15.1808 1.88H11.9328V4.82H14.8448ZM20.8471 10C20.4458 10 20.1191 9.87867 19.8671 9.636C19.6151 9.39333 19.4891 9.076 19.4891 8.684V0.199999H26.9651V1.88H21.4211V4.148H26.5451V5.828H21.4211V8.32H26.9651V10H20.8471ZM28.2801 0.199999H30.0021L33.2081 6.024L36.3441 0.199999H38.0661V10H36.1761V3.798L34.1181 7.522C33.9781 7.774 33.8334 7.956 33.6841 8.068C33.5441 8.17067 33.3808 8.222 33.1941 8.222H32.6621L30.1701 3.798V10H28.2801V0.199999ZM39.9455 0.199999H41.8775V10H39.9455V0.199999ZM47.1727 10.112C46.482 10.112 45.8753 9.96733 45.3527 9.678C44.83 9.37933 44.424 8.964 44.1347 8.432C43.8453 7.9 43.7007 7.284 43.7007 6.584V0.199999H45.6327V6.528C45.6327 7.088 45.7727 7.54067 46.0527 7.886C46.342 8.23133 46.7153 8.404 47.1727 8.404H48.6567C49.1233 8.404 49.5013 8.23133 49.7907 7.886C50.08 7.54067 50.2247 7.088 50.2247 6.528V0.199999H52.1567V6.584C52.1567 7.284 52.012 7.9 51.7227 8.432C51.4333 8.964 51.0227 9.37933 50.4907 9.678C49.9587 9.96733 49.3473 10.112 48.6567 10.112H47.1727ZM53.8328 0.199999H55.5548L58.7608 6.024L61.8968 0.199999H63.6188V10H61.7288V3.798L59.6708 7.522C59.5308 7.774 59.3862 7.956 59.2368 8.068C59.0968 8.17067 58.9335 8.222 58.7468 8.222H58.2148L55.7228 3.798V10H53.8328V0.199999Z" fill="#E91E63"/>
<path d="M0.868 0.199999V-2.09974H-1.43174V0.199999H0.868ZM7.546 0.535999L6.50013 2.58416L6.51756 2.59306L6.53514 2.60166L7.546 0.535999ZM8.568 1.474L6.5881 2.64394L6.59402 2.65397L6.60004 2.66393L8.568 1.474ZM8.554 5.604L10.5141 6.8068L10.5201 6.79703L10.526 6.78721L8.554 5.604ZM7.49 6.57L8.51847 8.62695L8.52684 8.62277L8.53516 8.61852L7.49 6.57ZM2.8 6.906V4.60626H0.500262V6.906H2.8ZM2.8 10V12.2997H5.09974V10H2.8ZM0.868 10H-1.43174V12.2997H0.868V10ZM6.692 4.918L8.31816 6.54416L8.33623 6.52609L8.35389 6.50763L6.692 4.918ZM6.72 2.174L5.01466 3.71692L5.05321 3.75953L5.09384 3.80016L6.72 2.174ZM2.8 1.88V-0.419739H0.500262V1.88H2.8ZM2.8 5.226H0.500262V7.52574H2.8V5.226ZM0.868 2.49974H6.034V-2.09974H0.868V2.49974ZM6.034 2.49974C6.29656 2.49974 6.43238 2.54956 6.50013 2.58416L8.59187 -1.51216C7.78229 -1.92556 6.91011 -2.09974 6.034 -2.09974V2.49974ZM6.53514 2.60166C6.55216 2.60999 6.56249 2.61644 6.56783 2.62005C6.57308 2.62361 6.57519 2.62555 6.57546 2.6258C6.57571 2.62603 6.57622 2.62648 6.57748 2.62804C6.57878 2.62965 6.58248 2.63444 6.5881 2.64394L10.5479 0.304055C10.071 -0.503101 9.38891 -1.12249 8.55686 -1.52966L6.53514 2.60166ZM6.60004 2.66393C6.60148 2.66631 6.63226 2.70748 6.63226 2.86H11.2317C11.2317 1.96719 11.0199 1.08436 10.536 0.284071L6.60004 2.66393ZM6.63226 2.86V4.162H11.2317V2.86H6.63226ZM6.63226 4.162C6.63226 4.33166 6.59745 4.39503 6.58199 4.42079L10.526 6.78721C11.0146 5.97297 11.2317 5.07501 11.2317 4.162H6.63226ZM6.59388 4.4012C6.57788 4.42727 6.55093 4.46735 6.44484 4.52148L8.53516 8.61852C9.34374 8.20598 10.0261 7.60206 10.5141 6.8068L6.59388 4.4012ZM6.46153 4.51305C6.38871 4.54946 6.23049 4.60626 5.922 4.60626V9.20574C6.80818 9.20574 7.69529 9.03854 8.51847 8.62695L6.46153 4.51305ZM5.922 4.60626H2.8V9.20574H5.922V4.60626ZM0.500262 6.906V10H5.09974V6.906H0.500262ZM2.8 7.70026H0.868V12.2997H2.8V7.70026ZM3.16774 10V0.199999H-1.43174V10H3.16774ZM5.894 7.52574C6.74741 7.52574 7.62608 7.23624 8.31816 6.54416L5.06584 3.29184C5.18575 3.17193 5.33845 3.0699 5.51042 3.00352C5.67715 2.93917 5.81495 2.92626 5.894 2.92626V7.52574ZM8.35389 6.50763C9.03484 5.79573 9.29974 4.91225 9.29974 4.078H4.70026C4.70026 4.02251 4.70876 3.90551 4.76383 3.7553C4.8211 3.59913 4.91295 3.45086 5.03011 3.32837L8.35389 6.50763ZM9.29974 4.078V2.944H4.70026V4.078H9.29974ZM9.29974 2.944C9.29974 2.16088 9.06171 1.26339 8.34616 0.547839L5.09384 3.80016C4.94125 3.64758 4.83282 3.46868 4.76872 3.29242C4.7078 3.12488 4.70026 2.99755 4.70026 2.944H9.29974ZM8.42534 0.631076C7.75295 -0.112087 6.86094 -0.419739 6.006 -0.419739V4.17974C5.90255 4.17974 5.7325 4.16222 5.53287 4.08002C5.32664 3.9951 5.1493 3.86574 5.01466 3.71692L8.42534 0.631076ZM6.006 -0.419739H2.8V4.17974H6.006V-0.419739ZM0.500262 1.88V5.226H5.09974V1.88H0.500262ZM2.8 7.52574H5.894V2.92626H2.8V7.52574ZM10.0008 0.199999V-2.09974H7.70107V0.199999H10.0008ZM17.2528 0.886L15.723 2.60312L15.7307 2.60996L15.7384 2.61673L17.2528 0.886ZM17.6168 4.946L15.794 3.54381L15.7886 3.55081L17.6168 4.946ZM16.4268 5.758L15.6533 3.59224L14.1271 4.13733V5.758H16.4268ZM16.4268 5.786H14.1271V7.02752L15.165 7.70869L16.4268 5.786ZM17.0988 6.458L15.1204 7.63041L15.1362 7.65709L15.1527 7.68333L17.0988 6.458ZM17.5608 7.508L19.7545 6.81784L19.7487 6.79925L19.7425 6.78076L17.5608 7.508ZM18.3448 10V12.2997H21.4792L20.5385 9.30984L18.3448 10ZM16.3428 10L14.152 10.6995L14.663 12.2997H16.3428V10ZM15.6008 7.676L13.3995 8.34152L13.4046 8.35853L13.41 8.37547L15.6008 7.676ZM15.0968 6.78L13.5462 8.47832L13.5462 8.47832L15.0968 6.78ZM11.9328 6.486V4.18626H9.63307V6.486H11.9328ZM11.9328 10V12.2997H14.2326V10H11.9328ZM10.0008 10H7.70107V12.2997H10.0008V10ZM15.7688 4.512L17.3228 6.20726L17.3416 6.19003L17.36 6.17238L15.7688 4.512ZM15.8528 2.132L14.2267 3.75816L14.2499 3.78139L14.2738 3.80394L15.8528 2.132ZM11.9328 1.88V-0.419739H9.63307V1.88H11.9328ZM11.9328 4.82H9.63307V7.11974H11.9328V4.82ZM10.0008 2.49974H15.2088V-2.09974H10.0008V2.49974ZM15.2088 2.49974C15.4288 2.49974 15.5587 2.52943 15.6251 2.55172C15.6848 2.57176 15.7088 2.5905 15.723 2.60312L18.7826 -0.831122C17.7551 -1.74658 16.4839 -2.09974 15.2088 -2.09974V2.49974ZM15.7384 2.61673C15.7517 2.62834 15.7525 2.63123 15.7473 2.62421C15.7418 2.61683 15.7358 2.60662 15.7313 2.59627C15.7269 2.58623 15.7278 2.58473 15.7301 2.59661C15.7325 2.60919 15.7371 2.63958 15.7371 2.692H20.3366C20.3366 1.33847 19.8298 0.0850508 18.7672 -0.84473L15.7384 2.61673ZM15.7371 2.692V3.672H20.3366V2.692H15.7371ZM15.7371 3.672C15.7371 3.69087 15.7348 3.67346 15.7477 3.63446C15.761 3.59402 15.7803 3.56159 15.794 3.54382L19.4396 6.34818C20.0472 5.55837 20.3366 4.63367 20.3366 3.672H15.7371ZM15.7886 3.55081C15.8135 3.51824 15.8308 3.50807 15.8201 3.51537C15.8068 3.52444 15.7578 3.55493 15.6533 3.59224L17.2003 7.92376C18.0394 7.62407 18.8456 7.12663 19.445 6.34119L15.7886 3.55081ZM14.1271 5.758V5.786H18.7266V5.758H14.1271ZM15.165 7.70869C15.1995 7.73128 15.2047 7.73921 15.1927 7.72716C15.1797 7.7142 15.1513 7.68263 15.1204 7.63041L19.0773 5.28559C18.7144 4.67323 18.2169 4.21004 17.6886 3.86331L15.165 7.70869ZM15.1527 7.68333C15.1733 7.71601 15.2583 7.87298 15.3791 8.23524L19.7425 6.78076C19.5646 6.24702 19.3417 5.70399 19.0449 5.23267L15.1527 7.68333ZM15.3671 8.19816L16.1511 10.6902L20.5385 9.30984L19.7545 6.81784L15.3671 8.19816ZM18.3448 7.70026H16.3428V12.2997H18.3448V7.70026ZM18.5336 9.30053L17.7916 6.97653L13.41 8.37547L14.152 10.6995L18.5336 9.30053ZM17.8021 7.01048C17.6109 6.37786 17.2745 5.65416 16.6475 5.08168L13.5462 8.47832C13.4439 8.38492 13.3945 8.30521 13.3794 8.27847C13.3652 8.25328 13.377 8.26732 13.3995 8.34152L17.8021 7.01048ZM16.6475 5.08168C15.9687 4.46191 15.1328 4.18626 14.2988 4.18626V8.78574C14.2184 8.78574 14.0914 8.77275 13.9413 8.71744C13.7879 8.66093 13.6529 8.57576 13.5462 8.47832L16.6475 5.08168ZM14.2988 4.18626H11.9328V8.78574H14.2988V4.18626ZM9.63307 6.486V10H14.2326V6.486H9.63307ZM11.9328 7.70026H10.0008V12.2997H11.9328V7.70026ZM12.3006 10V0.199999H7.70107V10H12.3006ZM14.8448 7.11974C15.6401 7.11974 16.5629 6.90386 17.3228 6.20726L14.2148 2.81674C14.3572 2.68625 14.5112 2.60507 14.6426 2.56128C14.7659 2.52017 14.8432 2.52026 14.8448 2.52026V7.11974ZM17.36 6.17238C18.0767 5.48553 18.4046 4.5911 18.4046 3.686H13.8051C13.8051 3.59547 13.821 3.44907 13.8906 3.27796C13.9618 3.10293 14.0666 2.95803 14.1776 2.85162L17.36 6.17238ZM18.4046 3.686V2.776H13.8051V3.686H18.4046ZM18.4046 2.776C18.4046 1.99057 18.1391 1.12802 17.4319 0.46006L14.2738 3.80394C14.1116 3.65081 13.9822 3.45957 13.9002 3.25002C13.8212 3.04816 13.8051 2.87837 13.8051 2.776H18.4046ZM17.479 0.505839C16.8033 -0.169795 15.9535 -0.419739 15.1808 -0.419739V4.17974C15.0912 4.17974 14.9374 4.16611 14.7513 4.09631C14.5581 4.02387 14.3764 3.90795 14.2267 3.75816L17.479 0.505839ZM15.1808 -0.419739H11.9328V4.17974H15.1808V-0.419739ZM9.63307 1.88V4.82H14.2326V1.88H9.63307ZM11.9328 7.11974H14.8448V2.52026H11.9328V7.11974ZM19.8671 9.636L18.2719 11.2925L18.2719 11.2925L19.8671 9.636ZM19.4891 0.199999V-2.09974H17.1894V0.199999H19.4891ZM26.9651 0.199999H29.2648V-2.09974H26.9651V0.199999ZM26.9651 1.88V4.17974H29.2648V1.88H26.9651ZM21.4211 1.88V-0.419739H19.1214V1.88H21.4211ZM21.4211 4.148H19.1214V6.44774H21.4211V4.148ZM26.5451 4.148H28.8448V1.84826H26.5451V4.148ZM26.5451 5.828V8.12774H28.8448V5.828H26.5451ZM21.4211 5.828V3.52826H19.1214V5.828H21.4211ZM21.4211 8.32H19.1214V10.6197H21.4211V8.32ZM26.9651 8.32H29.2648V6.02026H26.9651V8.32ZM26.9651 10V12.2997H29.2648V10H26.9651ZM20.8471 7.70026C20.8789 7.70026 20.9732 7.7054 21.1018 7.75317C21.236 7.80301 21.3615 7.88242 21.4623 7.97945L18.2719 11.2925C19.016 12.0091 19.9453 12.2997 20.8471 12.2997V7.70026ZM21.4623 7.97945C21.5666 8.07989 21.6599 8.21348 21.721 8.36732C21.7799 8.51569 21.7888 8.63198 21.7888 8.684H17.1894C17.1894 9.61818 17.5134 10.5621 18.2719 11.2925L21.4623 7.97945ZM21.7888 8.684V0.199999H17.1894V8.684H21.7888ZM19.4891 2.49974H26.9651V-2.09974H19.4891V2.49974ZM24.6654 0.199999V1.88H29.2648V0.199999H24.6654ZM26.9651 -0.419739H21.4211V4.17974H26.9651V-0.419739ZM19.1214 1.88V4.148H23.7208V1.88H19.1214ZM21.4211 6.44774H26.5451V1.84826H21.4211V6.44774ZM24.2454 4.148V5.828H28.8448V4.148H24.2454ZM26.5451 3.52826H21.4211V8.12774H26.5451V3.52826ZM19.1214 5.828V8.32H23.7208V5.828H19.1214ZM21.4211 10.6197H26.9651V6.02026H21.4211V10.6197ZM24.6654 8.32V10H29.2648V8.32H24.6654ZM26.9651 7.70026H20.8471V12.2997H26.9651V7.70026ZM28.2801 0.199999V-2.09974H25.9804V0.199999H28.2801ZM30.0021 0.199999L32.0168 -0.909031L31.3613 -2.09974H30.0021V0.199999ZM33.2081 6.024L31.1935 7.13303L33.2304 10.8333L35.233 7.11431L33.2081 6.024ZM36.3441 0.199999V-2.09974H34.9705L34.3193 -0.890306L36.3441 0.199999ZM38.0661 0.199999H40.3658V-2.09974H38.0661V0.199999ZM38.0661 10V12.2997H40.3658V10H38.0661ZM36.1761 10H33.8764V12.2997H36.1761V10ZM36.1761 3.798H38.4758L34.1633 2.68565L36.1761 3.798ZM34.1181 7.522L36.1284 8.63886L36.1309 8.63435L34.1181 7.522ZM33.6841 8.068L35.0441 9.92252L35.0541 9.91521L35.064 9.90779L33.6841 8.068ZM32.6621 8.222L30.6584 9.35068L31.318 10.5217H32.6621V8.222ZM30.1701 3.798L32.1738 2.66932L27.8704 -4.97052V3.798H30.1701ZM30.1701 10V12.2997H32.4698V10H30.1701ZM28.2801 10H25.9804V12.2997H28.2801V10ZM28.2801 2.49974H30.0021V-2.09974H28.2801V2.49974ZM27.9875 1.30903L31.1935 7.13303L35.2228 4.91497L32.0168 -0.909031L27.9875 1.30903ZM35.233 7.11431L38.369 1.2903L34.3193 -0.890306L31.1833 4.93369L35.233 7.11431ZM36.3441 2.49974H38.0661V-2.09974H36.3441V2.49974ZM35.7664 0.199999V10H40.3658V0.199999H35.7664ZM38.0661 7.70026H36.1761V12.2997H38.0661V7.70026ZM38.4758 10V3.798H33.8764V10H38.4758ZM34.1633 2.68565L32.1053 6.40965L36.1309 8.63435L38.1889 4.91035L34.1633 2.68565ZM32.1078 6.40515C32.0852 6.44587 32.0821 6.44441 32.1043 6.4165C32.1256 6.38972 32.1891 6.31461 32.3043 6.22821L35.064 9.90779C35.574 9.52524 35.9082 9.03521 36.1284 8.63885L32.1078 6.40515ZM32.3241 6.21348C32.6089 6.00466 32.9306 5.92226 33.1941 5.92226V10.5217C33.8309 10.5217 34.4793 10.3367 35.0441 9.92252L32.3241 6.21348ZM33.1941 5.92226H32.6621V10.5217H33.1941V5.92226ZM34.6658 7.09332L32.1738 2.66932L28.1664 4.92668L30.6584 9.35068L34.6658 7.09332ZM27.8704 3.798V10H32.4698V3.798H27.8704ZM30.1701 7.70026H28.2801V12.2997H30.1701V7.70026ZM30.5798 10V0.199999H25.9804V10H30.5798ZM39.9455 0.199999V-2.09974H37.6458V0.199999H39.9455ZM41.8775 0.199999H44.1772V-2.09974H41.8775V0.199999ZM41.8775 10V12.2997H44.1772V10H41.8775ZM39.9455 10H37.6458V12.2997H39.9455V10ZM39.9455 2.49974H41.8775V-2.09974H39.9455V2.49974ZM39.5778 0.199999V10H44.1772V0.199999H39.5778ZM41.8775 7.70026H39.9455V12.2997H41.8775V7.70026ZM42.2452 10V0.199999H37.6458V10H42.2452ZM45.3527 9.678L44.2117 11.6747L44.2252 11.6825L44.2389 11.69L45.3527 9.678ZM44.1347 8.432L42.1144 9.53075L42.1144 9.53075L44.1347 8.432ZM43.7007 0.199999V-2.09974H41.4009V0.199999H43.7007ZM45.6327 0.199999H47.9324V-2.09974H45.6327V0.199999ZM46.0527 7.886L44.2663 9.33438L44.278 9.34875L44.2899 9.36294L46.0527 7.886ZM49.7907 7.886L48.0279 6.40906L49.7907 7.886ZM50.2247 0.199999V-2.09974H47.9249V0.199999H50.2247ZM52.1567 0.199999H54.4564V-2.09974H52.1567V0.199999ZM51.7227 8.432L53.743 9.53075L53.743 9.53075L51.7227 8.432ZM50.4907 9.678L51.5894 11.6983L51.603 11.6909L51.6165 11.6833L50.4907 9.678ZM47.1727 7.81226C46.8103 7.81226 46.5983 7.73895 46.4665 7.66597L44.2389 11.69C45.1524 12.1957 46.1537 12.4117 47.1727 12.4117V7.81226ZM46.4937 7.68127C46.3441 7.59582 46.2415 7.49247 46.155 7.33325L42.1144 9.53075C42.6065 10.4355 43.3159 11.1628 44.2117 11.6747L46.4937 7.68127ZM46.155 7.33325C46.0758 7.1877 46.0004 6.96045 46.0004 6.584H41.4009C41.4009 7.60755 41.6149 8.6123 42.1144 9.53075L46.155 7.33325ZM46.0004 6.584V0.199999H41.4009V6.584H46.0004ZM43.7007 2.49974H45.6327V-2.09974H43.7007V2.49974ZM43.3329 0.199999V6.528H47.9324V0.199999H43.3329ZM43.3329 6.528C43.3329 7.4754 43.5756 8.48248 44.2663 9.33438L47.839 6.43762C47.8655 6.47024 47.8872 6.50381 47.904 6.53578C47.9207 6.56747 47.93 6.59276 47.9347 6.608C47.9439 6.6375 47.9324 6.61832 47.9324 6.528H43.3329ZM44.2899 9.36294C45.0237 10.2388 46.0469 10.7037 47.1727 10.7037V6.10426C47.2398 6.10426 47.3668 6.11863 47.5151 6.1872C47.6643 6.2562 47.7635 6.34707 47.8155 6.40906L44.2899 9.36294ZM47.1727 10.7037H48.6567V6.10426H47.1727V10.7037ZM48.6567 10.7037C49.7757 10.7037 50.8095 10.2509 51.5535 9.36294L48.0279 6.40906C48.0844 6.34165 48.1866 6.25032 48.3346 6.18267C48.4805 6.11605 48.601 6.10426 48.6567 6.10426V10.7037ZM51.5535 9.36294C52.2677 8.51052 52.5244 7.49273 52.5244 6.528H47.9249C47.9249 6.61164 47.914 6.6236 47.9256 6.58741C47.9315 6.56898 47.9422 6.54133 47.9603 6.50812C47.9785 6.47467 48.0012 6.44087 48.0279 6.40906L51.5535 9.36294ZM52.5244 6.528V0.199999H47.9249V6.528H52.5244ZM50.2247 2.49974H52.1567V-2.09974H50.2247V2.49974ZM49.8569 0.199999V6.584H54.4564V0.199999H49.8569ZM49.8569 6.584C49.8569 6.96045 49.7815 7.1877 49.7024 7.33325L53.743 9.53075C54.2425 8.6123 54.4564 7.60755 54.4564 6.584H49.8569ZM49.7024 7.33325C49.6216 7.48188 49.5223 7.58429 49.3649 7.67267L51.6165 11.6833C52.5231 11.1744 53.2451 10.4461 53.743 9.53075L49.7024 7.33325ZM49.3919 7.65772C49.242 7.73926 49.018 7.81226 48.6567 7.81226V12.4117C49.6766 12.4117 50.6754 12.1954 51.5894 11.6983L49.3919 7.65772ZM48.6567 7.81226H47.1727V12.4117H48.6567V7.81226ZM53.8328 0.199999V-2.09974H51.5331V0.199999H53.8328ZM55.5548 0.199999L57.5695 -0.909031L56.914 -2.09974H55.5548V0.199999ZM58.7608 6.024L56.7462 7.13303L58.7831 10.8333L60.7857 7.11431L58.7608 6.024ZM61.8968 0.199999V-2.09974H60.5232L59.872 -0.890306L61.8968 0.199999ZM63.6188 0.199999H65.9186V-2.09974H63.6188V0.199999ZM63.6188 10V12.2997H65.9186V10H63.6188ZM61.7288 10H59.4291V12.2997H61.7288V10ZM61.7288 3.798H64.0286L59.716 2.68565L61.7288 3.798ZM59.6708 7.522L61.6812 8.63886L61.6837 8.63435L59.6708 7.522ZM59.2368 8.068L60.5968 9.92252L60.6068 9.91521L60.6167 9.90779L59.2368 8.068ZM58.2148 8.222L56.2111 9.35068L56.8708 10.5217H58.2148V8.222ZM55.7228 3.798L57.7266 2.66932L53.4231 -4.97052V3.798H55.7228ZM55.7228 10V12.2997H58.0226V10H55.7228ZM53.8328 10H51.5331V12.2997H53.8328V10ZM53.8328 2.49974H55.5548V-2.09974H53.8328V2.49974ZM53.5402 1.30903L56.7462 7.13303L60.7755 4.91497L57.5695 -0.909031L53.5402 1.30903ZM60.7857 7.11431L63.9217 1.2903L59.872 -0.890306L56.736 4.93369L60.7857 7.11431ZM61.8968 2.49974H63.6188V-2.09974H61.8968V2.49974ZM61.3191 0.199999V10H65.9186V0.199999H61.3191ZM63.6188 7.70026H61.7288V12.2997H63.6188V7.70026ZM64.0286 10V3.798H59.4291V10H64.0286ZM59.716 2.68565L57.658 6.40965L61.6837 8.63435L63.7417 4.91035L59.716 2.68565ZM57.6605 6.40515C57.6379 6.44587 57.6349 6.44441 57.6571 6.4165C57.6783 6.38972 57.7418 6.31461 57.857 6.22821L60.6167 9.90779C61.1268 9.52524 61.461 9.03521 61.6812 8.63885L57.6605 6.40515ZM57.8769 6.21348C58.1616 6.00466 58.4833 5.92226 58.7468 5.92226V10.5217C59.3837 10.5217 60.0321 10.3367 60.5968 9.92252L57.8769 6.21348ZM58.7468 5.92226H58.2148V10.5217H58.7468V5.92226ZM60.2186 7.09332L57.7266 2.66932L53.7191 4.92668L56.2111 9.35068L60.2186 7.09332ZM53.4231 3.798V10H58.0226V3.798H53.4231ZM55.7228 7.70026H53.8328V12.2997H55.7228V7.70026ZM56.1326 10V0.199999H51.5331V10H56.1326Z" fill="url(#paint0_linear_843_2190)" mask="url(#path-1-inside-1_843_2190)"/>
<defs>
<linearGradient id="paint0_linear_843_2190" x1="34" y1="-2" x2="34" y2="16.7917" gradientUnits="userSpaceOnUse">
<stop stop-color="white" stop-opacity="0.53"/>
<stop offset="1" stop-color="white" stop-opacity="0"/>
</linearGradient>
</defs>
</svg>
