<svg width="53" height="16" viewBox="0 0 53 16" fill="none" xmlns="http://www.w3.org/2000/svg">
<mask id="path-1-inside-1_843_2192" fill="white">
<path d="M2.18 15C1.60667 15 1.14 14.8267 0.78 14.48C0.42 14.1333 0.24 13.68 0.24 13.12V0.999999H7.2C8.46667 0.999999 9.48 1.3 10.24 1.9C11.0133 2.5 11.4 3.30667 11.4 4.32V5.32C11.4 5.76 11.2867 6.18 11.06 6.58C10.8467 6.98 10.54 7.30667 10.14 7.56V7.58C10.78 7.80667 11.2933 8.17333 11.68 8.68C12.08 9.18667 12.28 9.75333 12.28 10.38V11.42C12.28 12.5133 11.88 13.3867 11.08 14.04C10.2933 14.68 9.22667 15 7.88 15H2.18ZM7.2 6.8C7.62667 6.8 7.97333 6.66667 8.24 6.4C8.50667 6.12 8.64 5.75333 8.64 5.3V4.62C8.64 4.24667 8.5 3.95333 8.22 3.74C7.94 3.51333 7.56667 3.4 7.1 3.4H3V6.8H7.2ZM7.68 12.6C8.26667 12.6 8.72 12.4867 9.04 12.26C9.36 12.02 9.52 11.6867 9.52 11.26V10.38C9.52 9.99333 9.38 9.68 9.1 9.44C8.82 9.2 8.44667 9.08 7.98 9.08H3V12.6H7.68ZM18.9886 15.16C17.9353 15.16 17.0019 14.94 16.1886 14.5C15.3886 14.0467 14.7619 13.42 14.3086 12.62C13.8686 11.8067 13.6486 10.8667 13.6486 9.8V6.2C13.6486 5.13333 13.8686 4.2 14.3086 3.4C14.7619 2.58667 15.3886 1.96 16.1886 1.52C17.0019 1.06667 17.9353 0.84 18.9886 0.84H21.1086C22.1619 0.84 23.0886 1.06667 23.8886 1.52C24.7019 1.96 25.3286 2.58667 25.7686 3.4C26.2219 4.2 26.4486 5.13333 26.4486 6.2V9.8C26.4486 10.8667 26.2219 11.8067 25.7686 12.62C25.3286 13.42 24.7019 14.0467 23.8886 14.5C23.0886 14.94 22.1619 15.16 21.1086 15.16H18.9886ZM21.1086 12.72C21.8819 12.72 22.5019 12.44 22.9686 11.88C23.4486 11.32 23.6886 10.5867 23.6886 9.68V6.32C23.6886 5.41333 23.4486 4.68 22.9686 4.12C22.5019 3.56 21.8819 3.28 21.1086 3.28H18.9886C18.2153 3.28 17.5886 3.56 17.1086 4.12C16.6419 4.68 16.4086 5.41333 16.4086 6.32V9.68C16.4086 10.5867 16.6419 11.32 17.1086 11.88C17.5886 12.44 18.2153 12.72 18.9886 12.72H21.1086ZM32.7213 15.16C31.2546 15.16 30.1079 14.7533 29.2813 13.94C28.4546 13.1133 28.0413 11.9667 28.0413 10.5H30.7613C30.7613 11.1933 30.9346 11.74 31.2813 12.14C31.6413 12.5267 32.1346 12.72 32.7613 12.72H34.9813C35.5679 12.72 36.0413 12.6 36.4013 12.36C36.7746 12.1067 36.9613 11.7733 36.9613 11.36V10.68C36.9613 10.0267 36.4813 9.62 35.5213 9.46L31.8413 8.84C30.6413 8.64 29.7279 8.26 29.1013 7.7C28.4879 7.12667 28.1813 6.4 28.1813 5.52V4.4C28.1813 3.69333 28.3679 3.07333 28.7413 2.54C29.1279 1.99333 29.6679 1.57333 30.3613 1.28C31.0679 0.986666 31.8813 0.84 32.8013 0.84H35.0613C35.9279 0.84 36.6946 1.02 37.3613 1.38C38.0279 1.74 38.5413 2.24667 38.9013 2.9C39.2746 3.54 39.4613 4.28667 39.4613 5.14H36.7413C36.7413 4.58 36.5879 4.13333 36.2813 3.8C35.9746 3.45333 35.5679 3.28 35.0613 3.28H32.8013C32.2413 3.28 31.7879 3.4 31.4413 3.64C31.1079 3.88 30.9413 4.2 30.9413 4.6V5.14C30.9413 5.80667 31.4013 6.22 32.3213 6.38L35.9813 7.02C37.1946 7.23333 38.1213 7.61333 38.7613 8.16C39.4013 8.69333 39.7213 9.38667 39.7213 10.24V11.56C39.7213 12.2667 39.5213 12.8933 39.1213 13.44C38.7346 13.9867 38.1879 14.4133 37.4813 14.72C36.7746 15.0133 35.9546 15.16 35.0213 15.16H32.7213ZM45.8463 15.16C44.3796 15.16 43.2329 14.7533 42.4063 13.94C41.5796 13.1133 41.1663 11.9667 41.1663 10.5H43.8863C43.8863 11.1933 44.0596 11.74 44.4063 12.14C44.7663 12.5267 45.2596 12.72 45.8863 12.72H48.1063C48.6929 12.72 49.1663 12.6 49.5263 12.36C49.8996 12.1067 50.0863 11.7733 50.0863 11.36V10.68C50.0863 10.0267 49.6063 9.62 48.6463 9.46L44.9663 8.84C43.7663 8.64 42.8529 8.26 42.2263 7.7C41.6129 7.12667 41.3063 6.4 41.3063 5.52V4.4C41.3063 3.69333 41.4929 3.07333 41.8663 2.54C42.2529 1.99333 42.7929 1.57333 43.4863 1.28C44.1929 0.986666 45.0063 0.84 45.9263 0.84H48.1863C49.0529 0.84 49.8196 1.02 50.4863 1.38C51.1529 1.74 51.6663 2.24667 52.0263 2.9C52.3996 3.54 52.5863 4.28667 52.5863 5.14H49.8663C49.8663 4.58 49.7129 4.13333 49.4063 3.8C49.0996 3.45333 48.6929 3.28 48.1863 3.28H45.9263C45.3663 3.28 44.9129 3.4 44.5663 3.64C44.2329 3.88 44.0663 4.2 44.0663 4.6V5.14C44.0663 5.80667 44.5263 6.22 45.4463 6.38L49.1063 7.02C50.3196 7.23333 51.2463 7.61333 51.8863 8.16C52.5263 8.69333 52.8463 9.38667 52.8463 10.24V11.56C52.8463 12.2667 52.6463 12.8933 52.2463 13.44C51.8596 13.9867 51.3129 14.4133 50.6063 14.72C49.8996 15.0133 49.0796 15.16 48.1463 15.16H45.8463Z"/>
</mask>
<path d="M2.18 15C1.60667 15 1.14 14.8267 0.78 14.48C0.42 14.1333 0.24 13.68 0.24 13.12V0.999999H7.2C8.46667 0.999999 9.48 1.3 10.24 1.9C11.0133 2.5 11.4 3.30667 11.4 4.32V5.32C11.4 5.76 11.2867 6.18 11.06 6.58C10.8467 6.98 10.54 7.30667 10.14 7.56V7.58C10.78 7.80667 11.2933 8.17333 11.68 8.68C12.08 9.18667 12.28 9.75333 12.28 10.38V11.42C12.28 12.5133 11.88 13.3867 11.08 14.04C10.2933 14.68 9.22667 15 7.88 15H2.18ZM7.2 6.8C7.62667 6.8 7.97333 6.66667 8.24 6.4C8.50667 6.12 8.64 5.75333 8.64 5.3V4.62C8.64 4.24667 8.5 3.95333 8.22 3.74C7.94 3.51333 7.56667 3.4 7.1 3.4H3V6.8H7.2ZM7.68 12.6C8.26667 12.6 8.72 12.4867 9.04 12.26C9.36 12.02 9.52 11.6867 9.52 11.26V10.38C9.52 9.99333 9.38 9.68 9.1 9.44C8.82 9.2 8.44667 9.08 7.98 9.08H3V12.6H7.68ZM18.9886 15.16C17.9353 15.16 17.0019 14.94 16.1886 14.5C15.3886 14.0467 14.7619 13.42 14.3086 12.62C13.8686 11.8067 13.6486 10.8667 13.6486 9.8V6.2C13.6486 5.13333 13.8686 4.2 14.3086 3.4C14.7619 2.58667 15.3886 1.96 16.1886 1.52C17.0019 1.06667 17.9353 0.84 18.9886 0.84H21.1086C22.1619 0.84 23.0886 1.06667 23.8886 1.52C24.7019 1.96 25.3286 2.58667 25.7686 3.4C26.2219 4.2 26.4486 5.13333 26.4486 6.2V9.8C26.4486 10.8667 26.2219 11.8067 25.7686 12.62C25.3286 13.42 24.7019 14.0467 23.8886 14.5C23.0886 14.94 22.1619 15.16 21.1086 15.16H18.9886ZM21.1086 12.72C21.8819 12.72 22.5019 12.44 22.9686 11.88C23.4486 11.32 23.6886 10.5867 23.6886 9.68V6.32C23.6886 5.41333 23.4486 4.68 22.9686 4.12C22.5019 3.56 21.8819 3.28 21.1086 3.28H18.9886C18.2153 3.28 17.5886 3.56 17.1086 4.12C16.6419 4.68 16.4086 5.41333 16.4086 6.32V9.68C16.4086 10.5867 16.6419 11.32 17.1086 11.88C17.5886 12.44 18.2153 12.72 18.9886 12.72H21.1086ZM32.7213 15.16C31.2546 15.16 30.1079 14.7533 29.2813 13.94C28.4546 13.1133 28.0413 11.9667 28.0413 10.5H30.7613C30.7613 11.1933 30.9346 11.74 31.2813 12.14C31.6413 12.5267 32.1346 12.72 32.7613 12.72H34.9813C35.5679 12.72 36.0413 12.6 36.4013 12.36C36.7746 12.1067 36.9613 11.7733 36.9613 11.36V10.68C36.9613 10.0267 36.4813 9.62 35.5213 9.46L31.8413 8.84C30.6413 8.64 29.7279 8.26 29.1013 7.7C28.4879 7.12667 28.1813 6.4 28.1813 5.52V4.4C28.1813 3.69333 28.3679 3.07333 28.7413 2.54C29.1279 1.99333 29.6679 1.57333 30.3613 1.28C31.0679 0.986666 31.8813 0.84 32.8013 0.84H35.0613C35.9279 0.84 36.6946 1.02 37.3613 1.38C38.0279 1.74 38.5413 2.24667 38.9013 2.9C39.2746 3.54 39.4613 4.28667 39.4613 5.14H36.7413C36.7413 4.58 36.5879 4.13333 36.2813 3.8C35.9746 3.45333 35.5679 3.28 35.0613 3.28H32.8013C32.2413 3.28 31.7879 3.4 31.4413 3.64C31.1079 3.88 30.9413 4.2 30.9413 4.6V5.14C30.9413 5.80667 31.4013 6.22 32.3213 6.38L35.9813 7.02C37.1946 7.23333 38.1213 7.61333 38.7613 8.16C39.4013 8.69333 39.7213 9.38667 39.7213 10.24V11.56C39.7213 12.2667 39.5213 12.8933 39.1213 13.44C38.7346 13.9867 38.1879 14.4133 37.4813 14.72C36.7746 15.0133 35.9546 15.16 35.0213 15.16H32.7213ZM45.8463 15.16C44.3796 15.16 43.2329 14.7533 42.4063 13.94C41.5796 13.1133 41.1663 11.9667 41.1663 10.5H43.8863C43.8863 11.1933 44.0596 11.74 44.4063 12.14C44.7663 12.5267 45.2596 12.72 45.8863 12.72H48.1063C48.6929 12.72 49.1663 12.6 49.5263 12.36C49.8996 12.1067 50.0863 11.7733 50.0863 11.36V10.68C50.0863 10.0267 49.6063 9.62 48.6463 9.46L44.9663 8.84C43.7663 8.64 42.8529 8.26 42.2263 7.7C41.6129 7.12667 41.3063 6.4 41.3063 5.52V4.4C41.3063 3.69333 41.4929 3.07333 41.8663 2.54C42.2529 1.99333 42.7929 1.57333 43.4863 1.28C44.1929 0.986666 45.0063 0.84 45.9263 0.84H48.1863C49.0529 0.84 49.8196 1.02 50.4863 1.38C51.1529 1.74 51.6663 2.24667 52.0263 2.9C52.3996 3.54 52.5863 4.28667 52.5863 5.14H49.8663C49.8663 4.58 49.7129 4.13333 49.4063 3.8C49.0996 3.45333 48.6929 3.28 48.1863 3.28H45.9263C45.3663 3.28 44.9129 3.4 44.5663 3.64C44.2329 3.88 44.0663 4.2 44.0663 4.6V5.14C44.0663 5.80667 44.5263 6.22 45.4463 6.38L49.1063 7.02C50.3196 7.23333 51.2463 7.61333 51.8863 8.16C52.5263 8.69333 52.8463 9.38667 52.8463 10.24V11.56C52.8463 12.2667 52.6463 12.8933 52.2463 13.44C51.8596 13.9867 51.3129 14.4133 50.6063 14.72C49.8996 15.0133 49.0796 15.16 48.1463 15.16H45.8463Z" fill="#FFC107"/>
<path d="M0.78 14.48L-0.815194 16.1365L-0.815194 16.1365L0.78 14.48ZM0.24 0.999999V-1.29974H-2.05974V0.999999H0.24ZM10.24 1.9L8.81498 3.70502L8.8226 3.71104L8.83027 3.71699L10.24 1.9ZM11.06 6.58L9.05918 5.4462L9.04467 5.4718L9.03082 5.49777L11.06 6.58ZM10.14 7.56L8.90952 5.61714L7.84026 6.29434V7.56H10.14ZM10.14 7.58H7.84026V9.20522L9.37224 9.74779L10.14 7.58ZM11.68 8.68L9.85182 10.0752L9.86328 10.0902L9.87498 10.105L11.68 8.68ZM11.08 14.04L12.5313 15.8239L12.5347 15.8212L11.08 14.04ZM8.24 6.4L9.86616 8.02616L9.88599 8.00633L9.90533 7.98603L8.24 6.4ZM8.22 3.74L6.77301 5.52746L6.79933 5.54876L6.82626 5.56929L8.22 3.74ZM3 3.4V1.10026H0.700262V3.4H3ZM3 6.8H0.700262V9.09974H3V6.8ZM9.04 12.26L10.3693 14.1366L10.3948 14.1186L10.4198 14.0998L9.04 12.26ZM9.1 9.44L7.60335 11.1861L7.60335 11.1861L9.1 9.44ZM3 9.08V6.78026H0.700262V9.08H3ZM3 12.6H0.700262V14.8997H3V12.6ZM2.18 12.7003C2.12582 12.7003 2.14214 12.6924 2.20074 12.7142C2.22924 12.7248 2.26155 12.7401 2.2945 12.7609C2.32742 12.7816 2.35454 12.8036 2.37519 12.8235L-0.815194 16.1365C0.0368695 16.9571 1.10623 17.2997 2.18 17.2997V12.7003ZM2.37519 12.8235C2.42549 12.8719 2.47833 12.9455 2.51241 13.0313C2.54433 13.1117 2.53974 13.152 2.53974 13.12H-2.05974C-2.05974 14.2222 -1.68172 15.3021 -0.815194 16.1365L2.37519 12.8235ZM2.53974 13.12V0.999999H-2.05974V13.12H2.53974ZM0.24 3.29974H7.2V-1.29974H0.24V3.29974ZM7.2 3.29974C8.10985 3.29974 8.57093 3.51236 8.81498 3.70502L11.665 0.0949743C10.3891 -0.912357 8.82349 -1.29974 7.2 -1.29974V3.29974ZM8.83027 3.71699C9.01942 3.86375 9.10026 3.98806 9.10026 4.32H13.6997C13.6997 2.62527 13.0072 1.13625 11.6497 0.083011L8.83027 3.71699ZM9.10026 4.32V5.32H13.6997V4.32H9.10026ZM9.10026 5.32C9.10026 5.34443 9.09906 5.37581 9.05918 5.4462L13.0608 7.7138C13.4743 6.98419 13.6997 6.17557 13.6997 5.32H9.10026ZM9.03082 5.49777C9.01324 5.53074 8.98884 5.5669 8.90952 5.61714L11.3705 9.50286C12.0912 9.04643 12.6801 8.42926 13.0892 7.66223L9.03082 5.49777ZM7.84026 7.56V7.58H12.4397V7.56H7.84026ZM9.37224 9.74779C9.62005 9.83556 9.75407 9.9471 9.85182 10.0752L13.5082 7.28481C12.8326 6.39956 11.9399 5.77777 10.9078 5.4122L9.37224 9.74779ZM9.87498 10.105C9.96498 10.219 9.98026 10.287 9.98026 10.38H14.5797C14.5797 9.21963 14.195 8.15431 13.485 7.25498L9.87498 10.105ZM9.98026 10.38V11.42H14.5797V10.38H9.98026ZM9.98026 11.42C9.98026 11.8693 9.85557 12.0708 9.62534 12.2588L12.5347 15.8212C13.9044 14.7026 14.5797 13.1574 14.5797 11.42H9.98026ZM9.62866 12.2561C9.36944 12.467 8.87214 12.7003 7.88 12.7003V17.2997C9.58119 17.2997 11.2172 16.893 12.5313 15.8239L9.62866 12.2561ZM7.88 12.7003H2.18V17.2997H7.88V12.7003ZM7.2 9.09974C8.14928 9.09974 9.11016 8.78216 9.86616 8.02616L6.61384 4.77384C6.70444 4.68324 6.82274 4.6042 6.95444 4.55355C7.08067 4.505 7.17254 4.50026 7.2 4.50026V9.09974ZM9.90533 7.98603C10.6486 7.20554 10.9397 6.23491 10.9397 5.3H6.34026C6.34026 5.30124 6.34027 5.23481 6.37872 5.12908C6.41943 5.01714 6.48726 4.90575 6.57467 4.81397L9.90533 7.98603ZM10.9397 5.3V4.62H6.34026V5.3H10.9397ZM10.9397 4.62C10.9397 3.57948 10.5037 2.58877 9.61374 1.91071L6.82626 5.56929C6.70027 5.47329 6.55975 5.32054 6.45953 5.11056C6.36142 4.90499 6.34026 4.72518 6.34026 4.62H10.9397ZM9.66699 1.95254C8.8699 1.30727 7.93586 1.10026 7.1 1.10026V5.69974C7.14991 5.69974 7.12944 5.70606 7.06197 5.68557C6.9885 5.66327 6.88211 5.61578 6.77301 5.52746L9.66699 1.95254ZM7.1 1.10026H3V5.69974H7.1V1.10026ZM0.700262 3.4V6.8H5.29974V3.4H0.700262ZM3 9.09974H7.2V4.50026H3V9.09974ZM7.68 14.8997C8.51958 14.8997 9.51138 14.7443 10.3693 14.1366L7.71071 10.3834C7.82363 10.3034 7.90383 10.2835 7.90223 10.2839C7.90155 10.2841 7.88394 10.2884 7.84586 10.2925C7.80783 10.2967 7.75327 10.3003 7.68 10.3003V14.8997ZM10.4198 14.0998C11.3624 13.3928 11.8197 12.3543 11.8197 11.26H7.22026C7.22026 11.1818 7.23632 11.0232 7.32673 10.8348C7.41953 10.6415 7.54926 10.5034 7.66016 10.4202L10.4198 14.0998ZM11.8197 11.26V10.38H7.22026V11.26H11.8197ZM11.8197 10.38C11.8197 9.35916 11.4139 8.39445 10.5966 7.69391L7.60335 11.1861C7.50467 11.1015 7.39427 10.9698 7.31532 10.7932C7.23767 10.6194 7.22026 10.469 7.22026 10.38H11.8197ZM10.5966 7.69391C9.79864 7.0099 8.84578 6.78026 7.98 6.78026V11.3797C8.0185 11.3797 7.98547 11.3849 7.90626 11.3594C7.82048 11.3318 7.71001 11.2775 7.60335 11.1861L10.5966 7.69391ZM7.98 6.78026H3V11.3797H7.98V6.78026ZM0.700262 9.08V12.6H5.29974V9.08H0.700262ZM3 14.8997H7.68V10.3003H3V14.8997ZM16.1886 14.5L15.0548 16.5008L15.0745 16.512L15.0943 16.5227L16.1886 14.5ZM14.3086 12.62L12.2859 13.7143L12.2966 13.7341L12.3078 13.7538L14.3086 12.62ZM14.3086 3.4L12.2998 2.28033L12.2935 2.29171L14.3086 3.4ZM16.1886 1.52L17.2969 3.5351L17.3082 3.52878L16.1886 1.52ZM23.8886 1.52L22.7548 3.52082L22.7745 3.53197L22.7943 3.54272L23.8886 1.52ZM25.7686 3.4L23.7459 4.49426L23.7566 4.51414L23.7678 4.5338L25.7686 3.4ZM25.7686 12.62L23.7598 11.5003L23.7535 11.5117L25.7686 12.62ZM23.8886 14.5L24.9969 16.5151L25.0082 16.5088L23.8886 14.5ZM22.9686 11.88L21.2225 10.3834L21.2121 10.3955L21.2019 10.4077L22.9686 11.88ZM22.9686 4.12L21.2019 5.59226L21.2121 5.60452L21.2225 5.61665L22.9686 4.12ZM17.1086 4.12L15.3625 2.62335L15.3521 2.63547L15.3419 2.64774L17.1086 4.12ZM17.1086 11.88L15.3419 13.3523L15.3521 13.3645L15.3625 13.3767L17.1086 11.88ZM18.9886 12.8603C18.2636 12.8603 17.7158 12.7115 17.2829 12.4773L15.0943 16.5227C16.288 17.1685 17.6069 17.4597 18.9886 17.4597V12.8603ZM17.3224 12.4992C16.8845 12.2511 16.5575 11.9241 16.3094 11.4862L12.3078 13.7538C12.9663 14.9159 13.8926 15.8423 15.0548 16.5008L17.3224 12.4992ZM16.3313 11.5257C16.0993 11.0969 15.9483 10.5437 15.9483 9.8H11.3489C11.3489 11.1897 11.6379 12.5164 12.2859 13.7143L16.3313 11.5257ZM15.9483 9.8V6.2H11.3489V9.8H15.9483ZM15.9483 6.2C15.9483 5.4553 16.0996 4.9156 16.3237 4.50829L12.2935 2.29171C11.6375 3.4844 11.3489 4.81137 11.3489 6.2H15.9483ZM16.3174 4.51965C16.5649 4.07548 16.883 3.76271 17.2969 3.53507L15.0803 -0.495068C13.8942 0.157292 12.9589 1.09785 12.2998 2.28035L16.3174 4.51965ZM17.3082 3.52878C17.7363 3.29017 18.2749 3.13974 18.9886 3.13974V-1.45974C17.5956 -1.45974 16.2675 -1.15683 15.0689 -0.488778L17.3082 3.52878ZM18.9886 3.13974H21.1086V-1.45974H18.9886V3.13974ZM21.1086 3.13974C21.8231 3.13974 22.3482 3.29042 22.7548 3.52082L25.0224 -0.480824C23.829 -1.15709 22.5007 -1.45974 21.1086 -1.45974V3.13974ZM22.7943 3.54272C23.2145 3.77004 23.5186 4.07406 23.7459 4.49426L27.7913 2.30574C27.1386 1.09927 26.1893 0.149962 24.9829 -0.50272L22.7943 3.54272ZM23.7678 4.5338C23.9958 4.93616 24.1489 5.46652 24.1489 6.2H28.7483C28.7483 4.80014 28.4481 3.46384 27.7694 2.2662L23.7678 4.5338ZM24.1489 6.2V9.8H28.7483V6.2H24.1489ZM24.1489 9.8C24.1489 10.5325 23.9961 11.0765 23.7598 11.5004L27.7774 13.7396C28.4478 12.5369 28.7483 11.2008 28.7483 9.8H24.1489ZM23.7535 11.5117C23.5259 11.9256 23.2131 12.2437 22.7689 12.4912L25.0082 16.5088C26.1907 15.8497 27.1313 14.9144 27.7837 13.7283L23.7535 11.5117ZM22.7803 12.4849C22.3689 12.7112 21.8345 12.8603 21.1086 12.8603V17.4597C22.4894 17.4597 23.8083 17.1688 24.9969 16.5151L22.7803 12.4849ZM21.1086 12.8603H18.9886V17.4597H21.1086V12.8603ZM21.1086 15.0197C22.5169 15.0197 23.8022 14.472 24.7353 13.3523L21.2019 10.4077C21.1858 10.4271 21.179 10.4314 21.1834 10.428C21.1882 10.4243 21.1969 10.4187 21.2071 10.4141C21.2169 10.4096 21.2185 10.4105 21.2068 10.4128C21.1942 10.4154 21.163 10.4203 21.1086 10.4203V15.0197ZM24.7147 13.3766C25.6287 12.3103 25.9883 11.005 25.9883 9.68H21.3889C21.3889 10.1684 21.2685 10.3297 21.2225 10.3834L24.7147 13.3766ZM25.9883 9.68V6.32H21.3889V9.68H25.9883ZM25.9883 6.32C25.9883 4.99504 25.6287 3.68968 24.7147 2.62335L21.2225 5.61665C21.2685 5.67032 21.3889 5.83162 21.3889 6.32H25.9883ZM24.7353 2.64774C23.8022 1.52797 22.5169 0.980261 21.1086 0.980261V5.57974C21.163 5.57974 21.1942 5.58464 21.2068 5.58716C21.2185 5.58953 21.2169 5.59036 21.2071 5.58591C21.1969 5.58134 21.1882 5.57572 21.1834 5.572C21.179 5.56863 21.1858 5.57291 21.2019 5.59226L24.7353 2.64774ZM21.1086 0.980261H18.9886V5.57974H21.1086V0.980261ZM18.9886 0.980261C17.5811 0.980261 16.303 1.52605 15.3625 2.62335L18.8547 5.61665C18.8749 5.59308 18.886 5.58467 18.8865 5.58431C18.8865 5.5843 18.8825 5.5871 18.8767 5.58968C18.8712 5.59216 18.8731 5.59039 18.8871 5.58758C18.9019 5.58462 18.9343 5.57974 18.9886 5.57974V0.980261ZM15.3419 2.64774C14.4532 3.71416 14.1089 5.01048 14.1089 6.32H18.7083C18.7083 5.81618 18.8307 5.64583 18.8753 5.59226L15.3419 2.64774ZM14.1089 6.32V9.68H18.7083V6.32H14.1089ZM14.1089 9.68C14.1089 10.9895 14.4532 12.2858 15.3419 13.3523L18.8753 10.4077C18.8307 10.3542 18.7083 10.1838 18.7083 9.68H14.1089ZM15.3625 13.3767C16.303 14.4739 17.5811 15.0197 18.9886 15.0197V10.4203C18.9343 10.4203 18.9019 10.4154 18.8871 10.4124C18.8731 10.4096 18.8712 10.4078 18.8767 10.4103C18.8825 10.4129 18.8865 10.4157 18.8865 10.4157C18.886 10.4153 18.8749 10.4069 18.8547 10.3833L15.3625 13.3767ZM18.9886 15.0197H21.1086V10.4203H18.9886V15.0197ZM29.2813 13.94L27.6551 15.5662L27.6617 15.5728L27.6684 15.5793L29.2813 13.94ZM28.0413 10.5V8.20026H25.7415V10.5H28.0413ZM30.7613 10.5H33.061V8.20026H30.7613V10.5ZM31.2813 12.14L29.5434 13.6462L29.5702 13.6771L29.5981 13.7071L31.2813 12.14ZM36.4013 12.36L37.6769 14.2735L37.6848 14.2683L37.6926 14.263L36.4013 12.36ZM35.5213 9.46L35.1392 11.7278L35.1432 11.7284L35.5213 9.46ZM31.8413 8.84L32.2233 6.57222L32.2193 6.57155L31.8413 8.84ZM29.1013 7.7L27.5308 9.38002L27.5496 9.39763L27.5689 9.41481L29.1013 7.7ZM28.7413 2.54L26.8637 1.21197L26.8572 1.22119L28.7413 2.54ZM30.3613 1.28L29.4796 -0.844021L29.4724 -0.841027L29.4652 -0.837984L30.3613 1.28ZM37.3613 1.38L38.454 -0.643553L38.454 -0.643554L37.3613 1.38ZM38.9013 2.9L36.8871 4.00986L36.9006 4.03449L36.9148 4.05877L38.9013 2.9ZM39.4613 5.14V7.43974H41.761V5.14H39.4613ZM36.7413 5.14H34.4415V7.43974H36.7413V5.14ZM36.2813 3.8L34.5588 5.32375L34.5736 5.34055L34.5888 5.35705L36.2813 3.8ZM31.4413 3.64L30.1322 1.74917L30.1147 1.76127L30.0975 1.77368L31.4413 3.64ZM32.3213 6.38L32.7174 4.11463L32.7153 4.11427L32.3213 6.38ZM35.9813 7.02L36.3795 4.755L36.3774 4.75463L35.9813 7.02ZM38.7613 8.16L37.2676 9.90866L37.2782 9.91775L37.289 9.92671L38.7613 8.16ZM39.1213 13.44L37.2653 12.082L37.2544 12.0969L37.2437 12.112L39.1213 13.44ZM37.4813 14.72L38.3629 16.844L38.3799 16.837L38.3968 16.8297L37.4813 14.72ZM32.7213 12.8603C31.6904 12.8603 31.1843 12.5862 30.8941 12.3007L27.6684 15.5793C29.0315 16.9205 30.8188 17.4597 32.7213 17.4597V12.8603ZM30.9074 12.3138C30.6155 12.0219 30.341 11.5205 30.341 10.5H25.7415C25.7415 12.4128 26.2937 14.2048 27.6551 15.5662L30.9074 12.3138ZM28.0413 12.7997H30.7613V8.20026H28.0413V12.7997ZM28.4615 10.5C28.4615 11.5721 28.7344 12.7127 29.5434 13.6462L33.0191 10.6338C33.041 10.6591 33.0578 10.6841 33.0694 10.7053C33.0808 10.7261 33.0843 10.7376 33.0834 10.7349C33.0811 10.7276 33.061 10.6584 33.061 10.5H28.4615ZM29.5981 13.7071C30.4739 14.6478 31.6253 15.0197 32.7613 15.0197V10.4203C32.6837 10.4203 32.6957 10.4085 32.7604 10.4338C32.7924 10.4463 32.8301 10.4653 32.869 10.4918C32.908 10.5183 32.94 10.5467 32.9644 10.5729L29.5981 13.7071ZM32.7613 15.0197H34.9813V10.4203H32.7613V15.0197ZM34.9813 15.0197C35.8645 15.0197 36.8265 14.8404 37.6769 14.2735L35.1256 10.4465C35.1888 10.4044 35.2269 10.3968 35.2111 10.4008C35.1918 10.4057 35.1209 10.4203 34.9813 10.4203V15.0197ZM37.6926 14.263C38.6286 13.6278 39.261 12.6143 39.261 11.36H34.6615C34.6615 11.2064 34.7002 11.0008 34.8147 10.7963C34.9249 10.5995 35.0541 10.4949 35.1099 10.457L37.6926 14.263ZM39.261 11.36V10.68H34.6615V11.36H39.261ZM39.261 10.68C39.261 9.70723 38.866 8.78957 38.0878 8.13034C37.4034 7.5505 36.5832 7.30553 35.8993 7.19155L35.1432 11.7284C35.4193 11.7745 35.3191 11.8128 35.1147 11.6397C34.9962 11.5393 34.868 11.3875 34.7763 11.1849C34.6856 10.9847 34.6615 10.8035 34.6615 10.68H39.261ZM35.9033 7.19222L32.2233 6.57222L31.4592 11.1078L35.1392 11.7278L35.9033 7.19222ZM32.2193 6.57155C31.2669 6.41281 30.8212 6.15283 30.6336 5.98519L27.5689 9.41481C28.6346 10.3672 30.0156 10.8672 31.4632 11.1084L32.2193 6.57155ZM30.6717 6.01998C30.5482 5.90454 30.481 5.79768 30.481 5.52H25.8815C25.8815 7.00232 26.4276 8.34879 27.5308 9.38002L30.6717 6.01998ZM30.481 5.52V4.4H25.8815V5.52H30.481ZM30.481 4.4C30.481 4.12279 30.5459 3.97227 30.6253 3.85881L26.8572 1.22119C26.19 2.1744 25.8815 3.26388 25.8815 4.4H30.481ZM30.6188 3.86802C30.7284 3.71301 30.9079 3.5458 31.2573 3.39798L29.4652 -0.837984C28.4279 -0.399133 27.5274 0.273657 26.8637 1.21198L30.6188 3.86802ZM31.2429 3.40402C31.6197 3.24763 32.1239 3.13974 32.8013 3.13974V-1.45974C31.6386 -1.45974 30.5162 -1.2743 29.4796 -0.844021L31.2429 3.40402ZM32.8013 3.13974H35.0613V-1.45974H32.8013V3.13974ZM35.0613 3.13974C35.6018 3.13974 35.9832 3.24946 36.2685 3.40355L38.454 -0.643554C37.406 -1.20946 36.254 -1.45974 35.0613 -1.45974V3.13974ZM36.2685 3.40355C36.5532 3.55725 36.7437 3.74962 36.8871 4.00986L40.9154 1.79014C40.3388 0.743713 39.5027 -0.0772526 38.454 -0.643553L36.2685 3.40355ZM36.9148 4.05877C37.0535 4.29661 37.1615 4.63118 37.1615 5.14H41.761C41.761 3.94215 41.4956 2.78339 40.8877 1.74123L36.9148 4.05877ZM39.4613 2.84026H36.7413V7.43974H39.4613V2.84026ZM39.041 5.14C39.041 4.14591 38.7578 3.09526 37.9737 2.24295L34.5888 5.35705C34.5178 5.27987 34.4731 5.19583 34.4511 5.13169C34.4316 5.07479 34.4415 5.06811 34.4415 5.14H39.041ZM38.0037 2.27625C37.2162 1.38601 36.1567 0.980261 35.0613 0.980261V5.57974C35.0497 5.57974 34.965 5.57691 34.8445 5.52558C34.7189 5.47205 34.6208 5.39385 34.5588 5.32375L38.0037 2.27625ZM35.0613 0.980261H32.8013V5.57974H35.0613V0.980261ZM32.8013 0.980261C31.9247 0.980261 30.9715 1.16814 30.1322 1.74917L32.7503 5.53083C32.7172 5.55374 32.6877 5.56948 32.665 5.57968C32.6539 5.58467 32.6451 5.58805 32.639 5.59019C32.6329 5.59233 32.6297 5.59318 32.6297 5.59317C32.6315 5.59271 32.6827 5.57974 32.8013 5.57974V0.980261ZM30.0975 1.77368C29.183 2.4321 28.6415 3.43713 28.6415 4.6H33.241C33.241 4.72903 33.2114 4.91988 33.1059 5.12233C33.0016 5.32261 32.8693 5.44561 32.785 5.50632L30.0975 1.77368ZM28.6415 4.6V5.14H33.241V4.6H28.6415ZM28.6415 5.14C28.6415 6.06868 28.9928 6.98093 29.7492 7.66061C30.4248 8.26771 31.2435 8.52682 31.9272 8.64573L32.7153 4.11427C32.479 4.07318 32.6077 4.04562 32.8233 4.23939C32.9443 4.34809 33.0623 4.501 33.1433 4.69132C33.2226 4.87744 33.241 5.03886 33.241 5.14H28.6415ZM31.9251 8.64536L35.5851 9.28536L36.3774 4.75463L32.7174 4.11463L31.9251 8.64536ZM35.583 9.28499C36.5673 9.45806 37.0524 9.72481 37.2676 9.90866L40.2549 6.41134C39.1901 5.50185 37.8219 5.00861 36.3795 4.75501L35.583 9.28499ZM37.289 9.92671C37.3709 9.99493 37.3889 10.0345 37.3932 10.0437C37.3981 10.0545 37.4215 10.1068 37.4215 10.24H42.021C42.021 8.7233 41.4124 7.37567 40.2335 6.39329L37.289 9.92671ZM37.4215 10.24V11.56H42.021V10.24H37.4215ZM37.4215 11.56C37.4215 11.8009 37.3639 11.9472 37.2653 12.082L40.9772 14.798C41.6786 13.8395 42.021 12.7324 42.021 11.56H37.4215ZM37.2437 12.112C37.1349 12.2659 36.9454 12.4456 36.5657 12.6103L38.3968 16.8297C39.4304 16.3811 40.3343 15.7075 40.9988 14.768L37.2437 12.112ZM36.5996 12.596C36.2265 12.7508 35.7168 12.8603 35.0213 12.8603V17.4597C36.1924 17.4597 37.3226 17.2758 38.3629 16.844L36.5996 12.596ZM35.0213 12.8603H32.7213V17.4597H35.0213V12.8603ZM42.4063 13.94L40.7801 15.5662L40.7867 15.5728L40.7934 15.5793L42.4063 13.94ZM41.1663 10.5V8.20026H38.8665V10.5H41.1663ZM43.8863 10.5H46.186V8.20026H43.8863V10.5ZM44.4063 12.14L42.6684 13.6462L42.6952 13.6771L42.7231 13.7071L44.4063 12.14ZM49.5263 12.36L50.8019 14.2735L50.8098 14.2683L50.8176 14.263L49.5263 12.36ZM48.6463 9.46L48.2642 11.7278L48.2682 11.7284L48.6463 9.46ZM44.9663 8.84L45.3483 6.57222L45.3443 6.57155L44.9663 8.84ZM42.2263 7.7L40.6558 9.38002L40.6746 9.39763L40.6939 9.41481L42.2263 7.7ZM41.8663 2.54L39.9887 1.21197L39.9822 1.22119L41.8663 2.54ZM43.4863 1.28L42.6046 -0.844021L42.5974 -0.841027L42.5902 -0.837984L43.4863 1.28ZM50.4863 1.38L51.579 -0.643553L51.579 -0.643554L50.4863 1.38ZM52.0263 2.9L50.0121 4.00986L50.0256 4.03449L50.0398 4.05877L52.0263 2.9ZM52.5863 5.14V7.43974H54.886V5.14H52.5863ZM49.8663 5.14H47.5665V7.43974H49.8663V5.14ZM49.4063 3.8L47.6838 5.32375L47.6986 5.34055L47.7138 5.35705L49.4063 3.8ZM44.5663 3.64L43.2572 1.74917L43.2397 1.76127L43.2225 1.77368L44.5663 3.64ZM45.4463 6.38L45.8424 4.11463L45.8403 4.11427L45.4463 6.38ZM49.1063 7.02L49.5045 4.755L49.5024 4.75463L49.1063 7.02ZM51.8863 8.16L50.3926 9.90866L50.4032 9.91775L50.414 9.92671L51.8863 8.16ZM52.2463 13.44L50.3903 12.082L50.3794 12.0969L50.3687 12.112L52.2463 13.44ZM50.6063 14.72L51.4879 16.844L51.5049 16.837L51.5218 16.8297L50.6063 14.72ZM45.8463 12.8603C44.8154 12.8603 44.3093 12.5862 44.0191 12.3007L40.7934 15.5793C42.1565 16.9205 43.9438 17.4597 45.8463 17.4597V12.8603ZM44.0324 12.3138C43.7405 12.0219 43.466 11.5205 43.466 10.5H38.8665C38.8665 12.4128 39.4187 14.2048 40.7801 15.5662L44.0324 12.3138ZM41.1663 12.7997H43.8863V8.20026H41.1663V12.7997ZM41.5865 10.5C41.5865 11.5721 41.8594 12.7127 42.6684 13.6462L46.1441 10.6338C46.166 10.6591 46.1828 10.6841 46.1944 10.7053C46.2058 10.7261 46.2093 10.7376 46.2084 10.7349C46.2061 10.7276 46.186 10.6584 46.186 10.5H41.5865ZM42.7231 13.7071C43.5989 14.6478 44.7503 15.0197 45.8863 15.0197V10.4203C45.8087 10.4203 45.8207 10.4085 45.8854 10.4338C45.9174 10.4463 45.9551 10.4653 45.994 10.4918C46.033 10.5183 46.065 10.5467 46.0894 10.5729L42.7231 13.7071ZM45.8863 15.0197H48.1063V10.4203H45.8863V15.0197ZM48.1063 15.0197C48.9895 15.0197 49.9515 14.8404 50.8019 14.2735L48.2506 10.4465C48.3138 10.4044 48.3519 10.3968 48.3361 10.4008C48.3168 10.4057 48.2459 10.4203 48.1063 10.4203V15.0197ZM50.8176 14.263C51.7536 13.6278 52.386 12.6143 52.386 11.36H47.7865C47.7865 11.2064 47.8252 11.0008 47.9397 10.7963C48.0499 10.5995 48.1791 10.4949 48.2349 10.457L50.8176 14.263ZM52.386 11.36V10.68H47.7865V11.36H52.386ZM52.386 10.68C52.386 9.70723 51.991 8.78957 51.2128 8.13034C50.5284 7.5505 49.7082 7.30553 49.0243 7.19155L48.2682 11.7284C48.5443 11.7745 48.4441 11.8128 48.2397 11.6397C48.1212 11.5393 47.993 11.3875 47.9013 11.1849C47.8106 10.9847 47.7865 10.8035 47.7865 10.68H52.386ZM49.0283 7.19222L45.3483 6.57222L44.5842 11.1078L48.2642 11.7278L49.0283 7.19222ZM45.3443 6.57155C44.3919 6.41281 43.9462 6.15283 43.7586 5.98519L40.6939 9.41481C41.7596 10.3672 43.1406 10.8672 44.5882 11.1084L45.3443 6.57155ZM43.7967 6.01998C43.6732 5.90454 43.606 5.79768 43.606 5.52H39.0065C39.0065 7.00232 39.5526 8.34879 40.6558 9.38002L43.7967 6.01998ZM43.606 5.52V4.4H39.0065V5.52H43.606ZM43.606 4.4C43.606 4.12279 43.6709 3.97227 43.7503 3.85881L39.9822 1.22119C39.315 2.1744 39.0065 3.26388 39.0065 4.4H43.606ZM43.7438 3.86802C43.8534 3.71301 44.0329 3.5458 44.3823 3.39798L42.5902 -0.837984C41.5529 -0.399133 40.6524 0.273657 39.9887 1.21198L43.7438 3.86802ZM44.3679 3.40402C44.7447 3.24763 45.2489 3.13974 45.9263 3.13974V-1.45974C44.7636 -1.45974 43.6412 -1.2743 42.6046 -0.844021L44.3679 3.40402ZM45.9263 3.13974H48.1863V-1.45974H45.9263V3.13974ZM48.1863 3.13974C48.7268 3.13974 49.1082 3.24946 49.3935 3.40355L51.579 -0.643554C50.531 -1.20946 49.379 -1.45974 48.1863 -1.45974V3.13974ZM49.3935 3.40355C49.6782 3.55725 49.8687 3.74962 50.0121 4.00986L54.0404 1.79014C53.4638 0.743713 52.6277 -0.0772526 51.579 -0.643553L49.3935 3.40355ZM50.0398 4.05877C50.1785 4.29661 50.2865 4.63118 50.2865 5.14H54.886C54.886 3.94215 54.6206 2.78339 54.0127 1.74123L50.0398 4.05877ZM52.5863 2.84026H49.8663V7.43974H52.5863V2.84026ZM52.166 5.14C52.166 4.14591 51.8828 3.09526 51.0987 2.24295L47.7138 5.35705C47.6428 5.27987 47.5981 5.19583 47.5761 5.13169C47.5566 5.07479 47.5665 5.06811 47.5665 5.14H52.166ZM51.1287 2.27625C50.3412 1.38601 49.2817 0.980261 48.1863 0.980261V5.57974C48.1747 5.57974 48.09 5.57691 47.9695 5.52558C47.8439 5.47205 47.7458 5.39385 47.6838 5.32375L51.1287 2.27625ZM48.1863 0.980261H45.9263V5.57974H48.1863V0.980261ZM45.9263 0.980261C45.0497 0.980261 44.0965 1.16814 43.2572 1.74917L45.8753 5.53083C45.8422 5.55374 45.8127 5.56948 45.79 5.57968C45.7789 5.58467 45.7701 5.58805 45.764 5.59019C45.7579 5.59233 45.7547 5.59318 45.7547 5.59317C45.7565 5.59271 45.8077 5.57974 45.9263 5.57974V0.980261ZM43.2225 1.77368C42.308 2.4321 41.7665 3.43713 41.7665 4.6H46.366C46.366 4.72903 46.3364 4.91988 46.2309 5.12233C46.1266 5.32261 45.9943 5.44561 45.91 5.50632L43.2225 1.77368ZM41.7665 4.6V5.14H46.366V4.6H41.7665ZM41.7665 5.14C41.7665 6.06868 42.1178 6.98093 42.8742 7.66061C43.5498 8.26771 44.3685 8.52682 45.0522 8.64573L45.8403 4.11427C45.604 4.07318 45.7327 4.04562 45.9483 4.23939C46.0693 4.34809 46.1873 4.501 46.2683 4.69132C46.3476 4.87744 46.366 5.03886 46.366 5.14H41.7665ZM45.0501 8.64536L48.7101 9.28536L49.5024 4.75463L45.8424 4.11463L45.0501 8.64536ZM48.708 9.28499C49.6923 9.45806 50.1774 9.72481 50.3926 9.90866L53.3799 6.41134C52.3151 5.50185 50.9469 5.00861 49.5045 4.75501L48.708 9.28499ZM50.414 9.92671C50.4959 9.99493 50.5139 10.0345 50.5182 10.0437C50.5231 10.0545 50.5465 10.1068 50.5465 10.24H55.146C55.146 8.7233 54.5374 7.37567 53.3585 6.39329L50.414 9.92671ZM50.5465 10.24V11.56H55.146V10.24H50.5465ZM50.5465 11.56C50.5465 11.8009 50.4889 11.9472 50.3903 12.082L54.1022 14.798C54.8036 13.8395 55.146 12.7324 55.146 11.56H50.5465ZM50.3687 12.112C50.2599 12.2659 50.0704 12.4456 49.6907 12.6103L51.5218 16.8297C52.5554 16.3811 53.4593 15.7075 54.1238 14.768L50.3687 12.112ZM49.7246 12.596C49.3515 12.7508 48.8418 12.8603 48.1463 12.8603V17.4597C49.3174 17.4597 50.4476 17.2758 51.4879 16.844L49.7246 12.596ZM48.1463 12.8603H45.8463V17.4597H48.1463V12.8603Z" fill="url(#paint0_linear_843_2192)" mask="url(#path-1-inside-1_843_2192)"/>
<defs>
<linearGradient id="paint0_linear_843_2192" x1="27.5" y1="-3" x2="27.5" y2="15.7917" gradientUnits="userSpaceOnUse">
<stop stop-color="white" stop-opacity="0.53"/>
<stop offset="1" stop-color="white" stop-opacity="0"/>
</linearGradient>
</defs>
</svg>
