<svg width="46" height="16" viewBox="0 0 46 16" fill="none" xmlns="http://www.w3.org/2000/svg">
<mask id="path-1-inside-1_843_2194" fill="white">
<path d="M8.96 15L4.34 9.12L3 10.56V15H0.24V0.999999H3V7.04L8.56 0.999999H11.96L6.2 7.14L12.32 15H8.96ZM13.9166 0.999999H16.6766V15H13.9166V0.999999ZM19.3611 0.999999H21.8211L28.5411 10.52V0.999999H31.2411V15H28.7811L22.0611 5.48V15H19.3611V0.999999ZM38.5166 15.16C37.4899 15.16 36.5832 14.94 35.7966 14.5C35.0099 14.06 34.3966 13.44 33.9566 12.64C33.5299 11.8267 33.3166 10.8933 33.3166 9.84V6.16C33.3166 5.10667 33.5299 4.18 33.9566 3.38C34.3966 2.56667 35.0099 1.94 35.7966 1.5C36.5966 1.06 37.5166 0.84 38.5566 0.84H40.7966C41.7966 0.84 42.6766 1.04 43.4366 1.44C44.1966 1.84 44.7832 2.40667 45.1966 3.14C45.6232 3.87333 45.8366 4.72 45.8366 5.68H43.1166C43.1166 4.96 42.9032 4.38 42.4766 3.94C42.0499 3.5 41.4899 3.28 40.7966 3.28H38.5566C37.8099 3.28 37.2099 3.56 36.7566 4.12C36.3032 4.66667 36.0766 5.38667 36.0766 6.28V9.72C36.0766 10.6133 36.2966 11.34 36.7366 11.9C37.1899 12.4467 37.7832 12.72 38.5166 12.72H40.8766C41.5566 12.72 42.1166 12.4733 42.5566 11.98C43.0099 11.4867 43.2366 10.8733 43.2366 10.14V9.7H39.3566V7.3H45.9566V10.14C45.9566 11.1133 45.7432 11.98 45.3166 12.74C44.8899 13.5 44.2899 14.0933 43.5166 14.52C42.7432 14.9467 41.8632 15.16 40.8766 15.16H38.5166Z"/>
</mask>
<path d="M8.96 15L4.34 9.12L3 10.56V15H0.24V0.999999H3V7.04L8.56 0.999999H11.96L6.2 7.14L12.32 15H8.96ZM13.9166 0.999999H16.6766V15H13.9166V0.999999ZM19.3611 0.999999H21.8211L28.5411 10.52V0.999999H31.2411V15H28.7811L22.0611 5.48V15H19.3611V0.999999ZM38.5166 15.16C37.4899 15.16 36.5832 14.94 35.7966 14.5C35.0099 14.06 34.3966 13.44 33.9566 12.64C33.5299 11.8267 33.3166 10.8933 33.3166 9.84V6.16C33.3166 5.10667 33.5299 4.18 33.9566 3.38C34.3966 2.56667 35.0099 1.94 35.7966 1.5C36.5966 1.06 37.5166 0.84 38.5566 0.84H40.7966C41.7966 0.84 42.6766 1.04 43.4366 1.44C44.1966 1.84 44.7832 2.40667 45.1966 3.14C45.6232 3.87333 45.8366 4.72 45.8366 5.68H43.1166C43.1166 4.96 42.9032 4.38 42.4766 3.94C42.0499 3.5 41.4899 3.28 40.7966 3.28H38.5566C37.8099 3.28 37.2099 3.56 36.7566 4.12C36.3032 4.66667 36.0766 5.38667 36.0766 6.28V9.72C36.0766 10.6133 36.2966 11.34 36.7366 11.9C37.1899 12.4467 37.7832 12.72 38.5166 12.72H40.8766C41.5566 12.72 42.1166 12.4733 42.5566 11.98C43.0099 11.4867 43.2366 10.8733 43.2366 10.14V9.7H39.3566V7.3H45.9566V10.14C45.9566 11.1133 45.7432 11.98 45.3166 12.74C44.8899 13.5 44.2899 14.0933 43.5166 14.52C42.7432 14.9467 41.8632 15.16 40.8766 15.16H38.5166Z" fill="#3F51B5"/>
<path d="M8.96 15L7.15167 16.4208L7.84225 17.2997H8.96V15ZM4.34 9.12L6.14833 7.69917L4.4876 5.58552L2.65643 7.55335L4.34 9.12ZM3 10.56L1.31643 8.99335L0.700262 9.6555V10.56H3ZM3 15V17.2997H5.29974V15H3ZM0.24 15H-2.05974V17.2997H0.24V15ZM0.24 0.999999V-1.29974H-2.05974V0.999999H0.24ZM3 0.999999H5.29974V-1.29974H3V0.999999ZM3 7.04H0.700262V12.9339L4.692 8.59754L3 7.04ZM8.56 0.999999V-1.29974H7.55122L6.868 -0.557539L8.56 0.999999ZM11.96 0.999999L13.6372 2.57343L17.2707 -1.29974H11.96V0.999999ZM6.2 7.14L4.52277 5.56657L3.17712 7.00099L4.38544 8.55286L6.2 7.14ZM12.32 15V17.2997H17.0253L14.1346 13.5871L12.32 15ZM10.7683 13.5792L6.14833 7.69917L2.53167 10.5408L7.15167 16.4208L10.7683 13.5792ZM2.65643 7.55335L1.31643 8.99335L4.68357 12.1267L6.02357 10.6867L2.65643 7.55335ZM0.700262 10.56V15H5.29974V10.56H0.700262ZM3 12.7003H0.24V17.2997H3V12.7003ZM2.53974 15V0.999999H-2.05974V15H2.53974ZM0.24 3.29974H3V-1.29974H0.24V3.29974ZM0.700262 0.999999V7.04H5.29974V0.999999H0.700262ZM4.692 8.59754L10.252 2.55754L6.868 -0.557539L1.308 5.48246L4.692 8.59754ZM8.56 3.29974H11.96V-1.29974H8.56V3.29974ZM10.2828 -0.573431L4.52277 5.56657L7.87723 8.71343L13.6372 2.57343L10.2828 -0.573431ZM4.38544 8.55286L10.5054 16.4129L14.1346 13.5871L8.01456 5.72714L4.38544 8.55286ZM12.32 12.7003H8.96V17.2997H12.32V12.7003ZM13.9166 0.999999V-1.29974H11.6168V0.999999H13.9166ZM16.6766 0.999999H18.9763V-1.29974H16.6766V0.999999ZM16.6766 15V17.2997H18.9763V15H16.6766ZM13.9166 15H11.6168V17.2997H13.9166V15ZM13.9166 3.29974H16.6766V-1.29974H13.9166V3.29974ZM14.3768 0.999999V15H18.9763V0.999999H14.3768ZM16.6766 12.7003H13.9166V17.2997H16.6766V12.7003ZM16.2163 15V0.999999H11.6168V15H16.2163ZM19.3611 0.999999V-1.29974H17.0614V0.999999H19.3611ZM21.8211 0.999999L23.6999 -0.326221L23.0127 -1.29974H21.8211V0.999999ZM28.5411 10.52L26.6623 11.8462L30.8408 17.7658V10.52H28.5411ZM28.5411 0.999999V-1.29974H26.2414V0.999999H28.5411ZM31.2411 0.999999H33.5408V-1.29974H31.2411V0.999999ZM31.2411 15V17.2997H33.5408V15H31.2411ZM28.7811 15L26.9023 16.3262L27.5895 17.2997H28.7811V15ZM22.0611 5.48L23.9399 4.15378L19.7614 -1.76583V5.48H22.0611ZM22.0611 15V17.2997H24.3608V15H22.0611ZM19.3611 15H17.0614V17.2997H19.3611V15ZM19.3611 3.29974H21.8211V-1.29974H19.3611V3.29974ZM19.9423 2.32622L26.6623 11.8462L30.4199 9.19378L23.6999 -0.326221L19.9423 2.32622ZM30.8408 10.52V0.999999H26.2414V10.52H30.8408ZM28.5411 3.29974H31.2411V-1.29974H28.5411V3.29974ZM28.9414 0.999999V15H33.5408V0.999999H28.9414ZM31.2411 12.7003H28.7811V17.2997H31.2411V12.7003ZM30.6599 13.6738L23.9399 4.15378L20.1823 6.80622L26.9023 16.3262L30.6599 13.6738ZM19.7614 5.48V15H24.3608V5.48H19.7614ZM22.0611 12.7003H19.3611V17.2997H22.0611V12.7003ZM21.6608 15V0.999999H17.0614V15H21.6608ZM35.7966 14.5L34.6739 16.5071L35.7966 14.5ZM33.9566 12.64L31.92 13.7083L31.9306 13.7284L31.9415 13.7483L33.9566 12.64ZM33.9566 3.38L31.9338 2.28572L31.9274 2.29777L33.9566 3.38ZM35.7966 1.5L34.6883 -0.515068L34.6811 -0.511117L34.6739 -0.507116L35.7966 1.5ZM43.4366 1.44L44.5077 -0.59508L44.5077 -0.595081L43.4366 1.44ZM45.1966 3.14L43.1931 4.2692L43.2009 4.28292L43.2088 4.29652L45.1966 3.14ZM45.8366 5.68V7.97974H48.1363V5.68H45.8366ZM43.1166 5.68H40.8168V7.97974H43.1166V5.68ZM42.4766 3.94L40.8256 5.54095L40.8256 5.54095L42.4766 3.94ZM36.7566 4.12L38.5268 5.588L38.5355 5.57755L38.544 5.56699L36.7566 4.12ZM36.7366 11.9L34.9282 13.3208L34.947 13.3447L34.9663 13.368L36.7366 11.9ZM42.5566 11.98L40.8632 10.4239L40.8516 10.4365L40.8403 10.4493L42.5566 11.98ZM43.2366 9.7H45.5363V7.40026H43.2366V9.7ZM39.3566 9.7H37.0568V11.9997H39.3566V9.7ZM39.3566 7.3V5.00026H37.0568V7.3H39.3566ZM45.9566 7.3H48.2563V5.00026H45.9566V7.3ZM45.3166 12.74L43.3112 11.6142L43.3112 11.6142L45.3166 12.74ZM43.5166 14.52L44.6275 16.5336L44.6275 16.5336L43.5166 14.52ZM38.5166 12.8603C37.8275 12.8603 37.3175 12.7157 36.9192 12.4929L34.6739 16.5071C35.849 17.1643 37.1522 17.4597 38.5166 17.4597V12.8603ZM36.9192 12.4929C36.5134 12.2659 36.207 11.9596 35.9716 11.5317L31.9415 13.7483C32.5861 14.9204 33.5064 15.8541 34.6739 16.5071L36.9192 12.4929ZM35.9931 11.5717C35.7632 11.1334 35.6163 10.5762 35.6163 9.84H31.0168C31.0168 11.2105 31.2966 12.5199 31.92 13.7083L35.9931 11.5717ZM35.6163 9.84V6.16H31.0168V9.84H35.6163ZM35.6163 6.16C35.6163 5.42282 35.7635 4.87895 35.9857 4.46223L31.9274 2.29777C31.2963 3.48105 31.0168 4.79052 31.0168 6.16H35.6163ZM35.9793 4.47426C36.2175 4.03388 36.5233 3.72855 36.9192 3.50712L34.6739 -0.507116C33.4965 0.151453 32.5756 1.09945 31.9338 2.28574L35.9793 4.47426ZM36.9048 3.51507C37.3205 3.28646 37.8495 3.13974 38.5566 3.13974V-1.45974C37.1836 -1.45974 35.8726 -1.16647 34.6883 -0.515068L36.9048 3.51507ZM38.5566 3.13974H40.7966V-1.45974H38.5566V3.13974ZM40.7966 3.13974C41.4849 3.13974 41.9862 3.27546 42.3655 3.47508L44.5077 -0.595081C43.3669 -1.19546 42.1083 -1.45974 40.7966 -1.45974V3.13974ZM42.3655 3.47508C42.7424 3.67348 43.0016 3.92939 43.1931 4.2692L47.2 2.0108C46.5649 0.883947 45.6507 0.00651674 44.5077 -0.59508L42.3655 3.47508ZM43.2088 4.29652C43.4054 4.6344 43.5368 5.07182 43.5368 5.68H48.1363C48.1363 4.36818 47.8411 3.11226 47.1843 1.98348L43.2088 4.29652ZM45.8366 3.38026H43.1166V7.97974H45.8366V3.38026ZM45.4163 5.68C45.4163 4.47432 45.0422 3.28231 44.1275 2.33905L40.8256 5.54095C40.8223 5.53755 40.8156 5.52974 40.8085 5.51854C40.8053 5.51336 40.8027 5.50865 40.8008 5.50481C40.799 5.50098 40.7982 5.49884 40.7982 5.49888C40.7982 5.49895 40.7993 5.50185 40.8009 5.50809C40.8025 5.51437 40.8048 5.5244 40.8072 5.53866C40.8119 5.56729 40.8168 5.61336 40.8168 5.68H45.4163ZM44.1275 2.33905C43.2092 1.39201 42.0227 0.980261 40.7966 0.980261V5.57974C40.8484 5.57974 40.8797 5.58385 40.894 5.58636C40.9077 5.58877 40.9068 5.58988 40.8957 5.58548C40.8841 5.58093 40.8687 5.57334 40.8529 5.56276C40.8372 5.55225 40.8281 5.5435 40.8256 5.54095L44.1275 2.33905ZM40.7966 0.980261H38.5566V5.57974H40.7966V0.980261ZM38.5566 0.980261C37.1451 0.980261 35.8771 1.55136 34.9691 2.67301L38.544 5.56699C38.5521 5.55703 38.5574 5.55148 38.5596 5.54928C38.5618 5.54713 38.5612 5.54786 38.5579 5.55051C38.5546 5.55319 38.5492 5.5571 38.5421 5.56154C38.5349 5.56599 38.5271 5.57023 38.5191 5.57398C38.5111 5.57773 38.5041 5.58038 38.4988 5.58212C38.4936 5.58385 38.4911 5.58431 38.4922 5.58408C38.4941 5.5837 38.5139 5.57974 38.5566 5.57974V0.980261ZM34.9863 2.65199C34.11 3.70871 33.7768 4.99241 33.7768 6.28H38.3763C38.3763 5.78092 38.4964 5.62462 38.5268 5.588L34.9863 2.65199ZM33.7768 6.28V9.72H38.3763V6.28H33.7768ZM33.7768 9.72C33.7768 10.995 34.0961 12.2618 34.9282 13.3208L38.5449 10.4792C38.497 10.4182 38.3763 10.2317 38.3763 9.72H33.7768ZM34.9663 13.368C35.8727 14.461 37.1245 15.0197 38.5166 15.0197V10.4203C38.4764 10.4203 38.458 10.4166 38.4569 10.4163C38.4561 10.4162 38.4587 10.4167 38.4639 10.4184C38.4692 10.4201 38.476 10.4227 38.4838 10.4262C38.4916 10.4298 38.4991 10.4339 38.506 10.4381C38.5129 10.4423 38.5179 10.446 38.5211 10.4484C38.5242 10.4509 38.5246 10.4515 38.5224 10.4493C38.5201 10.4471 38.5148 10.4417 38.5068 10.432L34.9663 13.368ZM38.5166 15.0197H40.8766V10.4203H38.5166V15.0197ZM40.8766 15.0197C42.1907 15.0197 43.3824 14.5091 44.2728 13.5107L40.8403 10.4493C40.8286 10.4623 40.8267 10.462 40.8361 10.4551C40.8458 10.4479 40.8609 10.4386 40.8795 10.4304C40.898 10.4223 40.9113 10.419 40.9154 10.4182C40.9188 10.4175 40.9072 10.4203 40.8766 10.4203V15.0197ZM44.2499 13.5361C45.1315 12.5767 45.5363 11.3905 45.5363 10.14H40.9368C40.9368 10.3562 40.8883 10.3966 40.8632 10.4239L44.2499 13.5361ZM45.5363 10.14V9.7H40.9368V10.14H45.5363ZM43.2366 7.40026H39.3566V11.9997H43.2366V7.40026ZM41.6563 9.7V7.3H37.0568V9.7H41.6563ZM39.3566 9.59974H45.9566V5.00026H39.3566V9.59974ZM43.6568 7.3V10.14H48.2563V7.3H43.6568ZM43.6568 10.14C43.6568 10.766 43.5231 11.2368 43.3112 11.6142L47.3219 13.8658C47.9633 12.7232 48.2563 11.4607 48.2563 10.14H43.6568ZM43.3112 11.6142C43.0972 11.9955 42.8093 12.2837 42.4056 12.5064L44.6275 16.5336C45.7705 15.903 46.6826 15.0045 47.3219 13.8658L43.3112 11.6142ZM42.4056 12.5064C42.0109 12.7242 41.521 12.8603 40.8766 12.8603V17.4597C42.2054 17.4597 43.4756 17.1692 44.6275 16.5336L42.4056 12.5064ZM40.8766 12.8603H38.5166V17.4597H40.8766V12.8603Z" fill="url(#paint0_linear_843_2194)" mask="url(#path-1-inside-1_843_2194)"/>
<defs>
<linearGradient id="paint0_linear_843_2194" x1="27.5" y1="-3" x2="27.5" y2="15.7917" gradientUnits="userSpaceOnUse">
<stop stop-color="white" stop-opacity="0.53"/>
<stop offset="1" stop-color="white" stop-opacity="0"/>
</linearGradient>
</defs>
</svg>
