<svg width="56" height="11" viewBox="0 0 56 11" fill="none" xmlns="http://www.w3.org/2000/svg">
<mask id="path-1-inside-1_843_2196" fill="white">
<path d="M2.226 10C1.81533 10 1.484 9.88333 1.232 9.65C0.989333 9.40733 0.868 9.09 0.868 8.698V0.199999H2.8V8.32H8.12V10H2.226ZM10.4565 10C10.0551 10 9.72847 9.87867 9.47647 9.636C9.22447 9.39333 9.09847 9.076 9.09847 8.684V0.199999H16.5745V1.88H11.0305V4.148H16.1545V5.828H11.0305V8.32H16.5745V10H10.4565ZM21.1675 10.112C20.4488 10.112 19.8141 9.958 19.2635 9.65C18.7128 9.342 18.2835 8.908 17.9755 8.348C17.6768 7.77867 17.5275 7.12533 17.5275 6.388V3.812C17.5275 3.07467 17.6768 2.426 17.9755 1.866C18.2835 1.29667 18.7128 0.858 19.2635 0.55C19.8235 0.242 20.4675 0.0879999 21.1955 0.0879999H22.7635C23.4635 0.0879999 24.0795 0.228 24.6115 0.508C25.1435 0.788 25.5541 1.18467 25.8435 1.698C26.1421 2.21133 26.2915 2.804 26.2915 3.476H24.3875C24.3875 2.972 24.2381 2.566 23.9395 2.258C23.6408 1.95 23.2488 1.796 22.7635 1.796H21.1955C20.6728 1.796 20.2528 1.992 19.9355 2.384C19.6181 2.76667 19.4595 3.27067 19.4595 3.896V6.304C19.4595 6.92933 19.6135 7.438 19.9215 7.83C20.2388 8.21267 20.6541 8.404 21.1675 8.404H22.8195C23.2955 8.404 23.6875 8.23133 23.9955 7.886C24.3128 7.54067 24.4715 7.11133 24.4715 6.598V6.29H21.7555V4.61H26.3755V6.598C26.3755 7.27933 26.2261 7.886 25.9275 8.418C25.6288 8.95 25.2088 9.36533 24.6675 9.664C24.1261 9.96267 23.5101 10.112 22.8195 10.112H21.1675ZM29.1323 10C28.7309 10 28.4043 9.87867 28.1523 9.636C27.9003 9.39333 27.7743 9.076 27.7743 8.684V0.199999H35.2503V1.88H29.7063V4.148H34.8303V5.828H29.7063V8.32H35.2503V10H29.1323ZM36.5653 0.199999H38.2873L42.9913 6.864V0.199999H44.8813V10H43.1593L38.4553 3.336V10H36.5653V0.199999ZM47.9721 10C47.5708 10 47.2441 9.87867 46.9921 9.636C46.7401 9.39333 46.6141 9.076 46.6141 8.684V0.199999H51.2901C52.0368 0.199999 52.6901 0.339999 53.2501 0.62C53.8194 0.899999 54.2581 1.29667 54.5661 1.81C54.8834 2.32333 55.0421 2.916 55.0421 3.588V6.332C55.0421 7.536 54.7294 8.45067 54.1041 9.076C53.4788 9.692 52.5594 10 51.3461 10H47.9721ZM51.2901 8.292C51.8874 8.292 52.3401 8.11933 52.6481 7.774C52.9561 7.42867 53.1101 6.92 53.1101 6.248V3.672C53.1101 3.14 52.9374 2.71533 52.5921 2.398C52.2468 2.07133 51.7941 1.908 51.2341 1.908H48.5461V8.292H51.2901Z"/>
</mask>
<path d="M2.226 10C1.81533 10 1.484 9.88333 1.232 9.65C0.989333 9.40733 0.868 9.09 0.868 8.698V0.199999H2.8V8.32H8.12V10H2.226ZM10.4565 10C10.0551 10 9.72847 9.87867 9.47647 9.636C9.22447 9.39333 9.09847 9.076 9.09847 8.684V0.199999H16.5745V1.88H11.0305V4.148H16.1545V5.828H11.0305V8.32H16.5745V10H10.4565ZM21.1675 10.112C20.4488 10.112 19.8141 9.958 19.2635 9.65C18.7128 9.342 18.2835 8.908 17.9755 8.348C17.6768 7.77867 17.5275 7.12533 17.5275 6.388V3.812C17.5275 3.07467 17.6768 2.426 17.9755 1.866C18.2835 1.29667 18.7128 0.858 19.2635 0.55C19.8235 0.242 20.4675 0.0879999 21.1955 0.0879999H22.7635C23.4635 0.0879999 24.0795 0.228 24.6115 0.508C25.1435 0.788 25.5541 1.18467 25.8435 1.698C26.1421 2.21133 26.2915 2.804 26.2915 3.476H24.3875C24.3875 2.972 24.2381 2.566 23.9395 2.258C23.6408 1.95 23.2488 1.796 22.7635 1.796H21.1955C20.6728 1.796 20.2528 1.992 19.9355 2.384C19.6181 2.76667 19.4595 3.27067 19.4595 3.896V6.304C19.4595 6.92933 19.6135 7.438 19.9215 7.83C20.2388 8.21267 20.6541 8.404 21.1675 8.404H22.8195C23.2955 8.404 23.6875 8.23133 23.9955 7.886C24.3128 7.54067 24.4715 7.11133 24.4715 6.598V6.29H21.7555V4.61H26.3755V6.598C26.3755 7.27933 26.2261 7.886 25.9275 8.418C25.6288 8.95 25.2088 9.36533 24.6675 9.664C24.1261 9.96267 23.5101 10.112 22.8195 10.112H21.1675ZM29.1323 10C28.7309 10 28.4043 9.87867 28.1523 9.636C27.9003 9.39333 27.7743 9.076 27.7743 8.684V0.199999H35.2503V1.88H29.7063V4.148H34.8303V5.828H29.7063V8.32H35.2503V10H29.1323ZM36.5653 0.199999H38.2873L42.9913 6.864V0.199999H44.8813V10H43.1593L38.4553 3.336V10H36.5653V0.199999ZM47.9721 10C47.5708 10 47.2441 9.87867 46.9921 9.636C46.7401 9.39333 46.6141 9.076 46.6141 8.684V0.199999H51.2901C52.0368 0.199999 52.6901 0.339999 53.2501 0.62C53.8194 0.899999 54.2581 1.29667 54.5661 1.81C54.8834 2.32333 55.0421 2.916 55.0421 3.588V6.332C55.0421 7.536 54.7294 8.45067 54.1041 9.076C53.4788 9.692 52.5594 10 51.3461 10H47.9721ZM51.2901 8.292C51.8874 8.292 52.3401 8.11933 52.6481 7.774C52.9561 7.42867 53.1101 6.92 53.1101 6.248V3.672C53.1101 3.14 52.9374 2.71533 52.5921 2.398C52.2468 2.07133 51.7941 1.908 51.2341 1.908H48.5461V8.292H51.2901Z" fill="#FF0000"/>
<path d="M1.232 9.65L-0.39416 11.2762L-0.3629 11.3074L-0.330461 11.3375L1.232 9.65ZM0.868 0.199999V-2.09974H-1.43174V0.199999H0.868ZM2.8 0.199999H5.09974V-2.09974H2.8V0.199999ZM2.8 8.32H0.500262V10.6197H2.8V8.32ZM8.12 8.32H10.4197V6.02026H8.12V8.32ZM8.12 10V12.2997H10.4197V10H8.12ZM2.226 7.70026C2.23776 7.70026 2.31602 7.70201 2.4333 7.74331C2.55703 7.78687 2.6846 7.86082 2.79446 7.96254L-0.330461 11.3375C0.427257 12.039 1.35609 12.2997 2.226 12.2997V7.70026ZM2.85816 8.02384C2.96305 8.12873 3.05108 8.26222 3.10707 8.40868C3.16083 8.54927 3.16774 8.65585 3.16774 8.698H-1.43174C-1.43174 9.60565 -1.13049 10.5398 -0.39416 11.2762L2.85816 8.02384ZM3.16774 8.698V0.199999H-1.43174V8.698H3.16774ZM0.868 2.49974H2.8V-2.09974H0.868V2.49974ZM0.500262 0.199999V8.32H5.09974V0.199999H0.500262ZM2.8 10.6197H8.12V6.02026H2.8V10.6197ZM5.82026 8.32V10H10.4197V8.32H5.82026ZM8.12 7.70026H2.226V12.2997H8.12V7.70026ZM9.47647 9.636L7.88127 11.2925L7.88127 11.2925L9.47647 9.636ZM9.09847 0.199999V-2.09974H6.79873V0.199999H9.09847ZM16.5745 0.199999H18.8742V-2.09974H16.5745V0.199999ZM16.5745 1.88V4.17974H18.8742V1.88H16.5745ZM11.0305 1.88V-0.419739H8.73073V1.88H11.0305ZM11.0305 4.148H8.73073V6.44774H11.0305V4.148ZM16.1545 4.148H18.4542V1.84826H16.1545V4.148ZM16.1545 5.828V8.12774H18.4542V5.828H16.1545ZM11.0305 5.828V3.52826H8.73073V5.828H11.0305ZM11.0305 8.32H8.73073V10.6197H11.0305V8.32ZM16.5745 8.32H18.8742V6.02026H16.5745V8.32ZM16.5745 10V12.2997H18.8742V10H16.5745ZM10.4565 7.70026C10.4883 7.70026 10.5826 7.7054 10.7112 7.75317C10.8454 7.80301 10.9709 7.88242 11.0717 7.97945L7.88127 11.2925C8.62534 12.0091 9.5547 12.2997 10.4565 12.2997V7.70026ZM11.0717 7.97945C11.176 8.07989 11.2693 8.21348 11.3304 8.36732C11.3893 8.51569 11.3982 8.63198 11.3982 8.684H6.79873C6.79873 9.61818 7.12275 10.5621 7.88127 11.2925L11.0717 7.97945ZM11.3982 8.684V0.199999H6.79873V8.684H11.3982ZM9.09847 2.49974H16.5745V-2.09974H9.09847V2.49974ZM14.2747 0.199999V1.88H18.8742V0.199999H14.2747ZM16.5745 -0.419739H11.0305V4.17974H16.5745V-0.419739ZM8.73073 1.88V4.148H13.3302V1.88H8.73073ZM11.0305 6.44774H16.1545V1.84826H11.0305V6.44774ZM13.8547 4.148V5.828H18.4542V4.148H13.8547ZM16.1545 3.52826H11.0305V8.12774H16.1545V3.52826ZM8.73073 5.828V8.32H13.3302V5.828H8.73073ZM11.0305 10.6197H16.5745V6.02026H11.0305V10.6197ZM14.2747 8.32V10H18.8742V8.32H14.2747ZM16.5745 7.70026H10.4565V12.2997H16.5745V7.70026ZM19.2635 9.65L18.1408 11.6571L19.2635 9.65ZM17.9755 8.348L15.9389 9.41634L15.9495 9.43642L15.9604 9.45629L17.9755 8.348ZM17.9755 1.866L15.9527 0.771722L15.9463 0.78377L17.9755 1.866ZM19.2635 0.55L18.1552 -1.46507L18.148 -1.46112L18.1408 -1.45712L19.2635 0.55ZM24.6115 0.508L25.6825 -1.52708L25.6825 -1.52708L24.6115 0.508ZM25.8435 1.698L23.84 2.8272L23.8478 2.84092L23.8557 2.85452L25.8435 1.698ZM26.2915 3.476V5.77574H28.5912V3.476H26.2915ZM24.3875 3.476H22.0877V5.77574H24.3875V3.476ZM23.9395 2.258L22.2885 3.85895L22.2885 3.85895L23.9395 2.258ZM19.9355 2.384L21.7057 3.85201L21.7144 3.84155L21.7229 3.83099L19.9355 2.384ZM19.9215 7.83L18.1131 9.25083L18.1319 9.27467L18.1512 9.29801L19.9215 7.83ZM23.9955 7.886L22.3021 6.32994L22.2905 6.34251L22.2792 6.35526L23.9955 7.886ZM24.4715 6.29H26.7712V3.99026H24.4715V6.29ZM21.7555 6.29H19.4557V8.58974H21.7555V6.29ZM21.7555 4.61V2.31026H19.4557V4.61H21.7555ZM26.3755 4.61H28.6752V2.31026H26.3755V4.61ZM25.9275 8.418L23.9221 7.2922L23.9221 7.2922L25.9275 8.418ZM24.6675 9.664L25.7784 11.6776L25.7784 11.6776L24.6675 9.664ZM21.1675 7.81226C20.7864 7.81226 20.5484 7.73366 20.3861 7.64288L18.1408 11.6571C19.0799 12.1823 20.1111 12.4117 21.1675 12.4117V7.81226ZM20.3861 7.64288C20.2163 7.54791 20.0939 7.42763 19.9905 7.23971L15.9604 9.45629C16.473 10.3884 17.2093 11.1361 18.1408 11.6571L20.3861 7.64288ZM20.012 7.27966C19.9101 7.08541 19.8272 6.8082 19.8272 6.388H15.2277C15.2277 7.44246 15.4435 8.47193 15.9389 9.41634L20.012 7.27966ZM19.8272 6.388V3.812H15.2277V6.388H19.8272ZM19.8272 3.812C19.8272 3.39082 19.9104 3.12495 20.0046 2.94823L15.9463 0.78377C15.4432 1.72705 15.2277 2.75852 15.2277 3.812H19.8272ZM19.9982 2.96026C20.1044 2.76388 20.2262 2.64655 20.3861 2.55712L18.1408 -1.45712C17.1994 -0.930547 16.4625 -0.170548 15.9527 0.771741L19.9982 2.96026ZM20.3717 2.56507C20.5474 2.46846 20.8004 2.38774 21.1955 2.38774V-2.21174C20.1345 -2.21174 19.0995 -1.98447 18.1552 -1.46507L20.3717 2.56507ZM21.1955 2.38774H22.7635V-2.21174H21.1955V2.38774ZM22.7635 2.38774C23.1517 2.38774 23.3891 2.46346 23.5404 2.54308L25.6825 -1.52708C24.7698 -2.00746 23.7752 -2.21174 22.7635 -2.21174V2.38774ZM23.5404 2.54308C23.6893 2.62148 23.7725 2.70739 23.84 2.8272L27.8469 0.568796C27.3357 -0.338053 26.5976 -1.04548 25.6825 -1.52708L23.5404 2.54308ZM23.8557 2.85452C23.9243 2.9724 23.9917 3.15582 23.9917 3.476H28.5912C28.5912 2.45218 28.36 1.45026 27.8312 0.541476L23.8557 2.85452ZM26.2915 1.17626H24.3875V5.77574H26.2915V1.17626ZM26.6872 3.476C26.6872 2.48632 26.3771 1.46831 25.5904 0.657046L22.2885 3.85895C22.2123 3.78035 22.1524 3.68331 22.1171 3.58738C22.0842 3.49798 22.0877 3.45099 22.0877 3.476H26.6872ZM25.5904 0.657047C24.8001 -0.157991 23.7816 -0.503739 22.7635 -0.503739V4.09574C22.7616 4.09574 22.69 4.09497 22.5805 4.05198C22.4653 4.00671 22.3632 3.936 22.2885 3.85895L25.5904 0.657047ZM22.7635 -0.503739H21.1955V4.09574H22.7635V-0.503739ZM21.1955 -0.503739C20.008 -0.503739 18.92 -0.0166431 18.148 0.937008L21.7229 3.83099C21.6815 3.88211 21.5947 3.96459 21.461 4.02698C21.3297 4.08824 21.2271 4.09574 21.1955 4.09574V-0.503739ZM18.1652 0.915994C17.4249 1.80871 17.1597 2.87641 17.1597 3.896H21.7592C21.7592 3.77584 21.7746 3.73153 21.7721 3.73958C21.7706 3.74408 21.7653 3.75932 21.7534 3.78151C21.7414 3.80398 21.7253 3.82833 21.7057 3.85201L18.1652 0.915994ZM17.1597 3.896V6.304H21.7592V3.896H17.1597ZM17.1597 6.304C17.1597 7.31097 17.413 8.35977 18.1131 9.25083L21.7298 6.40917C21.7452 6.42876 21.7571 6.44802 21.7656 6.4645C21.7739 6.48072 21.7765 6.48972 21.776 6.48812C21.7748 6.48406 21.7592 6.42965 21.7592 6.304H17.1597ZM18.1512 9.29801C18.9216 10.227 19.9954 10.7037 21.1675 10.7037V6.10426C21.2021 6.10426 21.3041 6.11226 21.4332 6.17174C21.5644 6.23219 21.6503 6.31203 21.6917 6.36199L18.1512 9.29801ZM21.1675 10.7037H22.8195V6.10426H21.1675V10.7037ZM22.8195 10.7037C23.9296 10.7037 24.9533 10.2671 25.7117 9.41674L22.2792 6.35526C22.3263 6.30238 22.4147 6.22657 22.5434 6.16988C22.6705 6.11391 22.7739 6.10426 22.8195 6.10426V10.7037ZM25.6888 9.44206C26.4344 8.6307 26.7712 7.6285 26.7712 6.598H22.1717C22.1717 6.61541 22.1696 6.57741 22.1953 6.50779C22.2223 6.43475 22.2634 6.37208 22.3021 6.32994L25.6888 9.44206ZM26.7712 6.598V6.29H22.1717V6.598H26.7712ZM24.4715 3.99026H21.7555V8.58974H24.4715V3.99026ZM24.0552 6.29V4.61H19.4557V6.29H24.0552ZM21.7555 6.90974H26.3755V2.31026H21.7555V6.90974ZM24.0757 4.61V6.598H28.6752V4.61H24.0757ZM24.0757 6.598C24.0757 6.932 24.006 7.14278 23.9221 7.2922L27.9328 9.5438C28.4462 8.62922 28.6752 7.62666 28.6752 6.598H24.0757ZM23.9221 7.2922C23.836 7.44552 23.7282 7.55569 23.5565 7.6504L25.7784 11.6776C26.6894 11.175 27.4215 10.4545 27.9328 9.5438L23.9221 7.2922ZM23.5565 7.6504C23.3938 7.74018 23.1679 7.81226 22.8195 7.81226V12.4117C23.8523 12.4117 24.8585 12.1852 25.7784 11.6776L23.5565 7.6504ZM22.8195 7.81226H21.1675V12.4117H22.8195V7.81226ZM28.1523 9.636L26.5571 11.2925L26.5571 11.2925L28.1523 9.636ZM27.7743 0.199999V-2.09974H25.4745V0.199999H27.7743ZM35.2503 0.199999H37.55V-2.09974H35.2503V0.199999ZM35.2503 1.88V4.17974H37.55V1.88H35.2503ZM29.7063 1.88V-0.419739H27.4065V1.88H29.7063ZM29.7063 4.148H27.4065V6.44774H29.7063V4.148ZM34.8303 4.148H37.13V1.84826H34.8303V4.148ZM34.8303 5.828V8.12774H37.13V5.828H34.8303ZM29.7063 5.828V3.52826H27.4065V5.828H29.7063ZM29.7063 8.32H27.4065V10.6197H29.7063V8.32ZM35.2503 8.32H37.55V6.02026H35.2503V8.32ZM35.2503 10V12.2997H37.55V10H35.2503ZM29.1323 7.70026C29.1641 7.70026 29.2584 7.7054 29.387 7.75317C29.5212 7.80301 29.6467 7.88242 29.7474 7.97945L26.5571 11.2925C27.3011 12.0091 28.2305 12.2997 29.1323 12.2997V7.70026ZM29.7474 7.97945C29.8517 8.07989 29.9451 8.21348 30.0062 8.36732C30.0651 8.51569 30.074 8.63198 30.074 8.684H25.4745C25.4745 9.61818 25.7985 10.5621 26.5571 11.2925L29.7474 7.97945ZM30.074 8.684V0.199999H25.4745V8.684H30.074ZM27.7743 2.49974H35.2503V-2.09974H27.7743V2.49974ZM32.9505 0.199999V1.88H37.55V0.199999H32.9505ZM35.2503 -0.419739H29.7063V4.17974H35.2503V-0.419739ZM27.4065 1.88V4.148H32.006V1.88H27.4065ZM29.7063 6.44774H34.8303V1.84826H29.7063V6.44774ZM32.5305 4.148V5.828H37.13V4.148H32.5305ZM34.8303 3.52826H29.7063V8.12774H34.8303V3.52826ZM27.4065 5.828V8.32H32.006V5.828H27.4065ZM29.7063 10.6197H35.2503V6.02026H29.7063V10.6197ZM32.9505 8.32V10H37.55V8.32H32.9505ZM35.2503 7.70026H29.1323V12.2997H35.2503V7.70026ZM36.5653 0.199999V-2.09974H34.2655V0.199999H36.5653ZM38.2873 0.199999L40.1661 -1.12622L39.4789 -2.09974H38.2873V0.199999ZM42.9913 6.864L41.1125 8.19022L45.291 14.1098V6.864H42.9913ZM42.9913 0.199999V-2.09974H40.6915V0.199999H42.9913ZM44.8813 0.199999H47.181V-2.09974H44.8813V0.199999ZM44.8813 10V12.2997H47.181V10H44.8813ZM43.1593 10L41.2805 11.3262L41.9676 12.2997H43.1593V10ZM38.4553 3.336L40.3341 2.00978L36.1555 -3.90983V3.336H38.4553ZM38.4553 10V12.2997H40.755V10H38.4553ZM36.5653 10H34.2655V12.2997H36.5653V10ZM36.5653 2.49974H38.2873V-2.09974H36.5653V2.49974ZM36.4085 1.52622L41.1125 8.19022L44.8701 5.53778L40.1661 -1.12622L36.4085 1.52622ZM45.291 6.864V0.199999H40.6915V6.864H45.291ZM42.9913 2.49974H44.8813V-2.09974H42.9913V2.49974ZM42.5815 0.199999V10H47.181V0.199999H42.5815ZM44.8813 7.70026H43.1593V12.2997H44.8813V7.70026ZM45.0381 8.67378L40.3341 2.00978L36.5765 4.66222L41.2805 11.3262L45.0381 8.67378ZM36.1555 3.336V10H40.755V3.336H36.1555ZM38.4553 7.70026H36.5653V12.2997H38.4553V7.70026ZM38.865 10V0.199999H34.2655V10H38.865ZM46.9921 9.636L45.3969 11.2925L45.3969 11.2925L46.9921 9.636ZM46.6141 0.199999V-2.09974H44.3144V0.199999H46.6141ZM53.2501 0.62L52.2216 2.67695L52.2284 2.68033L52.2352 2.68367L53.2501 0.62ZM54.5661 1.81L52.5941 2.99321L52.6019 3.00628L52.6099 3.01925L54.5661 1.81ZM54.1041 9.076L55.718 10.7143L55.7241 10.7083L55.7303 10.7022L54.1041 9.076ZM52.6481 7.774L54.3644 9.30474L54.3644 9.30474L52.6481 7.774ZM52.5921 2.398L51.0117 4.06869L51.0238 4.08011L51.036 4.09136L52.5921 2.398ZM48.5461 1.908V-0.391738H46.2464V1.908H48.5461ZM48.5461 8.292H46.2464V10.5917H48.5461V8.292ZM47.9721 7.70026C48.0039 7.70026 48.0982 7.7054 48.2268 7.75317C48.361 7.80301 48.4865 7.88242 48.5873 7.97945L45.3969 11.2925C46.141 12.0091 47.0703 12.2997 47.9721 12.2997V7.70026ZM48.5873 7.97945C48.6916 8.07989 48.7849 8.21348 48.846 8.36732C48.9049 8.51569 48.9138 8.63198 48.9138 8.684H44.3144C44.3144 9.61818 44.6384 10.5621 45.3969 11.2925L48.5873 7.97945ZM48.9138 8.684V0.199999H44.3144V8.684H48.9138ZM46.6141 2.49974H51.2901V-2.09974H46.6141V2.49974ZM51.2901 2.49974C51.7479 2.49974 52.0368 2.58454 52.2216 2.67695L54.2786 -1.43695C53.3434 -1.90454 52.3256 -2.09974 51.2901 -2.09974V2.49974ZM52.2352 2.68367C52.4323 2.78063 52.5276 2.88246 52.5941 2.99321L56.5381 0.626793C55.9886 -0.289126 55.2065 -0.980632 54.265 -1.44367L52.2352 2.68367ZM52.6099 3.01925C52.6778 3.12898 52.7424 3.29323 52.7424 3.588H57.3418C57.3418 2.53877 57.0891 1.51769 56.5222 0.600747L52.6099 3.01925ZM52.7424 3.588V6.332H57.3418V3.588H52.7424ZM52.7424 6.332C52.7424 7.15213 52.5348 7.39293 52.4779 7.44984L55.7303 10.7022C56.924 9.5084 57.3418 7.91987 57.3418 6.332H52.7424ZM52.4902 7.43766C52.4376 7.48946 52.1904 7.70026 51.3461 7.70026V12.2997C52.9285 12.2997 54.5199 11.8945 55.718 10.7143L52.4902 7.43766ZM51.3461 7.70026H47.9721V12.2997H51.3461V7.70026ZM51.2901 10.5917C52.34 10.5917 53.5011 10.2727 54.3644 9.30474L50.9318 6.24326C51.0345 6.12809 51.1569 6.05231 51.258 6.01377C51.3464 5.98003 51.3717 5.99226 51.2901 5.99226V10.5917ZM54.3644 9.30474C55.1872 8.38216 55.4098 7.23327 55.4098 6.248H50.8104C50.8104 6.32897 50.8057 6.38658 50.8008 6.42393C50.7959 6.46121 50.7915 6.4739 50.7935 6.46712C50.7957 6.45984 50.805 6.43176 50.8275 6.39012C50.8505 6.34768 50.8844 6.29642 50.9318 6.24326L54.3644 9.30474ZM55.4098 6.248V3.672H50.8104V6.248H55.4098ZM55.4098 3.672C55.4098 2.5918 55.0334 1.51813 54.1482 0.70464L51.036 4.09136C50.9645 4.02559 50.8949 3.93053 50.8502 3.8207C50.8082 3.71747 50.8104 3.6559 50.8104 3.672H55.4098ZM54.1725 0.727311C53.3253 -0.0740555 52.2702 -0.391738 51.2341 -0.391738V4.20774C51.2907 4.20774 51.2743 4.21583 51.213 4.19373C51.1455 4.16936 51.0718 4.12556 51.0117 4.06869L54.1725 0.727311ZM51.2341 -0.391738H48.5461V4.20774H51.2341V-0.391738ZM46.2464 1.908V8.292H50.8458V1.908H46.2464ZM48.5461 10.5917H51.2901V5.99226H48.5461V10.5917Z" fill="url(#paint0_linear_843_2196)" mask="url(#path-1-inside-1_843_2196)"/>
<defs>
<linearGradient id="paint0_linear_843_2196" x1="28.5" y1="-2" x2="28.5" y2="16.7917" gradientUnits="userSpaceOnUse">
<stop stop-color="white" stop-opacity="0.53"/>
<stop offset="1" stop-color="white" stop-opacity="0"/>
</linearGradient>
</defs>
</svg>
