{
  "accessors": [
    {
      "bufferView": 2,
      "componentType": 5126,
      "count": 9933,
      "max": [
        59.912391662597656,
        14.011417388916016,
        146.54306030273438
      ],
      "min": [
        -59.912391662597656,
        -14.443272590637207,
        -0.027093999087810516
      ],
      "type": "VEC3"
    },
    {
      "bufferView": 2,
      "byteOffset": 119196,
      "componentType": 5126,
      "count": 9933,
      "max": [
        0.9998552203178406,
        0.9999874830245972,
        0.9999412298202515
      ],
      "min": [
        -0.9999516606330872,
        -0.9999706149101257,
        -0.9999776482582092
      ],
      "type": "VEC3"
    },
    {
      "bufferView": 1,
      "componentType": 5126,
      "count": 9933,
      "max": [
        0.9980469942092896,
        0.9987689852714539
      ],
      "min": [
        0.004825999960303307,
        0.0034179999493062496
      ],
      "type": "VEC2"
    },
    {
      "bufferView": 0,
      "componentType": 5125,
      "count": 47844,
      "type": "SCALAR"
    },
    {
      "bufferView": 2,
      "byteOffset": 238392,
      "componentType": 5126,
      "count": 1462,
      "max": [
        12.928031921386719,
        13.248170852661133,
        165.02415466308594
      ],
      "min": [
        -12.907950401306152,
        -13.162668228149414,
        112.68873596191406
      ],
      "type": "VEC3"
    },
    {
      "bufferView": 2,
      "byteOffset": 255936,
      "componentType": 5126,
      "count": 1462,
      "max": [
        0.999617874622345,
        0.9996628761291504,
        0.9998766183853149
      ],
      "min": [
        -0.9999365210533142,
        -0.9999012351036072,
        -0.999821126461029
      ],
      "type": "VEC3"
    },
    {
      "bufferView": 1,
      "byteOffset": 79464,
      "componentType": 5126,
      "count": 1462,
      "max": [
        0.9960939884185791,
        0.9971889853477478
      ],
      "min": [
        0.0020069999154657125,
        0.0019529999699443579
      ],
      "type": "VEC2"
    },
    {
      "bufferView": 0,
      "byteOffset": 191376,
      "componentType": 5125,
      "count": 7242,
      "type": "SCALAR"
    },
    {
      "bufferView": 2,
      "byteOffset": 273480,
      "componentType": 5126,
      "count": 4035,
      "max": [
        9.621011734008789,
        9.351524353027344,
        164.3861846923828
      ],
      "min": [
        -9.613415718078613,
        -13.202621459960938,
        137.43826293945313
      ],
      "type": "VEC3"
    },
    {
      "bufferView": 2,
      "byteOffset": 321900,
      "componentType": 5126,
      "count": 4035,
      "max": [
        0.999987006187439,
        0.9941446185112,
        0.9999052286148071
      ],
      "min": [
        -0.9998680949211121,
        -0.9995116591453552,
        -0.9999372363090515
      ],
      "type": "VEC3"
    },
    {
      "bufferView": 1,
      "byteOffset": 91160,
      "componentType": 5126,
      "count": 4035,
      "max": [
        0.9980469942092896,
        0.9990000128746033
      ],
      "min": [
        0.0013539999490603805,
        0.0009769999887794256
      ],
      "type": "VEC2"
    },
    {
      "bufferView": 0,
      "byteOffset": 220344,
      "componentType": 5125,
      "count": 21000,
      "type": "SCALAR"
    }
  ],
  "asset": {
    "extras": {
      "author": "Yung Samzy (https://sketchfab.com/SSLeaker)",
      "license": "CC-BY-4.0 (http://creativecommons.org/licenses/by/4.0/)",
      "source": "https://sketchfab.com/3d-models/pug-outfit-c592169de95f49eaa0932b7828dd22f6",
      "title": "\"Pug\" Outfit"
    },
    "generator": "Sketchfab-12.67.0",
    "version": "2.0"
  },
  "bufferViews": [
    {
      "buffer": 0,
      "byteLength": 304344,
      "name": "floatBufferViews",
      "target": 34963
    },
    {
      "buffer": 0,
      "byteLength": 123440,
      "byteOffset": 304344,
      "byteStride": 8,
      "name": "floatBufferViews",
      "target": 34962
    },
    {
      "buffer": 0,
      "byteLength": 370320,
      "byteOffset": 427784,
      "byteStride": 12,
      "name": "floatBufferViews",
      "target": 34962
    }
  ],
  "buffers": [
    {
      "byteLength": 798104,
      "uri": "scene.bin"
    }
  ],
  "images": [
    {
      "uri": "textures/MI_M_MED_Pug_Body_baseColor.png"
    },
    {
      "uri": "textures/MI_M_MED_Pug_FaceAcc_baseColor.png"
    },
    {
      "uri": "textures/MI_M_MED_Pug_Head_baseColor.png"
    }
  ],
  "materials": [
    {
      "doubleSided": true,
      "name": "MI_M_MED_Pug_Body",
      "pbrMetallicRoughness": {
        "baseColorTexture": {
          "index": 0
        },
        "metallicFactor": 0.0,
        "roughnessFactor": 0.6
      }
    },
    {
      "doubleSided": true,
      "name": "MI_M_MED_Pug_FaceAcc",
      "pbrMetallicRoughness": {
        "baseColorTexture": {
          "index": 1
        },
        "metallicFactor": 0.0,
        "roughnessFactor": 0.6
      }
    },
    {
      "doubleSided": true,
      "name": "MI_M_MED_Pug_Head",
      "pbrMetallicRoughness": {
        "baseColorTexture": {
          "index": 2
        },
        "metallicFactor": 0.0,
        "roughnessFactor": 0.6
      }
    }
  ],
  "meshes": [
    {
      "name": "Object_0",
      "primitives": [
        {
          "attributes": {
            "NORMAL": 1,
            "POSITION": 0,
            "TEXCOORD_0": 2
          },
          "indices": 3,
          "material": 0,
          "mode": 4
        }
      ]
    },
    {
      "name": "Object_1",
      "primitives": [
        {
          "attributes": {
            "NORMAL": 5,
            "POSITION": 4,
            "TEXCOORD_0": 6
          },
          "indices": 7,
          "material": 1,
          "mode": 4
        }
      ]
    },
    {
      "name": "Object_2",
      "primitives": [
        {
          "attributes": {
            "NORMAL": 9,
            "POSITION": 8,
            "TEXCOORD_0": 10
          },
          "indices": 11,
          "material": 2,
          "mode": 4
        }
      ]
    }
  ],
  "nodes": [
    {
      "children": [
        1
      ],
      "matrix": [
        1.0,
        0.0,
        0.0,
        0.0,
        0.0,
        2.220446049250313e-16,
        -1.0,
        0.0,
        0.0,
        1.0,
        2.220446049250313e-16,
        0.0,
        0.0,
        0.0,
        0.0,
        1.0
      ],
      "name": "Sketchfab_model"
    },
    {
      "children": [
        2,
        3,
        4
      ],
      "name": "pugz.obj.cleaner.materialmerger.gles"
    },
    {
      "mesh": 0,
      "name": "Object_2"
    },
    {
      "mesh": 1,
      "name": "Object_3"
    },
    {
      "mesh": 2,
      "name": "Object_4"
    }
  ],
  "samplers": [
    {
      "magFilter": 9729,
      "minFilter": 9987,
      "wrapS": 10497,
      "wrapT": 10497
    }
  ],
  "scene": 0,
  "scenes": [
    {
      "name": "Sketchfab_Scene",
      "nodes": [
        0
      ]
    }
  ],
  "textures": [
    {
      "sampler": 0,
      "source": 0
    },
    {
      "sampler": 0,
      "source": 1
    },
    {
      "sampler": 0,
      "source": 2
    }
  ]
}
