<svg width="38" height="51" viewBox="0 0 38 51" fill="none" xmlns="http://www.w3.org/2000/svg">
<path d="M10.0234 47.1114C9.95553 47.0436 9.88769 46.9847 9.81986 46.935C9.75203 46.8868 9.65254 46.8265 9.52286 46.7601C10.0672 46.457 10.3385 45.9911 10.3385 45.361C10.3385 45.0835 10.2903 44.8332 10.1953 44.6102C10.0988 44.387 9.96315 44.1971 9.78676 44.0403C9.61182 43.8835 9.39626 43.7613 9.14297 43.6754C8.88968 43.588 8.60928 43.5458 8.30022 43.5458H5.65125V50.1404H8.41176C8.72082 50.1404 8.99978 50.0951 9.25008 50.0061C9.50038 49.9172 9.71295 49.7906 9.88933 49.6262C10.0657 49.4617 10.1999 49.2659 10.2919 49.0336C10.3854 48.8014 10.4321 48.5406 10.4321 48.2496C10.4321 48.0159 10.3989 47.8063 10.3341 47.6209C10.2692 47.4354 10.1651 47.2668 10.0234 47.1114ZM6.93863 44.6947H8.1991C8.46445 44.6947 8.67248 44.7611 8.82474 44.8967C8.97556 45.0324 9.05092 45.2194 9.05092 45.4531C9.05092 45.6883 8.97556 45.8737 8.82474 46.0095C8.67248 46.1451 8.46445 46.213 8.1991 46.213H6.93863V44.6947ZM8.91217 48.7744C8.75691 48.9192 8.54733 48.9915 8.28198 48.9915H6.93863V47.3708H8.28198C8.54733 47.3708 8.75691 47.4416 8.91217 47.5833C9.06597 47.7251 9.14288 47.9241 9.14288 48.1773C9.14288 48.4306 9.06597 48.6297 8.91217 48.7744Z" fill="#FDC910" fill-opacity="0.84"/>
<path d="M14.3488 43.5458L11.9501 50.1404H13.2935L13.6915 48.9734H16.0344L16.4249 50.1404H17.7667L15.3589 43.5458H14.3488ZM14.0532 47.8894L14.887 45.4907L15.6921 47.8894H14.0532Z" fill="#FDC910" fill-opacity="0.84"/>
<path d="M23.2697 47.5833L20.6585 43.5458H19.5096V50.1404H20.7972V46.0923L23.4085 50.1404H24.5573V43.5458H23.2697V47.5833Z" fill="#FDC910" fill-opacity="0.84"/>
<path d="M32.1906 43.5458H30.6242L28.2993 46.4164V43.5458H27.0117V50.1404H28.2993V48.1578L29.1511 47.1401L30.8472 50.1404H32.3474L30.0045 46.1662L32.1906 43.5458Z" fill="#FDC910" fill-opacity="0.84"/>
<path d="M2.51755 11.2876V10.7876H2.01755H0.973694V7.77896L19 1.26846L37.0263 7.77896V10.7876H35.9825H35.4825V11.2876V11.9455H2.51755V11.2876Z" fill="#FDC910" fill-opacity="0.84" stroke="black"/>
<path d="M2.01755 38.8051H2.51755V38.3051V35.7174H35.4825V38.3051V38.8051H35.9825H37.0263V40.8928H0.973694V38.8051H2.01755Z" fill="#FDC910" fill-opacity="0.84" stroke="black"/>
<path d="M32.3948 32.1297V32.6297H32.8948H33.1667V33.1735H27.9912V32.6297H28.2632H28.7632V32.1297V15.5332V15.0332H28.2632H27.9912V14.4893H33.1667V15.0332H32.8948H32.3948V15.5332V32.1297Z" fill="#FDC910" fill-opacity="0.84" stroke="black"/>
<path d="M9.23685 32.1297V32.6297H9.73685H10.0088V33.1735H4.83334V32.6297H5.10527H5.60527V32.1297V15.5332V15.0332H5.10527H4.83334V14.4893H10.0088V15.0332H9.73685H9.23685V15.5332V32.1297Z" fill="#FDC910" fill-opacity="0.84" stroke="black"/>
<path d="M19 16.2589C14.8523 16.2589 11.4893 19.6218 11.4893 23.7696C11.4893 27.9178 14.8523 31.2802 19 31.2802C23.1477 31.2802 26.5107 27.9178 26.5107 23.7696C26.5107 19.6218 23.1477 16.2589 19 16.2589ZM19 29.872C15.6352 29.872 12.8976 27.1343 12.8976 23.7696C12.8976 20.4048 15.6352 17.6671 19 17.6671C22.3652 17.6671 25.1024 20.4048 25.1024 23.7696C25.1024 27.1343 22.3652 29.872 19 29.872Z" fill="#FDC910"/>
<path d="M19 18.606C16.1528 18.606 13.8364 20.9223 13.8364 23.7696C13.8364 26.6168 16.1528 28.9331 19 28.9331C21.8472 28.9331 24.1636 26.6168 24.1636 23.7696C24.1636 20.9223 21.8472 18.606 19 18.606ZM19 28.4637C16.4118 28.4637 14.3058 26.3578 14.3058 23.7696C14.3058 21.1813 16.4118 19.0754 19 19.0754C21.5887 19.0754 23.6942 21.1813 23.6942 23.7696C23.6942 26.3578 21.5887 28.4637 19 28.4637Z" fill="#FDC910"/>
<path d="M19.2081 21.3377H17.6972C17.4561 21.3377 17.2608 21.5329 17.2608 21.7736V26.2276C17.2608 26.4687 17.4561 26.664 17.6972 26.664H17.9163C18.1574 26.664 18.3527 26.4687 18.3527 26.2276V24.9734H19.2081C20.3519 24.9734 21.2829 24.1583 21.2829 23.1557C21.2829 22.1532 20.3519 21.3377 19.2081 21.3377ZM19.2081 24.0167H18.3527V22.2944H19.2081C19.75 22.2944 20.1905 22.6808 20.1905 23.1557C20.1905 23.6302 19.75 24.0167 19.2081 24.0167Z" fill="#FDC910"/>
</svg>
