<svg width="30" height="26" viewBox="0 0 30 26" fill="none" xmlns="http://www.w3.org/2000/svg">
<path fill-rule="evenodd" clip-rule="evenodd" d="M30 4.1901C30 1.87598 28.1685 0 25.9091 0H4.09091C1.83157 0 0 1.87598 0 4.1901V18.1571C0 20.4713 1.83157 22.3472 4.09091 22.3472H5.45455C6.20765 22.3472 6.81818 21.7219 6.81818 20.9505C6.81818 20.1791 6.20765 19.5538 5.45455 19.5538H4.09091C3.3378 19.5538 2.72727 18.9285 2.72727 18.1571V9.77689H27.2727V18.1571C27.2727 18.9285 26.6622 19.5538 25.9091 19.5538H24.5455C23.7923 19.5538 23.1818 20.1791 23.1818 20.9505C23.1818 21.7219 23.7923 22.3472 24.5455 22.3472H25.9091C28.1685 22.3472 30 20.4713 30 18.1571V4.1901ZM27.2727 6.9835V4.1901C27.2727 3.41873 26.6622 2.7934 25.9091 2.7934H4.09091C3.3378 2.7934 2.72727 3.41871 2.72727 4.1901V6.9835H27.2727Z" fill="#4E5C75"/>
<path d="M16.3636 24.6033C16.3636 25.3747 15.7531 26 15 26C14.2469 26 13.6364 25.3747 13.6364 24.6033V16.7915L11.8734 18.597C11.3408 19.1427 10.4774 19.1427 9.94485 18.597C9.41235 18.0518 9.41235 17.1673 9.94485 16.622L14.0351 12.4413C14.5677 11.8967 15.4304 11.8973 15.9626 12.4423L20.0523 16.6313C20.5849 17.1768 20.5849 18.0611 20.0523 18.6066C19.5198 19.1519 18.6563 19.1519 18.1238 18.6066L16.3636 16.8038V24.6033Z" fill="#4E5C75"/>
</svg>
