<svg width="36" height="30" viewBox="0 0 36 30" fill="none" xmlns="http://www.w3.org/2000/svg">
<path fill-rule="evenodd" clip-rule="evenodd" d="M32.7444 8.57747C32.6472 8.57135 32.5414 8.57138 32.4319 8.57142L32.4044 8.57143H28.1042C24.5595 8.57143 21.5266 11.3615 21.5266 15C21.5266 18.6384 24.5595 21.4286 28.1042 21.4286H32.4044H32.4319C32.5414 21.4286 32.6472 21.4287 32.7444 21.4226C34.1842 21.3315 35.4574 20.2049 35.5646 18.6312C35.5716 18.528 35.5714 18.4167 35.5714 18.3137V18.2858V11.7143V11.6863C35.5714 11.5832 35.5716 11.472 35.5646 11.3688C35.4574 9.79509 34.1842 8.66839 32.7444 8.57747ZM27.7229 16.7143C28.6354 16.7143 29.3751 15.9468 29.3751 15C29.3751 14.0532 28.6354 13.2857 27.7229 13.2857C26.8104 13.2857 26.0705 14.0532 26.0705 15C26.0705 15.9468 26.8104 16.7143 27.7229 16.7143Z" fill="url(#paint0_linear_90_188)"/>
<path fill-rule="evenodd" clip-rule="evenodd" d="M32.4307 24C32.6863 23.9933 32.8798 24.2301 32.8104 24.4762C32.4663 25.6975 31.92 26.7386 31.0437 27.6151C29.7607 28.8979 28.1338 29.4672 26.124 29.7375C24.1711 30 21.6758 30 18.5253 30H14.9033C11.7529 30 9.25747 30 7.30454 29.7375C5.29468 29.4672 3.6679 28.8979 2.38498 27.6151C1.10208 26.3321 0.532732 24.7053 0.262527 22.6954C-5.05533e-05 20.7425 -3.35089e-05 18.2472 7.76839e-07 15.0967V14.9033C-3.35089e-05 11.7529 -5.05533e-05 9.25747 0.262527 7.30454C0.532732 5.29468 1.10208 3.6679 2.38498 2.38498C3.6679 1.10208 5.29468 0.532732 7.30454 0.262527C9.25747 -5.05533e-05 11.7528 -3.35089e-05 14.9033 7.76839e-07H18.5253C21.6758 -3.35089e-05 24.1711 -5.05533e-05 26.124 0.262527C28.1338 0.532732 29.7607 1.10208 31.0437 2.38498C31.92 3.26146 32.4662 4.30241 32.8104 5.52374C32.8798 5.76986 32.6863 6.00664 32.4307 6L28.104 6.00002C23.2413 6.00002 18.955 9.84156 18.955 15C18.955 20.1585 23.2413 24 28.104 24H32.4307ZM8.57143 21.4286C7.86136 21.4286 7.28572 20.8529 7.28572 20.1429V9.85714C7.28572 9.14707 7.86136 8.57143 8.57143 8.57143C9.2815 8.57143 9.85714 9.14707 9.85714 9.85714V20.1429C9.85714 20.8529 9.2815 21.4286 8.57143 21.4286Z" fill="url(#paint1_linear_90_188)"/>
<defs>
<linearGradient id="paint0_linear_90_188" x1="36.0103" y1="8.57141" x2="27.7174" y2="19.1402" gradientUnits="userSpaceOnUse">
<stop offset="0.130247" stop-color="#E67662"/>
<stop offset="0.709916" stop-color="#F0C777"/>
</linearGradient>
<linearGradient id="paint1_linear_90_188" x1="33.8504" y1="-1.52795e-06" x2="14.5078" y2="24.6911" gradientUnits="userSpaceOnUse">
<stop offset="0.130247" stop-color="#E67662"/>
<stop offset="0.709916" stop-color="#F0C777"/>
</linearGradient>
</defs>
</svg>
