<svg width="23" height="32" viewBox="0 0 23 32" fill="none" xmlns="http://www.w3.org/2000/svg">
<path d="M6.2414 1.2378C6.07809 0.991714 6.06489 0.677421 6.2075 0.419165C6.34979 0.160909 6.62491 0 6.92399 0H16.0762C16.3753 0 16.6502 0.160909 16.7927 0.419165C16.9351 0.677581 16.9221 0.991714 16.7588 1.2378L15.6346 2.93127C15.1648 3.68715 14.6538 4.95777 14.5115 6.04811H13.2169L13.5544 5.33211C13.7437 4.93087 13.5659 4.45503 13.1574 4.2693C12.749 4.08342 12.2644 4.25826 12.0755 4.65933L11.5416 5.7921L10.7488 3.71693C10.5907 3.30305 10.121 3.0933 9.69949 3.24877C9.27817 3.40407 9.06466 3.86567 9.22292 4.27955L9.89866 6.04811H8.35876C8.13824 4.38634 7.04607 2.47288 6.93556 2.28299L6.2414 1.2378ZM8.28411 17.9035C8.28411 18.7678 8.99914 19.4702 9.87796 19.4702H10.6851V16.3378H9.87796C8.99914 16.3378 8.28411 17.0402 8.28411 17.9035ZM12.3149 24.2038H13.1216C14.0007 24.2038 14.7159 23.5011 14.7159 22.6375C14.7159 21.7738 14.0007 21.0713 13.1216 21.0713H12.3149V24.2038ZM23 22.5155C23 28.2772 18.4861 32 11.5 32C4.51391 32 0 28.2772 0 22.5155C0 18.1693 2.62604 11.525 6.86858 8.36857C6.87868 8.36105 6.88895 8.35384 6.89938 8.3468C7.11289 8.20142 7.41898 7.94797 7.6985 7.6492H9.80136L9.3388 8.63035C9.14957 9.03158 9.32739 9.50743 9.73584 9.69315C9.84667 9.74359 9.9632 9.76744 10.0778 9.76744C10.3855 9.76744 10.68 9.59548 10.8179 9.30313L11.4769 7.90522L12.2696 9.98039C12.3924 10.3017 12.7028 10.4999 13.0327 10.4999C13.1277 10.4999 13.2246 10.4834 13.3189 10.4487C13.7403 10.2934 13.9538 9.83181 13.7955 9.41792L13.1198 7.6492H15.1514C15.2559 7.75007 15.3659 7.84213 15.4772 7.92043C19.9781 10.7553 23 17.751 23 22.5155ZM12.3149 19.4702V16.3378H15.5308C15.9808 16.3378 16.3458 15.9793 16.3458 15.5373C16.3458 15.0952 15.9808 14.7367 15.5308 14.7367H12.3149V14.1602C12.3149 13.7181 11.95 13.3596 11.5 13.3596C11.05 13.3596 10.6851 13.7181 10.6851 14.1602V14.7367H9.87796C8.10043 14.7367 6.65425 16.1574 6.65425 17.9045C6.65425 19.6506 8.10043 21.0713 9.87796 21.0713H10.6851V24.2038H7.46918C7.01918 24.2038 6.65425 24.5623 6.65425 25.0044C6.65425 25.4464 7.01918 25.8049 7.46918 25.8049H10.6851V26.637C10.6851 27.0791 11.05 27.4375 11.5 27.4375C11.95 27.4375 12.3149 27.0791 12.3149 26.637V25.8049H13.1216C14.8994 25.8049 16.3458 24.3839 16.3458 22.6375C16.3458 20.891 14.8994 19.4702 13.1216 19.4702H12.3149Z" fill="#DEDEDE"/>
</svg>
