<svg width="30" height="26" viewBox="0 0 30 26" fill="none" xmlns="http://www.w3.org/2000/svg">
<path d="M1.5 0H28.5C28.8978 0 29.2794 0.152182 29.5607 0.423068C29.842 0.693954 30 1.06135 30 1.44444V24.5556C30 24.9386 29.842 25.306 29.5607 25.5769C29.2794 25.8478 28.8978 26 28.5 26H1.5C1.10218 26 0.720644 25.8478 0.43934 25.5769C0.158035 25.306 0 24.9386 0 24.5556V1.44444C0 1.06135 0.158035 0.693954 0.43934 0.423068C0.720644 0.152182 1.10218 0 1.5 0ZM15 8.66667H9V11.5556H22.5L15 4.33333V8.66667ZM7.5 14.4444L15 21.6667V17.3333H21V14.4444H7.5Z" fill="#4E5C75"/>
</svg>
