<svg width="28" height="26" viewBox="0 0 28 26" fill="none" xmlns="http://www.w3.org/2000/svg">
<path d="M0.0382366 20.364L0.732831 16.8759C1.0083 15.4949 2.08913 14.4161 3.47001 14.1429L4.4099 13.9576C4.9498 13.8509 5.37357 13.4309 5.48603 12.8919L5.66543 12.0289C5.72209 11.7521 5.62242 11.466 5.40466 11.2863C4.55537 10.5834 3.77842 9.54986 3.32908 8.32944C2.70498 8.21733 2.13666 7.61753 1.95273 6.79206C1.72579 5.76888 2.17607 4.79893 2.95935 4.62505C2.9676 4.62371 2.97585 4.62453 2.98585 4.62371C3.22197 1.96703 4.24515 0 7.64757 0C10.9933 0 12.0549 1.96662 12.3048 4.62185C12.3157 4.62459 12.3277 4.62371 12.3358 4.62511C13.1183 4.79899 13.5685 5.76899 13.3416 6.79211C13.1595 7.61758 12.5902 8.21739 11.9661 8.3295C11.516 9.55038 10.739 10.584 9.89158 11.2863C9.67469 11.4662 9.57398 11.7522 9.63163 12.0281L9.81004 12.8911C9.92174 13.4306 10.3453 13.851 10.8863 13.9577L11.8243 14.1431C13.0515 14.3855 14.0371 15.2645 14.437 16.4253C13.2264 17.1126 12.3423 18.2922 12.0595 19.712L11.4546 22.7444H1.9912C1.39552 22.7444 0.829885 22.4771 0.451961 22.0159C0.0739202 21.555 -0.0779362 20.9487 0.0382366 20.364Z" fill="#D9D9D9"/>
<path d="M13.4376 19.9865C13.7131 18.6051 14.7939 17.5261 16.1757 17.253L17.1147 17.0677C17.6545 16.9611 18.0792 16.541 18.1908 16.002L18.3702 15.1386C18.427 14.8621 18.3272 14.5762 18.1094 14.396C17.2601 13.6936 16.4832 12.6594 16.0348 11.4391C15.4097 11.327 14.8415 10.7271 14.6575 9.90176C14.4306 8.87864 14.8809 7.90852 15.6642 7.73423C15.6725 7.73284 15.6807 7.73377 15.6916 7.73284C15.9268 5.07627 16.95 3.10959 20.3534 3.10959C23.6983 3.10959 24.7597 5.07581 25.0096 7.7315C25.0215 7.73377 25.0325 7.73284 25.0407 7.73423C25.8241 7.90852 26.2743 8.87858 26.0473 9.90176C25.8652 10.7271 25.296 11.327 24.6718 11.4391C24.2216 12.6599 23.4447 13.6936 22.5963 14.3965C22.3794 14.5763 22.2787 14.8622 22.3364 15.1382L22.5149 16.0012C22.6265 16.5406 23.0502 16.9611 23.5911 17.0677L24.5291 17.2531C25.9109 17.5262 26.9917 18.6052 27.2672 19.9866L27.9618 23.4747C28.078 24.0594 27.9261 24.6657 27.5482 25.1265C27.1701 25.5876 26.6046 25.8549 26.0089 25.8549H14.696C14.1003 25.8549 13.5347 25.5876 13.1567 25.1265C12.7788 24.6657 12.6269 24.0594 12.7431 23.4747L13.4376 19.9865Z" fill="#D9D9D9"/>
</svg>
