<svg width="24" height="26" viewBox="0 0 24 26" fill="none" xmlns="http://www.w3.org/2000/svg">
<path d="M17.4806 8.988C15.2502 8.988 13.4733 7.22529 13.4733 5.0126C13.4733 2.79991 15.2502 1 17.4806 1C19.7111 1 21.5255 2.79991 21.5255 5.0126C21.5255 7.22529 19.7111 8.988 17.4806 8.988ZM10.1481 8.31363C8.52243 8.31363 7.19914 7.0009 7.19914 5.38818C7.19914 3.77546 8.52243 2.46273 10.1481 2.46273C11.8113 2.46273 13.1346 3.77546 13.1346 5.38818C13.1346 7.0009 11.8113 8.31363 10.1481 8.31363ZM23 15.1749C23 15.2877 23 15.4377 22.9625 15.5505H23V25H12V20.0502H6.14075V17.5748H1V11.6879C1 9.88796 2.47449 8.42523 4.28887 8.42523C5.57466 8.42523 6.63305 9.1008 7.19914 10.1507C7.95514 9.36358 8.97603 8.83801 10.1481 8.83801C11.7738 8.83801 13.1721 9.77516 13.8144 11.1635C14.7978 10.2635 16.0824 9.73796 17.4806 9.73796C20.5421 9.73796 23 12.175 23 15.1749ZM4.28887 7.97525C2.96558 7.97525 1.86969 6.9253 1.86969 5.57537C1.86969 4.26264 2.96558 3.17549 4.28887 3.17549C5.64966 3.17549 6.70805 4.26264 6.70805 5.57537C6.70805 6.9253 5.64966 7.97525 4.28887 7.97525Z" fill="#DEDEDE" stroke="#DEDEDE" stroke-width="2"/>
</svg>
