<svg width="36" height="36" viewBox="0 0 36 36" fill="none" xmlns="http://www.w3.org/2000/svg">
<g clip-path="url(#clip0_97_208)">
<g filter="url(#filter0_d_97_208)">
<mask id="path-1-inside-1_97_208" fill="white">
<path d="M28.816 27.635H12.7077C12.0735 27.635 11.5567 27.0238 11.5567 26.2714V24.9078C11.5567 24.6581 11.6724 24.4289 11.8571 24.3089L17.4888 20.6683C15.6023 18.2501 15.5816 14.8291 15.5816 14.6709L15.5851 10.5828C15.5851 10.5446 15.588 10.5071 15.5931 10.4702C15.9896 7.68298 18.5856 5.81117 20.7615 5.81117H20.7638C22.9386 5.81117 25.534 7.68161 25.9317 10.4682C25.9369 10.5057 25.9397 10.5439 25.9397 10.5814L25.9415 14.6702C25.9415 14.8278 25.9207 18.2487 24.0349 20.6669L29.6666 24.3075C29.8513 24.4276 29.9664 24.6568 29.9664 24.9064V26.2714C29.9664 27.0238 29.4502 27.635 28.816 27.635ZM22.7878 21.4139C22.6192 21.3047 22.5076 21.1035 22.4897 20.877C22.4725 20.6505 22.5519 20.4288 22.7003 20.2856C24.7704 18.2965 24.7911 14.707 24.7911 14.6709L24.7888 10.6421C24.4653 8.59569 22.4178 7.1741 20.7615 7.1741C19.1047 7.17478 17.0583 8.59705 16.736 10.6435L16.7326 14.6722C16.7326 14.707 16.7642 18.3081 18.8227 20.287C18.9718 20.4302 19.0512 20.6519 19.0334 20.8784C19.0161 21.1049 18.9045 21.3061 18.7358 21.4152L12.7077 25.313V26.2714H28.8148L28.8154 25.3123L22.7878 21.4139ZM15.3762 7.5254C14.868 7.29143 14.3409 7.16864 13.85 7.16864C12.1932 7.16932 10.1462 8.59159 9.82393 10.638L9.82048 14.6668C9.82048 14.7022 9.85156 18.3026 11.9106 20.2815C12.0597 20.4248 12.1391 20.6465 12.1218 20.8729C12.104 21.0994 11.9924 21.3006 11.8237 21.4098L5.79556 25.3075V26.266H9.82336C10.141 26.266 10.3983 26.5716 10.3983 26.9481C10.3983 27.3246 10.141 27.6303 9.82336 27.6303H5.79556C5.16138 27.6303 4.64517 27.0184 4.64517 26.266V24.9024C4.64517 24.6534 4.76027 24.4235 4.945 24.3041L10.5767 20.6628C8.69081 18.2446 8.66952 14.8237 8.66952 14.6661L8.67297 10.5773C8.67297 10.5398 8.67585 10.5016 8.68103 10.4648C9.07753 7.6782 11.6735 5.8064 13.85 5.8064C13.8523 5.8064 13.8558 5.8064 13.8586 5.8064C14.4865 5.8064 15.1546 5.96124 15.7917 6.25388C16.0886 6.39031 16.2354 6.78527 16.1209 7.1359C16.0052 7.4872 15.6703 7.66183 15.3762 7.5254Z"/>
</mask>
<path d="M11.8571 24.3089L11.0227 23.0181L11.0196 23.0202L11.8571 24.3089ZM17.4888 20.6683L18.3232 21.959L19.7337 21.0472L18.7006 19.7229L17.4888 20.6683ZM15.5816 14.6709L14.0447 14.6696V14.6709H15.5816ZM15.5851 10.5828L17.1221 10.5841V10.5828H15.5851ZM15.5931 10.4702L14.0715 10.2538L14.0711 10.2562L15.5931 10.4702ZM25.9317 10.4682L27.4542 10.258L27.4532 10.251L25.9317 10.4682ZM25.9397 10.5814L24.4028 10.5814L24.4028 10.5821L25.9397 10.5814ZM25.9415 14.6702L27.4784 14.6702L27.4784 14.6695L25.9415 14.6702ZM24.0349 20.6669L22.8229 19.7217L21.7902 21.046L23.2005 21.9577L24.0349 20.6669ZM29.6666 24.3075L30.5041 23.0188L30.501 23.0168L29.6666 24.3075ZM22.7878 21.4139L21.9526 22.7041L21.9531 22.7044L22.7878 21.4139ZM22.4897 20.877L20.9572 20.9938L20.9575 20.9977L22.4897 20.877ZM22.7003 20.2856L21.6354 19.1774L21.6332 19.1795L22.7003 20.2856ZM24.7911 14.6709L26.328 14.6709L26.328 14.67L24.7911 14.6709ZM24.7888 10.6421L26.3257 10.6412L26.3257 10.521L26.3069 10.4022L24.7888 10.6421ZM20.7615 7.1741L20.7615 5.63712L20.7609 5.63712L20.7615 7.1741ZM16.736 10.6435L15.2178 10.4044L15.1992 10.5226L15.1991 10.6422L16.736 10.6435ZM16.7326 14.6722L15.1956 14.6709V14.6722H16.7326ZM18.8227 20.287L17.7576 21.395L17.7577 21.3951L18.8227 20.287ZM19.0334 20.8784L17.5011 20.7577L17.5008 20.7616L19.0334 20.8784ZM18.7358 21.4152L19.5704 22.7059L19.571 22.7055L18.7358 21.4152ZM12.7077 25.313L11.8731 24.0223L11.1707 24.4765V25.313H12.7077ZM12.7077 26.2714H11.1707V27.8084H12.7077V26.2714ZM28.8148 26.2714V27.8084H30.3509L30.3518 26.2723L28.8148 26.2714ZM28.8154 25.3123L30.3524 25.3132L30.3529 24.4763L29.6501 24.0218L28.8154 25.3123ZM15.3762 7.5254L16.023 6.13116L16.019 6.12931L15.3762 7.5254ZM13.85 7.16864L13.85 5.63167L13.8494 5.63167L13.85 7.16864ZM9.82393 10.638L8.30567 10.3989L8.28706 10.5171L8.28696 10.6367L9.82393 10.638ZM9.82048 14.6668L8.28351 14.6655V14.6668H9.82048ZM11.9106 20.2815L12.9757 19.1734L12.9756 19.1733L11.9106 20.2815ZM12.1218 20.8729L13.6541 20.9936L13.6544 20.9898L12.1218 20.8729ZM11.8237 21.4098L12.6583 22.7004L12.6589 22.7L11.8237 21.4098ZM5.79556 25.3075L4.96102 24.0169L4.25859 24.4711V25.3075H5.79556ZM5.79556 26.266H4.25859V27.8029H5.79556V26.266ZM4.945 24.3041L5.77919 25.595L5.77952 25.5948L4.945 24.3041ZM10.5767 20.6628L11.4112 21.9535L12.8213 21.0418L11.7887 19.7176L10.5767 20.6628ZM8.66952 14.6661L7.13254 14.6648V14.6661H8.66952ZM8.67297 10.5773L10.2099 10.5786V10.5773H8.67297ZM8.68103 10.4648L7.15938 10.2482L7.15902 10.2508L8.68103 10.4648ZM15.7917 6.25388L16.4333 4.85726L16.4333 4.85722L15.7917 6.25388ZM16.1209 7.1359L17.5807 7.61658L17.5819 7.6131L16.1209 7.1359ZM28.816 26.0981H12.7077V29.172H28.816V26.0981ZM12.7077 26.0981C12.9094 26.0981 13.0307 26.1988 13.0686 26.2437C13.1042 26.2858 13.0937 26.3001 13.0937 26.2714H10.0197C10.0197 27.619 10.9914 29.172 12.7077 29.172V26.0981ZM13.0937 26.2714V24.9078H10.0197V26.2714H13.0937ZM13.0937 24.9078C13.0937 25.1025 13.0062 25.3951 12.6947 25.5976L11.0196 23.0202C10.3385 23.4628 10.0197 24.2138 10.0197 24.9078H13.0937ZM12.6915 25.5996L18.3232 21.959L16.6544 19.3775L11.0227 23.0181L12.6915 25.5996ZM18.7006 19.7229C17.9602 18.7737 17.5499 17.571 17.3335 16.5139C17.1203 15.4721 17.1186 14.6884 17.1186 14.6709H14.0447C14.0447 14.8116 14.0533 15.8175 14.322 17.1303C14.5876 18.4278 15.1309 20.1446 16.2769 21.6136L18.7006 19.7229ZM17.1186 14.6722L17.1221 10.5841L14.0481 10.5815L14.0447 14.6696L17.1186 14.6722ZM17.1221 10.5828C17.1221 10.622 17.1191 10.6562 17.1151 10.6842L14.0711 10.2562C14.0568 10.358 14.0481 10.4672 14.0481 10.5828H17.1221ZM17.1148 10.6867C17.3977 8.6981 19.3086 7.34815 20.7615 7.34815V4.2742C17.8626 4.2742 14.5816 6.66786 14.0715 10.2538L17.1148 10.6867ZM20.7615 7.34815H20.7638V4.2742H20.7615V7.34815ZM20.7638 7.34815C22.2157 7.34815 24.1264 8.69699 24.4101 10.6853L27.4532 10.251C26.9417 6.66623 23.6614 4.2742 20.7638 4.2742V7.34815ZM24.4091 10.6784C24.4057 10.6535 24.4028 10.6212 24.4028 10.5814H27.4767C27.4767 10.4666 27.468 10.3579 27.4542 10.258L24.4091 10.6784ZM24.4028 10.5821L24.4045 14.6708L27.4784 14.6695L27.4767 10.5808L24.4028 10.5821ZM24.4045 14.6702C24.4045 14.6873 24.4028 15.471 24.1896 16.5127C23.9733 17.5698 23.5631 18.7725 22.8229 19.7217L25.2469 21.6121C26.3925 20.1431 26.9356 18.4263 27.2011 17.129C27.4698 15.8163 27.4784 14.8106 27.4784 14.6702H24.4045ZM23.2005 21.9577L28.8321 25.5983L30.501 23.0168L24.8693 19.3762L23.2005 21.9577ZM28.829 25.5962C28.5154 25.3924 28.4294 25.0984 28.4294 24.9064H31.5034C31.5034 24.2152 31.1872 23.4627 30.5041 23.0188L28.829 25.5962ZM28.4294 24.9064V26.2714H31.5034V24.9064H28.4294ZM28.4294 26.2714C28.4294 26.3006 28.4187 26.2864 28.4544 26.2441C28.4925 26.1989 28.6141 26.0981 28.816 26.0981V29.172C30.5331 29.172 31.5034 27.6179 31.5034 26.2714H28.4294ZM23.623 20.1236C23.9132 20.3114 24.0079 20.5778 24.0219 20.7563L20.9575 20.9977C21.0072 21.6292 21.3252 22.298 21.9526 22.7041L23.623 20.1236ZM24.0222 20.7602C24.0361 20.9419 23.982 21.1847 23.7675 21.3917L21.6332 19.1795C21.1217 19.673 20.9088 20.3592 20.9572 20.9938L24.0222 20.7602ZM23.7653 21.3938C25.1134 20.0984 25.7277 18.3639 26.02 17.0895C26.3186 15.788 26.328 14.7573 26.328 14.6709H23.2541C23.2541 14.6206 23.2532 15.4027 23.0239 16.4022C22.7884 17.4289 22.3573 18.4837 21.6354 19.1774L23.7653 21.3938ZM26.328 14.67L26.3257 10.6412L23.2518 10.643L23.2541 14.6717L26.328 14.67ZM26.3069 10.4022C26.0745 8.93167 25.2346 7.74501 24.2387 6.94339C23.2557 6.15217 21.9989 5.63712 20.7615 5.63712V8.71107C21.1805 8.71107 21.7755 8.90681 22.3112 9.338C22.834 9.75879 23.1796 10.3061 23.2706 10.882L26.3069 10.4022ZM20.7609 5.63712C19.5234 5.63763 18.2668 6.15308 17.2841 6.94475C16.2885 7.74681 15.4494 8.93383 15.2178 10.4044L18.2543 10.8826C18.345 10.3067 18.6902 9.75937 19.2126 9.33852C19.7479 8.90728 20.3428 8.71124 20.7622 8.71107L20.7609 5.63712ZM15.1991 10.6422L15.1956 14.6709L18.2696 14.6735L18.273 10.6448L15.1991 10.6422ZM15.1956 14.6722C15.1956 14.7624 15.2085 15.7948 15.5079 17.0954C15.8011 18.3685 16.4147 20.104 17.7576 21.395L19.8879 19.1789C19.1723 18.491 18.7409 17.4366 18.5035 16.4057C18.2725 15.4024 18.2696 14.6168 18.2696 14.6722H15.1956ZM17.7577 21.3951C17.5418 21.1876 17.4866 20.9424 17.5011 20.7577L20.5656 20.9991C20.6158 20.3614 20.4018 19.6728 19.8878 19.1788L17.7577 21.3951ZM17.5008 20.7616C17.5147 20.58 17.6105 20.3128 17.9007 20.125L19.571 22.7055C20.1984 22.2994 20.5175 21.6297 20.5659 20.9952L17.5008 20.7616ZM17.9013 20.1246L11.8731 24.0223L13.5422 26.6037L19.5704 22.7059L17.9013 20.1246ZM11.1707 25.313V26.2714H14.2446V25.313H11.1707ZM12.7077 27.8084H28.8148V24.7344H12.7077V27.8084ZM30.3518 26.2723L30.3524 25.3132L27.2784 25.3114L27.2779 26.2705L30.3518 26.2723ZM29.6501 24.0218L23.6225 20.1233L21.9531 22.7044L27.9807 26.6029L29.6501 24.0218ZM16.019 6.12931C15.3362 5.81489 14.5906 5.63167 13.85 5.63167V8.70561C14.0912 8.70561 14.3999 8.76796 14.7334 8.92149L16.019 6.12931ZM13.8494 5.63167C12.6119 5.63217 11.3552 6.14759 10.3724 6.9392C9.37669 7.74121 8.53728 8.92823 8.30567 10.3989L11.3422 10.8771C11.4329 10.3014 11.7781 9.75406 12.3006 9.33315C12.8361 8.90185 13.4313 8.70579 13.8506 8.70561L13.8494 5.63167ZM8.28696 10.6367L8.28351 14.6655L11.3575 14.6681L11.3609 10.6393L8.28696 10.6367ZM8.28351 14.6668C8.28351 14.757 8.29619 15.7894 8.5956 17.0901C8.88867 18.3633 9.50238 20.0987 10.8456 21.3897L12.9756 19.1733C12.2598 18.4854 11.8284 17.4312 11.5912 16.4006C11.3603 15.3975 11.3575 14.612 11.3575 14.6668H8.28351ZM10.8456 21.3897C10.6297 21.1822 10.5754 20.938 10.5893 20.7561L13.6544 20.9898C13.7028 20.3549 13.4897 19.6674 12.9757 19.1734L10.8456 21.3897ZM10.5896 20.7522C10.6037 20.5737 10.6984 20.3074 10.9886 20.1195L12.6589 22.7C13.2863 22.2939 13.6043 21.6251 13.6541 20.9936L10.5896 20.7522ZM10.9892 20.1191L4.96102 24.0169L6.6301 26.5982L12.6583 22.7004L10.9892 20.1191ZM4.25859 25.3075V26.266H7.33253V25.3075H4.25859ZM5.79556 27.8029H9.82336V24.729H5.79556V27.8029ZM9.82336 27.8029C9.46349 27.8029 9.19754 27.6259 9.0545 27.4561C8.91429 27.2897 8.86129 27.1052 8.86129 26.9481H11.9352C11.9352 25.9801 11.2262 24.729 9.82336 24.729V27.8029ZM8.86129 26.9481C8.86129 26.791 8.91429 26.6065 9.0545 26.4401C9.19754 26.2703 9.46349 26.0933 9.82336 26.0933V29.1672C11.2262 29.1672 11.9352 27.9161 11.9352 26.9481H8.86129ZM9.82336 26.0933H5.79556V29.1672H9.82336V26.0933ZM5.79556 26.0933C5.99808 26.0933 6.11964 26.1945 6.15748 26.2394C6.19289 26.2814 6.18215 26.2952 6.18215 26.266H3.1082C3.1082 27.6114 4.07753 29.1672 5.79556 29.1672V26.0933ZM6.18215 26.266V24.9024H3.1082V26.266H6.18215ZM6.18215 24.9024C6.18215 25.0931 6.09728 25.3895 5.77919 25.595L4.1108 23.0132C3.42326 23.4575 3.1082 24.2136 3.1082 24.9024H6.18215ZM5.77952 25.5948L11.4112 21.9535L9.74214 19.3721L4.11048 23.0134L5.77952 25.5948ZM11.7887 19.7176C11.0484 18.7684 10.6381 17.5655 10.4216 16.5084C10.2083 15.4666 10.2065 14.6829 10.2065 14.6661H7.13254C7.13254 14.8068 7.14138 15.8124 7.41017 17.125C7.67581 18.4223 8.2191 20.1391 9.36467 21.608L11.7887 19.7176ZM10.2065 14.6674L10.2099 10.5786L7.136 10.576L7.13254 14.6648L10.2065 14.6674ZM10.2099 10.5773C10.2099 10.6166 10.2071 10.65 10.203 10.6788L7.15902 10.2508C7.14462 10.3532 7.136 10.463 7.136 10.5773H10.2099ZM10.2027 10.6813C10.4855 8.69354 12.3963 7.34337 13.85 7.34337V4.26942C10.9507 4.26942 7.66955 6.66287 7.15938 10.2482L10.2027 10.6813ZM13.85 7.34337C13.85 7.34337 13.85 7.34337 13.85 7.34337C13.85 7.34337 13.85 7.34337 13.85 7.34337C13.85 7.34337 13.85 7.34337 13.85 7.34337C13.8501 7.34337 13.8501 7.34337 13.8501 7.34337C13.8501 7.34337 13.8501 7.34337 13.8501 7.34337C13.8501 7.34337 13.8501 7.34337 13.8501 7.34337C13.8501 7.34337 13.8501 7.34337 13.8501 7.34337C13.8501 7.34337 13.8501 7.34337 13.8501 7.34337C13.8501 7.34337 13.8501 7.34337 13.8501 7.34337C13.8501 7.34337 13.8501 7.34337 13.8501 7.34337C13.8501 7.34337 13.8502 7.34337 13.8502 7.34337C13.8502 7.34337 13.8502 7.34337 13.8502 7.34337C13.8502 7.34337 13.8502 7.34337 13.8502 7.34337C13.8502 7.34337 13.8502 7.34337 13.8502 7.34337C13.8502 7.34337 13.8502 7.34337 13.8502 7.34337C13.8502 7.34337 13.8502 7.34337 13.8502 7.34337C13.8502 7.34337 13.8502 7.34337 13.8502 7.34337C13.8502 7.34337 13.8502 7.34337 13.8503 7.34337C13.8503 7.34337 13.8503 7.34337 13.8503 7.34337C13.8503 7.34337 13.8503 7.34337 13.8503 7.34337C13.8503 7.34337 13.8503 7.34337 13.8503 7.34337C13.8503 7.34337 13.8503 7.34337 13.8503 7.34337C13.8503 7.34337 13.8503 7.34337 13.8503 7.34337C13.8503 7.34337 13.8503 7.34337 13.8503 7.34337C13.8503 7.34337 13.8503 7.34337 13.8504 7.34337C13.8504 7.34337 13.8504 7.34337 13.8504 7.34337C13.8504 7.34337 13.8504 7.34337 13.8504 7.34337C13.8504 7.34337 13.8504 7.34337 13.8504 7.34337C13.8504 7.34337 13.8504 7.34337 13.8504 7.34337C13.8504 7.34337 13.8504 7.34337 13.8504 7.34337C13.8504 7.34337 13.8504 7.34337 13.8504 7.34337C13.8504 7.34337 13.8504 7.34337 13.8505 7.34337C13.8505 7.34337 13.8505 7.34337 13.8505 7.34337C13.8505 7.34337 13.8505 7.34337 13.8505 7.34337C13.8505 7.34337 13.8505 7.34337 13.8505 7.34337C13.8505 7.34337 13.8505 7.34337 13.8505 7.34337C13.8505 7.34337 13.8505 7.34337 13.8505 7.34337C13.8505 7.34337 13.8505 7.34337 13.8505 7.34337C13.8505 7.34337 13.8505 7.34337 13.8506 7.34337C13.8506 7.34337 13.8506 7.34337 13.8506 7.34337C13.8506 7.34337 13.8506 7.34337 13.8506 7.34337C13.8506 7.34337 13.8506 7.34337 13.8506 7.34337C13.8506 7.34337 13.8506 7.34337 13.8506 7.34337C13.8506 7.34337 13.8506 7.34337 13.8506 7.34337C13.8506 7.34337 13.8506 7.34337 13.8506 7.34337C13.8506 7.34337 13.8506 7.34337 13.8507 7.34337C13.8507 7.34337 13.8507 7.34337 13.8507 7.34337C13.8507 7.34337 13.8507 7.34337 13.8507 7.34337C13.8507 7.34337 13.8507 7.34337 13.8507 7.34337C13.8507 7.34337 13.8507 7.34337 13.8507 7.34337C13.8507 7.34337 13.8507 7.34337 13.8507 7.34337C13.8507 7.34337 13.8507 7.34337 13.8507 7.34337C13.8507 7.34337 13.8508 7.34337 13.8508 7.34337C13.8508 7.34337 13.8508 7.34337 13.8508 7.34337C13.8508 7.34337 13.8508 7.34337 13.8508 7.34337C13.8508 7.34337 13.8508 7.34337 13.8508 7.34337C13.8508 7.34337 13.8508 7.34337 13.8508 7.34337C13.8508 7.34337 13.8508 7.34337 13.8508 7.34337C13.8508 7.34337 13.8508 7.34337 13.8508 7.34337C13.8509 7.34337 13.8509 7.34337 13.8509 7.34337C13.8509 7.34337 13.8509 7.34337 13.8509 7.34337C13.8509 7.34337 13.8509 7.34337 13.8509 7.34337C13.8509 7.34337 13.8509 7.34337 13.8509 7.34337C13.8509 7.34337 13.8509 7.34337 13.8509 7.34337C13.8509 7.34337 13.8509 7.34337 13.8509 7.34337C13.8509 7.34337 13.8509 7.34337 13.851 7.34337C13.851 7.34337 13.851 7.34337 13.851 7.34337C13.851 7.34337 13.851 7.34337 13.851 7.34337C13.851 7.34337 13.851 7.34337 13.851 7.34337C13.851 7.34337 13.851 7.34337 13.851 7.34337C13.851 7.34337 13.851 7.34337 13.851 7.34337C13.851 7.34337 13.851 7.34337 13.851 7.34337C13.851 7.34337 13.8511 7.34337 13.8511 7.34337C13.8511 7.34337 13.8511 7.34337 13.8511 7.34337C13.8511 7.34337 13.8511 7.34337 13.8511 7.34337C13.8511 7.34337 13.8511 7.34337 13.8511 7.34337C13.8511 7.34337 13.8511 7.34337 13.8511 7.34337C13.8511 7.34337 13.8511 7.34337 13.8511 7.34337C13.8511 7.34337 13.8511 7.34337 13.8511 7.34337C13.8512 7.34337 13.8512 7.34337 13.8512 7.34337C13.8512 7.34337 13.8512 7.34337 13.8512 7.34337C13.8512 7.34337 13.8512 7.34337 13.8512 7.34337C13.8512 7.34337 13.8512 7.34337 13.8512 7.34337C13.8512 7.34337 13.8512 7.34337 13.8512 7.34337C13.8512 7.34337 13.8512 7.34337 13.8512 7.34337C13.8512 7.34337 13.8513 7.34337 13.8513 7.34337C13.8513 7.34337 13.8513 7.34337 13.8513 7.34337C13.8513 7.34337 13.8513 7.34337 13.8513 7.34337C13.8513 7.34337 13.8513 7.34337 13.8513 7.34337C13.8513 7.34337 13.8513 7.34337 13.8513 7.34337C13.8513 7.34337 13.8513 7.34337 13.8513 7.34337C13.8513 7.34337 13.8513 7.34337 13.8513 7.34337C13.8514 7.34337 13.8514 7.34337 13.8514 7.34337C13.8514 7.34337 13.8514 7.34337 13.8514 7.34337C13.8514 7.34337 13.8514 7.34337 13.8514 7.34337C13.8514 7.34337 13.8514 7.34337 13.8514 7.34337C13.8514 7.34337 13.8514 7.34337 13.8514 7.34337C13.8514 7.34337 13.8514 7.34337 13.8514 7.34337C13.8514 7.34337 13.8515 7.34337 13.8515 7.34337C13.8515 7.34337 13.8515 7.34337 13.8515 7.34337C13.8515 7.34337 13.8515 7.34337 13.8515 7.34337C13.8515 7.34337 13.8515 7.34337 13.8515 7.34337C13.8515 7.34337 13.8515 7.34337 13.8515 7.34337C13.8515 7.34337 13.8515 7.34337 13.8515 7.34337C13.8515 7.34337 13.8515 7.34337 13.8516 7.34337C13.8516 7.34337 13.8516 7.34337 13.8516 7.34337C13.8516 7.34337 13.8516 7.34337 13.8516 7.34337C13.8516 7.34337 13.8516 7.34337 13.8516 7.34337C13.8516 7.34337 13.8516 7.34337 13.8516 7.34337C13.8516 7.34337 13.8516 7.34337 13.8516 7.34337C13.8516 7.34337 13.8516 7.34337 13.8516 7.34337C13.8517 7.34337 13.8517 7.34337 13.8517 7.34337C13.8517 7.34337 13.8517 7.34337 13.8517 7.34337C13.8517 7.34337 13.8517 7.34337 13.8517 7.34337C13.8517 7.34337 13.8517 7.34337 13.8517 7.34337C13.8517 7.34337 13.8517 7.34337 13.8517 7.34337C13.8517 7.34337 13.8517 7.34337 13.8517 7.34337C13.8517 7.34337 13.8518 7.34337 13.8518 7.34337C13.8518 7.34337 13.8518 7.34337 13.8518 7.34337C13.8518 7.34337 13.8518 7.34337 13.8518 7.34337C13.8518 7.34337 13.8518 7.34337 13.8518 7.34337C13.8518 7.34337 13.8518 7.34337 13.8518 7.34337C13.8518 7.34337 13.8518 7.34337 13.8518 7.34337C13.8518 7.34337 13.8519 7.34337 13.8519 7.34337C13.8519 7.34337 13.8519 7.34337 13.8519 7.34337C13.8519 7.34337 13.8519 7.34337 13.8519 7.34337C13.8519 7.34337 13.8519 7.34337 13.8519 7.34337C13.8519 7.34337 13.8519 7.34337 13.8519 7.34337C13.8519 7.34337 13.8519 7.34337 13.8519 7.34337C13.8519 7.34337 13.8519 7.34337 13.852 7.34337C13.852 7.34337 13.852 7.34337 13.852 7.34337C13.852 7.34337 13.852 7.34337 13.852 7.34337C13.852 7.34337 13.852 7.34337 13.852 7.34337C13.852 7.34337 13.852 7.34337 13.852 7.34337C13.852 7.34337 13.852 7.34337 13.852 7.34337C13.852 7.34337 13.852 7.34337 13.8521 7.34337C13.8521 7.34337 13.8521 7.34337 13.8521 7.34337C13.8521 7.34337 13.8521 7.34337 13.8521 7.34337C13.8521 7.34337 13.8521 7.34337 13.8521 7.34337C13.8521 7.34337 13.8521 7.34337 13.8521 7.34337C13.8521 7.34337 13.8521 7.34337 13.8521 7.34337C13.8521 7.34337 13.8521 7.34337 13.8522 7.34337C13.8522 7.34337 13.8522 7.34337 13.8522 7.34337C13.8522 7.34337 13.8522 7.34337 13.8522 7.34337C13.8522 7.34337 13.8522 7.34337 13.8522 7.34337C13.8522 7.34337 13.8522 7.34337 13.8522 7.34337C13.8522 7.34337 13.8522 7.34337 13.8522 7.34337C13.8522 7.34337 13.8522 7.34337 13.8522 7.34337C13.8523 7.34337 13.8523 7.34337 13.8523 7.34337C13.8523 7.34337 13.8523 7.34337 13.8523 7.34337C13.8523 7.34337 13.8523 7.34337 13.8523 7.34337C13.8523 7.34337 13.8523 7.34337 13.8523 7.34337C13.8523 7.34337 13.8523 7.34337 13.8523 7.34337C13.8523 7.34337 13.8523 7.34337 13.8523 7.34337C13.8524 7.34337 13.8524 7.34337 13.8524 7.34337C13.8524 7.34337 13.8524 7.34337 13.8524 7.34337C13.8524 7.34337 13.8524 7.34337 13.8524 7.34337C13.8524 7.34337 13.8524 7.34337 13.8524 7.34337C13.8524 7.34337 13.8524 7.34337 13.8524 7.34337C13.8524 7.34337 13.8524 7.34337 13.8524 7.34337C13.8525 7.34337 13.8525 7.34337 13.8525 7.34337C13.8525 7.34337 13.8525 7.34337 13.8525 7.34337C13.8525 7.34337 13.8525 7.34337 13.8525 7.34337C13.8525 7.34337 13.8525 7.34337 13.8525 7.34337C13.8525 7.34337 13.8525 7.34337 13.8525 7.34337C13.8525 7.34337 13.8525 7.34337 13.8525 7.34337C13.8526 7.34337 13.8526 7.34337 13.8526 7.34337C13.8526 7.34337 13.8526 7.34337 13.8526 7.34337C13.8526 7.34337 13.8526 7.34337 13.8526 7.34337C13.8526 7.34337 13.8526 7.34337 13.8526 7.34337C13.8526 7.34337 13.8526 7.34337 13.8526 7.34337C13.8526 7.34337 13.8526 7.34337 13.8527 7.34337C13.8527 7.34337 13.8527 7.34337 13.8527 7.34337C13.8527 7.34337 13.8527 7.34337 13.8527 7.34337C13.8527 7.34337 13.8527 7.34337 13.8527 7.34337C13.8527 7.34337 13.8527 7.34337 13.8527 7.34337C13.8527 7.34337 13.8527 7.34337 13.8527 7.34337C13.8527 7.34337 13.8527 7.34337 13.8528 7.34337C13.8528 7.34337 13.8528 7.34337 13.8528 7.34337C13.8528 7.34337 13.8528 7.34337 13.8528 7.34337C13.8528 7.34337 13.8528 7.34337 13.8528 7.34337C13.8528 7.34337 13.8528 7.34337 13.8528 7.34337C13.8528 7.34337 13.8528 7.34337 13.8528 7.34337C13.8528 7.34337 13.8528 7.34337 13.8529 7.34337C13.8529 7.34337 13.8529 7.34337 13.8529 7.34337C13.8529 7.34337 13.8529 7.34337 13.8529 7.34337C13.8529 7.34337 13.8529 7.34337 13.8529 7.34337C13.8529 7.34337 13.8529 7.34337 13.8529 7.34337C13.8529 7.34337 13.8529 7.34337 13.8529 7.34337C13.8529 7.34337 13.853 7.34337 13.853 7.34337C13.853 7.34337 13.853 7.34337 13.853 7.34337C13.853 7.34337 13.853 7.34337 13.853 7.34337C13.853 7.34337 13.853 7.34337 13.853 7.34337C13.853 7.34337 13.853 7.34337 13.853 7.34337C13.853 7.34337 13.853 7.34337 13.853 7.34337C13.853 7.34337 13.8531 7.34337 13.8531 7.34337C13.8531 7.34337 13.8531 7.34337 13.8531 7.34337C13.8531 7.34337 13.8531 7.34337 13.8531 7.34337C13.8531 7.34337 13.8531 7.34337 13.8531 7.34337C13.8531 7.34337 13.8531 7.34337 13.8531 7.34337C13.8531 7.34337 13.8531 7.34337 13.8531 7.34337C13.8532 7.34337 13.8532 7.34337 13.8532 7.34337C13.8532 7.34337 13.8532 7.34337 13.8532 7.34337C13.8532 7.34337 13.8532 7.34337 13.8532 7.34337C13.8532 7.34337 13.8532 7.34337 13.8532 7.34337C13.8532 7.34337 13.8532 7.34337 13.8532 7.34337C13.8532 7.34337 13.8532 7.34337 13.8532 7.34337C13.8533 7.34337 13.8533 7.34337 13.8533 7.34337C13.8533 7.34337 13.8533 7.34337 13.8533 7.34337C13.8533 7.34337 13.8533 7.34337 13.8533 7.34337C13.8533 7.34337 13.8533 7.34337 13.8533 7.34337C13.8533 7.34337 13.8533 7.34337 13.8533 7.34337C13.8533 7.34337 13.8533 7.34337 13.8534 7.34337C13.8534 7.34337 13.8534 7.34337 13.8534 7.34337C13.8534 7.34337 13.8534 7.34337 13.8534 7.34337C13.8534 7.34337 13.8534 7.34337 13.8534 7.34337C13.8534 7.34337 13.8534 7.34337 13.8534 7.34337C13.8534 7.34337 13.8534 7.34337 13.8534 7.34337C13.8534 7.34337 13.8535 7.34337 13.8535 7.34337C13.8535 7.34337 13.8535 7.34337 13.8535 7.34337C13.8535 7.34337 13.8535 7.34337 13.8535 7.34337C13.8535 7.34337 13.8535 7.34337 13.8535 7.34337C13.8535 7.34337 13.8535 7.34337 13.8535 7.34337C13.8535 7.34337 13.8535 7.34337 13.8535 7.34337C13.8536 7.34337 13.8536 7.34337 13.8536 7.34337C13.8536 7.34337 13.8536 7.34337 13.8536 7.34337C13.8536 7.34337 13.8536 7.34337 13.8536 7.34337C13.8536 7.34337 13.8536 7.34337 13.8536 7.34337C13.8536 7.34337 13.8536 7.34337 13.8536 7.34337C13.8536 7.34337 13.8536 7.34337 13.8536 7.34337C13.8537 7.34337 13.8537 7.34337 13.8537 7.34337C13.8537 7.34337 13.8537 7.34337 13.8537 7.34337C13.8537 7.34337 13.8537 7.34337 13.8537 7.34337C13.8537 7.34337 13.8537 7.34337 13.8537 7.34337C13.8537 7.34337 13.8537 7.34337 13.8537 7.34337C13.8537 7.34337 13.8537 7.34337 13.8538 7.34337C13.8538 7.34337 13.8538 7.34337 13.8538 7.34337C13.8538 7.34337 13.8538 7.34337 13.8538 7.34337C13.8538 7.34337 13.8538 7.34337 13.8538 7.34337C13.8538 7.34337 13.8538 7.34337 13.8538 7.34337C13.8538 7.34337 13.8538 7.34337 13.8538 7.34337C13.8538 7.34337 13.8539 7.34337 13.8539 7.34337C13.8539 7.34337 13.8539 7.34337 13.8539 7.34337C13.8539 7.34337 13.8539 7.34337 13.8539 7.34337C13.8539 7.34337 13.8539 7.34337 13.8539 7.34337C13.8539 7.34337 13.8539 7.34337 13.8539 7.34337C13.8539 7.34337 13.8539 7.34337 13.8539 7.34337C13.854 7.34337 13.854 7.34337 13.854 7.34337C13.854 7.34337 13.854 7.34337 13.854 7.34337C13.854 7.34337 13.854 7.34337 13.854 7.34337C13.854 7.34337 13.854 7.34337 13.854 7.34337C13.854 7.34337 13.854 7.34337 13.854 7.34337C13.854 7.34337 13.854 7.34337 13.8541 7.34337C13.8541 7.34337 13.8541 7.34337 13.8541 7.34337C13.8541 7.34337 13.8541 7.34337 13.8541 7.34337C13.8541 7.34337 13.8541 7.34337 13.8541 7.34337C13.8541 7.34337 13.8541 7.34337 13.8541 7.34337C13.8541 7.34337 13.8541 7.34337 13.8541 7.34337C13.8541 7.34337 13.8542 7.34337 13.8542 7.34337C13.8542 7.34337 13.8542 7.34337 13.8542 7.34337C13.8542 7.34337 13.8542 7.34337 13.8542 7.34337C13.8542 7.34337 13.8542 7.34337 13.8542 7.34337C13.8542 7.34337 13.8542 7.34337 13.8542 7.34337C13.8542 7.34337 13.8542 7.34337 13.8542 7.34337C13.8543 7.34337 13.8543 7.34337 13.8543 7.34337C13.8543 7.34337 13.8543 7.34337 13.8543 7.34337C13.8543 7.34337 13.8543 7.34337 13.8543 7.34337C13.8543 7.34337 13.8543 7.34337 13.8543 7.34337C13.8543 7.34337 13.8543 7.34337 13.8543 7.34337C13.8543 7.34337 13.8543 7.34337 13.8544 7.34337C13.8544 7.34337 13.8544 7.34337 13.8544 7.34337C13.8544 7.34337 13.8544 7.34337 13.8544 7.34337C13.8544 7.34337 13.8544 7.34337 13.8544 7.34337C13.8544 7.34337 13.8544 7.34337 13.8544 7.34337C13.8544 7.34337 13.8544 7.34337 13.8544 7.34337C13.8545 7.34337 13.8545 7.34337 13.8545 7.34337C13.8545 7.34337 13.8545 7.34337 13.8545 7.34337C13.8545 7.34337 13.8545 7.34337 13.8545 7.34337C13.8545 7.34337 13.8545 7.34337 13.8545 7.34337C13.8545 7.34337 13.8545 7.34337 13.8545 7.34337C13.8545 7.34337 13.8545 7.34337 13.8546 7.34337C13.8546 7.34337 13.8546 7.34337 13.8546 7.34337C13.8546 7.34337 13.8546 7.34337 13.8546 7.34337C13.8546 7.34337 13.8546 7.34337 13.8546 7.34337C13.8546 7.34337 13.8546 7.34337 13.8546 7.34337C13.8546 7.34337 13.8546 7.34337 13.8546 7.34337C13.8546 7.34337 13.8547 7.34337 13.8547 7.34337C13.8547 7.34337 13.8547 7.34337 13.8547 7.34337C13.8547 7.34337 13.8547 7.34337 13.8547 7.34337C13.8547 7.34337 13.8547 7.34337 13.8547 7.34337C13.8547 7.34337 13.8547 7.34337 13.8547 7.34337C13.8547 7.34337 13.8547 7.34337 13.8547 7.34337C13.8548 7.34337 13.8548 7.34337 13.8548 7.34337C13.8548 7.34337 13.8548 7.34337 13.8548 7.34337C13.8548 7.34337 13.8548 7.34337 13.8548 7.34337C13.8548 7.34337 13.8548 7.34337 13.8548 7.34337C13.8548 7.34337 13.8548 7.34337 13.8548 7.34337C13.8548 7.34337 13.8548 7.34337 13.8549 7.34337C13.8549 7.34337 13.8549 7.34337 13.8549 7.34337C13.8549 7.34337 13.8549 7.34337 13.8549 7.34337C13.8549 7.34337 13.8549 7.34337 13.8549 7.34337C13.8549 7.34337 13.8549 7.34337 13.8549 7.34337C13.8549 7.34337 13.8549 7.34337 13.8549 7.34337C13.855 7.34337 13.855 7.34337 13.855 7.34337C13.855 7.34337 13.855 7.34337 13.855 7.34337C13.855 7.34337 13.855 7.34337 13.855 7.34337C13.855 7.34337 13.855 7.34337 13.855 7.34337C13.855 7.34337 13.855 7.34337 13.855 7.34337C13.855 7.34337 13.855 7.34337 13.8551 7.34337C13.8551 7.34337 13.8551 7.34337 13.8551 7.34337C13.8551 7.34337 13.8551 7.34337 13.8551 7.34337C13.8551 7.34337 13.8551 7.34337 13.8551 7.34337C13.8551 7.34337 13.8551 7.34337 13.8551 7.34337C13.8551 7.34337 13.8551 7.34337 13.8551 7.34337C13.8551 7.34337 13.8552 7.34337 13.8552 7.34337C13.8552 7.34337 13.8552 7.34337 13.8552 7.34337C13.8552 7.34337 13.8552 7.34337 13.8552 7.34337C13.8552 7.34337 13.8552 7.34337 13.8552 7.34337C13.8552 7.34337 13.8552 7.34337 13.8552 7.34337C13.8552 7.34337 13.8552 7.34337 13.8553 7.34337C13.8553 7.34337 13.8553 7.34337 13.8553 7.34337C13.8553 7.34337 13.8553 7.34337 13.8553 7.34337C13.8553 7.34337 13.8553 7.34337 13.8553 7.34337C13.8553 7.34337 13.8553 7.34337 13.8553 7.34337C13.8553 7.34337 13.8553 7.34337 13.8553 7.34337C13.8553 7.34337 13.8554 7.34337 13.8554 7.34337C13.8554 7.34337 13.8554 7.34337 13.8554 7.34337C13.8554 7.34337 13.8554 7.34337 13.8554 7.34337C13.8554 7.34337 13.8554 7.34337 13.8554 7.34337C13.8554 7.34337 13.8554 7.34337 13.8554 7.34337C13.8554 7.34337 13.8554 7.34337 13.8554 7.34337C13.8555 7.34337 13.8555 7.34337 13.8555 7.34337C13.8555 7.34337 13.8555 7.34337 13.8555 7.34337C13.8555 7.34337 13.8555 7.34337 13.8555 7.34337C13.8555 7.34337 13.8555 7.34337 13.8555 7.34337C13.8555 7.34337 13.8555 7.34337 13.8555 7.34337C13.8555 7.34337 13.8555 7.34337 13.8556 7.34337C13.8556 7.34337 13.8556 7.34337 13.8556 7.34337C13.8556 7.34337 13.8556 7.34337 13.8556 7.34337C13.8556 7.34337 13.8556 7.34337 13.8556 7.34337C13.8556 7.34337 13.8556 7.34337 13.8556 7.34337C13.8556 7.34337 13.8556 7.34337 13.8556 7.34337C13.8557 7.34337 13.8557 7.34337 13.8557 7.34337C13.8557 7.34337 13.8557 7.34337 13.8557 7.34337C13.8557 7.34337 13.8557 7.34337 13.8557 7.34337C13.8557 7.34337 13.8557 7.34337 13.8557 7.34337C13.8557 7.34337 13.8557 7.34337 13.8557 7.34337C13.8557 7.34337 13.8557 7.34337 13.8558 7.34337C13.8558 7.34337 13.8558 7.34337 13.8558 7.34337C13.8558 7.34337 13.8558 7.34337 13.8558 7.34337C13.8558 7.34337 13.8558 7.34337 13.8558 7.34337C13.8558 7.34337 13.8558 7.34337 13.8558 7.34337C13.8558 7.34337 13.8558 7.34337 13.8558 7.34337C13.8558 7.34337 13.8559 7.34337 13.8559 7.34337C13.8559 7.34337 13.8559 7.34337 13.8559 7.34337C13.8559 7.34337 13.8559 7.34337 13.8559 7.34337C13.8559 7.34337 13.8559 7.34337 13.8559 7.34337C13.8559 7.34337 13.8559 7.34337 13.8559 7.34337C13.8559 7.34337 13.8559 7.34337 13.856 7.34337C13.856 7.34337 13.856 7.34337 13.856 7.34337C13.856 7.34337 13.856 7.34337 13.856 7.34337C13.856 7.34337 13.856 7.34337 13.856 7.34337C13.856 7.34337 13.856 7.34337 13.856 7.34337C13.856 7.34337 13.856 7.34337 13.856 7.34337C13.856 7.34337 13.8561 7.34337 13.8561 7.34337C13.8561 7.34337 13.8561 7.34337 13.8561 7.34337C13.8561 7.34337 13.8561 7.34337 13.8561 7.34337C13.8561 7.34337 13.8561 7.34337 13.8561 7.34337C13.8561 7.34337 13.8561 7.34337 13.8561 7.34337C13.8561 7.34337 13.8561 7.34337 13.8561 7.34337C13.8562 7.34337 13.8562 7.34337 13.8562 7.34337C13.8562 7.34337 13.8562 7.34337 13.8562 7.34337C13.8562 7.34337 13.8562 7.34337 13.8562 7.34337C13.8562 7.34337 13.8562 7.34337 13.8562 7.34337C13.8562 7.34337 13.8562 7.34337 13.8562 7.34337C13.8562 7.34337 13.8563 7.34337 13.8563 7.34337C13.8563 7.34337 13.8563 7.34337 13.8563 7.34337C13.8563 7.34337 13.8563 7.34337 13.8563 7.34337C13.8563 7.34337 13.8563 7.34337 13.8563 7.34337C13.8563 7.34337 13.8563 7.34337 13.8563 7.34337C13.8563 7.34337 13.8563 7.34337 13.8563 7.34337C13.8564 7.34337 13.8564 7.34337 13.8564 7.34337C13.8564 7.34337 13.8564 7.34337 13.8564 7.34337C13.8564 7.34337 13.8564 7.34337 13.8564 7.34337C13.8564 7.34337 13.8564 7.34337 13.8564 7.34337C13.8564 7.34337 13.8564 7.34337 13.8564 7.34337C13.8564 7.34337 13.8564 7.34337 13.8565 7.34337C13.8565 7.34337 13.8565 7.34337 13.8565 7.34337C13.8565 7.34337 13.8565 7.34337 13.8565 7.34337C13.8565 7.34337 13.8565 7.34337 13.8565 7.34337C13.8565 7.34337 13.8565 7.34337 13.8565 7.34337C13.8565 7.34337 13.8565 7.34337 13.8565 7.34337C13.8565 7.34337 13.8566 7.34337 13.8566 7.34337C13.8566 7.34337 13.8566 7.34337 13.8566 7.34337C13.8566 7.34337 13.8566 7.34337 13.8566 7.34337C13.8566 7.34337 13.8566 7.34337 13.8566 7.34337C13.8566 7.34337 13.8566 7.34337 13.8566 7.34337C13.8566 7.34337 13.8566 7.34337 13.8567 7.34337C13.8567 7.34337 13.8567 7.34337 13.8567 7.34337C13.8567 7.34337 13.8567 7.34337 13.8567 7.34337C13.8567 7.34337 13.8567 7.34337 13.8567 7.34337C13.8567 7.34337 13.8567 7.34337 13.8567 7.34337C13.8567 7.34337 13.8567 7.34337 13.8567 7.34337C13.8567 7.34337 13.8568 7.34337 13.8568 7.34337C13.8568 7.34337 13.8568 7.34337 13.8568 7.34337C13.8568 7.34337 13.8568 7.34337 13.8568 7.34337C13.8568 7.34337 13.8568 7.34337 13.8568 7.34337C13.8568 7.34337 13.8568 7.34337 13.8568 7.34337C13.8568 7.34337 13.8568 7.34337 13.8568 7.34337C13.8569 7.34337 13.8569 7.34337 13.8569 7.34337C13.8569 7.34337 13.8569 7.34337 13.8569 7.34337C13.8569 7.34337 13.8569 7.34337 13.8569 7.34337C13.8569 7.34337 13.8569 7.34337 13.8569 7.34337C13.8569 7.34337 13.8569 7.34337 13.8569 7.34337C13.8569 7.34337 13.8569 7.34337 13.857 7.34337C13.857 7.34337 13.857 7.34337 13.857 7.34337C13.857 7.34337 13.857 7.34337 13.857 7.34337C13.857 7.34337 13.857 7.34337 13.857 7.34337C13.857 7.34337 13.857 7.34337 13.857 7.34337C13.857 7.34337 13.857 7.34337 13.857 7.34337C13.857 7.34337 13.8571 7.34337 13.8571 7.34337C13.8571 7.34337 13.8571 7.34337 13.8571 7.34337C13.8571 7.34337 13.8571 7.34337 13.8571 7.34337C13.8571 7.34337 13.8571 7.34337 13.8571 7.34337C13.8571 7.34337 13.8571 7.34337 13.8571 7.34337C13.8571 7.34337 13.8571 7.34337 13.8571 7.34337C13.8572 7.34337 13.8572 7.34337 13.8572 7.34337C13.8572 7.34337 13.8572 7.34337 13.8572 7.34337C13.8572 7.34337 13.8572 7.34337 13.8572 7.34337C13.8572 7.34337 13.8572 7.34337 13.8572 7.34337C13.8572 7.34337 13.8572 7.34337 13.8572 7.34337C13.8572 7.34337 13.8572 7.34337 13.8573 7.34337C13.8573 7.34337 13.8573 7.34337 13.8573 7.34337C13.8573 7.34337 13.8573 7.34337 13.8573 7.34337C13.8573 7.34337 13.8573 7.34337 13.8573 7.34337C13.8573 7.34337 13.8573 7.34337 13.8573 7.34337C13.8573 7.34337 13.8573 7.34337 13.8573 7.34337C13.8573 7.34337 13.8574 7.34337 13.8574 7.34337C13.8574 7.34337 13.8574 7.34337 13.8574 7.34337C13.8574 7.34337 13.8574 7.34337 13.8574 7.34337C13.8574 7.34337 13.8574 7.34337 13.8574 7.34337C13.8574 7.34337 13.8574 7.34337 13.8574 7.34337C13.8574 7.34337 13.8574 7.34337 13.8574 7.34337C13.8575 7.34337 13.8575 7.34337 13.8575 7.34337C13.8575 7.34337 13.8575 7.34337 13.8575 7.34337C13.8575 7.34337 13.8575 7.34337 13.8575 7.34337C13.8575 7.34337 13.8575 7.34337 13.8575 7.34337C13.8575 7.34337 13.8575 7.34337 13.8575 7.34337C13.8575 7.34337 13.8575 7.34337 13.8576 7.34337C13.8576 7.34337 13.8576 7.34337 13.8576 7.34337C13.8576 7.34337 13.8576 7.34337 13.8576 7.34337C13.8576 7.34337 13.8576 7.34337 13.8576 7.34337C13.8576 7.34337 13.8576 7.34337 13.8576 7.34337C13.8576 7.34337 13.8576 7.34337 13.8576 7.34337C13.8576 7.34337 13.8577 7.34337 13.8577 7.34337C13.8577 7.34337 13.8577 7.34337 13.8577 7.34337C13.8577 7.34337 13.8577 7.34337 13.8577 7.34337C13.8577 7.34337 13.8577 7.34337 13.8577 7.34337C13.8577 7.34337 13.8577 7.34337 13.8577 7.34337C13.8577 7.34337 13.8577 7.34337 13.8577 7.34337C13.8578 7.34337 13.8578 7.34337 13.8578 7.34337C13.8578 7.34337 13.8578 7.34337 13.8578 7.34337C13.8578 7.34337 13.8578 7.34337 13.8578 7.34337C13.8578 7.34337 13.8578 7.34337 13.8578 7.34337C13.8578 7.34337 13.8578 7.34337 13.8578 7.34337C13.8578 7.34337 13.8578 7.34337 13.8579 7.34337C13.8579 7.34337 13.8579 7.34337 13.8579 7.34337C13.8579 7.34337 13.8579 7.34337 13.8579 7.34337C13.8579 7.34337 13.8579 7.34337 13.8579 7.34337C13.8579 7.34337 13.8579 7.34337 13.8579 7.34337C13.8579 7.34337 13.8579 7.34337 13.8579 7.34337C13.8579 7.34337 13.8579 7.34337 13.858 7.34337C13.858 7.34337 13.858 7.34337 13.858 7.34337C13.858 7.34337 13.858 7.34337 13.858 7.34337C13.858 7.34337 13.858 7.34337 13.858 7.34337C13.858 7.34337 13.858 7.34337 13.858 7.34337C13.858 7.34337 13.858 7.34337 13.858 7.34337C13.858 7.34337 13.8581 7.34337 13.8581 7.34337C13.8581 7.34337 13.8581 7.34337 13.8581 7.34337C13.8581 7.34337 13.8581 7.34337 13.8581 7.34337C13.8581 7.34337 13.8581 7.34337 13.8581 7.34337C13.8581 7.34337 13.8581 7.34337 13.8581 7.34337C13.8581 7.34337 13.8581 7.34337 13.8581 7.34337C13.8582 7.34337 13.8582 7.34337 13.8582 7.34337C13.8582 7.34337 13.8582 7.34337 13.8582 7.34337C13.8582 7.34337 13.8582 7.34337 13.8582 7.34337C13.8582 7.34337 13.8582 7.34337 13.8582 7.34337C13.8582 7.34337 13.8582 7.34337 13.8582 7.34337C13.8582 7.34337 13.8582 7.34337 13.8582 7.34337C13.8583 7.34337 13.8583 7.34337 13.8583 7.34337C13.8583 7.34337 13.8583 7.34337 13.8583 7.34337C13.8583 7.34337 13.8583 7.34337 13.8583 7.34337C13.8583 7.34337 13.8583 7.34337 13.8583 7.34337C13.8583 7.34337 13.8583 7.34337 13.8583 7.34337C13.8583 7.34337 13.8583 7.34337 13.8584 7.34337C13.8584 7.34337 13.8584 7.34337 13.8584 7.34337C13.8584 7.34337 13.8584 7.34337 13.8584 7.34337C13.8584 7.34337 13.8584 7.34337 13.8584 7.34337C13.8584 7.34337 13.8584 7.34337 13.8584 7.34337C13.8584 7.34337 13.8584 7.34337 13.8584 7.34337C13.8584 7.34337 13.8584 7.34337 13.8585 7.34337C13.8585 7.34337 13.8585 7.34337 13.8585 7.34337C13.8585 7.34337 13.8585 7.34337 13.8585 7.34337C13.8585 7.34337 13.8585 7.34337 13.8585 7.34337C13.8585 7.34337 13.8585 7.34337 13.8585 7.34337C13.8585 7.34337 13.8585 7.34337 13.8585 7.34337C13.8585 7.34337 13.8585 7.34337 13.8586 7.34337C13.8586 7.34337 13.8586 7.34337 13.8586 7.34337C13.8586 7.34337 13.8586 7.34337 13.8586 7.34337C13.8586 7.34337 13.8586 7.34337 13.8586 7.34337C13.8586 7.34337 13.8586 7.34337 13.8586 7.34337C13.8586 7.34337 13.8586 7.34337 13.8586 7.34337V4.26942C13.8586 4.26942 13.8586 4.26942 13.8586 4.26942C13.8586 4.26942 13.8586 4.26942 13.8586 4.26942C13.8586 4.26942 13.8586 4.26942 13.8586 4.26942C13.8586 4.26942 13.8586 4.26942 13.8586 4.26942C13.8586 4.26942 13.8586 4.26942 13.8586 4.26942C13.8585 4.26942 13.8585 4.26942 13.8585 4.26942C13.8585 4.26942 13.8585 4.26942 13.8585 4.26942C13.8585 4.26942 13.8585 4.26942 13.8585 4.26942C13.8585 4.26942 13.8585 4.26942 13.8585 4.26942C13.8585 4.26942 13.8585 4.26942 13.8585 4.26942C13.8585 4.26942 13.8585 4.26942 13.8585 4.26942C13.8584 4.26942 13.8584 4.26942 13.8584 4.26942C13.8584 4.26942 13.8584 4.26942 13.8584 4.26942C13.8584 4.26942 13.8584 4.26942 13.8584 4.26942C13.8584 4.26942 13.8584 4.26942 13.8584 4.26942C13.8584 4.26942 13.8584 4.26942 13.8584 4.26942C13.8584 4.26942 13.8584 4.26942 13.8584 4.26942C13.8583 4.26942 13.8583 4.26942 13.8583 4.26942C13.8583 4.26942 13.8583 4.26942 13.8583 4.26942C13.8583 4.26942 13.8583 4.26942 13.8583 4.26942C13.8583 4.26942 13.8583 4.26942 13.8583 4.26942C13.8583 4.26942 13.8583 4.26942 13.8583 4.26942C13.8583 4.26942 13.8583 4.26942 13.8582 4.26942C13.8582 4.26942 13.8582 4.26942 13.8582 4.26942C13.8582 4.26942 13.8582 4.26942 13.8582 4.26942C13.8582 4.26942 13.8582 4.26942 13.8582 4.26942C13.8582 4.26942 13.8582 4.26942 13.8582 4.26942C13.8582 4.26942 13.8582 4.26942 13.8582 4.26942C13.8582 4.26942 13.8582 4.26942 13.8581 4.26942C13.8581 4.26942 13.8581 4.26942 13.8581 4.26942C13.8581 4.26942 13.8581 4.26942 13.8581 4.26942C13.8581 4.26942 13.8581 4.26942 13.8581 4.26942C13.8581 4.26942 13.8581 4.26942 13.8581 4.26942C13.8581 4.26942 13.8581 4.26942 13.8581 4.26942C13.8581 4.26942 13.858 4.26942 13.858 4.26942C13.858 4.26942 13.858 4.26942 13.858 4.26942C13.858 4.26942 13.858 4.26942 13.858 4.26942C13.858 4.26942 13.858 4.26942 13.858 4.26942C13.858 4.26942 13.858 4.26942 13.858 4.26942C13.858 4.26942 13.858 4.26942 13.858 4.26942C13.8579 4.26942 13.8579 4.26942 13.8579 4.26942C13.8579 4.26942 13.8579 4.26942 13.8579 4.26942C13.8579 4.26942 13.8579 4.26942 13.8579 4.26942C13.8579 4.26942 13.8579 4.26942 13.8579 4.26942C13.8579 4.26942 13.8579 4.26942 13.8579 4.26942C13.8579 4.26942 13.8579 4.26942 13.8579 4.26942C13.8578 4.26942 13.8578 4.26942 13.8578 4.26942C13.8578 4.26942 13.8578 4.26942 13.8578 4.26942C13.8578 4.26942 13.8578 4.26942 13.8578 4.26942C13.8578 4.26942 13.8578 4.26942 13.8578 4.26942C13.8578 4.26942 13.8578 4.26942 13.8578 4.26942C13.8578 4.26942 13.8578 4.26942 13.8577 4.26942C13.8577 4.26942 13.8577 4.26942 13.8577 4.26942C13.8577 4.26942 13.8577 4.26942 13.8577 4.26942C13.8577 4.26942 13.8577 4.26942 13.8577 4.26942C13.8577 4.26942 13.8577 4.26942 13.8577 4.26942C13.8577 4.26942 13.8577 4.26942 13.8577 4.26942C13.8577 4.26942 13.8576 4.26942 13.8576 4.26942C13.8576 4.26942 13.8576 4.26942 13.8576 4.26942C13.8576 4.26942 13.8576 4.26942 13.8576 4.26942C13.8576 4.26942 13.8576 4.26942 13.8576 4.26942C13.8576 4.26942 13.8576 4.26942 13.8576 4.26942C13.8576 4.26942 13.8576 4.26942 13.8576 4.26942C13.8575 4.26942 13.8575 4.26942 13.8575 4.26942C13.8575 4.26942 13.8575 4.26942 13.8575 4.26942C13.8575 4.26942 13.8575 4.26942 13.8575 4.26942C13.8575 4.26942 13.8575 4.26942 13.8575 4.26942C13.8575 4.26942 13.8575 4.26942 13.8575 4.26942C13.8575 4.26942 13.8575 4.26942 13.8574 4.26942C13.8574 4.26942 13.8574 4.26942 13.8574 4.26942C13.8574 4.26942 13.8574 4.26942 13.8574 4.26942C13.8574 4.26942 13.8574 4.26942 13.8574 4.26942C13.8574 4.26942 13.8574 4.26942 13.8574 4.26942C13.8574 4.26942 13.8574 4.26942 13.8574 4.26942C13.8574 4.26942 13.8573 4.26942 13.8573 4.26942C13.8573 4.26942 13.8573 4.26942 13.8573 4.26942C13.8573 4.26942 13.8573 4.26942 13.8573 4.26942C13.8573 4.26942 13.8573 4.26942 13.8573 4.26942C13.8573 4.26942 13.8573 4.26942 13.8573 4.26942C13.8573 4.26942 13.8573 4.26942 13.8573 4.26942C13.8572 4.26942 13.8572 4.26942 13.8572 4.26942C13.8572 4.26942 13.8572 4.26942 13.8572 4.26942C13.8572 4.26942 13.8572 4.26942 13.8572 4.26942C13.8572 4.26942 13.8572 4.26942 13.8572 4.26942C13.8572 4.26942 13.8572 4.26942 13.8572 4.26942C13.8572 4.26942 13.8572 4.26942 13.8571 4.26942C13.8571 4.26942 13.8571 4.26942 13.8571 4.26942C13.8571 4.26942 13.8571 4.26942 13.8571 4.26942C13.8571 4.26942 13.8571 4.26942 13.8571 4.26942C13.8571 4.26942 13.8571 4.26942 13.8571 4.26942C13.8571 4.26942 13.8571 4.26942 13.8571 4.26942C13.8571 4.26942 13.857 4.26942 13.857 4.26942C13.857 4.26942 13.857 4.26942 13.857 4.26942C13.857 4.26942 13.857 4.26942 13.857 4.26942C13.857 4.26942 13.857 4.26942 13.857 4.26942C13.857 4.26942 13.857 4.26942 13.857 4.26942C13.857 4.26942 13.857 4.26942 13.857 4.26942C13.8569 4.26942 13.8569 4.26942 13.8569 4.26942C13.8569 4.26942 13.8569 4.26942 13.8569 4.26942C13.8569 4.26942 13.8569 4.26942 13.8569 4.26942C13.8569 4.26942 13.8569 4.26942 13.8569 4.26942C13.8569 4.26942 13.8569 4.26942 13.8569 4.26942C13.8569 4.26942 13.8569 4.26942 13.8568 4.26942C13.8568 4.26942 13.8568 4.26942 13.8568 4.26942C13.8568 4.26942 13.8568 4.26942 13.8568 4.26942C13.8568 4.26942 13.8568 4.26942 13.8568 4.26942C13.8568 4.26942 13.8568 4.26942 13.8568 4.26942C13.8568 4.26942 13.8568 4.26942 13.8568 4.26942C13.8568 4.26942 13.8567 4.26942 13.8567 4.26942C13.8567 4.26942 13.8567 4.26942 13.8567 4.26942C13.8567 4.26942 13.8567 4.26942 13.8567 4.26942C13.8567 4.26942 13.8567 4.26942 13.8567 4.26942C13.8567 4.26942 13.8567 4.26942 13.8567 4.26942C13.8567 4.26942 13.8567 4.26942 13.8567 4.26942C13.8566 4.26942 13.8566 4.26942 13.8566 4.26942C13.8566 4.26942 13.8566 4.26942 13.8566 4.26942C13.8566 4.26942 13.8566 4.26942 13.8566 4.26942C13.8566 4.26942 13.8566 4.26942 13.8566 4.26942C13.8566 4.26942 13.8566 4.26942 13.8566 4.26942C13.8566 4.26942 13.8565 4.26942 13.8565 4.26942C13.8565 4.26942 13.8565 4.26942 13.8565 4.26942C13.8565 4.26942 13.8565 4.26942 13.8565 4.26942C13.8565 4.26942 13.8565 4.26942 13.8565 4.26942C13.8565 4.26942 13.8565 4.26942 13.8565 4.26942C13.8565 4.26942 13.8565 4.26942 13.8565 4.26942C13.8564 4.26942 13.8564 4.26942 13.8564 4.26942C13.8564 4.26942 13.8564 4.26942 13.8564 4.26942C13.8564 4.26942 13.8564 4.26942 13.8564 4.26942C13.8564 4.26942 13.8564 4.26942 13.8564 4.26942C13.8564 4.26942 13.8564 4.26942 13.8564 4.26942C13.8564 4.26942 13.8564 4.26942 13.8563 4.26942C13.8563 4.26942 13.8563 4.26942 13.8563 4.26942C13.8563 4.26942 13.8563 4.26942 13.8563 4.26942C13.8563 4.26942 13.8563 4.26942 13.8563 4.26942C13.8563 4.26942 13.8563 4.26942 13.8563 4.26942C13.8563 4.26942 13.8563 4.26942 13.8563 4.26942C13.8563 4.26942 13.8562 4.26942 13.8562 4.26942C13.8562 4.26942 13.8562 4.26942 13.8562 4.26942C13.8562 4.26942 13.8562 4.26942 13.8562 4.26942C13.8562 4.26942 13.8562 4.26942 13.8562 4.26942C13.8562 4.26942 13.8562 4.26942 13.8562 4.26942C13.8562 4.26942 13.8562 4.26942 13.8561 4.26942C13.8561 4.26942 13.8561 4.26942 13.8561 4.26942C13.8561 4.26942 13.8561 4.26942 13.8561 4.26942C13.8561 4.26942 13.8561 4.26942 13.8561 4.26942C13.8561 4.26942 13.8561 4.26942 13.8561 4.26942C13.8561 4.26942 13.8561 4.26942 13.8561 4.26942C13.8561 4.26942 13.856 4.26942 13.856 4.26942C13.856 4.26942 13.856 4.26942 13.856 4.26942C13.856 4.26942 13.856 4.26942 13.856 4.26942C13.856 4.26942 13.856 4.26942 13.856 4.26942C13.856 4.26942 13.856 4.26942 13.856 4.26942C13.856 4.26942 13.856 4.26942 13.856 4.26942C13.8559 4.26942 13.8559 4.26942 13.8559 4.26942C13.8559 4.26942 13.8559 4.26942 13.8559 4.26942C13.8559 4.26942 13.8559 4.26942 13.8559 4.26942C13.8559 4.26942 13.8559 4.26942 13.8559 4.26942C13.8559 4.26942 13.8559 4.26942 13.8559 4.26942C13.8559 4.26942 13.8558 4.26942 13.8558 4.26942C13.8558 4.26942 13.8558 4.26942 13.8558 4.26942C13.8558 4.26942 13.8558 4.26942 13.8558 4.26942C13.8558 4.26942 13.8558 4.26942 13.8558 4.26942C13.8558 4.26942 13.8558 4.26942 13.8558 4.26942C13.8558 4.26942 13.8558 4.26942 13.8558 4.26942C13.8557 4.26942 13.8557 4.26942 13.8557 4.26942C13.8557 4.26942 13.8557 4.26942 13.8557 4.26942C13.8557 4.26942 13.8557 4.26942 13.8557 4.26942C13.8557 4.26942 13.8557 4.26942 13.8557 4.26942C13.8557 4.26942 13.8557 4.26942 13.8557 4.26942C13.8557 4.26942 13.8557 4.26942 13.8556 4.26942C13.8556 4.26942 13.8556 4.26942 13.8556 4.26942C13.8556 4.26942 13.8556 4.26942 13.8556 4.26942C13.8556 4.26942 13.8556 4.26942 13.8556 4.26942C13.8556 4.26942 13.8556 4.26942 13.8556 4.26942C13.8556 4.26942 13.8556 4.26942 13.8556 4.26942C13.8555 4.26942 13.8555 4.26942 13.8555 4.26942C13.8555 4.26942 13.8555 4.26942 13.8555 4.26942C13.8555 4.26942 13.8555 4.26942 13.8555 4.26942C13.8555 4.26942 13.8555 4.26942 13.8555 4.26942C13.8555 4.26942 13.8555 4.26942 13.8555 4.26942C13.8555 4.26942 13.8555 4.26942 13.8554 4.26942C13.8554 4.26942 13.8554 4.26942 13.8554 4.26942C13.8554 4.26942 13.8554 4.26942 13.8554 4.26942C13.8554 4.26942 13.8554 4.26942 13.8554 4.26942C13.8554 4.26942 13.8554 4.26942 13.8554 4.26942C13.8554 4.26942 13.8554 4.26942 13.8554 4.26942C13.8554 4.26942 13.8553 4.26942 13.8553 4.26942C13.8553 4.26942 13.8553 4.26942 13.8553 4.26942C13.8553 4.26942 13.8553 4.26942 13.8553 4.26942C13.8553 4.26942 13.8553 4.26942 13.8553 4.26942C13.8553 4.26942 13.8553 4.26942 13.8553 4.26942C13.8553 4.26942 13.8553 4.26942 13.8553 4.26942C13.8552 4.26942 13.8552 4.26942 13.8552 4.26942C13.8552 4.26942 13.8552 4.26942 13.8552 4.26942C13.8552 4.26942 13.8552 4.26942 13.8552 4.26942C13.8552 4.26942 13.8552 4.26942 13.8552 4.26942C13.8552 4.26942 13.8552 4.26942 13.8552 4.26942C13.8552 4.26942 13.8551 4.26942 13.8551 4.26942C13.8551 4.26942 13.8551 4.26942 13.8551 4.26942C13.8551 4.26942 13.8551 4.26942 13.8551 4.26942C13.8551 4.26942 13.8551 4.26942 13.8551 4.26942C13.8551 4.26942 13.8551 4.26942 13.8551 4.26942C13.8551 4.26942 13.8551 4.26942 13.8551 4.26942C13.855 4.26942 13.855 4.26942 13.855 4.26942C13.855 4.26942 13.855 4.26942 13.855 4.26942C13.855 4.26942 13.855 4.26942 13.855 4.26942C13.855 4.26942 13.855 4.26942 13.855 4.26942C13.855 4.26942 13.855 4.26942 13.855 4.26942C13.855 4.26942 13.855 4.26942 13.8549 4.26942C13.8549 4.26942 13.8549 4.26942 13.8549 4.26942C13.8549 4.26942 13.8549 4.26942 13.8549 4.26942C13.8549 4.26942 13.8549 4.26942 13.8549 4.26942C13.8549 4.26942 13.8549 4.26942 13.8549 4.26942C13.8549 4.26942 13.8549 4.26942 13.8549 4.26942C13.8548 4.26942 13.8548 4.26942 13.8548 4.26942C13.8548 4.26942 13.8548 4.26942 13.8548 4.26942C13.8548 4.26942 13.8548 4.26942 13.8548 4.26942C13.8548 4.26942 13.8548 4.26942 13.8548 4.26942C13.8548 4.26942 13.8548 4.26942 13.8548 4.26942C13.8548 4.26942 13.8548 4.26942 13.8547 4.26942C13.8547 4.26942 13.8547 4.26942 13.8547 4.26942C13.8547 4.26942 13.8547 4.26942 13.8547 4.26942C13.8547 4.26942 13.8547 4.26942 13.8547 4.26942C13.8547 4.26942 13.8547 4.26942 13.8547 4.26942C13.8547 4.26942 13.8547 4.26942 13.8547 4.26942C13.8547 4.26942 13.8546 4.26942 13.8546 4.26942C13.8546 4.26942 13.8546 4.26942 13.8546 4.26942C13.8546 4.26942 13.8546 4.26942 13.8546 4.26942C13.8546 4.26942 13.8546 4.26942 13.8546 4.26942C13.8546 4.26942 13.8546 4.26942 13.8546 4.26942C13.8546 4.26942 13.8546 4.26942 13.8546 4.26942C13.8545 4.26942 13.8545 4.26942 13.8545 4.26942C13.8545 4.26942 13.8545 4.26942 13.8545 4.26942C13.8545 4.26942 13.8545 4.26942 13.8545 4.26942C13.8545 4.26942 13.8545 4.26942 13.8545 4.26942C13.8545 4.26942 13.8545 4.26942 13.8545 4.26942C13.8545 4.26942 13.8545 4.26942 13.8544 4.26942C13.8544 4.26942 13.8544 4.26942 13.8544 4.26942C13.8544 4.26942 13.8544 4.26942 13.8544 4.26942C13.8544 4.26942 13.8544 4.26942 13.8544 4.26942C13.8544 4.26942 13.8544 4.26942 13.8544 4.26942C13.8544 4.26942 13.8544 4.26942 13.8544 4.26942C13.8543 4.26942 13.8543 4.26942 13.8543 4.26942C13.8543 4.26942 13.8543 4.26942 13.8543 4.26942C13.8543 4.26942 13.8543 4.26942 13.8543 4.26942C13.8543 4.26942 13.8543 4.26942 13.8543 4.26942C13.8543 4.26942 13.8543 4.26942 13.8543 4.26942C13.8543 4.26942 13.8543 4.26942 13.8542 4.26942C13.8542 4.26942 13.8542 4.26942 13.8542 4.26942C13.8542 4.26942 13.8542 4.26942 13.8542 4.26942C13.8542 4.26942 13.8542 4.26942 13.8542 4.26942C13.8542 4.26942 13.8542 4.26942 13.8542 4.26942C13.8542 4.26942 13.8542 4.26942 13.8542 4.26942C13.8542 4.26942 13.8541 4.26942 13.8541 4.26942C13.8541 4.26942 13.8541 4.26942 13.8541 4.26942C13.8541 4.26942 13.8541 4.26942 13.8541 4.26942C13.8541 4.26942 13.8541 4.26942 13.8541 4.26942C13.8541 4.26942 13.8541 4.26942 13.8541 4.26942C13.8541 4.26942 13.8541 4.26942 13.8541 4.26942C13.854 4.26942 13.854 4.26942 13.854 4.26942C13.854 4.26942 13.854 4.26942 13.854 4.26942C13.854 4.26942 13.854 4.26942 13.854 4.26942C13.854 4.26942 13.854 4.26942 13.854 4.26942C13.854 4.26942 13.854 4.26942 13.854 4.26942C13.854 4.26942 13.854 4.26942 13.8539 4.26942C13.8539 4.26942 13.8539 4.26942 13.8539 4.26942C13.8539 4.26942 13.8539 4.26942 13.8539 4.26942C13.8539 4.26942 13.8539 4.26942 13.8539 4.26942C13.8539 4.26942 13.8539 4.26942 13.8539 4.26942C13.8539 4.26942 13.8539 4.26942 13.8539 4.26942C13.8539 4.26942 13.8538 4.26942 13.8538 4.26942C13.8538 4.26942 13.8538 4.26942 13.8538 4.26942C13.8538 4.26942 13.8538 4.26942 13.8538 4.26942C13.8538 4.26942 13.8538 4.26942 13.8538 4.26942C13.8538 4.26942 13.8538 4.26942 13.8538 4.26942C13.8538 4.26942 13.8538 4.26942 13.8538 4.26942C13.8537 4.26942 13.8537 4.26942 13.8537 4.26942C13.8537 4.26942 13.8537 4.26942 13.8537 4.26942C13.8537 4.26942 13.8537 4.26942 13.8537 4.26942C13.8537 4.26942 13.8537 4.26942 13.8537 4.26942C13.8537 4.26942 13.8537 4.26942 13.8537 4.26942C13.8537 4.26942 13.8537 4.26942 13.8536 4.26942C13.8536 4.26942 13.8536 4.26942 13.8536 4.26942C13.8536 4.26942 13.8536 4.26942 13.8536 4.26942C13.8536 4.26942 13.8536 4.26942 13.8536 4.26942C13.8536 4.26942 13.8536 4.26942 13.8536 4.26942C13.8536 4.26942 13.8536 4.26942 13.8536 4.26942C13.8536 4.26942 13.8536 4.26942 13.8535 4.26942C13.8535 4.26942 13.8535 4.26942 13.8535 4.26942C13.8535 4.26942 13.8535 4.26942 13.8535 4.26942C13.8535 4.26942 13.8535 4.26942 13.8535 4.26942C13.8535 4.26942 13.8535 4.26942 13.8535 4.26942C13.8535 4.26942 13.8535 4.26942 13.8535 4.26942C13.8535 4.26942 13.8534 4.26942 13.8534 4.26942C13.8534 4.26942 13.8534 4.26942 13.8534 4.26942C13.8534 4.26942 13.8534 4.26942 13.8534 4.26942C13.8534 4.26942 13.8534 4.26942 13.8534 4.26942C13.8534 4.26942 13.8534 4.26942 13.8534 4.26942C13.8534 4.26942 13.8534 4.26942 13.8534 4.26942C13.8533 4.26942 13.8533 4.26942 13.8533 4.26942C13.8533 4.26942 13.8533 4.26942 13.8533 4.26942C13.8533 4.26942 13.8533 4.26942 13.8533 4.26942C13.8533 4.26942 13.8533 4.26942 13.8533 4.26942C13.8533 4.26942 13.8533 4.26942 13.8533 4.26942C13.8533 4.26942 13.8533 4.26942 13.8532 4.26942C13.8532 4.26942 13.8532 4.26942 13.8532 4.26942C13.8532 4.26942 13.8532 4.26942 13.8532 4.26942C13.8532 4.26942 13.8532 4.26942 13.8532 4.26942C13.8532 4.26942 13.8532 4.26942 13.8532 4.26942C13.8532 4.26942 13.8532 4.26942 13.8532 4.26942C13.8532 4.26942 13.8532 4.26942 13.8531 4.26942C13.8531 4.26942 13.8531 4.26942 13.8531 4.26942C13.8531 4.26942 13.8531 4.26942 13.8531 4.26942C13.8531 4.26942 13.8531 4.26942 13.8531 4.26942C13.8531 4.26942 13.8531 4.26942 13.8531 4.26942C13.8531 4.26942 13.8531 4.26942 13.8531 4.26942C13.8531 4.26942 13.853 4.26942 13.853 4.26942C13.853 4.26942 13.853 4.26942 13.853 4.26942C13.853 4.26942 13.853 4.26942 13.853 4.26942C13.853 4.26942 13.853 4.26942 13.853 4.26942C13.853 4.26942 13.853 4.26942 13.853 4.26942C13.853 4.26942 13.853 4.26942 13.853 4.26942C13.853 4.26942 13.8529 4.26942 13.8529 4.26942C13.8529 4.26942 13.8529 4.26942 13.8529 4.26942C13.8529 4.26942 13.8529 4.26942 13.8529 4.26942C13.8529 4.26942 13.8529 4.26942 13.8529 4.26942C13.8529 4.26942 13.8529 4.26942 13.8529 4.26942C13.8529 4.26942 13.8529 4.26942 13.8529 4.26942C13.8528 4.26942 13.8528 4.26942 13.8528 4.26942C13.8528 4.26942 13.8528 4.26942 13.8528 4.26942C13.8528 4.26942 13.8528 4.26942 13.8528 4.26942C13.8528 4.26942 13.8528 4.26942 13.8528 4.26942C13.8528 4.26942 13.8528 4.26942 13.8528 4.26942C13.8528 4.26942 13.8528 4.26942 13.8528 4.26942C13.8527 4.26942 13.8527 4.26942 13.8527 4.26942C13.8527 4.26942 13.8527 4.26942 13.8527 4.26942C13.8527 4.26942 13.8527 4.26942 13.8527 4.26942C13.8527 4.26942 13.8527 4.26942 13.8527 4.26942C13.8527 4.26942 13.8527 4.26942 13.8527 4.26942C13.8527 4.26942 13.8527 4.26942 13.8527 4.26942C13.8526 4.26942 13.8526 4.26942 13.8526 4.26942C13.8526 4.26942 13.8526 4.26942 13.8526 4.26942C13.8526 4.26942 13.8526 4.26942 13.8526 4.26942C13.8526 4.26942 13.8526 4.26942 13.8526 4.26942C13.8526 4.26942 13.8526 4.26942 13.8526 4.26942C13.8526 4.26942 13.8526 4.26942 13.8525 4.26942C13.8525 4.26942 13.8525 4.26942 13.8525 4.26942C13.8525 4.26942 13.8525 4.26942 13.8525 4.26942C13.8525 4.26942 13.8525 4.26942 13.8525 4.26942C13.8525 4.26942 13.8525 4.26942 13.8525 4.26942C13.8525 4.26942 13.8525 4.26942 13.8525 4.26942C13.8525 4.26942 13.8525 4.26942 13.8524 4.26942C13.8524 4.26942 13.8524 4.26942 13.8524 4.26942C13.8524 4.26942 13.8524 4.26942 13.8524 4.26942C13.8524 4.26942 13.8524 4.26942 13.8524 4.26942C13.8524 4.26942 13.8524 4.26942 13.8524 4.26942C13.8524 4.26942 13.8524 4.26942 13.8524 4.26942C13.8524 4.26942 13.8524 4.26942 13.8523 4.26942C13.8523 4.26942 13.8523 4.26942 13.8523 4.26942C13.8523 4.26942 13.8523 4.26942 13.8523 4.26942C13.8523 4.26942 13.8523 4.26942 13.8523 4.26942C13.8523 4.26942 13.8523 4.26942 13.8523 4.26942C13.8523 4.26942 13.8523 4.26942 13.8523 4.26942C13.8523 4.26942 13.8523 4.26942 13.8522 4.26942C13.8522 4.26942 13.8522 4.26942 13.8522 4.26942C13.8522 4.26942 13.8522 4.26942 13.8522 4.26942C13.8522 4.26942 13.8522 4.26942 13.8522 4.26942C13.8522 4.26942 13.8522 4.26942 13.8522 4.26942C13.8522 4.26942 13.8522 4.26942 13.8522 4.26942C13.8522 4.26942 13.8522 4.26942 13.8522 4.26942C13.8521 4.26942 13.8521 4.26942 13.8521 4.26942C13.8521 4.26942 13.8521 4.26942 13.8521 4.26942C13.8521 4.26942 13.8521 4.26942 13.8521 4.26942C13.8521 4.26942 13.8521 4.26942 13.8521 4.26942C13.8521 4.26942 13.8521 4.26942 13.8521 4.26942C13.8521 4.26942 13.8521 4.26942 13.8521 4.26942C13.852 4.26942 13.852 4.26942 13.852 4.26942C13.852 4.26942 13.852 4.26942 13.852 4.26942C13.852 4.26942 13.852 4.26942 13.852 4.26942C13.852 4.26942 13.852 4.26942 13.852 4.26942C13.852 4.26942 13.852 4.26942 13.852 4.26942C13.852 4.26942 13.852 4.26942 13.852 4.26942C13.8519 4.26942 13.8519 4.26942 13.8519 4.26942C13.8519 4.26942 13.8519 4.26942 13.8519 4.26942C13.8519 4.26942 13.8519 4.26942 13.8519 4.26942C13.8519 4.26942 13.8519 4.26942 13.8519 4.26942C13.8519 4.26942 13.8519 4.26942 13.8519 4.26942C13.8519 4.26942 13.8519 4.26942 13.8519 4.26942C13.8519 4.26942 13.8518 4.26942 13.8518 4.26942C13.8518 4.26942 13.8518 4.26942 13.8518 4.26942C13.8518 4.26942 13.8518 4.26942 13.8518 4.26942C13.8518 4.26942 13.8518 4.26942 13.8518 4.26942C13.8518 4.26942 13.8518 4.26942 13.8518 4.26942C13.8518 4.26942 13.8518 4.26942 13.8518 4.26942C13.8518 4.26942 13.8517 4.26942 13.8517 4.26942C13.8517 4.26942 13.8517 4.26942 13.8517 4.26942C13.8517 4.26942 13.8517 4.26942 13.8517 4.26942C13.8517 4.26942 13.8517 4.26942 13.8517 4.26942C13.8517 4.26942 13.8517 4.26942 13.8517 4.26942C13.8517 4.26942 13.8517 4.26942 13.8517 4.26942C13.8517 4.26942 13.8517 4.26942 13.8516 4.26942C13.8516 4.26942 13.8516 4.26942 13.8516 4.26942C13.8516 4.26942 13.8516 4.26942 13.8516 4.26942C13.8516 4.26942 13.8516 4.26942 13.8516 4.26942C13.8516 4.26942 13.8516 4.26942 13.8516 4.26942C13.8516 4.26942 13.8516 4.26942 13.8516 4.26942C13.8516 4.26942 13.8516 4.26942 13.8516 4.26942C13.8515 4.26942 13.8515 4.26942 13.8515 4.26942C13.8515 4.26942 13.8515 4.26942 13.8515 4.26942C13.8515 4.26942 13.8515 4.26942 13.8515 4.26942C13.8515 4.26942 13.8515 4.26942 13.8515 4.26942C13.8515 4.26942 13.8515 4.26942 13.8515 4.26942C13.8515 4.26942 13.8515 4.26942 13.8515 4.26942C13.8515 4.26942 13.8514 4.26942 13.8514 4.26942C13.8514 4.26942 13.8514 4.26942 13.8514 4.26942C13.8514 4.26942 13.8514 4.26942 13.8514 4.26942C13.8514 4.26942 13.8514 4.26942 13.8514 4.26942C13.8514 4.26942 13.8514 4.26942 13.8514 4.26942C13.8514 4.26942 13.8514 4.26942 13.8514 4.26942C13.8514 4.26942 13.8514 4.26942 13.8513 4.26942C13.8513 4.26942 13.8513 4.26942 13.8513 4.26942C13.8513 4.26942 13.8513 4.26942 13.8513 4.26942C13.8513 4.26942 13.8513 4.26942 13.8513 4.26942C13.8513 4.26942 13.8513 4.26942 13.8513 4.26942C13.8513 4.26942 13.8513 4.26942 13.8513 4.26942C13.8513 4.26942 13.8513 4.26942 13.8513 4.26942C13.8513 4.26942 13.8512 4.26942 13.8512 4.26942C13.8512 4.26942 13.8512 4.26942 13.8512 4.26942C13.8512 4.26942 13.8512 4.26942 13.8512 4.26942C13.8512 4.26942 13.8512 4.26942 13.8512 4.26942C13.8512 4.26942 13.8512 4.26942 13.8512 4.26942C13.8512 4.26942 13.8512 4.26942 13.8512 4.26942C13.8512 4.26942 13.8512 4.26942 13.8511 4.26942C13.8511 4.26942 13.8511 4.26942 13.8511 4.26942C13.8511 4.26942 13.8511 4.26942 13.8511 4.26942C13.8511 4.26942 13.8511 4.26942 13.8511 4.26942C13.8511 4.26942 13.8511 4.26942 13.8511 4.26942C13.8511 4.26942 13.8511 4.26942 13.8511 4.26942C13.8511 4.26942 13.8511 4.26942 13.8511 4.26942C13.8511 4.26942 13.851 4.26942 13.851 4.26942C13.851 4.26942 13.851 4.26942 13.851 4.26942C13.851 4.26942 13.851 4.26942 13.851 4.26942C13.851 4.26942 13.851 4.26942 13.851 4.26942C13.851 4.26942 13.851 4.26942 13.851 4.26942C13.851 4.26942 13.851 4.26942 13.851 4.26942C13.851 4.26942 13.851 4.26942 13.851 4.26942C13.8509 4.26942 13.8509 4.26942 13.8509 4.26942C13.8509 4.26942 13.8509 4.26942 13.8509 4.26942C13.8509 4.26942 13.8509 4.26942 13.8509 4.26942C13.8509 4.26942 13.8509 4.26942 13.8509 4.26942C13.8509 4.26942 13.8509 4.26942 13.8509 4.26942C13.8509 4.26942 13.8509 4.26942 13.8509 4.26942C13.8509 4.26942 13.8509 4.26942 13.8508 4.26942C13.8508 4.26942 13.8508 4.26942 13.8508 4.26942C13.8508 4.26942 13.8508 4.26942 13.8508 4.26942C13.8508 4.26942 13.8508 4.26942 13.8508 4.26942C13.8508 4.26942 13.8508 4.26942 13.8508 4.26942C13.8508 4.26942 13.8508 4.26942 13.8508 4.26942C13.8508 4.26942 13.8508 4.26942 13.8508 4.26942C13.8508 4.26942 13.8507 4.26942 13.8507 4.26942C13.8507 4.26942 13.8507 4.26942 13.8507 4.26942C13.8507 4.26942 13.8507 4.26942 13.8507 4.26942C13.8507 4.26942 13.8507 4.26942 13.8507 4.26942C13.8507 4.26942 13.8507 4.26942 13.8507 4.26942C13.8507 4.26942 13.8507 4.26942 13.8507 4.26942C13.8507 4.26942 13.8507 4.26942 13.8507 4.26942C13.8506 4.26942 13.8506 4.26942 13.8506 4.26942C13.8506 4.26942 13.8506 4.26942 13.8506 4.26942C13.8506 4.26942 13.8506 4.26942 13.8506 4.26942C13.8506 4.26942 13.8506 4.26942 13.8506 4.26942C13.8506 4.26942 13.8506 4.26942 13.8506 4.26942C13.8506 4.26942 13.8506 4.26942 13.8506 4.26942C13.8506 4.26942 13.8506 4.26942 13.8506 4.26942C13.8505 4.26942 13.8505 4.26942 13.8505 4.26942C13.8505 4.26942 13.8505 4.26942 13.8505 4.26942C13.8505 4.26942 13.8505 4.26942 13.8505 4.26942C13.8505 4.26942 13.8505 4.26942 13.8505 4.26942C13.8505 4.26942 13.8505 4.26942 13.8505 4.26942C13.8505 4.26942 13.8505 4.26942 13.8505 4.26942C13.8505 4.26942 13.8505 4.26942 13.8505 4.26942C13.8504 4.26942 13.8504 4.26942 13.8504 4.26942C13.8504 4.26942 13.8504 4.26942 13.8504 4.26942C13.8504 4.26942 13.8504 4.26942 13.8504 4.26942C13.8504 4.26942 13.8504 4.26942 13.8504 4.26942C13.8504 4.26942 13.8504 4.26942 13.8504 4.26942C13.8504 4.26942 13.8504 4.26942 13.8504 4.26942C13.8504 4.26942 13.8504 4.26942 13.8504 4.26942C13.8503 4.26942 13.8503 4.26942 13.8503 4.26942C13.8503 4.26942 13.8503 4.26942 13.8503 4.26942C13.8503 4.26942 13.8503 4.26942 13.8503 4.26942C13.8503 4.26942 13.8503 4.26942 13.8503 4.26942C13.8503 4.26942 13.8503 4.26942 13.8503 4.26942C13.8503 4.26942 13.8503 4.26942 13.8503 4.26942C13.8503 4.26942 13.8503 4.26942 13.8503 4.26942C13.8502 4.26942 13.8502 4.26942 13.8502 4.26942C13.8502 4.26942 13.8502 4.26942 13.8502 4.26942C13.8502 4.26942 13.8502 4.26942 13.8502 4.26942C13.8502 4.26942 13.8502 4.26942 13.8502 4.26942C13.8502 4.26942 13.8502 4.26942 13.8502 4.26942C13.8502 4.26942 13.8502 4.26942 13.8502 4.26942C13.8502 4.26942 13.8502 4.26942 13.8502 4.26942C13.8502 4.26942 13.8501 4.26942 13.8501 4.26942C13.8501 4.26942 13.8501 4.26942 13.8501 4.26942C13.8501 4.26942 13.8501 4.26942 13.8501 4.26942C13.8501 4.26942 13.8501 4.26942 13.8501 4.26942C13.8501 4.26942 13.8501 4.26942 13.8501 4.26942C13.8501 4.26942 13.8501 4.26942 13.8501 4.26942C13.8501 4.26942 13.8501 4.26942 13.8501 4.26942C13.8501 4.26942 13.8501 4.26942 13.85 4.26942C13.85 4.26942 13.85 4.26942 13.85 4.26942C13.85 4.26942 13.85 4.26942 13.85 4.26942C13.85 4.26942 13.85 4.26942 13.85 4.26942V7.34337ZM13.8586 7.34337C14.2401 7.34337 14.6903 7.43933 15.1501 7.65055L16.4333 4.85722C15.6189 4.48315 14.7329 4.26942 13.8586 4.26942V7.34337ZM15.15 7.65051C14.8672 7.52058 14.7272 7.30375 14.6704 7.15133C14.6125 6.9961 14.6055 6.82502 14.6598 6.6587L17.5819 7.6131C17.8901 6.66957 17.5736 5.38114 16.4333 4.85726L15.15 7.65051ZM14.661 6.65521C14.7169 6.48549 14.8529 6.28233 15.1036 6.15134C15.3668 6.01384 15.7116 5.9867 16.023 6.13116L14.7294 8.91964C16.0532 9.5338 17.2494 8.62283 17.5807 7.61658L14.661 6.65521Z" fill="#F0C777" mask="url(#path-1-inside-1_97_208)"/>
</g>
</g>
<defs>
<filter id="filter0_d_97_208" x="-1.50272" y="-0.341499" width="37.617" height="34.1244" filterUnits="userSpaceOnUse" color-interpolation-filters="sRGB">
<feFlood flood-opacity="0" result="BackgroundImageFix"/>
<feColorMatrix in="SourceAlpha" type="matrix" values="0 0 0 0 0 0 0 0 0 0 0 0 0 0 0 0 0 0 127 0" result="hardAlpha"/>
<feOffset/>
<feGaussianBlur stdDeviation="3.07395"/>
<feColorMatrix type="matrix" values="0 0 0 0 0.941176 0 0 0 0 0.780392 0 0 0 0 0.466667 0 0 0 1 0"/>
<feBlend mode="normal" in2="BackgroundImageFix" result="effect1_dropShadow_97_208"/>
<feBlend mode="normal" in="SourceGraphic" in2="effect1_dropShadow_97_208" result="shape"/>
</filter>
<clipPath id="clip0_97_208">
<rect width="36" height="36" fill="white"/>
</clipPath>
</defs>
</svg>
