<svg width="16" height="15" viewBox="0 0 16 15" fill="none" xmlns="http://www.w3.org/2000/svg">
<path fill-rule="evenodd" clip-rule="evenodd" d="M7.89708 12.7054L4.47552 14.8675C4.11974 15.0922 3.65464 14.977 3.4367 14.61C3.33024 14.4308 3.29851 14.2148 3.34868 14.0111L3.87834 11.8608C4.06953 11.0845 4.58451 10.4357 5.28448 10.089L9.01722 8.24044C9.19124 8.15427 9.26459 7.93889 9.18104 7.7594C9.11338 7.61402 8.96036 7.53268 8.80631 7.56019L4.65129 8.30216C3.80667 8.45299 2.94053 8.21241 2.28353 7.64452L0.970925 6.5099C0.65114 6.23348 0.609151 5.74199 0.877141 5.41215C1.00748 5.25172 1.19491 5.15212 1.39722 5.1358L5.40762 4.81206C5.69095 4.78919 5.93786 4.60425 6.04663 4.33344L7.59377 0.48121C7.75345 0.0836159 8.19538 -0.105176 8.58084 0.0595314C8.76592 0.138617 8.91297 0.290299 8.98965 0.48121L10.5368 4.33344C10.6456 4.60425 10.8925 4.78919 11.1758 4.81206L15.2083 5.13758C15.6242 5.17115 15.935 5.54618 15.9024 5.97523C15.8868 6.18163 15.7921 6.37311 15.6394 6.50742L12.5641 9.21176C12.3475 9.40214 12.2531 9.70182 12.3196 9.98712L13.2651 14.0384C13.3628 14.4568 13.1131 14.8776 12.7075 14.9783C12.5125 15.0268 12.307 14.9932 12.136 14.8852L8.68635 12.7054C8.44417 12.5524 8.13925 12.5524 7.89708 12.7054Z" fill="white"/>
<path fill-rule="evenodd" clip-rule="evenodd" d="M7.89708 12.7054L4.47552 14.8675C4.11974 15.0922 3.65464 14.977 3.4367 14.61C3.33024 14.4308 3.29851 14.2148 3.34868 14.0111L3.87834 11.8608C4.06953 11.0845 4.58451 10.4357 5.28448 10.089L9.01722 8.24044C9.19124 8.15427 9.26459 7.93889 9.18104 7.7594C9.11338 7.61402 8.96036 7.53268 8.80631 7.56019L4.65129 8.30216C3.80667 8.45299 2.94053 8.21241 2.28353 7.64452L0.970925 6.5099C0.65114 6.23348 0.609151 5.74199 0.877141 5.41215C1.00748 5.25172 1.19491 5.15212 1.39722 5.1358L5.40762 4.81206C5.69095 4.78919 5.93786 4.60425 6.04663 4.33344L7.59377 0.48121C7.75345 0.0836159 8.19538 -0.105176 8.58084 0.0595314C8.76592 0.138617 8.91297 0.290299 8.98965 0.48121L10.5368 4.33344C10.6456 4.60425 10.8925 4.78919 11.1758 4.81206L15.2083 5.13758C15.6242 5.17115 15.935 5.54618 15.9024 5.97523C15.8868 6.18163 15.7921 6.37311 15.6394 6.50742L12.5641 9.21176C12.3475 9.40214 12.2531 9.70182 12.3196 9.98712L13.2651 14.0384C13.3628 14.4568 13.1131 14.8776 12.7075 14.9783C12.5125 15.0268 12.307 14.9932 12.136 14.8852L8.68635 12.7054C8.44417 12.5524 8.13925 12.5524 7.89708 12.7054Z" fill="url(#paint0_linear_108_4848)"/>
<path fill-rule="evenodd" clip-rule="evenodd" d="M7.89708 12.7054L4.47552 14.8675C4.11974 15.0922 3.65464 14.977 3.4367 14.61C3.33024 14.4308 3.29851 14.2148 3.34868 14.0111L3.87834 11.8608C4.06953 11.0845 4.58451 10.4357 5.28448 10.089L9.01722 8.24044C9.19124 8.15427 9.26459 7.93889 9.18104 7.7594C9.11338 7.61402 8.96036 7.53268 8.80631 7.56019L4.65129 8.30216C3.80667 8.45299 2.94053 8.21241 2.28353 7.64452L0.970925 6.5099C0.65114 6.23348 0.609151 5.74199 0.877141 5.41215C1.00748 5.25172 1.19491 5.15212 1.39722 5.1358L5.40762 4.81206C5.69095 4.78919 5.93786 4.60425 6.04663 4.33344L7.59377 0.48121C7.75345 0.0836159 8.19538 -0.105176 8.58084 0.0595314C8.76592 0.138617 8.91297 0.290299 8.98965 0.48121L10.5368 4.33344C10.6456 4.60425 10.8925 4.78919 11.1758 4.81206L15.2083 5.13758C15.6242 5.17115 15.935 5.54618 15.9024 5.97523C15.8868 6.18163 15.7921 6.37311 15.6394 6.50742L12.5641 9.21176C12.3475 9.40214 12.2531 9.70182 12.3196 9.98712L13.2651 14.0384C13.3628 14.4568 13.1131 14.8776 12.7075 14.9783C12.5125 15.0268 12.307 14.9932 12.136 14.8852L8.68635 12.7054C8.44417 12.5524 8.13925 12.5524 7.89708 12.7054Z" fill="url(#paint1_linear_108_4848)"/>
<path fill-rule="evenodd" clip-rule="evenodd" d="M7.89708 12.7054L4.47552 14.8675C4.11974 15.0922 3.65464 14.977 3.4367 14.61C3.33024 14.4308 3.29851 14.2148 3.34868 14.0111L3.87834 11.8608C4.06953 11.0845 4.58451 10.4357 5.28448 10.089L9.01722 8.24044C9.19124 8.15427 9.26459 7.93889 9.18104 7.7594C9.11338 7.61402 8.96036 7.53268 8.80631 7.56019L4.65129 8.30216C3.80667 8.45299 2.94053 8.21241 2.28353 7.64452L0.970925 6.5099C0.65114 6.23348 0.609151 5.74199 0.877141 5.41215C1.00748 5.25172 1.19491 5.15212 1.39722 5.1358L5.40762 4.81206C5.69095 4.78919 5.93786 4.60425 6.04663 4.33344L7.59377 0.48121C7.75345 0.0836159 8.19538 -0.105176 8.58084 0.0595314C8.76592 0.138617 8.91297 0.290299 8.98965 0.48121L10.5368 4.33344C10.6456 4.60425 10.8925 4.78919 11.1758 4.81206L15.2083 5.13758C15.6242 5.17115 15.935 5.54618 15.9024 5.97523C15.8868 6.18163 15.7921 6.37311 15.6394 6.50742L12.5641 9.21176C12.3475 9.40214 12.2531 9.70182 12.3196 9.98712L13.2651 14.0384C13.3628 14.4568 13.1131 14.8776 12.7075 14.9783C12.5125 15.0268 12.307 14.9932 12.136 14.8852L8.68635 12.7054C8.44417 12.5524 8.13925 12.5524 7.89708 12.7054Z" fill="url(#paint2_linear_108_4848)"/>
<path fill-rule="evenodd" clip-rule="evenodd" d="M7.89708 12.7054L4.47552 14.8675C4.11974 15.0922 3.65464 14.977 3.4367 14.61C3.33024 14.4308 3.29851 14.2148 3.34868 14.0111L3.87834 11.8608C4.06953 11.0845 4.58451 10.4357 5.28448 10.089L9.01722 8.24044C9.19124 8.15427 9.26459 7.93889 9.18104 7.7594C9.11338 7.61402 8.96036 7.53268 8.80631 7.56019L4.65129 8.30216C3.80667 8.45299 2.94053 8.21241 2.28353 7.64452L0.970925 6.5099C0.65114 6.23348 0.609151 5.74199 0.877141 5.41215C1.00748 5.25172 1.19491 5.15212 1.39722 5.1358L5.40762 4.81206C5.69095 4.78919 5.93786 4.60425 6.04663 4.33344L7.59377 0.48121C7.75345 0.0836159 8.19538 -0.105176 8.58084 0.0595314C8.76592 0.138617 8.91297 0.290299 8.98965 0.48121L10.5368 4.33344C10.6456 4.60425 10.8925 4.78919 11.1758 4.81206L15.2083 5.13758C15.6242 5.17115 15.935 5.54618 15.9024 5.97523C15.8868 6.18163 15.7921 6.37311 15.6394 6.50742L12.5641 9.21176C12.3475 9.40214 12.2531 9.70182 12.3196 9.98712L13.2651 14.0384C13.3628 14.4568 13.1131 14.8776 12.7075 14.9783C12.5125 15.0268 12.307 14.9932 12.136 14.8852L8.68635 12.7054C8.44417 12.5524 8.13925 12.5524 7.89708 12.7054Z" fill="url(#paint3_linear_108_4848)"/>
<defs>
<linearGradient id="paint0_linear_108_4848" x1="5.81184" y1="12.5704" x2="15.3383" y2="3.43418" gradientUnits="userSpaceOnUse">
<stop stop-color="#33CDFF"/>
<stop offset="0.451645" stop-color="#F2FE08"/>
<stop offset="1" stop-color="#F5FDFF"/>
</linearGradient>
<linearGradient id="paint1_linear_108_4848" x1="3.71436" y1="2.32394" x2="13.8904" y2="13.4411" gradientUnits="userSpaceOnUse">
<stop stop-color="#CCE8FE"/>
<stop offset="0.241554" stop-color="#CDA0FF"/>
<stop offset="0.4" stop-color="#8489F5"/>
<stop offset="0.713254" stop-color="#CDF1FF"/>
<stop offset="1" stop-color="#B591E9"/>
</linearGradient>
<linearGradient id="paint2_linear_108_4848" x1="2.72789" y1="2.625" x2="13.2878" y2="13.4552" gradientUnits="userSpaceOnUse">
<stop stop-color="#8C421D"/>
<stop offset="0.325272" stop-color="#FBE67B"/>
<stop offset="0.535488" stop-color="#FCFBE7"/>
<stop offset="0.769917" stop-color="#F7D14E"/>
<stop offset="1" stop-color="#D4A041"/>
</linearGradient>
<linearGradient id="paint3_linear_108_4848" x1="14.8912" y1="2" x2="3.26973" y2="13.9695" gradientUnits="userSpaceOnUse">
<stop stop-color="#C49337"/>
<stop offset="0.275" stop-color="#FCF7CD"/>
<stop offset="0.495" stop-color="#EDCD78"/>
<stop offset="0.63" stop-color="#A7602B"/>
<stop offset="0.825" stop-color="#FDF8D0"/>
<stop offset="1" stop-color="#BB9138"/>
</linearGradient>
</defs>
</svg>
