<svg width="24" height="23" viewBox="0 0 24 23" fill="none" xmlns="http://www.w3.org/2000/svg">
<g filter="url(#filter0_i_2_5260)">
<path fill-rule="evenodd" clip-rule="evenodd" d="M11.3597 19.4817L5.95867 22.7968C5.39707 23.1414 4.66289 22.9647 4.31886 22.4021C4.15082 22.1272 4.10073 21.796 4.17992 21.4837L5.016 18.1865C5.3178 16.9962 6.13071 16.0014 7.23563 15.4698L13.1278 12.6353C13.4025 12.5032 13.5183 12.173 13.3864 11.8977C13.2796 11.6748 13.0381 11.5501 12.7949 11.5923L6.23613 12.73C4.90288 12.9612 3.53564 12.5924 2.49856 11.7216L0.426583 9.98185C-0.0782049 9.558 -0.144486 8.80439 0.278542 8.29864C0.484286 8.05264 0.780151 7.89992 1.0995 7.87489L7.43001 7.3785C7.87725 7.34343 8.267 7.05985 8.4387 6.6446L10.8809 0.737856C11.133 0.128211 11.8306 -0.161269 12.439 0.0912814C12.7312 0.212546 12.9633 0.445125 13.0843 0.737856L15.5265 6.6446C15.6982 7.05985 16.088 7.34343 16.5352 7.3785L22.9006 7.87762C23.5572 7.9291 24.0477 8.50414 23.9963 9.16203C23.9716 9.47849 23.8222 9.77211 23.5811 9.97805L18.7267 14.1247C18.3847 14.4166 18.2358 14.8761 18.3408 15.3136L19.8332 21.5255C19.9874 22.1671 19.5932 22.8123 18.953 22.9668C18.6453 23.0411 18.3208 22.9896 18.0509 22.8239L12.6056 19.4817C12.2233 19.2471 11.7419 19.2471 11.3597 19.4817Z" fill="url(#paint0_linear_2_5260)"/>
</g>
<path d="M10.7582 18.5017L10.7582 18.5016C11.5095 18.0406 12.4557 18.0406 13.207 18.5016L13.2071 18.5017L18.6524 21.8439L18.6526 21.844C18.6622 21.8499 18.6731 21.8515 18.6832 21.849L18.6834 21.849C18.6909 21.8472 18.695 21.8448 18.6981 21.8425C18.7018 21.8398 18.7061 21.8355 18.7097 21.8295C18.7133 21.8235 18.7154 21.8175 18.7162 21.8124C18.717 21.808 18.7172 21.8025 18.7152 21.7941L17.2227 15.5822L17.2227 15.582C17.017 14.7249 17.3085 13.8235 17.98 13.2502L22.8342 9.10381C22.8431 9.09616 22.849 9.08494 22.8499 9.07271L22.8499 9.07249C22.852 9.04538 22.8321 9.02565 22.8107 9.02397L22.9006 7.87762L22.8107 9.02397L16.4453 8.52485C15.5657 8.45588 14.8006 7.89833 14.4639 7.08396L10.7582 18.5017ZM10.7582 18.5017L5.35724 21.8168L10.7582 18.5017ZM13.6263 13.6716L7.73411 16.506C7.73411 16.506 7.7341 16.506 7.73409 16.506C6.93648 16.8897 6.34885 17.6084 6.1306 18.4691L6.1306 18.4691L5.29452 21.7663C5.29452 21.7663 5.29452 21.7663 5.29452 21.7663C5.2914 21.7786 5.29344 21.7917 5.29988 21.8022L13.6263 13.6716ZM13.6263 13.6716C14.4738 13.2639 14.8289 12.247 14.4234 11.4009L14.4234 11.4008C14.0946 10.7147 13.3498 10.329 12.5984 10.4593M13.6263 13.6716L12.5984 10.4593M12.5984 10.4593L6.03961 11.597C5.04057 11.7703 4.01574 11.494 3.23797 10.841C3.23796 10.841 3.23796 10.841 3.23795 10.841L1.16599 9.10124C1.1598 9.09604 1.15688 9.09174 1.15496 9.08798C1.15266 9.08347 1.15071 9.07741 1.15008 9.07021C1.14945 9.06301 1.1503 9.05665 1.15181 9.05171C1.15308 9.04757 1.15526 9.0427 1.16055 9.03637L1.16058 9.03634C1.16821 9.02722 1.17868 9.02208 1.18935 9.02124L1.18939 9.02124L7.5199 8.52485C8.39949 8.45588 9.1646 7.89832 9.50132 7.08397L9.50132 7.08396L11.9435 1.17721L10.8809 0.737856L11.9435 1.1772C11.9533 1.15364 11.9782 1.14501 11.9982 1.1533L12.5984 10.4593ZM12.0217 1.17722L14.4639 7.08393L11.9982 1.1533C12.0083 1.15749 12.017 1.16583 12.0217 1.17721C12.0217 1.17721 12.0217 1.17722 12.0217 1.17722ZM12.9915 12.7252C12.9913 12.7253 12.991 12.7253 12.9908 12.7254L12.9914 12.7252L12.9915 12.7252ZM12.6294 11.5991L12.6286 11.5995C12.6289 11.5994 12.6291 11.5993 12.6294 11.5991L12.6294 11.5991Z" stroke="url(#paint1_linear_2_5260)" stroke-width="2.29974"/>
<defs>
<filter id="filter0_i_2_5260" x="0" y="0" width="24" height="32.199" filterUnits="userSpaceOnUse" color-interpolation-filters="sRGB">
<feFlood flood-opacity="0" result="BackgroundImageFix"/>
<feBlend mode="normal" in="SourceGraphic" in2="BackgroundImageFix" result="shape"/>
<feColorMatrix in="SourceAlpha" type="matrix" values="0 0 0 0 0 0 0 0 0 0 0 0 0 0 0 0 0 0 127 0" result="hardAlpha"/>
<feOffset dy="9.19895"/>
<feGaussianBlur stdDeviation="6.89921"/>
<feComposite in2="hardAlpha" operator="arithmetic" k2="-1" k3="1"/>
<feColorMatrix type="matrix" values="0 0 0 0 1 0 0 0 0 1 0 0 0 0 1 0 0 0 0.6 0"/>
<feBlend mode="normal" in2="shape" result="effect1_innerShadow_2_5260"/>
</filter>
<linearGradient id="paint0_linear_2_5260" x1="19.3" y1="0.958332" x2="1.94424" y2="23.72" gradientUnits="userSpaceOnUse">
<stop stop-color="#FDFFFE"/>
<stop offset="0.23" stop-color="#7ABBAC"/>
<stop offset="0.39" stop-color="#B1FFEF"/>
<stop offset="0.535" stop-color="#8AD2C3"/>
<stop offset="0.745" stop-color="#CFFEF4"/>
<stop offset="0.915" stop-color="#6CA196"/>
<stop offset="1" stop-color="#35544E"/>
</linearGradient>
<linearGradient id="paint1_linear_2_5260" x1="12" y1="0" x2="12" y2="19.6458" gradientUnits="userSpaceOnUse">
<stop stop-color="white" stop-opacity="0.53"/>
<stop offset="1" stop-color="white" stop-opacity="0"/>
</linearGradient>
</defs>
</svg>
