<svg width="26" height="26" viewBox="0 0 26 26" fill="none" xmlns="http://www.w3.org/2000/svg">
<path d="M2.72518e-06 8.567V24.5556C2.72518e-06 24.9386 0.171208 25.306 0.475954 25.5769C0.780701 25.8478 1.19403 26 1.625 26H24.375C24.806 26 25.2193 25.8478 25.524 25.5769C25.8288 25.306 26 24.9386 26 24.5556V8.567C25.9997 8.33075 25.9342 8.09818 25.8093 7.88967C25.6843 7.68115 25.5037 7.50306 25.2834 7.371L13 0L0.716628 7.36667C0.49557 7.49914 0.314575 7.67792 0.189602 7.88725C0.064628 8.09658 -0.000485479 8.33002 2.72518e-06 8.567ZM9.75 15.8889C9.75 15.5058 9.92121 15.1384 10.226 14.8675C10.5307 14.5966 10.944 14.4444 11.375 14.4444H14.625C15.056 14.4444 15.4693 14.5966 15.774 14.8675C16.0788 15.1384 16.25 15.5058 16.25 15.8889V23.1111H9.75V15.8889Z" fill="#4E5C75"/>
</svg>
