<svg width="44" height="35" viewBox="0 0 44 35" fill="none" xmlns="http://www.w3.org/2000/svg">
<path d="M44 13.4226C44 15.7096 41.3707 16.9972 39.564 15.5949L28.0591 6.66495C24.4937 3.89755 19.5063 3.89755 15.9409 6.66495L4.43352 15.5968C2.62785 16.9983 0 15.7115 0 13.4257C0 12.5767 0.392348 11.7754 1.06294 11.2548L8.51117 5.47224C16.4483 -0.689882 27.5522 -0.690515 35.49 5.47071L42.9362 11.2503C43.6073 11.7712 44 12.5731 44 13.4226ZM34.0986 15.1178C36.8693 17.1953 38.5 20.4562 38.5 23.9192V29.42C38.5 32.4576 36.0376 34.92 33 34.92C29.9624 34.92 27.5 32.4576 27.5 29.42C27.5 26.3824 25.0376 23.92 22 23.92C18.9624 23.92 16.5 26.3824 16.5 29.42C16.5 32.4576 14.0376 34.92 11 34.92C7.96243 34.92 5.5 32.4576 5.5 29.42V23.9202C5.5 20.4578 7.13025 17.1974 9.90027 15.1201L12.1018 13.4691C17.9676 9.07007 26.0326 9.06975 31.8988 13.4683L34.0986 15.1178Z" fill="url(#paint0_linear_90_157)"/>
<defs>
<linearGradient id="paint0_linear_90_157" x1="45.375" y1="-5" x2="19.6822" y2="28.0385" gradientUnits="userSpaceOnUse">
<stop offset="0.130247" stop-color="#E67662"/>
<stop offset="0.709916" stop-color="#F0C777"/>
</linearGradient>
</defs>
</svg>
