<svg width="37" height="37" viewBox="0 0 37 37" fill="none" xmlns="http://www.w3.org/2000/svg">
<path d="M35.927 1.04005C34.5488 -0.346286 32.1314 -0.346865 30.7495 1.0394L26.878 4.91386C25.6749 6.11871 25.4986 7.95561 26.3243 9.36047L22.2814 13.4071C20.8877 12.6177 19.005 12.7912 17.8463 13.9541L13.9749 17.8285C12.7711 19.034 12.5954 20.8703 13.4217 22.2751L9.37885 26.3218C7.98333 25.5324 6.10435 25.707 4.94376 26.8687L1.07293 30.7432C0.381129 31.435 0 32.3553 0 33.3355C0 34.3144 0.381129 35.2354 1.073 35.9266C1.76306 36.6192 2.6825 37 3.66177 37C4.64104 37 5.56048 36.6192 6.25054 35.9266L10.122 32.0522C11.3257 30.8467 11.5014 29.0104 10.6751 27.6056L14.71 23.5669C15.2674 23.8971 15.8989 24.0861 16.5643 24.0861C17.5417 24.0861 18.4612 23.7046 19.1531 23.0121L23.0227 19.1376C23.7145 18.4457 24.0957 17.5254 24.0957 16.5464C24.0957 15.881 23.907 15.249 23.5777 14.691L27.6126 10.6523C28.17 10.982 28.8015 11.1708 29.4669 11.1708C30.4443 11.1708 31.3638 10.79 32.0557 10.0975L35.9253 6.22302C36.6189 5.53108 37 4.61078 37 3.63182C37 2.65164 36.6189 1.73069 35.927 1.04005ZM8.8146 30.743L4.94319 34.6175C4.26056 35.3026 3.06421 35.3026 2.38159 34.6175C2.03811 34.2749 1.85 33.8188 1.85 33.3355C1.85 32.8509 2.03811 32.3954 2.38094 32.0522L6.25054 28.1777C6.59402 27.8352 7.04915 27.6463 7.53319 27.6463C7.68487 27.6463 7.82485 27.6963 7.96794 27.7327L7.53196 28.1691C7.17554 28.5259 7.17554 29.1036 7.53196 29.4604C7.88837 29.8172 8.46556 29.8172 8.82204 29.4604L9.25867 29.0234C9.40913 29.6215 9.28086 30.2763 8.8146 30.743ZM21.7159 17.8278L17.8463 21.7022C17.3961 22.1516 16.7375 22.2751 16.1399 22.1368L16.5648 21.7115C16.9212 21.3548 16.9212 20.777 16.5648 20.4202C16.2084 20.0635 15.6312 20.0635 15.2747 20.4202L14.8381 20.8573C14.6889 20.2591 14.8165 19.6042 15.2827 19.1376L19.1541 15.2631C19.4957 14.9206 19.9509 14.7323 20.435 14.7323C20.5873 14.7323 20.7273 14.7823 20.871 14.8181L20.4356 15.2539C20.0791 15.6106 20.0791 16.1884 20.4356 16.5452C20.792 16.9019 21.3692 16.9019 21.7256 16.5452L22.1616 16.1094C22.1967 16.2532 22.2468 16.3933 22.2468 16.5458C22.2469 17.0297 22.0588 17.4852 21.7159 17.8278ZM34.6191 4.91386L30.7495 8.78831C30.2993 9.23707 29.64 9.3617 29.0419 9.22289L29.4674 8.79699C29.8238 8.44025 29.8238 7.86252 29.4674 7.5057C29.111 7.14888 28.5338 7.14895 28.1773 7.5057L27.7407 7.94274C27.5914 7.34461 27.7197 6.69036 28.1859 6.22374L32.0573 2.34928C32.3989 2.00671 32.854 1.81785 33.3382 1.81785C33.8223 1.81785 34.2773 2.00671 34.619 2.34928C34.9619 2.6912 35.1499 3.14676 35.1499 3.6319C35.15 4.11515 34.9619 4.57129 34.6191 4.91386Z" fill="black"/>
<path d="M1.073 1.04005C2.45125 -0.346286 4.86861 -0.346865 6.25054 1.0394L10.122 4.91386C11.3251 6.11871 11.5014 7.95561 10.6757 9.36047L14.7186 13.4071C16.1123 12.6177 17.995 12.7912 19.1537 13.9541L23.0251 17.8285C24.2289 19.034 24.4046 20.8703 23.5783 22.2751L27.6212 26.3218C29.0167 25.5324 30.8957 25.707 32.0562 26.8687L35.9271 30.7432C36.6189 31.435 37 32.3553 37 33.3355C37 34.3144 36.6189 35.2354 35.927 35.9266C35.2369 36.6192 34.3175 37 33.3382 37C32.359 37 31.4395 36.6192 30.7495 35.9266L26.878 32.0522C25.6743 30.8467 25.4986 29.0104 26.3249 27.6056L22.29 23.5669C21.7326 23.8971 21.1011 24.0861 20.4357 24.0861C19.4583 24.0861 18.5388 23.7046 17.8469 23.0121L13.9773 19.1376C13.2855 18.4457 12.9043 17.5254 12.9043 16.5464C12.9043 15.881 13.093 15.249 13.4223 14.691L9.38745 10.6523C8.82999 10.982 8.19854 11.1708 7.53311 11.1708C6.55572 11.1708 5.63621 10.79 4.94434 10.0975L1.07474 6.22302C0.38113 5.53108 0 4.61078 0 3.63182C0 2.65164 0.381128 1.73069 1.073 1.04005ZM28.1854 30.743L32.0568 34.6175C32.7394 35.3026 33.9358 35.3026 34.6184 34.6175C34.9619 34.2749 35.15 33.8188 35.15 33.3355C35.15 32.8509 34.9619 32.3954 34.6191 32.0522L30.7495 28.1777C30.406 27.8352 29.9508 27.6463 29.4668 27.6463C29.3151 27.6463 29.1752 27.6963 29.0321 27.7327L29.468 28.1691C29.8245 28.5259 29.8245 29.1036 29.468 29.4604C29.1116 29.8172 28.5344 29.8172 28.178 29.4604L27.7413 29.0234C27.5909 29.6215 27.7191 30.2763 28.1854 30.743ZM15.2841 17.8278L19.1537 21.7022C19.6039 22.1516 20.2625 22.2751 20.8601 22.1368L20.4352 21.7115C20.0788 21.3548 20.0788 20.777 20.4352 20.4202C20.7916 20.0635 21.3688 20.0635 21.7253 20.4202L22.1619 20.8573C22.3111 20.2591 22.1835 19.6042 21.7173 19.1376L17.8459 15.2631C17.5043 14.9206 17.0491 14.7323 16.565 14.7323C16.4127 14.7323 16.2727 14.7823 16.129 14.8181L16.5644 15.2539C16.9209 15.6106 16.9209 16.1884 16.5644 16.5452C16.208 16.9019 15.6308 16.9019 15.2744 16.5452L14.8384 16.1094C14.8033 16.2532 14.7532 16.3933 14.7532 16.5458C14.7531 17.0297 14.9412 17.4852 15.2841 17.8278ZM2.38093 4.91386L6.25054 8.78831C6.70068 9.23707 7.35996 9.3617 7.95811 9.22289L7.53261 8.79699C7.17619 8.44025 7.17619 7.86252 7.53261 7.5057C7.88902 7.14888 8.46621 7.14895 8.82269 7.5057L9.25932 7.94274C9.40855 7.34461 9.28028 6.69036 8.81409 6.22374L4.94268 2.34928C4.60108 2.00671 4.14595 1.81785 3.66184 1.81785C3.17774 1.81785 2.72268 2.00671 2.38101 2.34928C2.03811 2.6912 1.85007 3.14676 1.85007 3.6319C1.85 4.11515 2.03811 4.57129 2.38093 4.91386Z" fill="black"/>
<path d="M25.8786 13.5466H11.3053C10.9833 13.5466 10.6744 13.6746 10.4466 13.9023C10.2189 14.1301 10.0909 14.439 10.0909 14.7611V18.4044C10.0904 19.5425 10.3184 20.6692 10.7615 21.7176C11.2046 22.766 11.8537 23.7147 12.6703 24.5075C13.4869 25.3003 14.4544 25.9211 15.5154 26.333C16.5764 26.7449 17.7093 26.9395 18.847 26.9054C21.0987 26.7802 23.2147 25.7886 24.7518 24.1384C26.2889 22.4881 27.1278 20.3071 27.093 18.0522V14.7611C27.093 14.439 26.965 14.1301 26.7373 13.9023C26.5095 13.6746 26.2006 13.5466 25.8786 13.5466Z" fill="#2CA9BC"/>
<path d="M18.5312 19.6184H18.6527" stroke="black" stroke-width="2" stroke-linecap="round" stroke-linejoin="round"/>
<path d="M18.5919 22.0475V20.8331M24.6641 11.1176C24.6641 9.50714 24.0244 7.96266 22.8856 6.82391C21.7469 5.68515 20.2024 5.04541 18.5919 5.04541C16.9815 5.04541 15.437 5.68515 14.2983 6.82391C13.1595 7.96266 12.5198 9.50714 12.5198 11.1176V13.5464H24.6641V11.1176ZM27.093 14.7609V18.052C27.1278 20.3069 26.2889 22.4879 24.7518 24.1382C23.2147 25.7885 21.0987 26.78 18.847 26.9052C17.7093 26.9394 16.5764 26.7447 15.5154 26.3328C14.4544 25.9209 13.4869 25.3001 12.6703 24.5073C11.8537 23.7145 11.2046 22.7658 10.7615 21.7174C10.3184 20.669 10.0904 19.5423 10.0909 18.4042V14.7609C10.0909 14.4388 10.2189 14.1299 10.4466 13.9021C10.6744 13.6744 10.9833 13.5464 11.3053 13.5464H25.8786C26.2006 13.5464 26.5095 13.6744 26.7373 13.9021C26.965 14.1299 27.093 14.4388 27.093 14.7609Z" stroke="black" stroke-linecap="round" stroke-linejoin="round"/>
</svg>
