<svg width="43" height="39" viewBox="0 0 43 39" fill="none" xmlns="http://www.w3.org/2000/svg">
<g filter="url(#filter0_d_90_176)">
<path d="M21.2636 12.4187L21.6108 12.531L21.9173 12.3328L28.75 7.91512L35.2315 12.1058V29.0255L29.1673 25.1047L28.75 24.8349L28.3327 25.1047L21.3892 29.594L14.4864 27.3625L14.1743 27.2616L13.8855 27.4172L7.76849 30.713V13.7089L14.3257 10.1759L21.2636 12.4187ZM29.6562 21.831C30.4694 21.831 31.331 21.2412 31.331 20.2812V14.0312C31.331 13.0725 30.4699 12.4815 29.6562 12.4815C28.8426 12.4815 27.9815 13.0725 27.9815 14.0312V20.2812C27.9815 21.2412 28.8431 21.831 29.6562 21.831ZM22.4062 24.1747C23.2194 24.1747 24.081 23.585 24.081 22.625V17.9375C24.081 16.9787 23.2199 16.3878 22.4062 16.3878C21.5926 16.3878 20.7315 16.9787 20.7315 17.9375V22.625C20.7315 23.585 21.5931 24.1747 22.4062 24.1747ZM15.1562 24.956C15.9694 24.956 16.831 24.3662 16.831 23.4062V15.5938C16.831 14.635 15.9699 14.044 15.1562 14.044C14.3426 14.044 13.4815 14.635 13.4815 15.5938V23.4062C13.4815 24.3662 14.3431 24.956 15.1562 24.956Z" stroke="#F0C777" stroke-width="1.53697"/>
</g>
<defs>
<filter id="filter0_d_90_176" x="0.852104" y="0.852104" width="41.2958" height="37.2958" filterUnits="userSpaceOnUse" color-interpolation-filters="sRGB">
<feFlood flood-opacity="0" result="BackgroundImageFix"/>
<feColorMatrix in="SourceAlpha" type="matrix" values="0 0 0 0 0 0 0 0 0 0 0 0 0 0 0 0 0 0 127 0" result="hardAlpha"/>
<feOffset/>
<feGaussianBlur stdDeviation="3.07395"/>
<feColorMatrix type="matrix" values="0 0 0 0 0.941176 0 0 0 0 0.780392 0 0 0 0 0.466667 0 0 0 1 0"/>
<feBlend mode="normal" in2="BackgroundImageFix" result="effect1_dropShadow_90_176"/>
<feBlend mode="normal" in="SourceGraphic" in2="effect1_dropShadow_90_176" result="shape"/>
</filter>
</defs>
</svg>
