<svg width="29" height="25" viewBox="0 0 29 25" fill="none" xmlns="http://www.w3.org/2000/svg">
<g clip-path="url(#clip0_3_245)">
<path fill-rule="evenodd" clip-rule="evenodd" d="M23.5625 13.2812C23.5625 13.7133 23.1565 14.0625 22.6562 14.0625C22.156 14.0625 21.75 13.7133 21.75 13.2812V7.03125C21.75 6.6 22.156 6.25 22.6562 6.25C23.1565 6.25 23.5625 6.6 23.5625 7.03125V13.2812ZM16.3125 15.625C16.3125 16.057 15.9065 16.4062 15.4062 16.4062C14.906 16.4062 14.5 16.057 14.5 15.625V10.9375C14.5 10.5063 14.906 10.1562 15.4062 10.1562C15.9065 10.1562 16.3125 10.5063 16.3125 10.9375V15.625ZM9.0625 16.4062C9.0625 16.8383 8.6565 17.1875 8.15625 17.1875C7.656 17.1875 7.25 16.8383 7.25 16.4062V8.59375C7.25 8.1625 7.656 7.8125 8.15625 7.8125C8.6565 7.8125 9.0625 8.1625 9.0625 8.59375V16.4062ZM21.75 0L14.5 4.6875L7.25 2.34375L0 6.25V25L7.25 21.0938L14.5 23.4375L21.75 18.75L29 23.4375V4.6875L21.75 0Z" fill="#D9D9D9"/>
</g>
<defs>
<clipPath id="clip0_3_245">
<rect width="29" height="25" fill="white"/>
</clipPath>
</defs>
</svg>
