<svg width="28" height="28" viewBox="0 0 28 28" fill="none" xmlns="http://www.w3.org/2000/svg">
<path fill-rule="evenodd" clip-rule="evenodd" d="M26.8088 2.00757e-06H18.6667C18.0052 0.00116867 17.5012 0.535502 17.5 1.16667C17.4988 1.79784 18.0052 2.3345 18.6667 2.33334L23.7942 2.29602L21.2789 4.69465C22.1317 4.79732 22.8445 5.35036 23.1583 6.11802L25.6328 3.75899L25.6667 9.33334C25.6655 9.9645 26.1718 10.5012 26.8333 10.5C27.4948 10.4988 27.9988 9.9645 28 9.33334V1.13747C28.0012 0.506307 27.4703 -0.00116466 26.8088 2.00757e-06ZM6.19268 20.692C5.72602 20.2475 5.72602 19.5277 6.19268 19.0832L21.2789 4.69465L21 4.66667H2.33333C1.04533 4.66667 0 5.712 0 7V25.6667C0 26.9547 1.04533 28 2.33333 28H21C22.288 28 23.3333 26.9547 23.3333 25.6667V7C23.3333 6.68734 23.2692 6.39103 23.1583 6.11802L7.87849 20.692C7.41299 21.1365 6.65702 21.1365 6.19268 20.692Z" fill="black"/>
</svg>
