<svg width="32" height="32" viewBox="0 0 32 32" fill="none" xmlns="http://www.w3.org/2000/svg">
<path d="M30.0769 31.1111H1.74361C1.22227 31.1111 0.799164 30.688 0.799164 30.1667C0.799164 29.6453 1.22227 29.2222 1.74361 29.2222H30.0769C30.5983 29.2222 31.0214 29.6453 31.0214 30.1667C31.0214 30.688 30.5983 31.1111 30.0769 31.1111Z" fill="#D9D9D9"/>
<path d="M9.95084 24.0599C9.95084 25.8675 8.48506 27.3333 6.6774 27.3333H4.25159C2.44393 27.3333 0.978149 25.8675 0.978149 24.0599V14.5512C0.978622 12.7435 2.4444 11.2778 4.25207 11.2778H6.67787C8.48554 11.2778 9.95131 12.7435 9.95131 14.5512L9.95084 24.0599ZM8.06195 14.5512C8.06195 13.7867 7.44193 13.1667 6.6774 13.1667H4.25159C3.48707 13.1667 2.86704 13.7867 2.86704 14.5512V24.0604C2.86751 24.8249 3.48754 25.4444 4.25207 25.4444H6.67787C7.4424 25.4444 8.06243 24.8244 8.06243 24.0599L8.06195 14.5512Z" fill="#D9D9D9"/>
<path d="M20.8119 24.0599C20.8119 25.8675 19.3461 27.3333 17.5385 27.3333H15.1127C13.305 27.3333 11.8392 25.8675 11.8392 24.0599V9.35677C11.8392 7.54911 13.305 6.08333 15.1127 6.08333H17.5385C19.3461 6.08333 20.8119 7.54911 20.8119 9.35677V24.0599ZM18.923 9.35677C18.923 8.59224 18.303 7.97222 17.5385 7.97222H15.1127C14.3481 7.97222 13.7281 8.59224 13.7281 9.35677V24.0604C13.7281 24.8249 14.3481 25.4449 15.1127 25.4449H17.5385C18.303 25.4449 18.923 24.8249 18.923 24.0604V9.35677Z" fill="#D9D9D9"/>
<path d="M25.4445 7.97221C25.1833 7.97221 25.062 7.76113 25.062 7.49999V4.64871C25.062 3.72221 25.8227 3.72221 26.132 3.72221H27.2436C27.5043 3.72221 27.7158 3.9333 27.7158 4.19444C27.7158 4.45557 27.5043 4.66666 27.2436 4.66666H26.132C25.9733 4.66666 25.8813 4.67421 25.8279 4.68319L25.8718 7.49999C25.8718 7.76113 25.7051 7.97221 25.4445 7.97221Z" fill="#D9D9D9"/>
<path d="M25.3547 9.00166C25.2315 9.00166 25.1087 8.94971 25.0195 8.86471C24.934 8.77546 24.8825 8.65221 24.8825 8.52944C24.8825 8.40666 24.934 8.28388 25.0195 8.19416C25.1989 8.01471 25.5153 8.01944 25.69 8.19416C25.775 8.28388 25.827 8.40194 25.827 8.52944C25.827 8.65221 25.775 8.77546 25.69 8.86471C25.5998 8.94924 25.477 9.00166 25.3547 9.00166Z" fill="#D9D9D9"/>
<path d="M31.2008 24.0599C31.2008 25.8675 29.7351 27.3333 27.9274 27.3333H25.5016C23.6939 27.3333 22.2281 25.8675 22.2281 24.0599V4.16233C22.2286 2.35466 23.6944 0.888885 25.5021 0.888885H27.9279C29.7355 0.888885 31.2013 2.35466 31.2013 4.16233L31.2008 24.0599ZM29.312 4.16233C29.312 3.3978 28.6924 2.77777 27.9279 2.77777H25.5021C24.7375 2.77777 24.1175 3.3978 24.1175 4.16233V24.0604C24.1175 24.8249 24.7375 25.4449 25.5021 25.4449H27.9279C28.6924 25.4449 29.3124 24.8249 29.3124 24.0604L29.312 4.16233Z" fill="#D9D9D9"/>
</svg>
