<svg width="29" height="29" viewBox="0 0 29 29" fill="none" xmlns="http://www.w3.org/2000/svg">
<path d="M26.5068 27.3889H2.34016C1.8955 27.3889 1.53461 27.0281 1.53461 26.5834C1.53461 26.1387 1.8955 25.7778 2.34016 25.7778H26.5068C26.9515 25.7778 27.3124 26.1387 27.3124 26.5834C27.3124 27.0281 26.9515 27.3889 26.5068 27.3889Z" fill="#DEDEDE"/>
<path d="M9.34044 21.3746C9.34044 22.9164 8.09021 24.1666 6.54838 24.1666H4.47931C2.93748 24.1666 1.68726 22.9164 1.68726 21.3746V13.2642C1.68766 11.7224 2.93788 10.4722 4.47971 10.4722H6.54878C8.09062 10.4722 9.34084 11.7224 9.34084 13.2642L9.34044 21.3746ZM7.72933 13.2642C7.72933 12.6121 7.20048 12.0833 6.54838 12.0833H4.47931C3.82721 12.0833 3.29837 12.6121 3.29837 13.2642V21.375C3.29877 22.0271 3.82762 22.5555 4.47971 22.5555H6.54878C7.20088 22.5555 7.72973 22.0267 7.72973 21.3746L7.72933 13.2642Z" fill="#DEDEDE"/>
<path d="M18.6044 21.3747C18.6044 22.9165 17.3541 24.1667 15.8123 24.1667H13.7432C12.2014 24.1667 10.9512 22.9165 10.9512 21.3747V8.8338C10.9512 7.29197 12.2014 6.04175 13.7432 6.04175H15.8123C17.3541 6.04175 18.6044 7.29197 18.6044 8.8338V21.3747ZM16.9932 8.8338C16.9932 8.18171 16.4644 7.65286 15.8123 7.65286H13.7432C13.0911 7.65286 12.5623 8.18171 12.5623 8.8338V21.3751C12.5623 22.0272 13.0911 22.556 13.7432 22.556H15.8123C16.4644 22.556 16.9932 22.0272 16.9932 21.3751V8.8338Z" fill="#DEDEDE"/>
<path d="M22.5556 7.65283C22.3329 7.65283 22.2294 7.47279 22.2294 7.25005V4.81808C22.2294 4.02783 22.8782 4.02783 23.1421 4.02783H24.0902C24.3125 4.02783 24.493 4.20787 24.493 4.43061C24.493 4.65335 24.3125 4.83339 24.0902 4.83339H23.1421C23.0067 4.83339 22.9282 4.83983 22.8827 4.84748L22.9201 7.25005C22.9201 7.47279 22.778 7.65283 22.5556 7.65283Z" fill="#DEDEDE"/>
<path d="M22.4791 8.5308C22.3739 8.5308 22.2692 8.48649 22.1931 8.41399C22.1202 8.33787 22.0763 8.23274 22.0763 8.12802C22.0763 8.0233 22.1202 7.91857 22.1931 7.84205C22.3462 7.68899 22.616 7.69302 22.765 7.84205C22.8375 7.91857 22.8818 8.01927 22.8818 8.12802C22.8818 8.23274 22.8375 8.33787 22.765 8.41399C22.6881 8.48609 22.5834 8.5308 22.4791 8.5308Z" fill="#DEDEDE"/>
<path d="M27.4654 21.3746C27.4654 22.9164 26.2152 24.1666 24.6734 24.1666H22.6043C21.0625 24.1666 19.8123 22.9164 19.8123 21.3746V4.40314C19.8127 2.86131 21.0629 1.61108 22.6047 1.61108H24.6738C26.2156 1.61108 27.4658 2.86131 27.4658 4.40314L27.4654 21.3746ZM25.8543 4.40314C25.8543 3.75104 25.3259 3.2222 24.6738 3.2222H22.6047C21.9526 3.2222 21.4238 3.75104 21.4238 4.40314V21.375C21.4238 22.0271 21.9526 22.5559 22.6047 22.5559H24.6738C25.3259 22.5559 25.8547 22.0271 25.8547 21.375L25.8543 4.40314Z" fill="#DEDEDE"/>
</svg>
