<svg width="44" height="44" viewBox="0 0 44 44" fill="none" xmlns="http://www.w3.org/2000/svg">
<g filter="url(#filter0_d_90_160)">
<path d="M36.0769 36.3427H7.74361C7.6467 36.3427 7.56765 36.2636 7.56765 36.1667C7.56765 36.0698 7.6467 35.9908 7.74361 35.9908H36.0769C36.1738 35.9908 36.2529 36.0698 36.2529 36.1667C36.2529 36.2636 36.1738 36.3427 36.0769 36.3427Z" stroke="#F0C777" stroke-width="1.53697"/>
<path d="M15.1823 30.0599V30.0599C15.1823 31.4432 14.0606 32.5649 12.6774 32.5649H10.2516C8.86834 32.5649 7.74662 31.4432 7.74662 30.0599V20.5515C7.74662 20.5514 7.74662 20.5513 7.74662 20.5513C7.74709 19.1679 8.86892 18.0463 10.2521 18.0463H12.6779C14.0611 18.0463 15.1828 19.168 15.1828 20.5512C15.1828 20.5513 15.1828 20.5513 15.1828 20.5513L15.1823 30.0599ZM8.09854 30.0604L8.09854 30.0609C8.09927 31.2497 9.06335 32.213 10.2521 32.213H12.6779C13.8668 32.213 14.8309 31.2489 14.8309 30.0599V30.0599L14.8304 20.5513C14.8304 20.5513 14.8304 20.5513 14.8304 20.5512C14.8304 19.3623 13.8663 18.3982 12.6774 18.3982H10.2516C9.06263 18.3982 8.09854 19.3623 8.09854 20.5513L8.09854 30.0604Z" stroke="#F0C777" stroke-width="1.53697"/>
<path d="M26.0435 30.0599C26.0435 31.4432 24.9217 32.5649 23.5385 32.5649H21.1127C19.7294 32.5649 18.6077 31.4432 18.6077 30.0599V15.3568C18.6077 13.9736 19.7294 12.8519 21.1127 12.8519H23.5385C24.9217 12.8519 26.0435 13.9736 26.0435 15.3568V30.0599ZM25.6915 15.3568C25.6915 14.1679 24.7274 13.2038 23.5385 13.2038H21.1127C19.9237 13.2038 18.9597 14.1679 18.9597 15.3568V30.0604C18.9597 31.2494 19.9237 32.2134 21.1127 32.2134H23.5385C24.7274 32.2134 25.6915 31.2494 25.6915 30.0604V15.3568Z" stroke="#F0C777" stroke-width="1.53697"/>
<path d="M36.4323 30.0599C36.4323 31.4432 35.3106 32.5649 33.9274 32.5649H31.5016C30.1183 32.5649 28.9966 31.4432 28.9966 30.0599V10.1626C28.9966 10.1625 28.9966 10.1624 28.9966 10.1624C28.9971 8.77901 30.1189 7.6574 31.5021 7.6574H33.9279C35.3111 7.6574 36.4328 8.77911 36.4328 10.1623C36.4328 10.1623 36.4328 10.1624 36.4328 10.1624L36.4323 30.0599ZM36.0804 10.1623C36.0804 8.97374 35.1171 8.00932 33.9279 8.00932H31.5021C30.3131 8.00932 29.349 8.97341 29.349 10.1624V30.0604C29.349 31.2493 30.3131 32.2134 31.5021 32.2134H33.9279C35.1168 32.2134 36.0809 31.2493 36.0809 30.0604L36.0804 10.1624C36.0804 10.1624 36.0804 10.1623 36.0804 10.1623Z" stroke="#F0C777" stroke-width="1.53697"/>
</g>
<defs>
<filter id="filter0_d_90_160" x="0.651268" y="0.74102" width="42.6979" height="42.5181" filterUnits="userSpaceOnUse" color-interpolation-filters="sRGB">
<feFlood flood-opacity="0" result="BackgroundImageFix"/>
<feColorMatrix in="SourceAlpha" type="matrix" values="0 0 0 0 0 0 0 0 0 0 0 0 0 0 0 0 0 0 127 0" result="hardAlpha"/>
<feOffset/>
<feGaussianBlur stdDeviation="3.07395"/>
<feColorMatrix type="matrix" values="0 0 0 0 0.941176 0 0 0 0 0.780392 0 0 0 0 0.466667 0 0 0 1 0"/>
<feBlend mode="normal" in2="BackgroundImageFix" result="effect1_dropShadow_90_160"/>
<feBlend mode="normal" in="SourceGraphic" in2="effect1_dropShadow_90_160" result="shape"/>
</filter>
</defs>
</svg>
