<svg width="50" height="50" viewBox="0 0 50 50" fill="none" xmlns="http://www.w3.org/2000/svg">
<path d="M48.5 25C48.5 37.9787 37.9787 48.5 25 48.5C12.0213 48.5 1.5 37.9787 1.5 25C1.5 12.0213 12.0213 1.5 25 1.5C37.9787 1.5 48.5 12.0213 48.5 25Z" fill="url(#paint0_radial_174_2295)" stroke="#F0C777" stroke-width="3"/>
<path fill-rule="evenodd" clip-rule="evenodd" d="M25.793 41.3666C25.6149 41.4376 25.4199 41.4768 25.2154 41.4768C24.8126 41.4768 24.4464 41.3248 24.1744 41.0766C24.1616 41.0649 24.149 41.053 24.1366 41.0409L15.9765 33.1208C15.3828 32.5446 15.3828 31.6103 15.9765 31.0341C16.5701 30.4579 17.5327 30.4579 18.1263 31.0341C20.208 33.0545 23.6952 31.5795 23.6952 28.6786V20.984C23.6952 20.1691 24.3758 19.5085 25.2154 19.5085C26.055 19.5085 26.7356 20.1691 26.7356 20.984L26.7356 28.6786C26.7356 31.5795 30.2228 33.0546 32.3045 31.0341C32.8981 30.4579 33.8607 30.4579 34.4543 31.0341C35.048 31.6103 35.048 32.5446 34.4543 33.1208L26.2903 41.0446C26.1434 41.1872 25.9739 41.2945 25.793 41.3666ZM10.5202 22.4595C11.3598 22.4595 12.0404 21.7989 12.0404 20.984V14.6449C12.0404 14.1956 12.2243 13.7647 12.5516 13.447C12.8789 13.1293 13.3229 12.9509 13.7858 12.9509L36.645 12.9509C37.1079 12.9509 37.5518 13.1293 37.8792 13.447C38.2065 13.7647 38.3904 14.1956 38.3904 14.6449V20.984C38.3904 21.7989 39.071 22.4595 39.9106 22.4595C40.7502 22.4595 41.4308 21.7989 41.4308 20.984V14.6449C41.4308 13.413 40.9265 12.2315 40.029 11.3604C39.1315 10.4893 37.9142 9.9999 36.645 9.9999L13.7858 9.9999C12.5165 9.9999 11.2992 10.4893 10.4017 11.3604C9.50422 12.2315 9 13.413 9 14.6449L9 20.984C9 21.7989 9.68061 22.4595 10.5202 22.4595Z" fill="url(#paint1_linear_174_2295)"/>
<defs>
<radialGradient id="paint0_radial_174_2295" cx="0" cy="0" r="1" gradientUnits="userSpaceOnUse" gradientTransform="translate(49.5614 28.9474) rotate(85.9421) scale(23.8625)">
<stop offset="0.5" stop-color="#242320"/>
<stop offset="1" stop-color="#161615"/>
</radialGradient>
<linearGradient id="paint1_linear_174_2295" x1="9" y1="25.7384" x2="41.4308" y2="25.7384" gradientUnits="userSpaceOnUse">
<stop stop-color="#F0C877"/>
<stop offset="0.5" stop-color="#F9DC76"/>
<stop offset="1" stop-color="#FDCB6A"/>
</linearGradient>
</defs>
</svg>
