<svg width="50" height="50" viewBox="0 0 50 50" fill="none" xmlns="http://www.w3.org/2000/svg">
<circle cx="25" cy="25" r="23.5" fill="url(#paint0_radial_174_2296)" stroke="#F0C777" stroke-width="3"/>
<path fill-rule="evenodd" clip-rule="evenodd" d="M25.793 8.11024C25.6149 8.03919 25.4199 8 25.2154 8C24.8126 8 24.4464 8.15203 24.1744 8.4002C24.1616 8.41188 24.149 8.42377 24.1366 8.43587L15.9765 16.356C15.3828 16.9322 15.3828 17.8665 15.9765 18.4427C16.5701 19.0189 17.5327 19.0189 18.1263 18.4427C20.208 16.4223 23.6952 17.8973 23.6952 20.7982V28.4928C23.6952 29.3077 24.3758 29.9683 25.2154 29.9683C26.055 29.9683 26.7356 29.3077 26.7356 28.4928V20.7982C26.7356 17.8973 30.2228 16.4222 32.3045 18.4427C32.8981 19.0189 33.8607 19.0189 34.4543 18.4427C35.048 17.8665 35.048 16.9322 34.4543 16.356L26.2903 8.43216C26.1434 8.28957 25.9739 8.18226 25.793 8.11024ZM10.5202 27.0173C11.3598 27.0173 12.0404 27.6779 12.0404 28.4928V34.8319C12.0404 35.2812 12.2243 35.7121 12.5516 36.0298C12.8789 36.3475 13.3229 36.5259 13.7858 36.5259H36.645C37.1079 36.5259 37.5518 36.3475 37.8792 36.0298C38.2065 35.7121 38.3904 35.2812 38.3904 34.8319V28.4928C38.3904 27.6779 39.071 27.0173 39.9106 27.0173C40.7502 27.0173 41.4308 27.6779 41.4308 28.4928V34.8319C41.4308 36.0638 40.9265 37.2453 40.029 38.1164C39.1315 38.9875 37.9142 39.4769 36.645 39.4769H13.7858C12.5165 39.4769 11.2992 38.9875 10.4017 38.1164C9.50422 37.2453 9 36.0638 9 34.8319V28.4928C9 27.6779 9.68061 27.0173 10.5202 27.0173Z" fill="url(#paint1_linear_174_2296)"/>
<defs>
<radialGradient id="paint0_radial_174_2296" cx="0" cy="0" r="1" gradientUnits="userSpaceOnUse" gradientTransform="translate(24.5614 28.9474) rotate(85.9421) scale(23.8625)">
<stop offset="0.5" stop-color="#242320"/>
<stop offset="1" stop-color="#161615"/>
</radialGradient>
<linearGradient id="paint1_linear_174_2296" x1="9" y1="23.7385" x2="41.4308" y2="23.7385" gradientUnits="userSpaceOnUse">
<stop stop-color="#F0C877"/>
<stop offset="0.5" stop-color="#F9DC76"/>
<stop offset="1" stop-color="#FDCB6A"/>
</linearGradient>
</defs>
</svg>
