<svg width="30" height="26" viewBox="0 0 30 26" fill="none" xmlns="http://www.w3.org/2000/svg">
<path d="M28.2088 3.65625C27.7242 1.54375 25.7856 0 23.524 0H6.56156C5.47876 0.000301616 4.426 0.358216 3.56505 1.01875C2.70409 1.67929 2.08255 2.60591 1.79592 3.65625L0.0996817 10.1562C-0.223412 11.2937 0.261229 12.4312 1.23051 13.0812L1.43859 13.2382C1.51511 13.296 1.60659 13.3516 1.69182 13.3954V13.3954C2.38393 13.7517 2.92675 14.464 2.92675 15.2424V22.75C2.92931 23.6112 3.27053 24.4363 3.8759 25.0453C4.48126 25.6542 5.30158 25.9974 6.15769 26H9.95404C10.8102 25.9974 11.6305 25.6542 12.2358 25.0453C12.8412 24.4363 13.1824 23.6112 13.185 22.75V21.5C13.185 20.3954 14.0804 19.5 15.185 19.5H15.6275C16.7321 19.5 17.6275 20.3954 17.6275 21.5V22.75C17.6301 23.6112 17.9713 24.4363 18.5767 25.0453C19.182 25.6542 20.0023 25.9974 20.8585 26H23.9279C24.784 25.9974 25.6043 25.6542 26.2096 25.0453C26.815 24.4363 27.1562 23.6112 27.1588 22.75V15.2838C27.1588 14.4817 27.7698 13.8296 28.4512 13.4062V13.4062L28.7743 13.1625C29.2534 12.8449 29.6206 12.3834 29.8236 11.8436C30.0267 11.3038 30.0552 10.7133 29.9051 10.1562L28.2088 3.65625ZM24.0894 21.1345C24.0894 22.0267 23.3661 22.75 22.4739 22.75V22.75C21.5817 22.75 20.8585 22.0267 20.8585 21.1345V19.5C20.8559 18.6388 20.5147 17.8137 19.9093 17.2047C19.304 16.5958 18.4836 16.2526 17.6275 16.25H13.185C12.3289 16.2526 11.5086 16.5958 10.9032 17.2047C10.2978 17.8137 9.9566 18.6388 9.95404 19.5V20.8518C9.95404 21.9002 9.1042 22.75 8.05587 22.75V22.75C7.00753 22.75 6.15769 21.9002 6.15769 20.8518V14.3707C6.15769 13.5446 6.67499 12.7452 7.50049 12.7769C8.1258 12.8009 8.74415 12.9942 9.30786 13.325C9.87732 13.7219 10.5536 13.9346 11.2464 13.9346C11.9392 13.9346 12.6155 13.7219 13.185 13.325C13.7544 12.9281 14.4307 12.7154 15.1235 12.7154C15.8163 12.7154 16.4926 12.9281 17.0621 13.325C17.6316 13.7219 18.3079 13.9346 19.0007 13.9346C19.6935 13.9346 20.3698 13.7219 20.9392 13.325C21.3977 13.0155 21.9247 12.824 22.474 12.7673C22.5759 12.7568 22.678 12.751 22.7799 12.7498C23.5917 12.7406 24.0894 13.5303 24.0894 14.3421V21.1345ZM26.4594 10.6641C26.4436 10.6558 26.4245 10.6386 26.4098 10.6286C25.3204 9.88426 24.0336 9.4861 22.7163 9.4861C21.4134 9.4861 20.1405 9.87553 19.0588 10.6041C19.0202 10.6302 18.9888 10.6676 18.9472 10.6884V10.6884C18.9262 10.6989 18.903 10.7044 18.8795 10.7044C18.856 10.7044 18.8329 10.6989 18.8118 10.6884V10.6884C18.7702 10.6676 18.7388 10.6302 18.7002 10.6041C17.6186 9.87553 16.3456 9.4861 15.0428 9.4861C13.7399 9.4861 12.467 9.87553 11.3853 10.6041C11.3467 10.6302 11.3153 10.6676 11.2737 10.6884V10.6884C11.2527 10.6989 11.2295 10.7044 11.206 10.7044C11.1825 10.7044 11.1594 10.6989 11.1384 10.6884V10.6884C11.0967 10.6676 11.0654 10.6302 11.0267 10.6041C9.94507 9.87553 8.67215 9.4861 7.36929 9.4861C6.06644 9.4861 4.79351 9.87553 3.71184 10.6041C3.67321 10.6302 3.64186 10.6676 3.60022 10.6884V10.6884C3.5792 10.6989 3.55604 10.7044 3.53255 10.7044C3.50907 10.7044 3.48591 10.6989 3.46488 10.6884V10.6884C3.42511 10.6685 3.41762 10.6187 3.42835 10.5755L4.94609 4.46875C5.10764 3.7375 5.75382 3.25 6.56156 3.25H23.6048C23.9605 3.24627 24.3067 3.36516 24.586 3.5869C24.8652 3.80863 25.0605 4.11984 25.1395 4.46875L26.6186 10.4201C26.6511 10.5509 26.5785 10.727 26.4594 10.6641V10.6641Z" fill="#4E5C75"/>
</svg>
