<svg width="25" height="30" viewBox="0 0 25 30" fill="none" xmlns="http://www.w3.org/2000/svg">
<path d="M22.4873 3.57386H16.1181C15.8635 2.82386 15.3778 2.17199 14.7294 1.7102C14.0811 1.24841 13.3028 1 12.5044 1C11.706 1 10.9278 1.24841 10.2794 1.7102C9.63108 2.17199 9.14536 2.82386 8.89077 3.57386H2.76923C2.55259 3.5428 2.33177 3.55763 2.12134 3.61737C1.91091 3.67712 1.71565 3.78041 1.54846 3.92043C1.38126 4.06046 1.24593 4.23404 1.15139 4.42971C1.05685 4.62538 1.00525 4.8387 1 5.05558V27.5182C1.00116 27.714 1.0412 27.9076 1.11785 28.088C1.1945 28.2684 1.30625 28.432 1.44671 28.5696C1.58718 28.7072 1.75362 28.816 1.93652 28.8899C2.11942 28.9637 2.3152 29.0011 2.51269 29H22.4873C22.6848 29.0011 22.8806 28.9637 23.0635 28.8899C23.2464 28.816 23.4128 28.7072 23.5533 28.5696C23.6938 28.432 23.8055 28.2684 23.8821 28.088C23.9588 27.9076 23.9988 27.714 24 27.5182V5.05558C23.9988 4.85985 23.9588 4.66626 23.8821 4.48586C23.8055 4.30546 23.6938 4.1418 23.5533 4.00421C23.4128 3.86661 23.2464 3.75779 23.0635 3.68395C22.8806 3.61011 22.6848 3.5727 22.4873 3.57386ZM6.56423 6.20414C6.56423 5.97161 6.65743 5.7486 6.82333 5.58418C6.98923 5.41975 7.21423 5.32738 7.44885 5.32738H10.4919V4.77502C10.4919 4.23671 10.7077 3.72045 11.0917 3.3398C11.4758 2.95916 11.9967 2.74532 12.5398 2.74532C13.0829 2.74532 13.6038 2.95916 13.9879 3.3398C14.3719 3.72045 14.5877 4.23671 14.5877 4.77502V5.37122H17.6308C17.8654 5.37122 18.0904 5.46359 18.2563 5.62802C18.4222 5.79244 18.5154 6.01545 18.5154 6.24798V7.82616H6.52885L6.56423 6.20414ZM19.4088 14.2967L11.3412 22.2927L6.70577 17.6985C6.47115 17.466 6.33935 17.1506 6.33935 16.8217C6.33935 16.4929 6.47115 16.1775 6.70577 15.945C6.94038 15.7124 7.25859 15.5818 7.59038 15.5818C7.92218 15.5818 8.24039 15.7124 8.475 15.945L11.3588 18.8032L17.675 12.5431C17.9096 12.3106 18.2278 12.18 18.5596 12.18C18.8914 12.18 19.2096 12.3106 19.4442 12.5431C19.6788 12.7757 19.8106 13.0911 19.8106 13.4199C19.8106 13.7488 19.6788 14.0641 19.4442 14.2967H19.4088Z" fill="#DEDEDE" stroke="#DEDEDE"/>
</svg>
