<svg width="36" height="48" viewBox="0 0 36 48" fill="none" xmlns="http://www.w3.org/2000/svg">
<g filter="url(#filter0_d_90_136)">
<path d="M24.9683 13.8953V14.6638H25.7368H28.1855C28.5906 14.6638 28.9109 14.993 28.912 15.3616C28.912 15.3619 28.912 15.3622 28.912 15.3625L28.912 39.5316C28.912 39.9021 28.5918 40.2315 28.1866 40.2315H8.49385C8.08937 40.2315 7.76849 39.9018 7.76849 39.5316V15.3626C7.76849 14.9932 8.08864 14.6638 8.49385 14.6638H10.9415H11.71V13.8953V13.2587C11.71 12.4299 12.3815 11.7588 13.2088 11.7588H14.2921H15.0496L15.0605 11.0014C15.0863 9.20816 16.5467 7.76849 18.3397 7.76849C20.1328 7.76849 21.5929 9.20815 21.6178 11.001L21.6284 11.7588H22.3863H23.4695C24.2968 11.7588 24.9683 12.4299 24.9683 13.2587V13.8953ZM20.2675 11.7588H21.0591L21.0356 10.9675C20.9926 9.51633 19.8 8.3524 18.3397 8.3524C16.8787 8.3524 15.6883 9.51687 15.6438 10.9667L15.6195 11.7588H16.4119H20.2675ZM8.09883 39.2006V39.9691H8.86732H27.0425H27.811H27.8121V39.2006H28.5795V15.6915V14.923H27.811H25.7368H24.9683V15.6915V16.5824H11.71V15.6915V14.923H10.9415H8.86732H8.09883V15.6915V39.2006Z" stroke="#F0C777" stroke-width="1.53697"/>
<path d="M20.4181 21.2322H25.1872C25.5517 21.2322 25.7789 21.484 25.7789 21.7751C25.7789 22.0678 25.55 22.3201 25.1872 22.3201H20.4181C20.0552 22.3201 19.8254 22.0666 19.8254 21.7751C19.8254 21.4852 20.0536 21.2322 20.4181 21.2322Z" stroke="#F0C777" stroke-width="1.53697"/>
<path d="M13.0494 22.3155L13.5852 22.733L14.0653 22.2527L16.55 19.7669C16.565 19.7519 16.5888 19.7519 16.6038 19.7669L16.9613 20.1245L16.9613 20.1245L16.9632 20.1264C16.9681 20.1312 16.9728 20.1401 16.9728 20.1519C16.9728 20.1621 16.9691 20.1715 16.9613 20.1793L13.8325 23.3081C13.7198 23.4208 13.5407 23.4311 13.416 23.3325L13.4154 23.332L11.7617 22.0271L12.1406 21.6073L13.0494 22.3155Z" stroke="#F0C777" stroke-width="1.53697"/>
<path d="M20.4181 27.3159H25.1872C25.5496 27.3159 25.7789 27.5689 25.7789 27.8609C25.7789 28.1522 25.5492 28.4058 25.1872 28.4058H20.4181C20.0561 28.4058 19.8254 28.151 19.8254 27.8609C19.8254 27.5693 20.0552 27.3159 20.4181 27.3159Z" stroke="#F0C777" stroke-width="1.53697"/>
<path d="M13.0494 28.3992L13.5849 28.8165L14.0651 28.3365L16.552 25.8507L16.5521 25.8505C16.5671 25.8355 16.5909 25.8355 16.6059 25.8505L16.9634 26.2081L16.9634 26.2081L16.9653 26.21C16.9667 26.2113 16.9693 26.2146 16.9717 26.2202C16.9741 26.226 16.9749 26.2315 16.9749 26.2355C16.9749 26.2457 16.9712 26.2551 16.9634 26.2629L13.8343 29.391C13.8342 29.391 13.8342 29.3911 13.8341 29.3912C13.7207 29.5041 13.5404 29.5147 13.4147 29.4161C13.4146 29.4161 13.4144 29.416 13.4143 29.4159L11.7617 28.1118L12.1412 27.6914L13.0494 28.3992Z" stroke="#F0C777" stroke-width="1.53697"/>
<path d="M20.4181 33.1927H25.1872C25.55 33.1927 25.7789 33.445 25.7789 33.7377C25.7789 34.0303 25.55 34.2827 25.1872 34.2827H20.4181C20.0552 34.2827 19.8254 34.0292 19.8254 33.7377C19.8254 33.4462 20.0552 33.1927 20.4181 33.1927Z" stroke="#F0C777" stroke-width="1.53697"/>
<path d="M13.0494 34.2759L13.5851 34.6932L14.0652 34.2131L16.5511 31.7272L16.5511 31.7272L16.553 31.7253C16.5569 31.7213 16.5609 31.7189 16.5647 31.7173C16.5685 31.7157 16.573 31.7147 16.5785 31.7147C16.5839 31.7147 16.5885 31.7157 16.5923 31.7173C16.5961 31.7189 16.6 31.7213 16.604 31.7253L16.604 31.7253L16.6059 31.7272L16.9616 32.083C16.9618 32.0831 16.9619 32.0832 16.962 32.0834C16.9678 32.0893 16.9705 32.0941 16.972 32.0978C16.9737 32.1021 16.9747 32.107 16.9747 32.112C16.9747 32.1171 16.9737 32.1218 16.9721 32.1257C16.9707 32.1291 16.9682 32.1336 16.9627 32.1392C16.9626 32.1393 16.9626 32.1394 16.9625 32.1394L13.8343 35.2677C13.8342 35.2678 13.8341 35.2679 13.834 35.268C13.7206 35.3807 13.5404 35.3913 13.4148 35.2929C13.4146 35.2928 13.4145 35.2927 13.4143 35.2926L11.7617 33.9866L12.1405 33.5676L13.0494 34.2759Z" stroke="#F0C777" stroke-width="1.53697"/>
</g>
<defs>
<filter id="filter0_d_90_136" x="0.852104" y="0.852104" width="34.9763" height="46.2958" filterUnits="userSpaceOnUse" color-interpolation-filters="sRGB">
<feFlood flood-opacity="0" result="BackgroundImageFix"/>
<feColorMatrix in="SourceAlpha" type="matrix" values="0 0 0 0 0 0 0 0 0 0 0 0 0 0 0 0 0 0 127 0" result="hardAlpha"/>
<feOffset/>
<feGaussianBlur stdDeviation="3.07395"/>
<feColorMatrix type="matrix" values="0 0 0 0 0.941176 0 0 0 0 0.780392 0 0 0 0 0.466667 0 0 0 1 0"/>
<feBlend mode="normal" in2="BackgroundImageFix" result="effect1_dropShadow_90_136"/>
<feBlend mode="normal" in="SourceGraphic" in2="effect1_dropShadow_90_136" result="shape"/>
</filter>
</defs>
</svg>
