<svg width="24" height="34" viewBox="0 0 24 34" fill="none" xmlns="http://www.w3.org/2000/svg">
<path d="M21.8453 6.89528H19.3966V6.25869C19.3966 5.00568 18.3812 3.99033 17.1293 3.99033H16.046C16.0152 1.77713 14.2127 0 11.9995 0C9.78626 0 7.98367 1.77713 7.95184 3.99033H6.86858C5.61663 3.99033 4.60128 5.00568 4.60128 6.25869V6.89528H2.15361C1.34197 6.89528 0.65976 7.55096 0.65976 8.3626V32.5316C0.65976 33.3433 1.34197 34 2.15361 34H21.8464C22.6591 34 23.3402 33.3433 23.3402 32.5316V8.36154C23.3392 7.55096 22.657 6.89528 21.8453 6.89528ZM11.9995 2.12089C13.0435 2.12089 13.8965 2.95375 13.9273 3.99033H10.0717C10.1035 2.95375 10.9555 2.12089 11.9995 2.12089ZM21.4718 32.2006H2.52707V8.69151H4.60128V10.3509H19.3966V8.69151H21.4708V32.2006H21.4718Z" fill="#D9D9D9"/>
<path d="M18.847 13.4638H14.0779C13.3278 13.4638 12.7167 14.0229 12.7167 14.7751C12.7167 15.5274 13.3278 16.0886 14.0779 16.0886H18.847C19.5982 16.0886 20.2072 15.5274 20.2072 14.7751C20.2072 14.0229 19.5982 13.4638 18.847 13.4638Z" fill="#D9D9D9"/>
<path d="M7.18159 14.7093L6.15775 13.9115C5.90523 13.7131 5.54238 13.746 5.32806 13.9836L4.73816 14.6372C4.6257 14.7624 4.56947 14.929 4.58326 15.0987C4.59811 15.2674 4.68087 15.4223 4.81349 15.5263L6.59911 16.9353C7.02987 17.2758 7.64735 17.2398 8.03567 16.8515L11.1645 13.7226C11.3162 13.5709 11.4011 13.3662 11.4011 13.1518C11.4011 12.9375 11.3162 12.7317 11.1645 12.581L10.8069 12.2235C10.4918 11.9084 9.9815 11.9084 9.66639 12.2235L7.18159 14.7093Z" fill="#D9D9D9"/>
<path d="M18.847 19.5474H14.0779C13.3278 19.5474 12.7167 20.1087 12.7167 20.8609C12.7167 21.611 13.3278 22.1744 14.0779 22.1744H18.847C19.5982 22.1744 20.2072 21.611 20.2072 20.8609C20.2072 20.1097 19.5982 19.5474 18.847 19.5474Z" fill="#D9D9D9"/>
<path d="M7.18159 20.793L6.15775 19.9951C5.90523 19.7978 5.54238 19.8317 5.32806 20.0683L4.73816 20.7219C4.6257 20.846 4.56947 21.0137 4.58326 21.1834C4.59811 21.3511 4.68087 21.5081 4.81349 21.611L6.59911 23.02C7.03093 23.3595 7.64841 23.3223 8.03673 22.9351L11.1666 19.8063C11.3183 19.6546 11.4032 19.4498 11.4032 19.2355C11.4032 19.0233 11.3183 18.8153 11.1666 18.6647L10.8091 18.3071C10.4939 17.992 9.98362 17.992 9.66851 18.3071L7.18159 20.793Z" fill="#D9D9D9"/>
<path d="M18.847 25.4241H14.0779C13.3278 25.4241 12.7167 25.9854 12.7167 26.7376C12.7167 27.4899 13.3278 28.0511 14.0779 28.0511H18.847C19.5982 28.0511 20.2072 27.4899 20.2072 26.7376C20.2072 25.9854 19.5982 25.4241 18.847 25.4241Z" fill="#D9D9D9"/>
<path d="M7.18157 26.6697L6.15773 25.8719C5.90522 25.6724 5.54237 25.7064 5.32805 25.944L4.73815 26.5965C4.62568 26.7228 4.56839 26.8883 4.58325 27.0591C4.59704 27.2278 4.68085 27.3827 4.81348 27.4856L6.5991 28.8967C7.03091 29.2362 7.6484 29.1991 8.03672 28.8118L11.1666 25.682C11.4817 25.3658 11.4817 24.8586 11.1666 24.5414L10.809 24.1839C10.6573 24.0311 10.4526 23.9462 10.2382 23.9462C10.0239 23.9462 9.81916 24.0311 9.66744 24.1839L7.18157 26.6697Z" fill="#D9D9D9"/>
</svg>
