<svg width="35" height="29" viewBox="0 0 35 29" fill="none" xmlns="http://www.w3.org/2000/svg">
<mask id="path-1-inside-1_694_1228" fill="white">
<path d="M0.32 25C0.32 23.4 0.613333 22.0133 1.2 20.84C1.78667 19.6667 2.78667 18.6533 4.2 17.8L14.12 11.88C14.6 11.6133 14.9733 11.24 15.24 10.76C15.5333 10.28 15.68 9.8 15.68 9.32V8.04C15.68 7.29333 15.4 6.69333 14.84 6.24C14.3067 5.78667 13.6 5.56 12.72 5.56H9.04C8 5.56 7.18667 5.94667 6.6 6.72C6.01333 7.46666 5.72 8.53333 5.72 9.92H0.2C0.2 7.01333 0.973333 4.74667 2.52 3.12C4.06667 1.49333 6.21333 0.68 8.96 0.68H12.72C14.4 0.68 15.88 0.986666 17.16 1.6C18.44 2.21333 19.4267 3.08 20.12 4.2C20.84 5.32 21.2 6.6 21.2 8.04V9.32C21.2 10.76 20.8933 12 20.28 13.04C19.6933 14.0533 18.76 14.9333 17.48 15.68L7.84 21.28C7.2 21.6533 6.70667 22.0667 6.36 22.52C6.04 22.9733 5.88 23.5333 5.88 24.2H21.36V29H0.32V25ZM29.4803 7L23.0403 10.24V5.12L30.8003 0.999998H35.0003V29H29.4803V7Z"/>
</mask>
<g filter="url(#filter0_i_694_1228)">
<path d="M0.32 25C0.32 23.4 0.613333 22.0133 1.2 20.84C1.78667 19.6667 2.78667 18.6533 4.2 17.8L14.12 11.88C14.6 11.6133 14.9733 11.24 15.24 10.76C15.5333 10.28 15.68 9.8 15.68 9.32V8.04C15.68 7.29333 15.4 6.69333 14.84 6.24C14.3067 5.78667 13.6 5.56 12.72 5.56H9.04C8 5.56 7.18667 5.94667 6.6 6.72C6.01333 7.46666 5.72 8.53333 5.72 9.92H0.2C0.2 7.01333 0.973333 4.74667 2.52 3.12C4.06667 1.49333 6.21333 0.68 8.96 0.68H12.72C14.4 0.68 15.88 0.986666 17.16 1.6C18.44 2.21333 19.4267 3.08 20.12 4.2C20.84 5.32 21.2 6.6 21.2 8.04V9.32C21.2 10.76 20.8933 12 20.28 13.04C19.6933 14.0533 18.76 14.9333 17.48 15.68L7.84 21.28C7.2 21.6533 6.70667 22.0667 6.36 22.52C6.04 22.9733 5.88 23.5333 5.88 24.2H21.36V29H0.32V25ZM29.4803 7L23.0403 10.24V5.12L30.8003 0.999998H35.0003V29H29.4803V7Z" fill="url(#paint0_linear_694_1228)"/>
</g>
<path d="M4.2 17.8L3.02147 15.8252L3.01134 15.8313L4.2 17.8ZM14.12 11.88L13.0032 9.86967L12.972 9.88695L12.9415 9.90518L14.12 11.88ZM15.24 10.76L13.2777 9.5608L13.2528 9.60148L13.2297 9.64315L15.24 10.76ZM14.84 6.24L13.3506 7.99226L13.3716 8.01011L13.393 8.02746L14.84 6.24ZM6.6 6.72L8.40833 8.14083L8.42039 8.12548L8.43218 8.10993L6.6 6.72ZM5.72 9.92V12.2197H8.01974V9.92H5.72ZM0.2 9.92H-2.09974V12.2197H0.2V9.92ZM2.52 3.12L0.853374 1.53534L2.52 3.12ZM17.16 1.6L18.1538 -0.473943L18.1538 -0.473944L17.16 1.6ZM20.12 4.2L18.1646 5.41048L18.1749 5.42713L18.1855 5.4436L20.12 4.2ZM20.28 13.04L18.2991 11.8718L18.2944 11.8797L18.2897 11.8877L20.28 13.04ZM17.48 15.68L18.6352 17.6686L18.6388 17.6665L17.48 15.68ZM7.84 21.28L6.68482 19.2914L6.68123 19.2935L7.84 21.28ZM6.36 22.52L4.53319 21.123L4.50651 21.1579L4.48119 21.1938L6.36 22.52ZM5.88 24.2H3.58026V26.4997H5.88V24.2ZM21.36 24.2H23.6597V21.9003H21.36V24.2ZM21.36 29V31.2997H23.6597V29H21.36ZM0.32 29H-1.97974V31.2997H0.32V29ZM2.61974 25C2.61974 23.6798 2.86123 22.6599 3.25695 21.8685L-0.856948 19.8115C-1.63456 21.3668 -1.97974 23.1202 -1.97974 25H2.61974ZM3.25695 21.8685C3.60438 21.1736 4.25214 20.4549 5.38866 19.7687L3.01134 15.8313C1.3212 16.8517 -0.0310412 18.1597 -0.856948 19.8115L3.25695 21.8685ZM5.37852 19.7748L15.2985 13.8548L12.9415 9.90518L3.02148 15.8252L5.37852 19.7748ZM15.2369 13.8903C16.0923 13.4151 16.7751 12.7323 17.2503 11.8768L13.2297 9.64315C13.1716 9.74774 13.1077 9.81156 13.0032 9.86967L15.2369 13.8903ZM17.2023 11.9592C17.6779 11.181 17.9797 10.2913 17.9797 9.32H13.3803C13.3803 9.32204 13.3805 9.33578 13.3706 9.36797C13.3602 9.40226 13.3354 9.46629 13.2777 9.5608L17.2023 11.9592ZM17.9797 9.32V8.04H13.3803V9.32H17.9797ZM17.9797 8.04C17.9797 6.62854 17.4086 5.36054 16.287 4.45254L13.393 8.02746C13.403 8.03552 13.4085 8.04085 13.4107 8.04304C13.4129 8.04519 13.4121 8.04468 13.4095 8.04136C13.4068 8.038 13.4029 8.03268 13.3985 8.02553C13.394 8.01837 13.3898 8.01057 13.386 8.00253C13.3823 7.9945 13.3796 7.98754 13.3779 7.98225C13.3761 7.977 13.3757 7.97457 13.3759 7.97565C13.3763 7.9775 13.3803 7.99732 13.3803 8.04H17.9797ZM16.3294 4.48774C15.2821 3.59748 14.0012 3.26026 12.72 3.26026V7.85974C13.1988 7.85974 13.3313 7.97585 13.3506 7.99226L16.3294 4.48774ZM12.72 3.26026H9.04V7.85974H12.72V3.26026ZM9.04 3.26026C7.3402 3.26026 5.8241 3.9377 4.76782 5.33007L8.43218 8.10993C8.54924 7.95563 8.6598 7.85974 9.04 7.85974V3.26026ZM4.79167 5.29917C3.76931 6.60037 3.42026 8.24713 3.42026 9.92H8.01974C8.01974 8.81953 8.25736 8.33296 8.40833 8.14083L4.79167 5.29917ZM5.72 7.62026H0.2V12.2197H5.72V7.62026ZM2.49974 9.92C2.49974 7.42299 3.1556 5.78902 4.18663 4.70466L0.853374 1.53534C-1.20893 3.70432 -2.09974 6.60367 -2.09974 9.92H2.49974ZM4.18663 4.70466C5.20501 3.63361 6.69227 2.97974 8.96 2.97974V-1.61974C5.7344 -1.61974 2.92833 -0.646942 0.853374 1.53534L4.18663 4.70466ZM8.96 2.97974H12.72V-1.61974H8.96V2.97974ZM12.72 2.97974C14.1186 2.97974 15.2483 3.23411 16.1662 3.67394L18.1538 -0.473944C16.5117 -1.26078 14.6814 -1.61974 12.72 -1.61974V2.97974ZM16.1662 3.67394C17.0818 4.11265 17.7207 4.69342 18.1646 5.41048L22.0754 2.98952C21.1326 1.46657 19.7982 0.314009 18.1538 -0.473943L16.1662 3.67394ZM18.1855 5.4436C18.6476 6.16235 18.9003 7.0035 18.9003 8.04H23.4997C23.4997 6.1965 23.0324 4.47765 22.0545 2.9564L18.1855 5.4436ZM18.9003 8.04V9.32H23.4997V8.04H18.9003ZM18.9003 9.32C18.9003 10.4286 18.6667 11.2485 18.2991 11.8718L22.2609 14.2082C23.12 12.7515 23.4997 11.0914 23.4997 9.32H18.9003ZM18.2897 11.8877C17.9496 12.4753 17.3464 13.0955 16.3212 13.6935L18.6388 17.6665C20.1736 16.7711 21.4371 15.6313 22.2703 14.1923L18.2897 11.8877ZM16.3248 13.6914L6.68482 19.2914L8.99518 23.2686L18.6352 17.6686L16.3248 13.6914ZM6.68123 19.2935C5.8559 19.775 5.10746 20.372 4.53319 21.123L8.18682 23.917C8.30587 23.7613 8.5441 23.5317 8.99877 23.2665L6.68123 19.2935ZM4.48119 21.1938C3.83591 22.1079 3.58026 23.1561 3.58026 24.2H8.17974C8.17974 24.0501 8.19772 23.9591 8.21125 23.9118C8.2238 23.8679 8.23514 23.8514 8.23881 23.8462L4.48119 21.1938ZM5.88 26.4997H21.36V21.9003H5.88V26.4997ZM19.0603 24.2V29H23.6597V24.2H19.0603ZM21.36 26.7003H0.32V31.2997H21.36V26.7003ZM2.61974 29V25H-1.97974V29H2.61974ZM29.4803 7H31.7801V3.2686L28.4467 4.94561L29.4803 7ZM23.0403 10.24H20.7406V13.9714L24.0739 12.2944L23.0403 10.24ZM23.0403 5.12L21.9619 3.08879L20.7406 3.73722V5.12H23.0403ZM30.8003 0.999998V-1.29974H30.2277L29.7219 -1.03121L30.8003 0.999998ZM35.0003 0.999998H37.3001V-1.29974H35.0003V0.999998ZM35.0003 29V31.2997H37.3001V29H35.0003ZM29.4803 29H27.1806V31.2997H29.4803V29ZM28.4467 4.94561L22.0067 8.18561L24.0739 12.2944L30.5139 9.05439L28.4467 4.94561ZM25.3401 10.24V5.12H20.7406V10.24H25.3401ZM24.1187 7.15121L31.8787 3.0312L29.7219 -1.03121L21.9619 3.08879L24.1187 7.15121ZM30.8003 3.29974H35.0003V-1.29974H30.8003V3.29974ZM32.7006 0.999998V29H37.3001V0.999998H32.7006ZM35.0003 26.7003H29.4803V31.2997H35.0003V26.7003ZM31.7801 29V7H27.1806V29H31.7801Z" fill="url(#paint1_linear_694_1228)" mask="url(#path-1-inside-1_694_1228)"/>
<defs>
<filter id="filter0_i_694_1228" x="0.199951" y="0.680054" width="34.8003" height="37.5189" filterUnits="userSpaceOnUse" color-interpolation-filters="sRGB">
<feFlood flood-opacity="0" result="BackgroundImageFix"/>
<feBlend mode="normal" in="SourceGraphic" in2="BackgroundImageFix" result="shape"/>
<feColorMatrix in="SourceAlpha" type="matrix" values="0 0 0 0 0 0 0 0 0 0 0 0 0 0 0 0 0 0 127 0" result="hardAlpha"/>
<feOffset dy="9.19895"/>
<feGaussianBlur stdDeviation="6.89921"/>
<feComposite in2="hardAlpha" operator="arithmetic" k2="-1" k3="1"/>
<feColorMatrix type="matrix" values="0 0 0 0 1 0 0 0 0 1 0 0 0 0 1 0 0 0 0.6 0"/>
<feBlend mode="normal" in2="shape" result="effect1_innerShadow_694_1228"/>
</filter>
<linearGradient id="paint0_linear_694_1228" x1="33.5792" y1="-4.375" x2="4.61625" y2="35.76" gradientUnits="userSpaceOnUse">
<stop stop-color="#FDFFFE"/>
<stop offset="0.23" stop-color="#7ABBAC"/>
<stop offset="0.39" stop-color="#B1FFEF"/>
<stop offset="0.535" stop-color="#8AD2C3"/>
<stop offset="0.745" stop-color="#CFFEF4"/>
<stop offset="0.915" stop-color="#6CA196"/>
<stop offset="1" stop-color="#35544E"/>
</linearGradient>
<linearGradient id="paint1_linear_694_1228" x1="20.5" y1="-6" x2="20.5" y2="27.3125" gradientUnits="userSpaceOnUse">
<stop stop-color="white" stop-opacity="0.53"/>
<stop offset="1" stop-color="white" stop-opacity="0"/>
</linearGradient>
</defs>
</svg>
