<svg width="49" height="30" viewBox="0 0 49 30" fill="none" xmlns="http://www.w3.org/2000/svg">
<mask id="path-1-inside-1_694_1231" fill="white">
<path d="M18.96 14.56C20.0533 15.2 20.8933 15.9867 21.48 16.92C22.0933 17.8533 22.4 18.8267 22.4 19.84V21.44C22.4 22.9867 22.0133 24.36 21.24 25.56C20.4667 26.76 19.3733 27.6933 17.96 28.36C16.5733 29 14.96 29.32 13.12 29.32H9.24C6.38667 29.32 4.14667 28.5067 2.52 26.88C0.92 25.2533 0.12 22.9867 0.12 20.08H5.56C5.56 21.4667 5.88 22.5467 6.52 23.32C7.16 24.0667 8.06667 24.44 9.24 24.44H13.12C14.24 24.44 15.1467 24.1733 15.84 23.64C16.5333 23.08 16.88 22.3467 16.88 21.44V19.84C16.88 19.0133 16.52 18.3467 15.8 17.84C15.08 17.3333 14.1467 17.08 13 17.08H7.88V12.28H13C14.0133 12.28 14.8267 12.04 15.44 11.56C16.0533 11.0533 16.36 10.4 16.36 9.6V8C16.36 7.25333 16.0667 6.66667 15.48 6.24C14.8933 5.78667 14.1333 5.56 13.2 5.56H9.32C8.22667 5.56 7.37333 5.94667 6.76 6.72C6.17333 7.46666 5.88 8.53333 5.88 9.92H0.32C0.32 7.01333 1.10667 4.74667 2.68 3.12C4.28 1.49333 6.49333 0.68 9.32 0.68H13.2C14.9067 0.68 16.4133 0.986666 17.72 1.6C19.0533 2.21333 20.08 3.08 20.8 4.2C21.52 5.29333 21.88 6.56 21.88 8V9.6C21.88 10.5867 21.6267 11.5067 21.12 12.36C20.6133 13.2133 19.8933 13.9467 18.96 14.56ZM35.1275 29.32C33.2608 29.32 31.6075 28.92 30.1675 28.12C28.7275 27.2933 27.6075 26.1333 26.8075 24.64C26.0075 23.1467 25.6075 21.4267 25.6075 19.48V10.52C25.6075 8.57333 25.9942 6.85333 26.7675 5.36C27.5675 3.86667 28.6875 2.72 30.1275 1.92C31.5675 1.09333 33.2342 0.68 35.1275 0.68H39.3675C41.2075 0.68 42.8342 1.09333 44.2475 1.92C45.6608 2.72 46.7542 3.86667 47.5275 5.36C48.3275 6.85333 48.7275 8.57333 48.7275 10.52V19.48C48.7275 21.4267 48.3408 23.1467 47.5675 24.64C46.7942 26.1333 45.7008 27.2933 44.2875 28.12C42.8742 28.92 41.2342 29.32 39.3675 29.32H35.1275ZM39.2875 24.44C40.4608 24.44 41.3942 24 42.0875 23.12C42.8075 22.2133 43.1675 21.0267 43.1675 19.56V10.44C43.1675 8.97333 42.8075 7.8 42.0875 6.92C41.3942 6.01333 40.4608 5.56 39.2875 5.56H35.2075C33.9808 5.56 32.9942 6.01333 32.2475 6.92C31.5008 7.8 31.1275 8.97333 31.1275 10.44V19.56C31.1275 21.0267 31.5008 22.2133 32.2475 23.12C32.9942 24 33.9808 24.44 35.2075 24.44H39.2875Z"/>
</mask>
<g filter="url(#filter0_i_694_1231)">
<path d="M18.96 14.56C20.0533 15.2 20.8933 15.9867 21.48 16.92C22.0933 17.8533 22.4 18.8267 22.4 19.84V21.44C22.4 22.9867 22.0133 24.36 21.24 25.56C20.4667 26.76 19.3733 27.6933 17.96 28.36C16.5733 29 14.96 29.32 13.12 29.32H9.24C6.38667 29.32 4.14667 28.5067 2.52 26.88C0.92 25.2533 0.12 22.9867 0.12 20.08H5.56C5.56 21.4667 5.88 22.5467 6.52 23.32C7.16 24.0667 8.06667 24.44 9.24 24.44H13.12C14.24 24.44 15.1467 24.1733 15.84 23.64C16.5333 23.08 16.88 22.3467 16.88 21.44V19.84C16.88 19.0133 16.52 18.3467 15.8 17.84C15.08 17.3333 14.1467 17.08 13 17.08H7.88V12.28H13C14.0133 12.28 14.8267 12.04 15.44 11.56C16.0533 11.0533 16.36 10.4 16.36 9.6V8C16.36 7.25333 16.0667 6.66667 15.48 6.24C14.8933 5.78667 14.1333 5.56 13.2 5.56H9.32C8.22667 5.56 7.37333 5.94667 6.76 6.72C6.17333 7.46666 5.88 8.53333 5.88 9.92H0.32C0.32 7.01333 1.10667 4.74667 2.68 3.12C4.28 1.49333 6.49333 0.68 9.32 0.68H13.2C14.9067 0.68 16.4133 0.986666 17.72 1.6C19.0533 2.21333 20.08 3.08 20.8 4.2C21.52 5.29333 21.88 6.56 21.88 8V9.6C21.88 10.5867 21.6267 11.5067 21.12 12.36C20.6133 13.2133 19.8933 13.9467 18.96 14.56ZM35.1275 29.32C33.2608 29.32 31.6075 28.92 30.1675 28.12C28.7275 27.2933 27.6075 26.1333 26.8075 24.64C26.0075 23.1467 25.6075 21.4267 25.6075 19.48V10.52C25.6075 8.57333 25.9942 6.85333 26.7675 5.36C27.5675 3.86667 28.6875 2.72 30.1275 1.92C31.5675 1.09333 33.2342 0.68 35.1275 0.68H39.3675C41.2075 0.68 42.8342 1.09333 44.2475 1.92C45.6608 2.72 46.7542 3.86667 47.5275 5.36C48.3275 6.85333 48.7275 8.57333 48.7275 10.52V19.48C48.7275 21.4267 48.3408 23.1467 47.5675 24.64C46.7942 26.1333 45.7008 27.2933 44.2875 28.12C42.8742 28.92 41.2342 29.32 39.3675 29.32H35.1275ZM39.2875 24.44C40.4608 24.44 41.3942 24 42.0875 23.12C42.8075 22.2133 43.1675 21.0267 43.1675 19.56V10.44C43.1675 8.97333 42.8075 7.8 42.0875 6.92C41.3942 6.01333 40.4608 5.56 39.2875 5.56H35.2075C33.9808 5.56 32.9942 6.01333 32.2475 6.92C31.5008 7.8 31.1275 8.97333 31.1275 10.44V19.56C31.1275 21.0267 31.5008 22.2133 32.2475 23.12C32.9942 24 33.9808 24.44 35.2075 24.44H39.2875Z" fill="url(#paint0_linear_694_1231)"/>
</g>
<path d="M18.96 14.56L17.697 12.6381L14.6006 14.6729L17.7982 16.5447L18.96 14.56ZM21.48 16.92L19.533 18.1439L19.5453 18.1635L19.5581 18.183L21.48 16.92ZM21.24 25.56L23.1731 26.8058L23.1731 26.8058L21.24 25.56ZM17.96 28.36L18.9237 30.4481L18.9324 30.444L18.9411 30.44L17.96 28.36ZM2.52 26.88L0.880456 28.4927L0.88712 28.4994L0.89384 28.5062L2.52 26.88ZM0.12 20.08V17.7803H-2.17974V20.08H0.12ZM5.56 20.08H7.85974V17.7803H5.56V20.08ZM6.52 23.32L4.7483 24.7862L4.76097 24.8016L4.77391 24.8166L6.52 23.32ZM15.84 23.64L17.2422 25.4628L17.2638 25.4462L17.285 25.4291L15.84 23.64ZM7.88 17.08H5.58026V19.3797H7.88V17.08ZM7.88 12.28V9.98026H5.58026V12.28H7.88ZM15.44 11.56L16.8573 13.3711L16.8813 13.3523L16.9047 13.333L15.44 11.56ZM15.48 6.24L14.0738 8.05975L14.1003 8.0802L14.1274 8.09988L15.48 6.24ZM6.76 6.72L4.95814 5.29094L4.95167 5.29917L6.76 6.72ZM5.88 9.92V12.2197H8.17974V9.92H5.88ZM0.32 9.92H-1.97974V12.2197H0.32V9.92ZM2.68 3.12L1.04046 1.50733L1.03368 1.51422L1.02697 1.52116L2.68 3.12ZM17.72 1.6L16.7428 3.68181L16.7509 3.68558L16.7589 3.68929L17.72 1.6ZM20.8 4.2L18.8655 5.4436L18.8724 5.45426L18.8793 5.46484L20.8 4.2ZM17.7982 16.5447C18.6203 17.0259 19.1706 17.5674 19.533 18.1439L23.427 15.6961C22.616 14.4059 21.4863 13.3741 20.1218 12.5753L17.7982 16.5447ZM19.5581 18.183C19.9511 18.781 20.1003 19.3209 20.1003 19.84H24.6997C24.6997 18.3324 24.2356 16.9256 23.4019 15.657L19.5581 18.183ZM20.1003 19.84V21.44H24.6997V19.84H20.1003ZM20.1003 21.44C20.1003 22.5832 19.8209 23.5167 19.3069 24.3142L23.1731 26.8058C24.2058 25.2033 24.6997 23.3901 24.6997 21.44H20.1003ZM19.3069 24.3142C18.7885 25.1187 18.0413 25.7789 16.9789 26.28L18.9411 30.44C20.7054 29.6077 22.1449 28.4013 23.1731 26.8058L19.3069 24.3142ZM16.9963 26.2719C15.9672 26.7469 14.6942 27.0203 13.12 27.0203V31.6197C15.2258 31.6197 17.1795 31.2531 18.9237 30.4481L16.9963 26.2719ZM13.12 27.0203H9.24V31.6197H13.12V27.0203ZM9.24 27.0203C6.84136 27.0203 5.24295 26.3506 4.14616 25.2538L0.89384 28.5062C3.05039 30.6627 5.93197 31.6197 9.24 31.6197V27.0203ZM4.15954 25.2673C3.09018 24.1802 2.41974 22.5563 2.41974 20.08H-2.17974C-2.17974 23.417 -1.25018 26.3265 0.880456 28.4927L4.15954 25.2673ZM0.12 22.3797H5.56V17.7803H0.12V22.3797ZM3.26026 20.08C3.26026 21.7993 3.65693 23.4675 4.7483 24.7862L8.29171 21.8538C8.10307 21.6258 7.85974 21.134 7.85974 20.08H3.26026ZM4.77391 24.8166C5.93579 26.1722 7.53791 26.7397 9.24 26.7397V22.1403C8.59543 22.1403 8.38421 21.9612 8.26609 21.8233L4.77391 24.8166ZM9.24 26.7397H13.12V22.1403H9.24V26.7397ZM13.12 26.7397C14.6035 26.7397 16.0462 26.3828 17.2422 25.4628L14.4378 21.8172C14.2472 21.9638 13.8765 22.1403 13.12 22.1403V26.7397ZM17.285 25.4291C18.5297 24.4237 19.1797 23.0275 19.1797 21.44H14.5803C14.5803 21.5937 14.5526 21.6622 14.5409 21.6871C14.5297 21.7109 14.4992 21.7667 14.395 21.8509L17.285 25.4291ZM19.1797 21.44V19.84H14.5803V21.44H19.1797ZM19.1797 19.84C19.1797 18.2094 18.4087 16.8636 17.1235 15.9593L14.4765 19.7207C14.5362 19.7627 14.5672 19.7931 14.5804 19.8075C14.5928 19.8209 14.5918 19.8227 14.5864 19.8127C14.5808 19.8023 14.5777 19.7926 14.5768 19.789C14.5762 19.7863 14.5803 19.8012 14.5803 19.84H19.1797ZM17.1235 15.9593C15.9139 15.1081 14.478 14.7803 13 14.7803V19.3797C13.8153 19.3797 14.2461 19.5586 14.4765 19.7207L17.1235 15.9593ZM13 14.7803H7.88V19.3797H13V14.7803ZM10.1797 17.08V12.28H5.58026V17.08H10.1797ZM7.88 14.5797H13V9.98026H7.88V14.5797ZM13 14.5797C14.3714 14.5797 15.7318 14.2519 16.8573 13.3711L14.0227 9.74894C13.9215 9.8281 13.6553 9.98026 13 9.98026V14.5797ZM16.9047 13.333C18.0503 12.3866 18.6597 11.0815 18.6597 9.6H14.0603C14.0603 9.65262 14.0553 9.68363 14.0523 9.69769C14.0495 9.71102 14.0474 9.7145 14.0482 9.71282C14.049 9.71112 14.048 9.71416 14.0407 9.72345C14.0328 9.73332 14.0137 9.75528 13.9753 9.78699L16.9047 13.333ZM18.6597 9.6V8H14.0603V9.6H18.6597ZM18.6597 8C18.6597 6.54304 18.0347 5.25432 16.8326 4.38012L14.1274 8.09988C14.1445 8.11234 14.1416 8.11285 14.1286 8.09791C14.115 8.08223 14.098 8.0584 14.0831 8.02847C14.0682 7.99873 14.0614 7.97514 14.059 7.96412C14.0568 7.95416 14.0603 7.96413 14.0603 8H18.6597ZM16.8862 4.42025C15.8023 3.58274 14.5084 3.26026 13.2 3.26026V7.85974C13.7583 7.85974 13.9843 7.99059 14.0738 8.05975L16.8862 4.42025ZM13.2 3.26026H9.32V7.85974H13.2V3.26026ZM9.32 3.26026C7.61086 3.26026 6.05863 3.9034 4.95816 5.29095L8.56184 8.14904C8.68803 7.98993 8.84248 7.85974 9.32 7.85974V3.26026ZM4.95167 5.29917C3.92931 6.60037 3.58026 8.24713 3.58026 9.92H8.17974C8.17974 8.81953 8.41736 8.33296 8.56833 8.14083L4.95167 5.29917ZM5.88 7.62026H0.32V12.2197H5.88V7.62026ZM2.61974 9.92C2.61974 7.43329 3.28297 5.80449 4.33303 4.71884L1.02697 1.52116C-1.06964 3.68884 -1.97974 6.59337 -1.97974 9.92H2.61974ZM4.31954 4.73267C5.38864 3.64575 6.95344 2.97974 9.32 2.97974V-1.61974C6.03323 -1.61974 3.17136 -0.659084 1.04046 1.50733L4.31954 4.73267ZM9.32 2.97974H13.2V-1.61974H9.32V2.97974ZM13.2 2.97974C14.6299 2.97974 15.7927 3.23583 16.7428 3.68181L18.6972 -0.481811C17.034 -1.2625 15.1835 -1.61974 13.2 -1.61974V2.97974ZM16.7589 3.68929C17.736 4.13875 18.4066 4.7298 18.8655 5.4436L22.7345 2.9564C21.7534 1.4302 20.3707 0.287915 18.6811 -0.489292L16.7589 3.68929ZM18.8793 5.46484C19.3275 6.14544 19.5803 6.96284 19.5803 8H24.1797C24.1797 6.15715 23.7125 4.44122 22.7207 2.93516L18.8793 5.46484ZM19.5803 8V9.6H24.1797V8H19.5803ZM19.5803 9.6C19.5803 10.1709 19.4396 10.6857 19.1426 11.1859L23.0974 13.5341C23.8138 12.3276 24.1797 11.0024 24.1797 9.6H19.5803ZM19.1426 11.1859C18.8354 11.7032 18.3754 12.1923 17.697 12.6381L20.223 16.4819C21.4113 15.701 22.3913 14.7235 23.0974 13.5341L19.1426 11.1859ZM30.1675 28.12L29.0225 30.1145L29.0365 30.1225L29.0506 30.1303L30.1675 28.12ZM26.7675 5.36L24.7403 4.27401L24.7327 4.28818L24.7253 4.30245L26.7675 5.36ZM30.1275 1.92L31.2444 3.93033L31.2585 3.92249L31.2725 3.91445L30.1275 1.92ZM44.2475 1.92L43.0864 3.9051L43.1005 3.91333L43.1147 3.92136L44.2475 1.92ZM47.5275 5.36L45.4853 6.41754L45.4927 6.43182L45.5003 6.44599L47.5275 5.36ZM47.5675 24.64L45.5253 23.5825L45.5253 23.5825L47.5675 24.64ZM44.2875 28.12L45.4203 30.1214L45.4345 30.1133L45.4486 30.1051L44.2875 28.12ZM42.0875 23.12L40.2865 21.6898L40.2811 21.6968L42.0875 23.12ZM42.0875 6.92L40.2607 8.31697L40.2837 8.34701L40.3076 8.37628L42.0875 6.92ZM32.2475 6.92L34.0011 8.40788L34.012 8.395L34.0227 8.38196L32.2475 6.92ZM32.2475 23.12L30.4723 24.582L30.483 24.595L30.4939 24.6079L32.2475 23.12ZM35.1275 27.0203C33.5988 27.0203 32.3393 26.6958 31.2844 26.1097L29.0506 30.1303C30.8757 31.1442 32.9228 31.6197 35.1275 31.6197V27.0203ZM31.3125 26.1255C30.2537 25.5177 29.4358 24.6761 28.8347 23.554L24.7803 25.726C25.7792 27.5906 27.2013 29.0689 29.0225 30.1145L31.3125 26.1255ZM28.8347 23.554C28.2387 22.4415 27.9072 21.1047 27.9072 19.48H23.3078C23.3078 21.7486 23.7763 23.8518 24.7803 25.726L28.8347 23.554ZM27.9072 19.48V10.52H23.3078V19.48H27.9072ZM27.9072 10.52C27.9072 8.8832 28.2304 7.53603 28.8097 6.41754L24.7253 4.30245C23.7579 6.17063 23.3078 8.26346 23.3078 10.52H27.9072ZM28.7947 6.44598C29.3925 5.33006 30.2016 4.50961 31.2444 3.93033L29.0106 -0.0903342C27.1734 0.930383 25.7425 2.40327 24.7403 4.27401L28.7947 6.44598ZM31.2725 3.91445C32.3175 3.31452 33.5787 2.97974 35.1275 2.97974V-1.61974C32.8897 -1.61974 30.8175 -1.12785 28.9825 -0.0744575L31.2725 3.91445ZM35.1275 2.97974H39.3675V-1.61974H35.1275V2.97974ZM39.3675 2.97974C40.851 2.97974 42.0674 3.30907 43.0864 3.9051L45.4086 -0.0651077C43.601 -1.1224 41.564 -1.61974 39.3675 -1.61974V2.97974ZM43.1147 3.92136C44.1255 4.49351 44.9095 5.3055 45.4853 6.41754L49.5697 4.30246C48.5989 2.42783 47.1962 0.946486 45.3803 -0.0813645L43.1147 3.92136ZM45.5003 6.44599C46.0963 7.55848 46.4278 8.89532 46.4278 10.52H51.0272C51.0272 8.25135 50.5587 6.14818 49.5547 4.27401L45.5003 6.44599ZM46.4278 10.52V19.48H51.0272V10.52H46.4278ZM46.4278 19.48C46.4278 21.1168 46.1046 22.464 45.5253 23.5825L49.6097 25.6975C50.5771 23.8294 51.0272 21.7365 51.0272 19.48H46.4278ZM45.5253 23.5825C44.9463 24.7005 44.1536 25.5341 43.1264 26.1349L45.4486 30.1051C47.248 29.0526 48.642 27.5661 49.6097 25.6975L45.5253 23.5825ZM43.1547 26.1186C42.1356 26.6955 40.8972 27.0203 39.3675 27.0203V31.6197C41.5712 31.6197 43.6127 31.1445 45.4203 30.1214L43.1547 26.1186ZM39.3675 27.0203H35.1275V31.6197H39.3675V27.0203ZM39.2875 26.7397C41.1268 26.7397 42.7411 26.0064 43.8939 24.5432L40.2811 21.6968C40.0472 21.9936 39.7949 22.1403 39.2875 22.1403V26.7397ZM43.8885 24.5502C45.0094 23.1386 45.4672 21.405 45.4672 19.56H40.8678C40.8678 20.6483 40.6056 21.2881 40.2866 21.6898L43.8885 24.5502ZM45.4672 19.56V10.44H40.8678V19.56H45.4672ZM45.4672 10.44C45.4672 8.59875 45.0108 6.86116 43.8674 5.46372L40.3076 8.37628C40.6042 8.73883 40.8678 9.34791 40.8678 10.44H45.4672ZM43.9143 5.52302C42.7718 4.02895 41.1536 3.26026 39.2875 3.26026V7.85974C39.768 7.85974 40.0165 7.99771 40.2607 8.31697L43.9143 5.52302ZM39.2875 3.26026H35.2075V7.85974H39.2875V3.26026ZM35.2075 3.26026C33.3287 3.26026 31.6776 3.99439 30.4723 5.45804L34.0227 8.38196C34.3107 8.03228 34.6329 7.85974 35.2075 7.85974V3.26026ZM30.4939 5.43212C29.3077 6.83014 28.8278 8.57971 28.8278 10.44H33.4272C33.4272 9.36695 33.6939 8.76986 34.0011 8.40788L30.4939 5.43212ZM28.8278 10.44V19.56H33.4272V10.44H28.8278ZM28.8278 19.56C28.8278 21.4238 29.3089 23.1694 30.4723 24.582L34.0227 21.658C33.6927 21.2573 33.4272 20.6296 33.4272 19.56H28.8278ZM30.4939 24.6079C31.7079 26.0387 33.3539 26.7397 35.2075 26.7397V22.1403C34.6078 22.1403 34.2804 21.9613 34.0011 21.6321L30.4939 24.6079ZM35.2075 26.7397H39.2875V22.1403H35.2075V26.7397Z" fill="url(#paint1_linear_694_1231)" mask="url(#path-1-inside-1_694_1231)"/>
<defs>
<filter id="filter0_i_694_1231" x="0.120117" y="0.680054" width="48.6074" height="37.8388" filterUnits="userSpaceOnUse" color-interpolation-filters="sRGB">
<feFlood flood-opacity="0" result="BackgroundImageFix"/>
<feBlend mode="normal" in="SourceGraphic" in2="BackgroundImageFix" result="shape"/>
<feColorMatrix in="SourceAlpha" type="matrix" values="0 0 0 0 0 0 0 0 0 0 0 0 0 0 0 0 0 0 127 0" result="hardAlpha"/>
<feOffset dy="9.19895"/>
<feGaussianBlur stdDeviation="6.89921"/>
<feComposite in2="hardAlpha" operator="arithmetic" k2="-1" k3="1"/>
<feColorMatrix type="matrix" values="0 0 0 0 1 0 0 0 0 1 0 0 0 0 1 0 0 0 0.6 0"/>
<feBlend mode="normal" in2="shape" result="effect1_innerShadow_694_1231"/>
</filter>
<linearGradient id="paint0_linear_694_1231" x1="41.6208" y1="-3.95834" x2="5.01715" y2="45.8018" gradientUnits="userSpaceOnUse">
<stop stop-color="#FDFFFE"/>
<stop offset="0.23" stop-color="#7ABBAC"/>
<stop offset="0.39" stop-color="#B1FFEF"/>
<stop offset="0.535" stop-color="#8AD2C3"/>
<stop offset="0.745" stop-color="#CFFEF4"/>
<stop offset="0.915" stop-color="#6CA196"/>
<stop offset="1" stop-color="#35544E"/>
</linearGradient>
<linearGradient id="paint1_linear_694_1231" x1="25.5" y1="-6" x2="25.5" y2="35.8542" gradientUnits="userSpaceOnUse">
<stop stop-color="white" stop-opacity="0.53"/>
<stop offset="1" stop-color="white" stop-opacity="0"/>
</linearGradient>
</defs>
</svg>
