<svg width="49" height="29" viewBox="0 0 49 29" fill="none" xmlns="http://www.w3.org/2000/svg">
<mask id="path-1-inside-1_694_1237" fill="white">
<path d="M15.24 22.64H3.84C2.72 22.64 1.85333 22.4 1.24 21.92C0.626667 21.44 0.32 20.7467 0.32 19.84V18.72L15.2 -1.90735e-06H20.76V17.76H24.28V22.64H20.76V28H15.24V22.64ZM15.4 18V6.92H15.36L6.6 18H15.4ZM35.1638 28.32C32.3904 28.32 30.2304 27.5333 28.6838 25.96C27.1371 24.3867 26.3638 22.2 26.3638 19.4H31.8038C31.8038 20.6533 32.0971 21.64 32.6838 22.36C33.2704 23.08 34.0971 23.44 35.1638 23.44H39.0038C40.1771 23.44 41.1104 23.12 41.8038 22.48C42.5238 21.84 42.8838 20.9867 42.8838 19.92V17.76C42.8838 16.8267 42.5104 16.0667 41.7638 15.48C41.0438 14.8933 40.0838 14.6 38.8838 14.6H27.3238V-1.90735e-06H47.3638V4.88H32.8438V9.72H38.8838C40.7771 9.72 42.4438 10.0533 43.8838 10.72C45.3238 11.3867 46.4304 12.3333 47.2038 13.56C48.0038 14.76 48.4038 16.16 48.4038 17.76V19.92C48.4038 21.5733 48.0038 23.04 47.2038 24.32C46.4304 25.6 45.3371 26.5867 43.9238 27.28C42.5104 27.9733 40.8704 28.32 39.0038 28.32H35.1638Z"/>
</mask>
<g filter="url(#filter0_i_694_1237)">
<path d="M15.24 22.64H3.84C2.72 22.64 1.85333 22.4 1.24 21.92C0.626667 21.44 0.32 20.7467 0.32 19.84V18.72L15.2 -1.90735e-06H20.76V17.76H24.28V22.64H20.76V28H15.24V22.64ZM15.4 18V6.92H15.36L6.6 18H15.4ZM35.1638 28.32C32.3904 28.32 30.2304 27.5333 28.6838 25.96C27.1371 24.3867 26.3638 22.2 26.3638 19.4H31.8038C31.8038 20.6533 32.0971 21.64 32.6838 22.36C33.2704 23.08 34.0971 23.44 35.1638 23.44H39.0038C40.1771 23.44 41.1104 23.12 41.8038 22.48C42.5238 21.84 42.8838 20.9867 42.8838 19.92V17.76C42.8838 16.8267 42.5104 16.0667 41.7638 15.48C41.0438 14.8933 40.0838 14.6 38.8838 14.6H27.3238V-1.90735e-06H47.3638V4.88H32.8438V9.72H38.8838C40.7771 9.72 42.4438 10.0533 43.8838 10.72C45.3238 11.3867 46.4304 12.3333 47.2038 13.56C48.0038 14.76 48.4038 16.16 48.4038 17.76V19.92C48.4038 21.5733 48.0038 23.04 47.2038 24.32C46.4304 25.6 45.3371 26.5867 43.9238 27.28C42.5104 27.9733 40.8704 28.32 39.0038 28.32H35.1638Z" fill="url(#paint0_linear_694_1237)"/>
</g>
<path d="M15.24 22.64H17.5397V20.3403H15.24V22.64ZM1.24 21.92L2.65735 20.1089L2.65735 20.1089L1.24 21.92ZM0.32 18.72L-1.48029 17.289L-1.97974 17.9173V18.72H0.32ZM15.2 -1.90735e-06V-2.29974H14.0902L13.3997 -1.431L15.2 -1.90735e-06ZM20.76 -1.90735e-06H23.0597V-2.29974H20.76V-1.90735e-06ZM20.76 17.76H18.4603V20.0597H20.76V17.76ZM24.28 17.76H26.5797V15.4603H24.28V17.76ZM24.28 22.64V24.9397H26.5797V22.64H24.28ZM20.76 22.64V20.3403H18.4603V22.64H20.76ZM20.76 28V30.2997H23.0597V28H20.76ZM15.24 28H12.9403V30.2997H15.24V28ZM15.4 18V20.2997H17.6997V18H15.4ZM15.4 6.92H17.6997V4.62026H15.4V6.92ZM15.36 6.92V4.62026H14.2465L13.556 5.49371L15.36 6.92ZM6.6 18L4.79598 16.5737L1.85013 20.2997H6.6V18ZM15.24 20.3403H3.84V24.9397H15.24V20.3403ZM3.84 20.3403C3.01523 20.3403 2.72233 20.1598 2.65735 20.1089L-0.177348 23.7311C0.984339 24.6402 2.42477 24.9397 3.84 24.9397V20.3403ZM2.65735 20.1089C2.64362 20.0982 2.64274 20.0952 2.64725 20.101C2.65195 20.107 2.65401 20.1116 2.65319 20.1097C2.65229 20.1077 2.61974 20.0346 2.61974 19.84H-1.97974C-1.97974 21.3232 -1.44308 22.7405 -0.177347 23.7311L2.65735 20.1089ZM2.61974 19.84V18.72H-1.97974V19.84H2.61974ZM2.12029 20.151L17.0003 1.431L13.3997 -1.431L-1.48029 17.289L2.12029 20.151ZM15.2 2.29974H20.76V-2.29974H15.2V2.29974ZM18.4603 -1.90735e-06V17.76H23.0597V-1.90735e-06H18.4603ZM20.76 20.0597H24.28V15.4603H20.76V20.0597ZM21.9803 17.76V22.64H26.5797V17.76H21.9803ZM24.28 20.3403H20.76V24.9397H24.28V20.3403ZM18.4603 22.64V28H23.0597V22.64H18.4603ZM20.76 25.7003H15.24V30.2997H20.76V25.7003ZM17.5397 28V22.64H12.9403V28H17.5397ZM17.6997 18V6.92H13.1003V18H17.6997ZM15.4 4.62026H15.36V9.21974H15.4V4.62026ZM13.556 5.49371L4.79598 16.5737L8.40402 19.4263L17.164 8.34629L13.556 5.49371ZM6.6 20.2997H15.4V15.7003H6.6V20.2997ZM28.6838 25.96L27.0438 27.5722L27.0438 27.5722L28.6838 25.96ZM26.3638 19.4V17.1003H24.064V19.4H26.3638ZM31.8038 19.4H34.1035V17.1003H31.8038V19.4ZM32.6838 22.36L30.9009 23.8127L30.9009 23.8127L32.6838 22.36ZM41.8038 22.48L40.2759 20.7612L40.2598 20.7755L40.2439 20.7901L41.8038 22.48ZM41.7638 15.48L40.3111 17.2628L40.3269 17.2757L40.3429 17.2883L41.7638 15.48ZM27.3238 14.6H25.024V16.8997H27.3238V14.6ZM27.3238 -1.90735e-06V-2.29974H25.024V-1.90735e-06H27.3238ZM47.3638 -1.90735e-06H49.6635V-2.29974H47.3638V-1.90735e-06ZM47.3638 4.88V7.17974H49.6635V4.88H47.3638ZM32.8438 4.88V2.58026H30.544V4.88H32.8438ZM32.8438 9.72H30.544V12.0197H32.8438V9.72ZM43.8838 10.72L42.9176 12.8069L42.9176 12.8069L43.8838 10.72ZM47.2038 13.56L45.2583 14.7865L45.274 14.8113L45.2903 14.8357L47.2038 13.56ZM47.2038 24.32L45.2536 23.1011L45.2444 23.1159L45.2354 23.1308L47.2038 24.32ZM43.9238 27.28L44.9366 29.3447L43.9238 27.28ZM35.1638 26.0203C32.8396 26.0203 31.3332 25.3747 30.3237 24.3478L27.0438 27.5722C29.1276 29.692 31.9413 30.6197 35.1638 30.6197V26.0203ZM30.3237 24.3478C29.3058 23.3123 28.6635 21.767 28.6635 19.4H24.064C24.064 22.633 24.9684 25.461 27.0438 27.5722L30.3237 24.3478ZM26.3638 21.6997H31.8038V17.1003H26.3638V21.6997ZM29.504 19.4C29.504 20.9978 29.8793 22.5589 30.9009 23.8127L34.4666 20.9073C34.3148 20.7211 34.1035 20.3089 34.1035 19.4H29.504ZM30.9009 23.8127C31.9923 25.1521 33.521 25.7397 35.1638 25.7397V21.1403C34.6732 21.1403 34.5486 21.0079 34.4666 20.9073L30.9009 23.8127ZM35.1638 25.7397H39.0038V21.1403H35.1638V25.7397ZM39.0038 25.7397C40.608 25.7397 42.1485 25.2915 43.3636 24.1699L40.2439 20.7901C40.0724 20.9485 39.7461 21.1403 39.0038 21.1403V25.7397ZM43.3316 24.1988C44.5985 23.0727 45.1835 21.5648 45.1835 19.92H40.584C40.584 20.4085 40.449 20.6073 40.2759 20.7612L43.3316 24.1988ZM45.1835 19.92V17.76H40.584V19.92H45.1835ZM45.1835 17.76C45.1835 16.1067 44.4749 14.6855 43.1846 13.6717L40.3429 17.2883C40.546 17.4479 40.584 17.5466 40.584 17.76H45.1835ZM43.2164 13.6972C41.9791 12.689 40.4562 12.3003 38.8838 12.3003V16.8997C39.7113 16.8997 40.1084 17.0977 40.3111 17.2628L43.2164 13.6972ZM38.8838 12.3003H27.3238V16.8997H38.8838V12.3003ZM29.6235 14.6V-1.90735e-06H25.024V14.6H29.6235ZM27.3238 2.29974H47.3638V-2.29974H27.3238V2.29974ZM45.064 -1.90735e-06V4.88H49.6635V-1.90735e-06H45.064ZM47.3638 2.58026H32.8438V7.17974H47.3638V2.58026ZM30.544 4.88V9.72H35.1435V4.88H30.544ZM32.8438 12.0197H38.8838V7.42026H32.8438V12.0197ZM38.8838 12.0197C40.507 12.0197 41.8332 12.3049 42.9176 12.8069L44.8499 8.63306C43.0543 7.80175 41.0472 7.42026 38.8838 7.42026V12.0197ZM42.9176 12.8069C43.9945 13.3055 44.7438 13.9702 45.2583 14.7865L49.1492 12.3335C48.1171 10.6964 46.653 9.46783 44.8499 8.63306L42.9176 12.8069ZM45.2903 14.8357C45.8112 15.6171 46.104 16.5624 46.104 17.76H50.7035C50.7035 15.7576 50.1963 13.9029 49.1172 12.2843L45.2903 14.8357ZM46.104 17.76V19.92H50.7035V17.76H46.104ZM46.104 19.92C46.104 21.1849 45.8036 22.2211 45.2536 23.1011L49.1539 25.5389C50.2039 23.8589 50.7035 21.9618 50.7035 19.92H46.104ZM45.2354 23.1308C44.7023 24.013 43.9503 24.7054 42.9109 25.2153L44.9366 29.3447C46.7239 28.4679 48.1585 27.187 49.1721 25.5092L45.2354 23.1308ZM42.9109 25.2153C41.8662 25.7278 40.584 26.0203 39.0038 26.0203V30.6197C41.1568 30.6197 43.1547 30.2188 44.9366 29.3447L42.9109 25.2153ZM39.0038 26.0203H35.1638V30.6197H39.0038V26.0203Z" fill="url(#paint1_linear_694_1237)" mask="url(#path-1-inside-1_694_1237)"/>
<defs>
<filter id="filter0_i_694_1237" x="0.320068" y="0" width="48.0837" height="37.5189" filterUnits="userSpaceOnUse" color-interpolation-filters="sRGB">
<feFlood flood-opacity="0" result="BackgroundImageFix"/>
<feBlend mode="normal" in="SourceGraphic" in2="BackgroundImageFix" result="shape"/>
<feColorMatrix in="SourceAlpha" type="matrix" values="0 0 0 0 0 0 0 0 0 0 0 0 0 0 0 0 0 0 127 0" result="hardAlpha"/>
<feOffset dy="9.19895"/>
<feGaussianBlur stdDeviation="6.89921"/>
<feComposite in2="hardAlpha" operator="arithmetic" k2="-1" k3="1"/>
<feColorMatrix type="matrix" values="0 0 0 0 1 0 0 0 0 1 0 0 0 0 1 0 0 0 0.6 0"/>
<feBlend mode="normal" in2="shape" result="effect1_innerShadow_694_1237"/>
</filter>
<linearGradient id="paint0_linear_694_1237" x1="40.2083" y1="-5.375" x2="12.8617" y2="38.6892" gradientUnits="userSpaceOnUse">
<stop stop-color="#FDFFFE"/>
<stop offset="0.23" stop-color="#7ABBAC"/>
<stop offset="0.39" stop-color="#B1FFEF"/>
<stop offset="0.535" stop-color="#8AD2C3"/>
<stop offset="0.745" stop-color="#CFFEF4"/>
<stop offset="0.915" stop-color="#6CA196"/>
<stop offset="1" stop-color="#35544E"/>
</linearGradient>
<linearGradient id="paint1_linear_694_1237" x1="25" y1="-7" x2="25" y2="26.3125" gradientUnits="userSpaceOnUse">
<stop stop-color="white" stop-opacity="0.53"/>
<stop offset="1" stop-color="white" stop-opacity="0"/>
</linearGradient>
</defs>
</svg>
