<svg width="23" height="29" viewBox="0 0 23 29" fill="none" xmlns="http://www.w3.org/2000/svg">
<mask id="path-1-inside-1_829_2171" fill="white">
<path d="M9.32 28.32C6.54667 28.32 4.38667 27.5333 2.84 25.96C1.29333 24.3867 0.52 22.2 0.52 19.4H5.96C5.96 20.6533 6.25333 21.64 6.84 22.36C7.42667 23.08 8.25333 23.44 9.32 23.44H13.16C14.3333 23.44 15.2667 23.12 15.96 22.48C16.68 21.84 17.04 20.9867 17.04 19.92V17.76C17.04 16.8267 16.6667 16.0667 15.92 15.48C15.2 14.8933 14.24 14.6 13.04 14.6H1.48V-1.90735e-06H21.52V4.88H7V9.72H13.04C14.9333 9.72 16.6 10.0533 18.04 10.72C19.48 11.3867 20.5867 12.3333 21.36 13.56C22.16 14.76 22.56 16.16 22.56 17.76V19.92C22.56 21.5733 22.16 23.04 21.36 24.32C20.5867 25.6 19.4933 26.5867 18.08 27.28C16.6667 27.9733 15.0267 28.32 13.16 28.32H9.32Z"/>
</mask>
<g filter="url(#filter0_i_829_2171)">
<path d="M9.32 28.32C6.54667 28.32 4.38667 27.5333 2.84 25.96C1.29333 24.3867 0.52 22.2 0.52 19.4H5.96C5.96 20.6533 6.25333 21.64 6.84 22.36C7.42667 23.08 8.25333 23.44 9.32 23.44H13.16C14.3333 23.44 15.2667 23.12 15.96 22.48C16.68 21.84 17.04 20.9867 17.04 19.92V17.76C17.04 16.8267 16.6667 16.0667 15.92 15.48C15.2 14.8933 14.24 14.6 13.04 14.6H1.48V-1.90735e-06H21.52V4.88H7V9.72H13.04C14.9333 9.72 16.6 10.0533 18.04 10.72C19.48 11.3867 20.5867 12.3333 21.36 13.56C22.16 14.76 22.56 16.16 22.56 17.76V19.92C22.56 21.5733 22.16 23.04 21.36 24.32C20.5867 25.6 19.4933 26.5867 18.08 27.28C16.6667 27.9733 15.0267 28.32 13.16 28.32H9.32Z" fill="url(#paint0_linear_829_2171)"/>
</g>
<path d="M2.84 25.96L1.2 27.5722L1.2 27.5722L2.84 25.96ZM0.52 19.4V17.1003H-1.77974V19.4H0.52ZM5.96 19.4H8.25974V17.1003H5.96V19.4ZM6.84 22.36L5.05716 23.8127L5.05716 23.8127L6.84 22.36ZM15.96 22.48L14.4321 20.7612L14.416 20.7755L14.4001 20.7901L15.96 22.48ZM15.92 15.48L14.4673 17.2628L14.4831 17.2757L14.4992 17.2883L15.92 15.48ZM1.48 14.6H-0.819738V16.8997H1.48V14.6ZM1.48 -1.90735e-06V-2.29974H-0.819738V-1.90735e-06H1.48ZM21.52 -1.90735e-06H23.8197V-2.29974H21.52V-1.90735e-06ZM21.52 4.88V7.17974H23.8197V4.88H21.52ZM7 4.88V2.58026H4.70026V4.88H7ZM7 9.72H4.70026V12.0197H7V9.72ZM18.04 10.72L17.0738 12.8069L17.0738 12.8069L18.04 10.72ZM21.36 13.56L19.4146 14.7865L19.4302 14.8113L19.4465 14.8357L21.36 13.56ZM21.36 24.32L19.4098 23.1011L19.4006 23.1159L19.3916 23.1308L21.36 24.32ZM18.08 27.28L19.0929 29.3447L18.08 27.28ZM9.32 26.0203C6.99583 26.0203 5.48948 25.3747 4.48 24.3478L1.2 27.5722C3.28386 29.692 6.0975 30.6197 9.32 30.6197V26.0203ZM4.48 24.3478C3.46206 23.3123 2.81974 21.767 2.81974 19.4H-1.77974C-1.77974 22.633 -0.875395 25.461 1.2 27.5722L4.48 24.3478ZM0.52 21.6997H5.96V17.1003H0.52V21.6997ZM3.66026 19.4C3.66026 20.9978 4.03558 22.5589 5.05716 23.8127L8.62284 20.9073C8.47109 20.7211 8.25974 20.3089 8.25974 19.4H3.66026ZM5.05716 23.8127C6.14851 25.1521 7.67721 25.7397 9.32 25.7397V21.1403C8.82946 21.1403 8.70482 21.0079 8.62284 20.9073L5.05716 23.8127ZM9.32 25.7397H13.16V21.1403H9.32V25.7397ZM13.16 25.7397C14.7643 25.7397 16.3047 25.2915 17.5199 24.1699L14.4001 20.7901C14.2286 20.9485 13.9024 21.1403 13.16 21.1403V25.7397ZM17.4879 24.1988C18.7548 23.0727 19.3397 21.5648 19.3397 19.92H14.7403C14.7403 20.4085 14.6052 20.6073 14.4321 20.7612L17.4879 24.1988ZM19.3397 19.92V17.76H14.7403V19.92H19.3397ZM19.3397 17.76C19.3397 16.1067 18.6311 14.6855 17.3408 13.6717L14.4992 17.2883C14.7022 17.4479 14.7403 17.5466 14.7403 17.76H19.3397ZM17.3727 13.6972C16.1354 12.689 14.6125 12.3003 13.04 12.3003V16.8997C13.8675 16.8997 14.2646 17.0977 14.4673 17.2628L17.3727 13.6972ZM13.04 12.3003H1.48V16.8997H13.04V12.3003ZM3.77974 14.6V-1.90735e-06H-0.819738V14.6H3.77974ZM1.48 2.29974H21.52V-2.29974H1.48V2.29974ZM19.2203 -1.90735e-06V4.88H23.8197V-1.90735e-06H19.2203ZM21.52 2.58026H7V7.17974H21.52V2.58026ZM4.70026 4.88V9.72H9.29974V4.88H4.70026ZM7 12.0197H13.04V7.42026H7V12.0197ZM13.04 12.0197C14.6632 12.0197 15.9895 12.3049 17.0738 12.8069L19.0062 8.63306C17.2105 7.80175 15.2034 7.42026 13.04 7.42026V12.0197ZM17.0738 12.8069C18.1507 13.3055 18.9 13.9702 19.4146 14.7865L23.3054 12.3335C22.2733 10.6964 20.8093 9.46783 19.0062 8.63306L17.0738 12.8069ZM19.4465 14.8357C19.9675 15.6171 20.2603 16.5624 20.2603 17.76H24.8597C24.8597 15.7576 24.3525 13.9029 23.2735 12.2843L19.4465 14.8357ZM20.2603 17.76V19.92H24.8597V17.76H20.2603ZM20.2603 19.92C20.2603 21.1849 19.9598 22.2211 19.4098 23.1011L23.3102 25.5389C24.3602 23.8589 24.8597 21.9618 24.8597 19.92H20.2603ZM19.3916 23.1308C18.8586 24.013 18.1065 24.7054 17.0671 25.2153L19.0929 29.3447C20.8801 28.4679 22.3148 27.187 23.3284 25.5092L19.3916 23.1308ZM17.0671 25.2153C16.0224 25.7278 14.7402 26.0203 13.16 26.0203V30.6197C15.3131 30.6197 17.3109 30.2188 19.0929 29.3447L17.0671 25.2153ZM13.16 26.0203H9.32V30.6197H13.16V26.0203Z" fill="url(#paint1_linear_829_2171)" mask="url(#path-1-inside-1_829_2171)"/>
<defs>
<filter id="filter0_i_829_2171" x="0.52002" y="0" width="22.04" height="37.5189" filterUnits="userSpaceOnUse" color-interpolation-filters="sRGB">
<feFlood flood-opacity="0" result="BackgroundImageFix"/>
<feBlend mode="normal" in="SourceGraphic" in2="BackgroundImageFix" result="shape"/>
<feColorMatrix in="SourceAlpha" type="matrix" values="0 0 0 0 0 0 0 0 0 0 0 0 0 0 0 0 0 0 127 0" result="hardAlpha"/>
<feOffset dy="9.19895"/>
<feGaussianBlur stdDeviation="6.89921"/>
<feComposite in2="hardAlpha" operator="arithmetic" k2="-1" k3="1"/>
<feColorMatrix type="matrix" values="0 0 0 0 1 0 0 0 0 1 0 0 0 0 1 0 0 0 0.6 0"/>
<feBlend mode="normal" in2="shape" result="effect1_innerShadow_829_2171"/>
</filter>
<linearGradient id="paint0_linear_829_2171" x1="33.5792" y1="-5.375" x2="4.61625" y2="34.76" gradientUnits="userSpaceOnUse">
<stop stop-color="#FDFFFE"/>
<stop offset="0.23" stop-color="#7ABBAC"/>
<stop offset="0.39" stop-color="#B1FFEF"/>
<stop offset="0.535" stop-color="#8AD2C3"/>
<stop offset="0.745" stop-color="#CFFEF4"/>
<stop offset="0.915" stop-color="#6CA196"/>
<stop offset="1" stop-color="#35544E"/>
</linearGradient>
<linearGradient id="paint1_linear_829_2171" x1="20.5" y1="-7" x2="20.5" y2="26.3125" gradientUnits="userSpaceOnUse">
<stop stop-color="white" stop-opacity="0.53"/>
<stop offset="1" stop-color="white" stop-opacity="0"/>
</linearGradient>
</defs>
</svg>
