<svg width="50" height="16" viewBox="0 0 50 16" fill="none" xmlns="http://www.w3.org/2000/svg">
<mask id="path-1-inside-1_694_1231" fill="white">
<path d="M2.18 15C1.60667 15 1.14 14.8267 0.78 14.48C0.42 14.1333 0.24 13.68 0.24 13.12V0.999999H6.92C7.98667 0.999999 8.92 1.2 9.72 1.6C10.5333 2 11.16 2.56667 11.6 3.3C12.0533 4.03333 12.28 4.88 12.28 5.84V9.76C12.28 11.48 11.8333 12.7867 10.94 13.68C10.0467 14.56 8.73333 15 7 15H2.18ZM6.92 12.56C7.77333 12.56 8.42 12.3133 8.86 11.82C9.3 11.3267 9.52 10.6 9.52 9.64V5.96C9.52 5.2 9.27333 4.59333 8.78 4.14C8.28667 3.67333 7.64 3.44 6.84 3.44H3V12.56H6.92ZM22.1705 11.74H16.9305L15.6905 15H12.8105L18.2905 0.999999H19.5305C20.3971 0.999999 20.9838 1.4 21.2905 2.2L26.2705 15H23.3905L22.1705 11.74ZM17.6705 9.42H21.4305L19.5705 4.38H19.5505L17.6705 9.42ZM29.4525 9.56L24.2725 0.999999H27.2725L30.8325 7.02L34.3925 0.999999H37.3925L32.2125 9.56V15H29.4525V9.56ZM42.4088 15.16C40.9421 15.16 39.7954 14.7533 38.9688 13.94C38.1421 13.1133 37.7288 11.9667 37.7288 10.5H40.4488C40.4488 11.1933 40.6221 11.74 40.9688 12.14C41.3288 12.5267 41.8221 12.72 42.4488 12.72H44.6688C45.2554 12.72 45.7288 12.6 46.0888 12.36C46.4621 12.1067 46.6488 11.7733 46.6488 11.36V10.68C46.6488 10.0267 46.1688 9.62 45.2088 9.46L41.5288 8.84C40.3288 8.64 39.4154 8.26 38.7888 7.7C38.1754 7.12667 37.8688 6.4 37.8688 5.52V4.4C37.8688 3.69333 38.0554 3.07333 38.4288 2.54C38.8154 1.99333 39.3554 1.57333 40.0488 1.28C40.7554 0.986666 41.5688 0.84 42.4888 0.84H44.7488C45.6154 0.84 46.3821 1.02 47.0488 1.38C47.7154 1.74 48.2288 2.24667 48.5888 2.9C48.9621 3.54 49.1488 4.28667 49.1488 5.14H46.4288C46.4288 4.58 46.2754 4.13333 45.9688 3.8C45.6621 3.45333 45.2554 3.28 44.7488 3.28H42.4888C41.9288 3.28 41.4754 3.4 41.1288 3.64C40.7954 3.88 40.6288 4.2 40.6288 4.6V5.14C40.6288 5.80667 41.0888 6.22 42.0088 6.38L45.6688 7.02C46.8821 7.23333 47.8088 7.61333 48.4488 8.16C49.0888 8.69333 49.4088 9.38667 49.4088 10.24V11.56C49.4088 12.2667 49.2088 12.8933 48.8088 13.44C48.4221 13.9867 47.8754 14.4133 47.1688 14.72C46.4621 15.0133 45.6421 15.16 44.7088 15.16H42.4088Z"/>
</mask>
<g filter="url(#filter0_i_694_1231)">
<path d="M2.18 15C1.60667 15 1.14 14.8267 0.78 14.48C0.42 14.1333 0.24 13.68 0.24 13.12V0.999999H6.92C7.98667 0.999999 8.92 1.2 9.72 1.6C10.5333 2 11.16 2.56667 11.6 3.3C12.0533 4.03333 12.28 4.88 12.28 5.84V9.76C12.28 11.48 11.8333 12.7867 10.94 13.68C10.0467 14.56 8.73333 15 7 15H2.18ZM6.92 12.56C7.77333 12.56 8.42 12.3133 8.86 11.82C9.3 11.3267 9.52 10.6 9.52 9.64V5.96C9.52 5.2 9.27333 4.59333 8.78 4.14C8.28667 3.67333 7.64 3.44 6.84 3.44H3V12.56H6.92ZM22.1705 11.74H16.9305L15.6905 15H12.8105L18.2905 0.999999H19.5305C20.3971 0.999999 20.9838 1.4 21.2905 2.2L26.2705 15H23.3905L22.1705 11.74ZM17.6705 9.42H21.4305L19.5705 4.38H19.5505L17.6705 9.42ZM29.4525 9.56L24.2725 0.999999H27.2725L30.8325 7.02L34.3925 0.999999H37.3925L32.2125 9.56V15H29.4525V9.56ZM42.4088 15.16C40.9421 15.16 39.7954 14.7533 38.9688 13.94C38.1421 13.1133 37.7288 11.9667 37.7288 10.5H40.4488C40.4488 11.1933 40.6221 11.74 40.9688 12.14C41.3288 12.5267 41.8221 12.72 42.4488 12.72H44.6688C45.2554 12.72 45.7288 12.6 46.0888 12.36C46.4621 12.1067 46.6488 11.7733 46.6488 11.36V10.68C46.6488 10.0267 46.1688 9.62 45.2088 9.46L41.5288 8.84C40.3288 8.64 39.4154 8.26 38.7888 7.7C38.1754 7.12667 37.8688 6.4 37.8688 5.52V4.4C37.8688 3.69333 38.0554 3.07333 38.4288 2.54C38.8154 1.99333 39.3554 1.57333 40.0488 1.28C40.7554 0.986666 41.5688 0.84 42.4888 0.84H44.7488C45.6154 0.84 46.3821 1.02 47.0488 1.38C47.7154 1.74 48.2288 2.24667 48.5888 2.9C48.9621 3.54 49.1488 4.28667 49.1488 5.14H46.4288C46.4288 4.58 46.2754 4.13333 45.9688 3.8C45.6621 3.45333 45.2554 3.28 44.7488 3.28H42.4888C41.9288 3.28 41.4754 3.4 41.1288 3.64C40.7954 3.88 40.6288 4.2 40.6288 4.6V5.14C40.6288 5.80667 41.0888 6.22 42.0088 6.38L45.6688 7.02C46.8821 7.23333 47.8088 7.61333 48.4488 8.16C49.0888 8.69333 49.4088 9.38667 49.4088 10.24V11.56C49.4088 12.2667 49.2088 12.8933 48.8088 13.44C48.4221 13.9867 47.8754 14.4133 47.1688 14.72C46.4621 15.0133 45.6421 15.16 44.7088 15.16H42.4088Z" fill="url(#paint0_linear_694_1231)"/>
</g>
<path d="M0.78 14.48L-0.815194 16.1365L-0.815194 16.1365L0.78 14.48ZM0.24 0.999999V-1.29974H-2.05974V0.999999H0.24ZM9.72 1.6L8.69153 3.65695L8.69829 3.66033L8.70508 3.66367L9.72 1.6ZM11.6 3.3L9.62799 4.48321L9.63584 4.49628L9.64386 4.50925L11.6 3.3ZM10.94 13.68L12.5539 15.3183L12.56 15.3123L12.5662 15.3062L10.94 13.68ZM8.86 11.82L10.5763 13.3507L10.5763 13.3507L8.86 11.82ZM8.78 4.14L7.19962 5.81069L7.2117 5.82211L7.22394 5.83336L8.78 4.14ZM3 3.44V1.14026H0.700262V3.44H3ZM3 12.56H0.700262V14.8597H3V12.56ZM2.18 12.7003C2.12582 12.7003 2.14214 12.6924 2.20074 12.7142C2.22924 12.7248 2.26155 12.7401 2.2945 12.7609C2.32742 12.7816 2.35454 12.8036 2.37519 12.8235L-0.815194 16.1365C0.0368695 16.9571 1.10623 17.2997 2.18 17.2997V12.7003ZM2.37519 12.8235C2.42549 12.8719 2.47833 12.9455 2.51241 13.0313C2.54433 13.1117 2.53974 13.152 2.53974 13.12H-2.05974C-2.05974 14.2222 -1.68172 15.3021 -0.815194 16.1365L2.37519 12.8235ZM2.53974 13.12V0.999999H-2.05974V13.12H2.53974ZM0.24 3.29974H6.92V-1.29974H0.24V3.29974ZM6.92 3.29974C7.69782 3.29974 8.26671 3.44454 8.69153 3.65695L10.7485 -0.456948C9.57329 -1.04454 8.27551 -1.29974 6.92 -1.29974V3.29974ZM8.70508 3.66367C9.14623 3.88063 9.42954 4.15246 9.62799 4.48321L13.572 2.11679C12.8905 0.980873 11.9204 0.119368 10.7349 -0.463671L8.70508 3.66367ZM9.64386 4.50925C9.84768 4.83898 9.98026 5.25723 9.98026 5.84H14.5797C14.5797 4.50277 14.259 3.22769 13.5561 2.09075L9.64386 4.50925ZM9.98026 5.84V9.76H14.5797V5.84H9.98026ZM9.98026 9.76C9.98026 11.0961 9.63875 11.7289 9.31384 12.0538L12.5662 15.3062C14.0279 13.8444 14.5797 11.8639 14.5797 9.76H9.98026ZM9.32611 12.0417C9.00553 12.3575 8.36428 12.7003 7 12.7003V17.2997C9.10239 17.2997 11.0878 16.7625 12.5539 15.3183L9.32611 12.0417ZM7 12.7003H2.18V17.2997H7V12.7003ZM6.92 14.8597C8.22592 14.8597 9.58096 14.4667 10.5763 13.3507L7.14372 10.2893C7.15799 10.2733 7.17657 10.2567 7.19681 10.2429C7.21666 10.2294 7.22849 10.2251 7.22538 10.2263C7.21684 10.2295 7.12959 10.2603 6.92 10.2603V14.8597ZM10.5763 13.3507C11.5311 12.2802 11.8197 10.9133 11.8197 9.64H7.22026C7.22026 10.2867 7.06888 10.3732 7.14372 10.2893L10.5763 13.3507ZM11.8197 9.64V5.96H7.22026V9.64H11.8197ZM11.8197 5.96C11.8197 4.6518 11.3693 3.39613 10.3361 2.44664L7.22394 5.83336C7.22851 5.83756 7.22483 5.83487 7.21806 5.82517C7.21119 5.81533 7.20664 5.80615 7.20463 5.8012C7.19965 5.78897 7.22026 5.8299 7.22026 5.96H11.8197ZM10.3604 2.46931C9.36522 1.52794 8.11611 1.14026 6.84 1.14026V5.73974C7.01662 5.73974 7.10872 5.76533 7.14446 5.77823C7.17392 5.78886 7.18575 5.79756 7.19962 5.81069L10.3604 2.46931ZM6.84 1.14026H3V5.73974H6.84V1.14026ZM0.700262 3.44V12.56H5.29974V3.44H0.700262ZM3 14.8597H6.92V10.2603H3V14.8597ZM22.1705 11.74L24.3243 10.934L23.7653 9.44026H22.1705V11.74ZM16.9305 11.74V9.44026H15.3447L14.781 10.9224L16.9305 11.74ZM15.6905 15V17.2997H17.2762L17.84 15.8176L15.6905 15ZM12.8105 15L10.6689 14.1617L9.44064 17.2997H12.8105V15ZM18.2905 0.999999V-1.29974H16.721L16.1489 0.161745L18.2905 0.999999ZM21.2905 2.2L19.1431 3.02317L19.1472 3.03385L21.2905 2.2ZM26.2705 15V17.2997H29.6329L28.4137 14.1661L26.2705 15ZM23.3905 15L21.2366 15.806L21.7956 17.2997H23.3905V15ZM17.6705 9.42L15.5158 8.61626L14.3581 11.7197H17.6705V9.42ZM21.4305 9.42V11.7197H24.7305L23.588 8.62378L21.4305 9.42ZM19.5705 4.38L21.728 3.58378L21.1731 2.08026H19.5705V4.38ZM19.5505 4.38V2.08026H17.9538L17.3958 3.57626L19.5505 4.38ZM22.1705 9.44026H16.9305V14.0397H22.1705V9.44026ZM14.781 10.9224L13.541 14.1824L17.84 15.8176L19.08 12.5576L14.781 10.9224ZM15.6905 12.7003H12.8105V17.2997H15.6905V12.7003ZM14.952 15.8383L20.432 1.83825L16.1489 0.161745L10.6689 14.1617L14.952 15.8383ZM18.2905 3.29974H19.5305V-1.29974H18.2905V3.29974ZM19.5305 3.29974C19.6048 3.29974 19.4906 3.31309 19.3249 3.20011C19.2495 3.14866 19.1959 3.09213 19.1633 3.04827C19.1327 3.0072 19.131 2.9916 19.1431 3.02316L23.4378 1.37684C23.1521 0.631427 22.6704 -0.0857408 21.916 -0.600108C21.1636 -1.11309 20.3228 -1.29974 19.5305 -1.29974V3.29974ZM19.1472 3.03385L24.1272 15.8339L28.4137 14.1661L23.4337 1.36614L19.1472 3.03385ZM26.2705 12.7003H23.3905V17.2997H26.2705V12.7003ZM25.5443 14.194L24.3243 10.934L20.0166 12.546L21.2366 15.806L25.5443 14.194ZM17.6705 11.7197H21.4305V7.12026H17.6705V11.7197ZM23.588 8.62378L21.728 3.58378L17.413 5.17622L19.273 10.2162L23.588 8.62378ZM19.5705 2.08026H19.5505V6.67974H19.5705V2.08026ZM17.3958 3.57626L15.5158 8.61626L19.8252 10.2237L21.7052 5.18374L17.3958 3.57626ZM29.4525 9.56H31.7522V8.91834L31.42 8.36937L29.4525 9.56ZM24.2725 0.999999V-1.29974H20.1928L22.305 2.19063L24.2725 0.999999ZM27.2725 0.999999L29.252 -0.17061L28.5843 -1.29974H27.2725V0.999999ZM30.8325 7.02L28.853 8.19061L30.8325 11.538L32.812 8.19061L30.8325 7.02ZM34.3925 0.999999V-1.29974H33.0807L32.413 -0.17061L34.3925 0.999999ZM37.3925 0.999999L39.36 2.19063L41.4722 -1.29974H37.3925V0.999999ZM32.2125 9.56L30.245 8.36937L29.9128 8.91834V9.56H32.2125ZM32.2125 15V17.2997H34.5122V15H32.2125ZM29.4525 15H27.1528V17.2997H29.4525V15ZM31.42 8.36937L26.24 -0.190634L22.305 2.19063L27.485 10.7506L31.42 8.36937ZM24.2725 3.29974H27.2725V-1.29974H24.2725V3.29974ZM25.293 2.17061L28.853 8.19061L32.812 5.84939L29.252 -0.17061L25.293 2.17061ZM32.812 8.19061L36.372 2.17061L32.413 -0.17061L28.853 5.84939L32.812 8.19061ZM34.3925 3.29974H37.3925V-1.29974H34.3925V3.29974ZM35.425 -0.190635L30.245 8.36937L34.18 10.7506L39.36 2.19063L35.425 -0.190635ZM29.9128 9.56V15H34.5122V9.56H29.9128ZM32.2125 12.7003H29.4525V17.2997H32.2125V12.7003ZM31.7522 15V9.56H27.1528V15H31.7522ZM38.9688 13.94L37.3426 15.5662L37.3492 15.5728L37.3559 15.5793L38.9688 13.94ZM37.7288 10.5V8.20026H35.429V10.5H37.7288ZM40.4488 10.5H42.7485V8.20026H40.4488V10.5ZM40.9688 12.14L39.2309 13.6462L39.2577 13.6771L39.2856 13.7071L40.9688 12.14ZM46.0888 12.36L47.3644 14.2735L47.3723 14.2683L47.3801 14.263L46.0888 12.36ZM45.2088 9.46L44.8267 11.7278L44.8307 11.7284L45.2088 9.46ZM41.5288 8.84L41.9108 6.57222L41.9068 6.57155L41.5288 8.84ZM38.7888 7.7L37.2183 9.38002L37.2371 9.39763L37.2564 9.41481L38.7888 7.7ZM38.4288 2.54L36.5512 1.21197L36.5447 1.22119L38.4288 2.54ZM40.0488 1.28L39.1671 -0.844021L39.1599 -0.841027L39.1527 -0.837984L40.0488 1.28ZM47.0488 1.38L48.1415 -0.643553L48.1415 -0.643554L47.0488 1.38ZM48.5888 2.9L46.5746 4.00986L46.5881 4.03449L46.6023 4.05877L48.5888 2.9ZM49.1488 5.14V7.43974H51.4485V5.14H49.1488ZM46.4288 5.14H44.129V7.43974H46.4288V5.14ZM45.9688 3.8L44.2463 5.32375L44.2611 5.34055L44.2763 5.35705L45.9688 3.8ZM41.1288 3.64L39.8197 1.74917L39.8022 1.76127L39.785 1.77368L41.1288 3.64ZM42.0088 6.38L42.4049 4.11463L42.4028 4.11427L42.0088 6.38ZM45.6688 7.02L46.067 4.755L46.0649 4.75463L45.6688 7.02ZM48.4488 8.16L46.9551 9.90866L46.9657 9.91775L46.9765 9.92671L48.4488 8.16ZM48.8088 13.44L46.9528 12.082L46.9419 12.0969L46.9312 12.112L48.8088 13.44ZM47.1688 14.72L48.0504 16.844L48.0674 16.837L48.0843 16.8297L47.1688 14.72ZM42.4088 12.8603C41.3779 12.8603 40.8718 12.5862 40.5816 12.3007L37.3559 15.5793C38.719 16.9205 40.5063 17.4597 42.4088 17.4597V12.8603ZM40.5949 12.3138C40.303 12.0219 40.0285 11.5205 40.0285 10.5H35.429C35.429 12.4128 35.9812 14.2048 37.3426 15.5662L40.5949 12.3138ZM37.7288 12.7997H40.4488V8.20026H37.7288V12.7997ZM38.149 10.5C38.149 11.5721 38.4219 12.7127 39.2309 13.6462L42.7066 10.6338C42.7285 10.6591 42.7453 10.6841 42.7569 10.7053C42.7683 10.7261 42.7718 10.7376 42.7709 10.7349C42.7686 10.7276 42.7485 10.6584 42.7485 10.5H38.149ZM39.2856 13.7071C40.1614 14.6478 41.3128 15.0197 42.4488 15.0197V10.4203C42.3712 10.4203 42.3832 10.4085 42.4479 10.4338C42.4799 10.4463 42.5176 10.4653 42.5565 10.4918C42.5955 10.5183 42.6275 10.5467 42.6519 10.5729L39.2856 13.7071ZM42.4488 15.0197H44.6688V10.4203H42.4488V15.0197ZM44.6688 15.0197C45.552 15.0197 46.514 14.8404 47.3644 14.2735L44.8131 10.4465C44.8763 10.4044 44.9144 10.3968 44.8986 10.4008C44.8793 10.4057 44.8084 10.4203 44.6688 10.4203V15.0197ZM47.3801 14.263C48.3161 13.6278 48.9485 12.6143 48.9485 11.36H44.349C44.349 11.2064 44.3877 11.0008 44.5022 10.7963C44.6124 10.5995 44.7416 10.4949 44.7974 10.457L47.3801 14.263ZM48.9485 11.36V10.68H44.349V11.36H48.9485ZM48.9485 10.68C48.9485 9.70723 48.5535 8.78957 47.7753 8.13034C47.0909 7.5505 46.2707 7.30553 45.5868 7.19155L44.8307 11.7284C45.1068 11.7745 45.0066 11.8128 44.8022 11.6397C44.6837 11.5393 44.5555 11.3875 44.4638 11.1849C44.3731 10.9847 44.349 10.8035 44.349 10.68H48.9485ZM45.5908 7.19222L41.9108 6.57222L41.1467 11.1078L44.8267 11.7278L45.5908 7.19222ZM41.9068 6.57155C40.9544 6.41281 40.5087 6.15283 40.3211 5.98519L37.2564 9.41481C38.3221 10.3672 39.7031 10.8672 41.1507 11.1084L41.9068 6.57155ZM40.3592 6.01998C40.2357 5.90454 40.1685 5.79768 40.1685 5.52H35.569C35.569 7.00232 36.1151 8.34879 37.2183 9.38002L40.3592 6.01998ZM40.1685 5.52V4.4H35.569V5.52H40.1685ZM40.1685 4.4C40.1685 4.12279 40.2334 3.97227 40.3128 3.85881L36.5447 1.22119C35.8775 2.1744 35.569 3.26388 35.569 4.4H40.1685ZM40.3063 3.86802C40.4159 3.71301 40.5954 3.5458 40.9448 3.39798L39.1527 -0.837984C38.1154 -0.399133 37.2149 0.273657 36.5512 1.21198L40.3063 3.86802ZM40.9304 3.40402C41.3072 3.24763 41.8114 3.13974 42.4888 3.13974V-1.45974C41.3261 -1.45974 40.2037 -1.2743 39.1671 -0.844021L40.9304 3.40402ZM42.4888 3.13974H44.7488V-1.45974H42.4888V3.13974ZM44.7488 3.13974C45.2893 3.13974 45.6707 3.24946 45.956 3.40355L48.1415 -0.643554C47.0935 -1.20946 45.9415 -1.45974 44.7488 -1.45974V3.13974ZM45.956 3.40355C46.2407 3.55725 46.4312 3.74962 46.5746 4.00986L50.6029 1.79014C50.0263 0.743713 49.1902 -0.0772526 48.1415 -0.643553L45.956 3.40355ZM46.6023 4.05877C46.741 4.29661 46.849 4.63118 46.849 5.14H51.4485C51.4485 3.94215 51.1831 2.78339 50.5752 1.74123L46.6023 4.05877ZM49.1488 2.84026H46.4288V7.43974H49.1488V2.84026ZM48.7285 5.14C48.7285 4.14591 48.4453 3.09526 47.6612 2.24295L44.2763 5.35705C44.2053 5.27987 44.1606 5.19583 44.1386 5.13169C44.1191 5.07479 44.129 5.06811 44.129 5.14H48.7285ZM47.6912 2.27625C46.9037 1.38601 45.8442 0.980261 44.7488 0.980261V5.57974C44.7372 5.57974 44.6525 5.57691 44.532 5.52558C44.4064 5.47205 44.3083 5.39385 44.2463 5.32375L47.6912 2.27625ZM44.7488 0.980261H42.4888V5.57974H44.7488V0.980261ZM42.4888 0.980261C41.6122 0.980261 40.659 1.16814 39.8197 1.74917L42.4378 5.53083C42.4047 5.55374 42.3752 5.56948 42.3525 5.57968C42.3414 5.58467 42.3326 5.58805 42.3265 5.59019C42.3204 5.59233 42.3172 5.59318 42.3172 5.59317C42.319 5.59271 42.3702 5.57974 42.4888 5.57974V0.980261ZM39.785 1.77368C38.8705 2.4321 38.329 3.43713 38.329 4.6H42.9285C42.9285 4.72903 42.8989 4.91988 42.7934 5.12233C42.6891 5.32261 42.5568 5.44561 42.4725 5.50632L39.785 1.77368ZM38.329 4.6V5.14H42.9285V4.6H38.329ZM38.329 5.14C38.329 6.06868 38.6803 6.98093 39.4367 7.66061C40.1123 8.26771 40.931 8.52682 41.6147 8.64573L42.4028 4.11427C42.1665 4.07318 42.2952 4.04562 42.5108 4.23939C42.6318 4.34809 42.7498 4.501 42.8308 4.69132C42.9101 4.87744 42.9285 5.03886 42.9285 5.14H38.329ZM41.6126 8.64536L45.2726 9.28536L46.0649 4.75463L42.4049 4.11463L41.6126 8.64536ZM45.2705 9.28499C46.2548 9.45806 46.7399 9.72481 46.9551 9.90866L49.9424 6.41134C48.8776 5.50185 47.5094 5.00861 46.067 4.75501L45.2705 9.28499ZM46.9765 9.92671C47.0584 9.99493 47.0764 10.0345 47.0807 10.0437C47.0856 10.0545 47.109 10.1068 47.109 10.24H51.7085C51.7085 8.7233 51.0999 7.37567 49.921 6.39329L46.9765 9.92671ZM47.109 10.24V11.56H51.7085V10.24H47.109ZM47.109 11.56C47.109 11.8009 47.0514 11.9472 46.9528 12.082L50.6647 14.798C51.3661 13.8395 51.7085 12.7324 51.7085 11.56H47.109ZM46.9312 12.112C46.8224 12.2659 46.6329 12.4456 46.2532 12.6103L48.0843 16.8297C49.1179 16.3811 50.0218 15.7075 50.6863 14.768L46.9312 12.112ZM46.2871 12.596C45.914 12.7508 45.4043 12.8603 44.7088 12.8603V17.4597C45.8799 17.4597 47.0101 17.2758 48.0504 16.844L46.2871 12.596ZM44.7088 12.8603H42.4088V17.4597H44.7088V12.8603Z" fill="url(#paint1_linear_694_1231)" mask="url(#path-1-inside-1_694_1231)"/>
<defs>
<filter id="filter0_i_694_1231" x="0.23999" y="0.839966" width="49.1687" height="23.519" filterUnits="userSpaceOnUse" color-interpolation-filters="sRGB">
<feFlood flood-opacity="0" result="BackgroundImageFix"/>
<feBlend mode="normal" in="SourceGraphic" in2="BackgroundImageFix" result="shape"/>
<feColorMatrix in="SourceAlpha" type="matrix" values="0 0 0 0 0 0 0 0 0 0 0 0 0 0 0 0 0 0 127 0" result="hardAlpha"/>
<feOffset dy="9.19895"/>
<feGaussianBlur stdDeviation="6.89921"/>
<feComposite in2="hardAlpha" operator="arithmetic" k2="-1" k3="1"/>
<feColorMatrix type="matrix" values="0 0 0 0 1 0 0 0 0 1 0 0 0 0 1 0 0 0 0.6 0"/>
<feBlend mode="normal" in2="shape" result="effect1_innerShadow_694_1231"/>
</filter>
<linearGradient id="paint0_linear_694_1231" x1="41.6208" y1="-2.125" x2="32.1964" y2="27.7693" gradientUnits="userSpaceOnUse">
<stop stop-color="#FDFFFE"/>
<stop offset="0.23" stop-color="#7ABBAC"/>
<stop offset="0.39" stop-color="#B1FFEF"/>
<stop offset="0.535" stop-color="#8AD2C3"/>
<stop offset="0.745" stop-color="#CFFEF4"/>
<stop offset="0.915" stop-color="#6CA196"/>
<stop offset="1" stop-color="#35544E"/>
</linearGradient>
<linearGradient id="paint1_linear_694_1231" x1="25.5" y1="-3" x2="25.5" y2="14.9375" gradientUnits="userSpaceOnUse">
<stop stop-color="white" stop-opacity="0.53"/>
<stop offset="1" stop-color="white" stop-opacity="0"/>
</linearGradient>
</defs>
</svg>
